<?xml version="1.0" encoding="UTF-8"?>
<svg version="1.1" xmlns="http://www.w3.org/2000/svg" width="225" height="225">
<path d="M0 0 C74.25 0 148.5 0 225 0 C225 74.25 225 148.5 225 225 C150.75 225 76.5 225 0 225 C0 150.75 0 76.5 0 0 Z " fill="#691B99" transform="translate(0,0)"/>
<path d="M0 0 C2.14775998 1.65461464 3.91768967 3.23372465 5.80004883 5.15307617 C6.35673248 5.70099823 6.91341614 6.24892029 7.48696899 6.81344604 C9.32310045 8.62757615 11.14034316 10.45938303 12.95703125 12.29296875 C14.2271083 13.55967792 15.49792682 14.82564405 16.76945496 16.09089661 C19.43125967 18.74532893 22.08380853 21.40859702 24.73022461 24.07836914 C28.12424242 27.50087392 31.54021251 30.90044214 34.96342945 34.29371166 C37.59156786 36.90378762 40.20768679 39.52564945 42.82031822 42.1512394 C44.07536424 43.40962229 45.33413915 44.66429746 46.59665871 45.91518211 C48.35912888 47.66496194 50.10478724 49.42995679 51.84692383 51.19995117 C52.3720607 51.71496689 52.89719757 52.2299826 53.43824768 52.76060486 C55.52683822 54.91153341 56.88966998 56.57112933 57.6431427 59.5 C56.70733644 63.13763074 54.46523935 65.24010179 51.86279297 67.80004883 C51.3164772 68.35673248 50.77016144 68.91341614 50.20729065 69.48696899 C48.39812377 71.32323594 46.5711575 73.14050296 44.7421875 74.95703125 C43.47794547 76.22718086 42.21437412 77.49799836 40.95144653 78.76945496 C38.30137343 81.43141429 35.64220472 84.08385917 32.9765625 86.73022461 C29.5613359 90.12257117 26.17155465 93.53911441 22.78841972 96.96342945 C20.18421906 99.59320533 17.56609185 102.20875586 14.94363785 104.82031822 C13.68798341 106.07448544 12.43690947 107.333256 11.19054794 108.59665871 C9.44560378 110.3615643 7.68259773 112.10619944 5.91357422 113.84692383 C5.14644356 114.63462914 5.14644356 114.63462914 4.36381531 115.43824768 C1.81375459 117.90742553 0.31320377 118.95684423 -3.24459839 119.44706726 C-6 119 -6 119 -8 117 C-8.17488254 114.56255103 -8.23177405 112.2406392 -8.1953125 109.8046875 C-8.1924826 109.09724396 -8.18965271 108.38980042 -8.18673706 107.66091919 C-8.17553137 105.3987749 -8.15042679 103.13702485 -8.125 100.875 C-8.11497067 99.34245363 -8.10584474 97.80990106 -8.09765625 96.27734375 C-8.07559086 92.51807699 -8.04105896 88.75910536 -8 85 C-8.8703035 85.00444122 -9.74060699 85.00888245 -10.63728333 85.01345825 C-18.8332292 85.05350811 -27.02914228 85.08397072 -35.22516346 85.10362434 C-39.43896975 85.11406808 -43.65269527 85.12823799 -47.86645508 85.15087891 C-51.93185407 85.17258633 -55.99717532 85.18456419 -60.06262779 85.18975449 C-61.61479606 85.19345403 -63.16696 85.20067819 -64.71909523 85.21146011 C-66.89070506 85.22594726 -69.06199231 85.22797913 -71.23364258 85.22705078 C-72.47052322 85.231492 -73.70740387 85.23593323 -74.98176575 85.24050903 C-78 85 -78 85 -81 83 C-81.3742218 81.02661133 -81.3742218 81.02661133 -81.37231445 78.58203125 C-81.37854324 77.66768311 -81.38477203 76.75333496 -81.39118958 75.8112793 C-81.38197983 74.82168213 -81.37277008 73.83208496 -81.36328125 72.8125 C-81.36377975 71.79905518 -81.36427826 70.78561035 -81.36479187 69.74145508 C-81.36244864 67.59617149 -81.35270556 65.45088529 -81.33618164 63.30566406 C-81.31259616 60.013423 -81.31561799 56.7219915 -81.32226562 53.4296875 C-81.31668894 51.34895348 -81.30957912 49.26822289 -81.30078125 47.1875 C-81.30169266 46.19790283 -81.30260406 45.20830566 -81.30354309 44.1887207 C-81.29401108 43.27437256 -81.28447906 42.36002441 -81.2746582 41.41796875 C-81.27005081 40.61125732 -81.26544342 39.8045459 -81.26069641 38.97338867 C-81 37 -81 37 -79 35 C-76.0640564 34.75949097 -76.0640564 34.75949097 -72.25537109 34.77294922 C-71.56257553 34.77265717 -70.86977997 34.77236511 -70.1559906 34.77206421 C-67.86167966 34.77345969 -65.56769184 34.78903081 -63.2734375 34.8046875 C-61.68446022 34.80841686 -60.09548064 34.8112642 -58.50650024 34.81326294 C-54.32085846 34.82090547 -50.1353551 34.84055919 -45.94976807 34.8626709 C-41.68007276 34.88311604 -37.41035513 34.8922618 -33.140625 34.90234375 C-24.76035309 34.92380457 -16.38019375 34.95794789 -8 35 C-8.01571045 34.01080566 -8.0314209 33.02161133 -8.04760742 32.00244141 C-8.1018346 28.33862423 -8.13632336 24.67484263 -8.16479492 21.01074219 C-8.17989814 19.42376749 -8.20038223 17.83683463 -8.22631836 16.25 C-8.26263595 13.97124927 -8.27971023 11.69304942 -8.29296875 9.4140625 C-8.30845261 8.70255035 -8.32393646 7.99103821 -8.33988953 7.25796509 C-8.34057617 5.25634766 -8.34057617 5.25634766 -8 2 C-4.70618215 -0.19587857 -3.82091304 -0.63858063 0 0 Z " fill="#FDFCFD" transform="translate(125,53)"/>
<path d="M0 0 C74.25 0 148.5 0 225 0 C225 33.66 225 67.32 225 102 C224.67 102 224.34 102 224 102 C223.90203125 101.23558594 223.8040625 100.47117187 223.703125 99.68359375 C220.07528212 73.69447793 210.1202579 52.97220493 192 34 C191.40058594 33.32582031 190.80117187 32.65164062 190.18359375 31.95703125 C177.45918505 18.18828663 157.93835733 8.71202624 140 4 C139.34306152 3.82484863 138.68612305 3.64969727 138.00927734 3.46923828 C129.91179904 1.56344925 121.76841342 1.60271893 113.5 1.625 C112.36599258 1.62581573 112.36599258 1.62581573 111.20907593 1.62664795 C99.69861837 1.66476255 88.97975608 2.33626492 78 6 C77.36723145 6.20367188 76.73446289 6.40734375 76.08251953 6.6171875 C49.48509615 15.37265123 27.14000534 35.55037281 13.58984375 59.78125 C6.90163038 73.32200631 1.71191565 88.87179235 1 104 C0.67 104 0.34 104 0 104 C0 69.68 0 35.36 0 0 Z " fill="#F3F2F3" transform="translate(0,0)"/>
<path d="M0 0 C0.33 0 0.66 0 1 0 C1.07476562 0.76699219 1.14953125 1.53398438 1.2265625 2.32421875 C4.88702268 33.22280912 18.45025009 60.50600842 42.65332031 80.35595703 C55.12061111 90.00425907 68.94092704 96.62112063 84 101 C84.78117187 101.23460937 85.56234375 101.46921875 86.3671875 101.7109375 C91.49947774 103.13313841 96.71035586 103.58810148 102 104 C102 104.33 102 104.66 102 105 C68.34 105 34.68 105 0 105 C0 70.35 0 35.7 0 0 Z " fill="#F1F0F1" transform="translate(0,120)"/>
<path d="M0 0 C0.33 0 0.66 0 1 0 C1 33.66 1 67.32 1 102 C-32.66 102 -66.32 102 -101 102 C-101 101.67 -101 101.34 -101 101 C-99.9584375 100.84144531 -98.916875 100.68289062 -97.84375 100.51953125 C-76.0924323 97.05478757 -55.62666715 90.04743174 -39 75 C-38.19820312 74.33871094 -37.39640625 73.67742187 -36.5703125 72.99609375 C-15.87412101 55.49137104 -2.42699306 28.79762383 -0.13525391 1.8425293 C-0.06830322 0.93047729 -0.06830322 0.93047729 0 0 Z " fill="#F7F7F7" transform="translate(224,123)"/>
<path d="M0 0 C34.65 0 69.3 0 105 0 C105.495 5.445 105.495 5.445 106 11 C106.99 11.495 106.99 11.495 108 12 C107.67 12.66 107.34 13.32 107 14 C102.96634675 12.70325518 99.07944241 11.23494112 95.1875 9.5625 C81.23409073 3.71273533 68.5893697 1.58433836 53.5 1.625 C52.36599258 1.62581573 52.36599258 1.62581573 51.20907593 1.62664795 C31.27467162 1.69265678 14.79215114 5.9152198 -3 15 C-3 13 -3 13 -1 11 C0.67082039 8.03103721 0.67082039 8.03103721 0 0 Z " fill="#EEEEED" transform="translate(60,0)"/>
<path d="M0 0 C4.95 0 9.9 0 15 0 C15 4.95 15 9.9 15 15 C10.38 15.33 5.76 15.66 1 16 C1 20.62 1 25.24 1 30 C-3.95 30.33 -8.9 30.66 -14 31 C-14 31.99 -14 32.98 -14 34 C-13.34 34.33 -12.68 34.66 -12 35 C-10.875 37.0625 -10.875 37.0625 -10 39 C-13 39 -13 39 -14.82421875 37.46875 C-15.43910156 36.8190625 -16.05398437 36.169375 -16.6875 35.5 C-17.31011719 34.8503125 -17.93273437 34.200625 -18.57421875 33.53125 C-19.04472656 33.0259375 -19.51523438 32.520625 -20 32 C-19.67 31.34 -19.34 30.68 -19 30 C-17.68 30 -16.36 30 -15 30 C-15 25.38 -15 20.76 -15 16 C-10.73840618 13.86920309 -4.59236298 14.95497683 0 15 C0 10.05 0 5.1 0 0 Z " fill="#EDEDED" transform="translate(210,0)"/>
<path d="M0 0 C1.32 1.32 2.64 2.64 4 4 C2.35 4.66 0.7 5.32 -1 6 C-1.33 10.29 -1.66 14.58 -2 19 C-1.34 19.33 -0.68 19.66 0 20 C-0.66 20.66 -1.32 21.32 -2 22 C-2.66 21.34 -3.32 20.68 -4 20 C-8.01194366 19.72216457 -11.97447362 19.9143505 -16 20 C-16.33 24.62 -16.66 29.24 -17 34 C-21.95 34 -26.9 34 -32 34 C-32 29.05 -32 24.1 -32 19 C-27.05 19 -22.1 19 -17 19 C-17.020625 16.89625 -17.04125 14.7925 -17.0625 12.625 C-17.125 6.25 -17.125 6.25 -16 4 C-11.38 4 -6.76 4 -2 4 C-2 3.01 -2 2.02 -2 1 C-1.34 0.67 -0.68 0.34 0 0 Z " fill="#EDEDED" transform="translate(32,191)"/>
<path d="M0 0 C0.33 0 0.66 0 1 0 C1.33 15.84 1.66 31.68 2 48 C25.43 48 48.86 48 73 48 C73 57.57 73 67.14 73 77 C72.67 77 72.34 77 72 77 C72 68.75 72 60.5 72 52 C71.34 52 70.68 52 70 52 C70 51.34 70 50.68 70 50 C47.23 50 24.46 50 1 50 C0.67 50.66 0.34 51.32 0 52 C0 51.34 0 50.68 0 50 C-0.99 50 -1.98 50 -3 50 C-2.67 49.34 -2.34 48.68 -2 48 C-2 47.01 -2 46.02 -2 45 C-2 44.01 -2 43.02 -2 42 C-1.34 42 -0.68 42 0 42 C0 28.14 0 14.28 0 0 Z " fill="#74299F" transform="translate(43,91)"/>
<path d="M0 0 C1.1859375 0.00257812 2.371875 0.00515625 3.59375 0.0078125 C4.7796875 0.00523438 5.965625 0.00265625 7.1875 0 C10.09375 0.1328125 10.09375 0.1328125 11.09375 1.1328125 C11.32902773 3.48268512 11.50761417 5.83837289 11.65625 8.1953125 C11.74003906 9.48566406 11.82382812 10.77601562 11.91015625 12.10546875 C11.97074219 13.10449219 12.03132813 14.10351562 12.09375 15.1328125 C13.41375 15.4628125 14.73375 15.7928125 16.09375 16.1328125 C14.77375 17.4528125 13.45375 18.7728125 12.09375 20.1328125 C11.76375 18.8128125 11.43375 17.4928125 11.09375 16.1328125 C10.09472656 16.07222656 9.09570312 16.01164062 8.06640625 15.94921875 C6.77605469 15.86542969 5.48570313 15.78164063 4.15625 15.6953125 C2.22458984 15.57349609 2.22458984 15.57349609 0.25390625 15.44921875 C-2.90625 15.1328125 -2.90625 15.1328125 -3.90625 14.1328125 C-4.0051794 11.96800453 -4.035961 9.79987465 -4.03125 7.6328125 C-4.03382812 6.446875 -4.03640625 5.2609375 -4.0390625 4.0390625 C-3.8625482 0.1765143 -3.8625482 0.1765143 0 0 Z " fill="#ECECEC" transform="translate(18.90625,14.8671875)"/>
<path d="M0 0 C0.33 0 0.66 0 1 0 C1.07476562 0.76699219 1.14953125 1.53398438 1.2265625 2.32421875 C2.13965858 10.0318239 3.74510378 17.29536325 5.875 24.75 C6.11943848 25.61197998 6.36387695 26.47395996 6.61572266 27.36206055 C8.19174405 32.73067145 10.10980361 37.73169214 12.52783203 42.78222656 C13 45 13 45 11.60107422 47.28808594 C11.07271973 47.85301758 10.54436523 48.41794922 10 49 C9.505 47.515 9.505 47.515 9 46 C6.03 45.67 3.06 45.34 0 45 C0 30.15 0 15.3 0 0 Z " fill="#EEEAF0" transform="translate(0,120)"/>
<path d="M0 0 C0.66 0.66 1.32 1.32 2 2 C1.62488281 2.69222656 1.24976563 3.38445313 0.86328125 4.09765625 C-6.40358476 17.99073257 -10.7594724 32.36282312 -12 48 C-12.33 48 -12.66 48 -13 48 C-13 33.48 -13 18.96 -13 4 C-9.7 3.67 -6.4 3.34 -3 3 C-2.01 2.67 -1.02 2.34 0 2 C0 1.34 0 0.68 0 0 Z " fill="#EDEBED" transform="translate(13,56)"/>
<path d="M0 0 C0.33 1.65 0.66 3.3 1 5 C4.3 5.33 7.6 5.66 11 6 C11 19.86 11 33.72 11 48 C10.67 48 10.34 48 10 48 C9.90203125 47.23558594 9.8040625 46.47117188 9.703125 45.68359375 C7.52161308 30.05569368 3.04746293 16.98203744 -4 3 C-4.33 2.34 -4.66 1.68 -5 1 C-2 0 -2 0 0 0 Z " fill="#EDEAEC" transform="translate(214,54)"/>
<path d="M0 0 C5.28 0 10.56 0 16 0 C15.67 4.95 15.34 9.9 15 15 C10.05 15 5.1 15 0 15 C0 10.05 0 5.1 0 0 Z " fill="#FEFEFE" transform="translate(0,195)"/>
<path d="M0 0 C4.95 0 9.9 0 15 0 C15.33 4.95 15.66 9.9 16 15 C10.72 15 5.44 15 0 15 C0 10.05 0 5.1 0 0 Z " fill="#FEFEFE" transform="translate(0,15)"/>
<path d="M0 0 C4.95 0 9.9 0 15 0 C15 4.95 15 9.9 15 15 C10.05 15.33 5.1 15.66 0 16 C0 10.72 0 5.44 0 0 Z " fill="#FEFEFE" transform="translate(195,0)"/>
<path d="M0 0 C4.95 0 9.9 0 15 0 C15 4.95 15 9.9 15 15 C10.05 15 5.1 15 0 15 C0 10.05 0 5.1 0 0 Z " fill="#EDEDED" transform="translate(0,0)"/>
<path d="M0 0 C4.62 0 9.24 0 14 0 C14 4.95 14 9.9 14 15 C9.05 15 4.1 15 -1 15 C-1.125 2.25 -1.125 2.25 0 0 Z " fill="#EDEDED" transform="translate(211,210)"/>
<path d="M0 0 C4.98046875 0.09765625 4.98046875 0.09765625 9.9609375 0.1953125 C9.9609375 5.1453125 9.9609375 10.0953125 9.9609375 15.1953125 C5.0109375 15.1953125 0.0609375 15.1953125 -5.0390625 15.1953125 C-5.234375 5.234375 -5.234375 5.234375 -5.0390625 2.1953125 C-3.0390625 0.1953125 -3.0390625 0.1953125 0 0 Z " fill="#FEFEFE" transform="translate(215.0390625,194.8046875)"/>
<path d="M0 0 C1.08152344 -0.01417969 2.16304687 -0.02835938 3.27734375 -0.04296875 C6.0625 0.1875 6.0625 0.1875 8.0625 2.1875 C8.34167421 6.53145071 8.14792138 10.83100967 8.0625 15.1875 C3.1125 15.1875 -1.8375 15.1875 -6.9375 15.1875 C-7.03515625 4.34765625 -7.03515625 4.34765625 -6.9375 1.1875 C-5.13003866 -0.61996134 -2.43304219 0.01446517 0 0 Z " fill="#FEFEFE" transform="translate(21.9375,209.8125)"/>
<path d="M0 0 C3.61328125 0.03255208 7.2265625 0.06510417 10.83984375 0.09765625 C10.83984375 5.04765625 10.83984375 9.99765625 10.83984375 15.09765625 C0.87890625 15.29296875 0.87890625 15.29296875 -2.16015625 15.09765625 C-4.16015625 13.09765625 -4.16015625 13.09765625 -4.390625 10.3125 C-4.37644531 9.23097656 -4.36226562 8.14945313 -4.34765625 7.03515625 C-4.34121094 5.95105469 -4.33476562 4.86695313 -4.328125 3.75 C-4.08425862 -0.10082021 -3.93349737 0.12155431 0 0 Z " fill="#FEFEFE" transform="translate(214.16015625,14.90234375)"/>
<path d="M0 0 C4.62 0 9.24 0 14 0 C16.0589364 4.1178728 15 10.46812297 15 15 C10.05 15 5.1 15 0 15 C0 10.05 0 5.1 0 0 Z " fill="#EDEDED" transform="translate(180,210)"/>
<path d="M0 0 C4.95 0 9.9 0 15 0 C16.25 9.625 16.25 9.625 14 13 C13.34 13 12.68 13 12 13 C12 13.66 12 14.32 12 15 C8.04 15 4.08 15 0 15 C0 10.05 0 5.1 0 0 Z " fill="#FDFDFD" transform="translate(45,0)"/>
<path d="M0 0 C0 3.63 0 7.26 0 11 C-13.86 11 -27.72 11 -42 11 C-42 10.67 -42 10.34 -42 10 C-40.9584375 9.84144531 -39.916875 9.68289062 -38.84375 9.51953125 C-31.18204142 8.29466659 -23.72312753 6.82547036 -16.3125 4.5 C-15.66667969 4.29866455 -15.02085937 4.0973291 -14.35546875 3.88989258 C-11.31276982 2.89807139 -8.56775378 1.77277379 -5.73046875 0.28125 C-3 -1 -3 -1 0 0 Z " fill="#EFEBEF" transform="translate(165,214)"/>
<path d="M0 0 C0.54301758 0.2266333 1.08603516 0.4532666 1.64550781 0.68676758 C14.9478087 6.20781354 27.4883043 11.06893988 42 12 C42 12.33 42 12.66 42 13 C28.14 13 14.28 13 0 13 C-0.33 9.04 -0.66 5.08 -1 1 C-0.67 0.67 -0.34 0.34 0 0 Z " fill="#EEEBED" transform="translate(60,212)"/>
<path d="M0 0 C9.57 0 19.14 0 29 0 C29 0.99 29 1.98 29 3 C27.45892578 3.45439453 27.45892578 3.45439453 25.88671875 3.91796875 C18.46407401 6.14736598 11.328899 8.50398112 4.33203125 11.88671875 C1.92482726 13.03588648 -0.51464295 14.03322701 -3 15 C-3 13 -3 13 -1 11 C0.67082039 8.03103721 0.67082039 8.03103721 0 0 Z " fill="#ECEBED" transform="translate(60,0)"/>
<path d="M0 0 C0.33 0 0.66 0 1 0 C1 13.86 1 27.72 1 42 C-3.95 42.495 -3.95 42.495 -9 43 C-9.66 41.68 -10.32 40.36 -11 39 C-10.10308235 37.07235879 -9.18751396 35.15029047 -8.16162109 33.28808594 C-6.11786405 29.26242578 -5.02178488 24.95957956 -3.8125 20.625 C-3.55275391 19.74328125 -3.29300781 18.8615625 -3.02539062 17.953125 C-1.33096924 11.98105584 -0.40919837 6.19214635 0 0 Z " fill="#EDEBEE" transform="translate(224,123)"/>
<path d="M0 0 C4.95 0 9.9 0 15 0 C15.48828125 9.08203125 15.48828125 9.08203125 15 12 C10.3196379 16.01173895 5.85528633 15.23421145 0 15 C0 10.05 0 5.1 0 0 Z " fill="#FDFDFD" transform="translate(0,45)"/>
<path d="M0 0 C4.95 0 9.9 0 15 0 C15 5.28 15 10.56 15 16 C10.71 15.67 6.42 15.34 2 15 C1.67 13.68 1.34 12.36 1 11 C0.67 10.34 0.34 9.68 0 9 C-0.13559318 5.99525503 -0.04299016 3.00931153 0 0 Z " fill="#FDFDFD" transform="translate(165,0)"/>
<path d="M0 0 C4.95 0 9.9 0 15 0 C15 4.95 15 9.9 15 15 C11.37 15 7.74 15 4 15 C4 13.02 4 11.04 4 9 C3.34 9 2.68 9 2 9 C1.67 9.66 1.34 10.32 1 11 C0.34 10.67 -0.32 10.34 -1 10 C-0.835 9.46375 -0.67 8.9275 -0.5 8.375 C0.20601048 5.42596038 0.20601048 5.42596038 0 0 Z " fill="#FDFDFD" transform="translate(210,45)"/>
<path d="M0 0 C6.8359375 -0.1953125 6.8359375 -0.1953125 9 0 C9.66 0.66 10.32 1.32 11 2 C11.66 1.34 12.32 0.68 13 0 C12.34 2.97 11.68 5.94 11 9 C12.32 9 13.64 9 15 9 C15 10.98 15 12.96 15 15 C10.05 15 5.1 15 0 15 C0 10.05 0 5.1 0 0 Z " fill="#FDFDFE" transform="translate(0,165)"/>
<path d="M0 0 C2.5625 0.1875 2.5625 0.1875 4.5625 2.1875 C6.33674219 3.65208672 8.11790947 5.10734411 9.90625 6.5546875 C11.68175301 8.30506547 12.57775223 9.91273266 13.5625 12.1875 C12.9025 12.1875 12.2425 12.1875 11.5625 12.1875 C11.5625 13.1775 11.5625 14.1675 11.5625 15.1875 C9.25006208 15.21435412 6.9375373 15.23382841 4.625 15.25 C3.33722656 15.26160156 2.04945312 15.27320313 0.72265625 15.28515625 C-2.4375 15.1875 -2.4375 15.1875 -3.4375 14.1875 C-3.5364294 12.02269203 -3.567211 9.85456215 -3.5625 7.6875 C-3.56507812 6.5015625 -3.56765625 5.315625 -3.5703125 4.09375 C-3.39516757 0.26116674 -3.39516757 0.26116674 0 0 Z " fill="#FBFAFB" transform="translate(18.4375,179.8125)"/>
<path d="M0 0 C2.18359375 0.04296875 2.18359375 0.04296875 5.62109375 0.73046875 C5.62109375 5.35046875 5.62109375 9.97046875 5.62109375 14.73046875 C2.73693492 16.17254816 0.20387847 15.82441762 -3.00390625 15.79296875 C-4.19242188 15.78394531 -5.3809375 15.77492187 -6.60546875 15.765625 C-7.52070313 15.75402344 -8.4359375 15.74242187 -9.37890625 15.73046875 C-9.37890625 14.74046875 -9.37890625 13.75046875 -9.37890625 12.73046875 C-10.03890625 12.40046875 -10.69890625 12.07046875 -11.37890625 11.73046875 C-4.01747127 1.23360776 -4.01747127 1.23360776 0 0 Z " fill="#FBFAFB" transform="translate(204.37890625,179.26953125)"/>
<path d="M0 0 C1.9587043 0.14076315 3.91696093 0.2877676 5.875 0.4375 C7.51082031 0.55931641 7.51082031 0.55931641 9.1796875 0.68359375 C12 1 12 1 14 2 C13.67558396 3.66842534 13.34060811 5.33480481 13 7 C12.89042969 7.64839844 12.78085937 8.29679687 12.66796875 8.96484375 C11.43365961 12.72551662 8.29299787 14.97834941 5 17 C2.125 17 2.125 17 0 16 C-1.36538938 13.26922124 -1.13231826 11.04439633 -1.125 8 C-1.12757812 6.9275 -1.13015625 5.855 -1.1328125 4.75 C-1 2 -1 2 0 0 Z " fill="#FDFCFD" transform="translate(31,14)"/>
<path d="M0 0 C1.08410156 0.00257812 2.16820312 0.00515625 3.28515625 0.0078125 C4.90744141 0.00394531 4.90744141 0.00394531 6.5625 0 C9.34765625 0.1328125 9.34765625 0.1328125 11.34765625 1.1328125 C12.09765625 3.5703125 12.09765625 3.5703125 12.34765625 6.1328125 C11.68765625 6.7928125 11.02765625 7.4528125 10.34765625 8.1328125 C9.02765625 8.1328125 7.70765625 8.1328125 6.34765625 8.1328125 C6.34765625 9.1228125 6.34765625 10.1128125 6.34765625 11.1328125 C4.66015625 13.3203125 4.66015625 13.3203125 2.34765625 15.1328125 C-0.40234375 15.3828125 -0.40234375 15.3828125 -2.65234375 15.1328125 C-4.02487106 12.38775787 -3.7846363 10.12953838 -3.77734375 7.0703125 C-3.77992187 5.98621094 -3.7825 4.90210938 -3.78515625 3.78515625 C-3.60651933 0.21767182 -3.56748443 0.17863692 0 0 Z " fill="#FCFCFC" transform="translate(18.65234375,29.8671875)"/>
<path d="M0 0 C2.93801039 1.37719237 4.24778892 3.24660441 6 5.9375 C6 7.2575 6 8.5775 6 9.9375 C6.99 10.2675 7.98 10.5975 9 10.9375 C9 12.2575 9 13.5775 9 14.9375 C4.05 14.9375 -0.9 14.9375 -6 14.9375 C-6 10.6475 -6 6.3575 -6 1.9375 C-2 -0.0625 -2 -0.0625 0 0 Z " fill="#FCFBFC" transform="translate(36,195.0625)"/>
<path d="M0 0 C20.13 0 40.26 0 61 0 C60 4 60 4 59 5 C55.5937113 4.69033739 52.29490087 4.3178818 48.97119141 3.50195312 C41.39682871 1.65115785 33.84548305 1.73016704 26.10375977 1.79418945 C23.80669104 1.81254642 21.51002545 1.81469779 19.21289062 1.81445312 C17.73176739 1.81936669 16.25064685 1.8251943 14.76953125 1.83203125 C13.75521782 1.83370049 13.75521782 1.83370049 12.72041321 1.83540344 C8.38013616 1.87814203 4.27221794 2.30624468 0 3 C0 2.01 0 1.02 0 0 Z " fill="#E5D2EB" transform="translate(89,0)"/>
<path d="M0 0 C32.83621838 -0.86551265 32.83621838 -0.86551265 45 4 C45.66 4.66 46.32 5.32 47 6 C45.0509375 5.7215625 45.0509375 5.7215625 43.0625 5.4375 C40.91424457 5.1018371 40.91424457 5.1018371 39 5 C38.67 5.33 38.34 5.66 38 6 C36.58429877 6.08651611 35.164405 6.10704904 33.74609375 6.09765625 C32.89208984 6.09443359 32.03808594 6.09121094 31.15820312 6.08789062 C30.26037109 6.07951172 29.36253906 6.07113281 28.4375 6.0625 C27.53580078 6.05798828 26.63410156 6.05347656 25.70507812 6.04882812 C23.46998686 6.03700225 21.23502563 6.0205222 19 6 C19 5.34 19 4.68 19 4 C22.3 3.67 25.6 3.34 29 3 C25.20731256 2.10430998 21.76569183 1.92352448 17.875 2 C11.85588505 2.05490641 5.97838105 1.67092052 0 1 C0 0.67 0 0.34 0 0 Z " fill="#5D168A" transform="translate(101,1)"/>
<path d="M0 0 C2 3 2 3 2 6 C2.66 6 3.32 6 4 6 C4 14.91 4 23.82 4 33 C3.67 33 3.34 33 3 33 C2.89042969 32.20078125 2.78085938 31.4015625 2.66796875 30.578125 C1.67824239 23.7224595 0.37402424 17.12806675 -1.51171875 10.4609375 C-2 8 -2 8 -1 5 C-0.65179959 3.33637583 -0.31595508 1.67004829 0 0 Z " fill="#F9F6FA" transform="translate(221,69)"/>
<path d="M0 0 C2.475 0.495 2.475 0.495 5 1 C4.56509483 5.56650427 4.06790188 9.97462647 3 14.4375 C1.85983899 19.25340397 1.39083244 24.07345422 1 29 C0.67 29 0.34 29 0 29 C0 19.43 0 9.86 0 0 Z " fill="#F7F1F7" transform="translate(0,75)"/>
<path d="M0 0 C4.39708655 0.49966893 8.53156368 1.3676233 12.8125 2.5 C18.20220586 3.89330353 23.45098749 4.64397929 29 5 C29 5.33 29 5.66 29 6 C20.09 6 11.18 6 2 6 C1.34 4.02 0.68 2.04 0 0 Z " fill="#FBF9FA" transform="translate(73,219)"/>
<path d="M0 0 C0.66 0.33 1.32 0.66 2 1 C-1.31811462 3.02627948 -4.65382763 5.02043256 -8 7 C-9.0725 7.639375 -10.145 8.27875 -11.25 8.9375 C-14.58524962 10.22611917 -16.58371338 9.89474173 -20 9 C-19.01 8.67 -18.02 8.34 -17 8 C-17 7.34 -17 6.68 -17 6 C-17.66 5.67 -18.32 5.34 -19 5 C-19.33 5.66 -19.66 6.32 -20 7 C-20 6.01 -20 5.02 -20 4 C-18.37512529 3.83211627 -16.75009558 3.66573213 -15.125 3.5 C-13.76761719 3.36078125 -13.76761719 3.36078125 -12.3828125 3.21875 C-10 3 -10 3 -8 3 C-5.23879131 2.13712228 -2.58966816 1.29483408 0 0 Z " fill="#61178E" transform="translate(172,206)"/>
<path d="M0 0 C0 0.99 0 1.98 0 3 C-33.165 2.505 -33.165 2.505 -67 2 C-67 1.67 -67 1.34 -67 1 C-58.55959662 0.86943556 -50.11919071 0.73903601 -41.67878151 0.60884857 C-37.75981141 0.54839597 -33.84084221 0.48788598 -29.921875 0.42724609 C-26.14178037 0.36875714 -22.36168347 0.31041728 -18.58158493 0.25218201 C-17.13745415 0.22990764 -15.6933242 0.20757901 -14.2491951 0.18519592 C-12.23074815 0.15392043 -10.21229798 0.12285356 -8.19384766 0.09179688 C-7.04357086 0.07403198 -5.89329407 0.05626709 -4.7081604 0.03796387 C-3.13887677 0.01596514 -1.56943782 0 0 0 Z " fill="#5C1889" transform="translate(115,85)"/>
<path d="M0 0 C0.33 0.99 0.66 1.98 1 3 C3.01508358 3.73323796 3.01508358 3.73323796 5 4 C4.67 5.98 4.34 7.96 4 10 C2.22611914 8.90073597 0.45600316 7.79539498 -1.3125 6.6875 C-2.79169922 5.76517578 -2.79169922 5.76517578 -4.30078125 4.82421875 C-6.50172035 3.33675339 -8.23328988 1.9596614 -10 0 C-6.7169902 -1.6415049 -3.57454967 -0.51888624 0 0 Z " fill="#E8E3EB" transform="translate(179,15)"/>
<path d="M0 0 C4.62 0 9.24 0 14 0 C14 0.99 14 1.98 14 3 C12.23050388 3.50471197 10.45934777 4.00360685 8.6875 4.5 C7.20830078 4.91765625 7.20830078 4.91765625 5.69921875 5.34375 C3 6 3 6 0 6 C0 4.02 0 2.04 0 0 Z " fill="#F8F6F9" transform="translate(75,0)"/>
<path d="M0 0 C0 2.31 0 4.62 0 7 C-2.31 7 -4.62 7 -7 7 C-7.33 8.32 -7.66 9.64 -8 11 C-10.64 10.67 -13.28 10.34 -16 10 C-12.8767628 7.5889499 -9.63999171 5.43161021 -6.3125 3.3125 C-4.85263672 2.37857422 -4.85263672 2.37857422 -3.36328125 1.42578125 C-1 0 -1 0 0 0 Z " fill="#ECE3EE" transform="translate(180,203)"/>
<path d="M0 0 C0.33 0 0.66 0 1 0 C1.11604679 3.4372166 1.18719508 6.87393086 1.25 10.3125 C1.30027344 11.77719727 1.30027344 11.77719727 1.3515625 13.27148438 C1.36445313 14.20927734 1.37734375 15.14707031 1.390625 16.11328125 C1.4220459 17.40939331 1.4220459 17.40939331 1.45410156 18.73168945 C1 21 1 21 -1.02441406 22.80541992 C-2.0023291 23.39673706 -2.0023291 23.39673706 -3 24 C-4.17905458 20.46283627 -3.71774937 19.4212652 -2.625 15.9375 C-1.07321164 10.62315631 -0.34687619 5.51413525 0 0 Z " fill="#EBE0EF" transform="translate(224,123)"/>
<path d="M0 0 C0.721875 0.825 1.44375 1.65 2.1875 2.5 C4.72917366 5.24407806 4.72917366 5.24407806 7.8125 5.3125 C8.8953125 5.1578125 8.8953125 5.1578125 10 5 C10.33 7.31 10.66 9.62 11 12 C10.01 12.66 9.02 13.32 8 14 C6.65804628 12.23569031 5.32668332 10.4633209 4 8.6875 C3.2575 7.70136719 2.515 6.71523438 1.75 5.69921875 C0 3 0 3 0 0 Z " fill="#EAE7E7" transform="translate(200,40)"/>
<path d="M0 0 C5.40135379 5.0836271 10.74711643 10.79077257 13 18 C11.02 16.35 9.04 14.7 7 13 C6.34 14.32 5.68 15.64 5 17 C4.375 15.1875 4.375 15.1875 4 13 C4.66 12.01 5.32 11.02 6 10 C6 9.34 6 8.68 6 8 C5.34 8 4.68 8 4 8 C0 2.58823529 0 2.58823529 0 0 Z " fill="#5E1A89" transform="translate(196,38)"/>
<path d="M0 0 C0 0.33 0 0.66 0 1 C3.3 1.33 6.6 1.66 10 2 C10.33 2.99 10.66 3.98 11 5 C7.37 4.34 3.74 3.68 0 3 C0 3.66 0 4.32 0 5 C-1.65 5 -3.3 5 -5 5 C-5 4.34 -5 3.68 -5 3 C-5.99 2.34 -6.98 1.68 -8 1 C-5.07175348 0.02391783 -3.04386724 -0.08226668 0 0 Z " fill="#61158F" transform="translate(96,2)"/>
<path d="M0 0 C0 3 0 3 -1.5 4.6875 C-1.995 5.120625 -2.49 5.55375 -3 6 C-2.67 6.66 -2.34 7.32 -2 8 C-2.66 8 -3.32 8 -4 8 C-4 8.66 -4 9.32 -4 10 C-4.66 10 -5.32 10 -6 10 C-6.66 11.32 -7.32 12.64 -8 14 C-8.99 13.67 -9.98 13.34 -11 13 C-8.36517737 7.73035473 -4.20056089 4.02096446 0 0 Z " fill="#672391" transform="translate(135,161)"/>
<path d="M0 0 C2.31 0.66 4.62 1.32 7 2 C6.34 2.66 5.68 3.32 5 4 C5.66 4.66 6.32 5.32 7 6 C2.17639811 6.19294408 -1.49646738 5.75747614 -6 4 C-5.38125 3.896875 -4.7625 3.79375 -4.125 3.6875 C-1.63473516 3.12474627 -1.63473516 3.12474627 0 0 Z " fill="#60198D" transform="translate(89,217)"/>
<path d="M0 0 C0.66 0 1.32 0 2 0 C2.66 0.99 3.32 1.98 4 3 C5.32 3 6.64 3 8 3 C8.66 3.66 9.32 4.32 10 5 C9.625 7.625 9.625 7.625 9 10 C7.86800647 9.0919838 6.74467637 8.17316174 5.625 7.25 C4.99851562 6.73953125 4.37203125 6.2290625 3.7265625 5.703125 C1.91687682 3.91800519 0.99882545 2.32050356 0 0 Z " fill="#5F158B" transform="translate(27,184)"/>
<path d="M0 0 C0.33 0 0.66 0 1 0 C1 3.3 1 6.6 1 10 C-1.31 10 -3.62 10 -6 10 C-5.02526874 8.33073546 -4.04510211 6.66464358 -3.0625 5 C-2.24458984 3.6078125 -2.24458984 3.6078125 -1.41015625 2.1875 C-0.71212891 1.1046875 -0.71212891 1.1046875 0 0 Z " fill="#EBE3ED" transform="translate(209,170)"/>
<path d="M0 0 C0.66 0.66 1.32 1.32 2 2 C-4.93 2 -11.86 2 -19 2 C-19 1.67 -19 1.34 -19 1 C-16.96044851 0.63384906 -14.91821752 0.28260721 -12.875 -0.0625 C-11.73804688 -0.25972656 -10.60109375 -0.45695313 -9.4296875 -0.66015625 C-5.98482124 -1.00150405 -3.34711722 -0.84890654 0 0 Z " fill="#E8D9ED" transform="translate(142,223)"/>
<path d="M0 0 C7.37653219 0.75015582 14.67831776 1.83441535 22 3 C22 3.33 22 3.66 22 4 C19.45767658 4.08152344 16.91800798 4.14073716 14.375 4.1875 C13.30572266 4.22520508 13.30572266 4.22520508 12.21484375 4.26367188 C7.37723584 4.33024446 4.25261662 3.55559453 0 1 C0 0.67 0 0.34 0 0 Z " fill="#EDDEF1" transform="translate(80,221)"/>
<path d="M0 0 C0.99 0.33 1.98 0.66 3 1 C3 1.66 3 2.32 3 3 C3.928125 2.814375 4.85625 2.62875 5.8125 2.4375 C9 2 9 2 12 3 C11.67 4.32 11.34 5.64 11 7 C7.04 5.68 3.08 4.36 -1 3 C-0.67 2.01 -0.34 1.02 0 0 Z " fill="#E5DCEC" transform="translate(147,3)"/>
<path d="M0 0 C0.33 0.66 0.66 1.32 1 2 C2.32 2 3.64 2 5 2 C5 2.66 5 3.32 5 4 C5.66 4.33 6.32 4.66 7 5 C8.125 7.0625 8.125 7.0625 9 9 C6 9 6 9 4.17578125 7.46875 C3.56089844 6.8190625 2.94601563 6.169375 2.3125 5.5 C1.68988281 4.8503125 1.06726563 4.200625 0.42578125 3.53125 C-0.04472656 3.0259375 -0.51523438 2.520625 -1 2 C-0.67 1.34 -0.34 0.68 0 0 Z " fill="#E9DDEF" transform="translate(191,30)"/>
<path d="M0 0 C1.5625 1.6875 1.5625 1.6875 3 4 C2.6875 6.75 2.6875 6.75 2 9 C0.68 9 -0.64 9 -2 9 C-1.51421457 5.87709365 -1.0013988 3.00419641 0 0 Z " fill="#F2EBF3" transform="translate(13,165)"/>
<path d="M0 0 C4 2 8 4 12 6 C12 6.99 12 7.98 12 9 C7.09198451 7.51272258 3.59508707 4.55364515 0 1 C0 0.67 0 0.34 0 0 Z " fill="#5C1D84" transform="translate(42,199)"/>
<path d="M0 0 C4.05281712 1.22527029 7.44360764 2.69880494 11 5 C8.64561267 6.42944945 7.51967567 7.08661261 4.75 6.625 C4.1725 6.41875 3.595 6.2125 3 6 C3 4.68 3 3.36 3 2 C2.01 1.67 1.02 1.34 0 1 C0 0.67 0 0.34 0 0 Z " fill="#591286" transform="translate(155,9)"/>
<path d="M0 0 C0 5.61 0 11.22 0 17 C-0.33 17 -0.66 17 -1 17 C-1.66 11.72 -2.32 6.44 -3 1 C-1 0 -1 0 0 0 Z " fill="#E9DBEF" transform="translate(225,85)"/>
<path d="M0 0 C2 1 2 1 3.125 4.1875 C3.91680237 7.63749602 4.1714979 10.484293 4 14 C3.01 13.34 2.02 12.68 1 12 C0.48828125 9.1796875 0.48828125 9.1796875 0.3125 5.875 C0.24675781 4.77929688 0.18101562 3.68359375 0.11328125 2.5546875 C0.05720703 1.29011719 0.05720703 1.29011719 0 0 Z " fill="#612089" transform="translate(218,76)"/>
<path d="M0 0 C2.0625 0.4375 2.0625 0.4375 4 1 C3.67 2.98 3.34 4.96 3 7 C1.35 6.01 -0.3 5.02 -2 4 C-1 1 -1 1 0 0 Z " fill="#F2ECF3" transform="translate(180,18)"/>
<path d="M0 0 C0 0.66 0 1.32 0 2 C0.66 2.33 1.32 2.66 2 3 C1.67 3.66 1.34 4.32 1 5 C-4.75 3.25 -4.75 3.25 -7 1 C-4 0 -4 0 0 0 Z " fill="#E4D6E6" transform="translate(166,9)"/>
<path d="M0 0 C1.32 1.32 2.64 2.64 4 4 C2.02 4.66 0.04 5.32 -2 6 C-2.66 5.34 -3.32 4.68 -4 4 C-3.34 4 -2.68 4 -2 4 C-2 3.01 -2 2.02 -2 1 C-1.34 0.67 -0.68 0.34 0 0 Z " fill="#E9E0EC" transform="translate(32,191)"/>
<path d="M0 0 C0 1.32 0 2.64 0 4 C-2 5.75 -2 5.75 -4 7 C-4.33 6.01 -4.66 5.02 -5 4 C-5.66 3.67 -6.32 3.34 -7 3 C-2.25 0 -2.25 0 0 0 Z " fill="#6F1FA0" transform="translate(35,35)"/>
<path d="M0 0 C1.9375 1.0625 1.9375 1.0625 4 3 C4.75 6.6875 4.75 6.6875 5 10 C4.01 10 3.02 10 2 10 C1.855625 8.906875 1.71125 7.81375 1.5625 6.6875 C1.11711896 3.06877013 1.11711896 3.06877013 0 0 Z " fill="#71239F" transform="translate(200,168)"/>
<path d="M0 0 C1.32 0.33 2.64 0.66 4 1 C4.33 2.98 4.66 4.96 5 7 C4.01 7.66 3.02 8.32 2 9 C1.34 6.03 0.68 3.06 0 0 Z " fill="#61198D" transform="translate(202,168)"/>
<path d="M0 0 C0.99 0.99 1.98 1.98 3 3 C0.03 5.475 0.03 5.475 -3 8 C-2.74438677 5.6568787 -2.40729228 3.32156597 -2 1 C-1.34 0.67 -0.68 0.34 0 0 Z " fill="#F6EEF8" transform="translate(147,144)"/>
<path d="M0 0 C0 1.98 0 3.96 0 6 C-1.65 6 -3.3 6 -5 6 C-4.6875 4.125 -4.6875 4.125 -4 2 C-1 0 -1 0 0 0 Z " fill="#FBFBFB" transform="translate(225,144)"/>
<path d="M0 0 C0.33 0 0.66 0 1 0 C1.35233161 5.37305699 1.35233161 5.37305699 1 8 C-1 10 -1 10 -3 11 C-3 8.03 -3 5.06 -3 2 C-2.67 3.32 -2.34 4.64 -2 6 C-1.34 6 -0.68 6 0 6 C0 4.02 0 2.04 0 0 Z " fill="#5E1387" transform="translate(4,98)"/>
<path d="M0 0 C1.1446875 0.2784375 1.1446875 0.2784375 2.3125 0.5625 C5.08967375 1.22819173 5.08967375 1.22819173 8 0 C8 0.99 8 1.98 8 3 C7.34 3 6.68 3 6 3 C5.67 3.99 5.34 4.98 5 6 C3.35 4.02 1.7 2.04 0 0 Z " fill="#EFE9F2" transform="translate(184,25)"/>
<path d="M0 0 C0.33 0.99 0.66 1.98 1 3 C1.99 3.33 2.98 3.66 4 4 C3.01 5.485 3.01 5.485 2 7 C0.35 6.67 -1.3 6.34 -3 6 C-2.67 5.01 -2.34 4.02 -2 3 C-1.34 3 -0.68 3 0 3 C0 2.01 0 1.02 0 0 Z " fill="#F6F3F8" transform="translate(34,24)"/>
<path d="M0 0 C2 2 2 2 2.1953125 4.1640625 C2.16050781 5.38222656 2.16050781 5.38222656 2.125 6.625 C2.10695313 7.44226563 2.08890625 8.25953125 2.0703125 9.1015625 C2.04710937 9.72804687 2.02390625 10.35453125 2 11 C-0.31309135 8.49415104 -0.97826344 7.27714111 -1.25 3.8125 C-1 1 -1 1 0 0 Z " fill="#6E259B" transform="translate(11,153)"/>
<path d="M0 0 C0.66 0.99 1.32 1.98 2 3 C1.34 4.32 0.68 5.64 0 7 C-0.66 7 -1.32 7 -2 7 C-2.33 7.99 -2.66 8.98 -3 10 C-3.33 9.01 -3.66 8.02 -4 7 C-2.625 4.4375 -2.625 4.4375 -1 2 C-0.67 1.34 -0.34 0.68 0 0 Z " fill="#E2DBE2" transform="translate(5,146)"/>
<path d="M0 0 C1.32 0.33 2.64 0.66 4 1 C4 1.66 4 2.32 4 3 C3.01 3 2.02 3 1 3 C0.34 4.98 -0.32 6.96 -1 9 C-2.0326802 6.21176345 -2.04509293 5.1322726 -1.0625 2.25 C-0.711875 1.5075 -0.36125 0.765 0 0 Z " fill="#621F8A" transform="translate(11,63)"/>
<path d="M0 0 C2 1.3125 2 1.3125 4 3 C4 3.99 4 4.98 4 6 C4.66 6 5.32 6 6 6 C6.33 7.65 6.66 9.3 7 11 C4.40216125 8.4917419 1.96307619 6.0427681 0 3 C0 2.01 0 1.02 0 0 Z " fill="#ECDCEF" transform="translate(200,40)"/>
<path d="M0 0 C0.99 0 1.98 0 3 0 C1.44499019 3.81684226 -1.03595495 6.19195732 -4 9 C-3.67 7.35 -3.34 5.7 -3 4 C-2.01 3.67 -1.02 3.34 0 3 C0 2.01 0 1.02 0 0 Z " fill="#E9DBF0" transform="translate(25,38)"/>
<path d="M0 0 C0.33 0.99 0.66 1.98 1 3 C-2.63 3 -6.26 3 -10 3 C-9 1 -9 1 -7.25 0.375 C-4.79549443 -0.03408426 -2.4840589 -0.06900164 0 0 Z " fill="#621E89" transform="translate(87,4)"/>
<path d="M0 0 C2.31 1.98 4.62 3.96 7 6 C4.50907189 7.24546405 3.58919267 6.7767578 1 6 C0.67 4.02 0.34 2.04 0 0 Z " fill="#E9DBEE" transform="translate(153,82)"/>
<path d="M0 0 C1.65 1.65 3.3 3.3 5 5 C3.35 5.33 1.7 5.66 0 6 C-0.38218767 4.34385343 -0.71395102 2.67542976 -1 1 C-0.67 0.67 -0.34 0.34 0 0 Z " fill="#ECE3F0" transform="translate(145,74)"/>
<path d="M0 0 C3.28788824 3.11016455 5.83735988 6.01618925 8 10 C7.34 10 6.68 10 6 10 C6 9.34 6 8.68 6 8 C5.34 8 4.68 8 4 8 C0 2.58823529 0 2.58823529 0 0 Z " fill="#591F80" transform="translate(196,38)"/>
<path d="M0 0 C0.99 0.33 1.98 0.66 3 1 C3 4.63 3 8.26 3 12 C2.67 12 2.34 12 2 12 C2 9.03 2 6.06 2 3 C0.68 2.34 -0.64 1.68 -2 1 C-1.34 0.67 -0.68 0.34 0 0 Z " fill="#E5E0EA" transform="translate(162,213)"/>
<path d="M0 0 C0 0.66 0 1.32 0 2 C-0.66 2 -1.32 2 -2 2 C-1.67 2.99 -1.34 3.98 -1 5 C-2.875 4.6875 -2.875 4.6875 -5 4 C-5.66 3.01 -6.32 2.02 -7 1 C-4.53721199 -0.231394 -2.7204945 -0.07159196 0 0 Z " fill="#5F168B" transform="translate(43,193)"/>
<path d="M0 0 C1.65 0 3.3 0 5 0 C3.90931332 3.77545388 3.0916909 6.47043472 0 9 C0.185625 8.071875 0.37125 7.14375 0.5625 6.1875 C1.24123881 2.98656229 1.24123881 2.98656229 0 0 Z " fill="#5B1884" transform="translate(209,160)"/>
<path d="M0 0 C0.99 0.99 1.98 1.98 3 3 C1.35 4.32 -0.3 5.64 -2 7 C-2.125 4.625 -2.125 4.625 -2 2 C-1.34 1.34 -0.68 0.68 0 0 Z " fill="#F7EFF9" transform="translate(163,128)"/>
<path d="M0 0 C0.99 0.33 1.98 0.66 3 1 C3.33 1.99 3.66 2.98 4 4 C4.66 4.33 5.32 4.66 6 5 C5.67 5.99 5.34 6.98 5 8 C3.02 5.69 1.04 3.38 -1 1 C-0.67 0.67 -0.34 0.34 0 0 Z " fill="#561282" transform="translate(170,96)"/>
<path d="M0 0 C1.65 1.65 3.3 3.3 5 5 C4.01 5.66 3.02 6.32 2 7 C0.4375 5.1875 0.4375 5.1875 -1 3 C-0.67 2.01 -0.34 1.02 0 0 Z " fill="#EBE0ED" transform="translate(129,58)"/>
<path d="M0 0 C0.33 1.65 0.66 3.3 1 5 C0.01 5.33 -0.98 5.66 -2 6 C-2.99 4.35 -3.98 2.7 -5 1 C-2 0 -2 0 0 0 Z " fill="#F3EFF5" transform="translate(214,54)"/>
<path d="M0 0 C1.37562854 1.28965176 2.70766393 2.62689293 4 4 C4 4.66 4 5.32 4 6 C3.01 6.33 2.02 6.66 1 7 C0.01 6.01 -0.98 5.02 -2 4 C-1.34 2.68 -0.68 1.36 0 0 Z " fill="#F0E9F5" transform="translate(212,164)"/>
<path d="M0 0 C0.33 0.99 0.66 1.98 1 3 C-2 5 -2 5 -5 5 C-5 4.01 -5 3.02 -5 2 C-2 0 -2 0 0 0 Z " fill="#F4F3F6" transform="translate(133,160)"/>
<path d="M0 0 C1.12377697 3.30435084 0.89554742 5.0506862 -0.4375 8.25 C-0.72496094 8.95640625 -1.01242188 9.6628125 -1.30859375 10.390625 C-1.53675781 10.92171875 -1.76492187 11.4528125 -2 12 C-2.66 10.68 -3.32 9.36 -4 8 C-3.34 7.67 -2.68 7.34 -2 7 C-1.26924352 4.6859378 -0.59861742 2.35171131 0 0 Z " fill="#5A1982" transform="translate(220,140)"/>
<path d="M0 0 C0.33 0.99 0.66 1.98 1 3 C-2 5 -2 5 -5 5 C-5 4.01 -5 3.02 -5 2 C-2 0 -2 0 0 0 Z " fill="#F4F3F6" transform="translate(173,120)"/>
<path d="M0 0 C0.33 1.32 0.66 2.64 1 4 C1.66 4 2.32 4 3 4 C3 5.98 3 7.96 3 10 C2.34 10 1.68 10 1 10 C0.67 6.7 0.34 3.4 0 0 Z " fill="#7830A5" transform="translate(1,94)"/>
<path d="M0 0 C1.32 1.32 2.64 2.64 4 4 C3.67 4.99 3.34 5.98 3 7 C1.02 5.35 -0.96 3.7 -3 2 C-2.01 1.34 -1.02 0.68 0 0 Z " fill="#571183" transform="translate(156,80)"/>
<path d="M0 0 C3.465 1.485 3.465 1.485 7 3 C7 3.99 7 4.98 7 6 C6.34 5.34 5.68 4.68 5 4 C3.01178687 3.60235737 1.01055661 3.26224651 -1 3 C-0.67 2.01 -0.34 1.02 0 0 Z " fill="#561681" transform="translate(120,50)"/>
<path d="M0 0 C-1.37326602 4.11979807 -4.08595092 7.04297546 -8 9 C-6.68994234 5.06982701 -4.75047804 0 0 0 Z " fill="#5A1A83" transform="translate(30,39)"/>
<path d="M0 0 C0.78375 0.04125 1.5675 0.0825 2.375 0.125 C2.705 1.115 3.035 2.105 3.375 3.125 C0.735 2.795 -1.905 2.465 -4.625 2.125 C-2.625 0.125 -2.625 0.125 0 0 Z " fill="#F0EAF4" transform="translate(168.625,210.875)"/>
<path d="M0 0 C1.32 0 2.64 0 4 0 C3.34 1.32 2.68 2.64 2 4 C2.66 4.66 3.32 5.32 4 6 C2.68 5.67 1.36 5.34 0 5 C0 3.35 0 1.7 0 0 Z " fill="#F7F5F3" transform="translate(180,202)"/>
<path d="M0 0 C0.33 0.66 0.66 1.32 1 2 C1.99 2.33 2.98 2.66 4 3 C3.34 4.65 2.68 6.3 2 8 C1.67 6.68 1.34 5.36 1 4 C0.34 4 -0.32 4 -1 4 C-0.67 2.68 -0.34 1.36 0 0 Z " fill="#E7DEE7" transform="translate(219,148)"/>
<path d="M0 0 C0.33 0.66 0.66 1.32 1 2 C0.06421005 4.35981813 -0.93347808 6.69631264 -2 9 C-2.97608217 6.07175348 -3.08226668 4.04386724 -3 1 C-2.01 0.67 -1.02 0.34 0 0 Z " fill="#F2E2F4" transform="translate(11,61)"/>
<path d="M0 0 C2.31 0 4.62 0 7 0 C4.14693203 2.32472205 1.45925163 3.7508258 -2 5 C-2 3 -2 3 0 1 C0 0.67 0 0.34 0 0 Z " fill="#ECD9F0" transform="translate(59,10)"/>
</svg>
