<?xml version="1.0" encoding="UTF-8"?>
<svg version="1.1" xmlns="http://www.w3.org/2000/svg" width="1920" height="1080">
<path d="M0 0 C633.6 0 1267.2 0 1920 0 C1920 356.4 1920 712.8 1920 1080 C1286.4 1080 652.8 1080 0 1080 C0 723.6 0 367.2 0 0 Z " fill="#FEFEFE" transform="translate(0,0)"/>
<path d="M0 0 C0.69673828 0.26232422 1.39347656 0.52464844 2.11132812 0.79492188 C11.73555365 4.48701207 20.4105231 9.32439196 29 15 C30.00804687 15.63550781 31.01609375 16.27101563 32.0546875 16.92578125 C35.07076122 19.04983317 37.45358286 21.33858338 40 24 C40.77859375 24.7321875 41.5571875 25.464375 42.359375 26.21875 C48.95438689 32.51202932 54.11854377 39.34602208 59 47 C59.64066406 48.00289063 60.28132813 49.00578125 60.94140625 50.0390625 C69.56664221 64.15985917 75.45363072 81.33573694 76 98 C76.03867188 98.98709961 76.03867188 98.98709961 76.078125 99.99414062 C77.13493 130.29802396 68.059619 156.53940325 49 180 C48.44957031 180.77988281 47.89914062 181.55976562 47.33203125 182.36328125 C46.89246094 182.90339844 46.45289063 183.44351563 46 184 C45.34 184 44.68 184 44 184 C43.77957031 184.56203125 43.55914063 185.1240625 43.33203125 185.703125 C34.36372232 201.16754041 10.15717771 210.39093593 -6.1875 215.3125 C-34.01100676 222.61303725 -64.68785129 219.82972046 -90.12402344 205.83105469 C-100.1284565 199.97534756 -108.85537436 193.23878316 -117 185 C-117.87140625 184.13890625 -118.7428125 183.2778125 -119.640625 182.390625 C-139.04522136 162.27174902 -148.42750969 134.72926203 -148.5 107.1875 C-148.50636475 105.91318115 -148.51272949 104.6388623 -148.51928711 103.32592773 C-148.17853945 77.81923712 -138.70291392 54.82623077 -123 35 C-121.88044922 33.58460938 -121.88044922 33.58460938 -120.73828125 32.140625 C-109.6455091 19.10803021 -95.53826558 9.86614148 -80 3 C-79.13375 2.59394531 -78.2675 2.18789063 -77.375 1.76953125 C-74.94688462 0.69902768 -72.52079053 -0.1708413 -70 -1 C-68.42025391 -1.556875 -68.42025391 -1.556875 -66.80859375 -2.125 C-46.37149585 -8.1618043 -19.85104454 -7.74440556 0 0 Z " fill="#A282A7" transform="translate(996,433)"/>
<path d="M0 0 C4.26996716 0.5714068 5.66084827 2.20391724 8.5859375 5.3046875 C9.45992187 6.20960938 10.33390625 7.11453125 11.234375 8.046875 C13.2109375 10.4296875 13.2109375 10.4296875 13.2109375 12.4296875 C13.79341248 12.6875 14.37588745 12.9453125 14.97601318 13.2109375 C17.40157201 14.5336444 19.01608191 15.98097204 20.96972656 17.9296875 C21.69017151 18.64382813 22.41061646 19.35796875 23.15289307 20.09375 C23.91970398 20.86460937 24.68651489 21.63546875 25.4765625 22.4296875 C26.26996033 23.22117187 27.06335815 24.01265625 27.88079834 24.828125 C29.55417804 26.50014487 31.22503931 28.17468847 32.89355469 29.8515625 C35.45807347 32.42681148 38.03310739 34.99119802 40.609375 37.5546875 C42.23241277 39.17904634 43.85483031 40.80402519 45.4765625 42.4296875 C46.25147034 43.20054687 47.02637817 43.97140625 47.82476807 44.765625 C48.88652252 45.83683594 48.88652252 45.83683594 49.96972656 46.9296875 C50.59719788 47.55875 51.22466919 48.1878125 51.87115479 48.8359375 C53.2109375 50.4296875 53.2109375 50.4296875 53.2109375 52.4296875 C53.8090625 52.6978125 54.4071875 52.9659375 55.0234375 53.2421875 C57.28194702 54.46823552 58.68156402 55.36503331 60.2109375 57.4296875 C60.7109375 59.8046875 60.7109375 59.8046875 60.2109375 62.4296875 C57.9609375 64.9296875 57.9609375 64.9296875 55.2109375 67.4296875 C54.5715625 68.2546875 53.9321875 69.0796875 53.2734375 69.9296875 C50.86179234 72.85289375 48.1436483 75.03563786 45.2109375 77.4296875 C42.56584779 79.94574845 40.18746851 82.45886516 37.8984375 85.3046875 C35.90470437 87.75466677 33.74473888 89.76254375 31.3359375 91.8046875 C28.53509093 94.18593159 26.08441057 96.62270336 23.7109375 99.4296875 C20.79734502 102.87302407 17.63897511 105.72348098 14.19921875 108.62890625 C11.45319551 111.11597248 9.11224673 113.87917349 6.75390625 116.73046875 C5.2109375 118.4296875 5.2109375 118.4296875 2.2109375 120.4296875 C-0.9140625 120.1796875 -0.9140625 120.1796875 -3.7890625 119.4296875 C-5.26811488 116.47158274 -4.91097153 113.474972 -4.88671875 110.234375 C-4.8853038 109.52693146 -4.88388885 108.81948792 -4.88243103 108.09060669 C-4.8768285 105.82859081 -4.86427568 103.56667352 -4.8515625 101.3046875 C-4.84654782 99.77213685 -4.84198486 98.23958464 -4.83789062 96.70703125 C-4.82685827 92.94787862 -4.80959202 89.18879978 -4.7890625 85.4296875 C-5.66158661 85.43190811 -6.53411072 85.43412872 -7.43307495 85.43641663 C-15.64405915 85.4564294 -23.85503518 85.47166669 -32.06603813 85.48149967 C-36.28768832 85.48672478 -40.50931841 85.49381572 -44.73095703 85.50512695 C-48.80282922 85.515969 -52.87468203 85.52196714 -56.94656754 85.52456474 C-58.50234406 85.52641661 -60.05811948 85.53003268 -61.61388779 85.53541756 C-63.78802557 85.54264545 -65.96208266 85.5436777 -68.13623047 85.54321289 C-69.99488235 85.54654381 -69.99488235 85.54654381 -71.89108276 85.54994202 C-74.7890625 85.4296875 -74.7890625 85.4296875 -76.7890625 84.4296875 C-76.7890625 83.7696875 -76.7890625 83.1096875 -76.7890625 82.4296875 C-77.4490625 82.4296875 -78.1090625 82.4296875 -78.7890625 82.4296875 C-78.81436201 76.20004135 -78.83190799 69.97040838 -78.84399414 63.74072266 C-78.84903122 61.62027491 -78.85586109 59.49983065 -78.86450195 57.37939453 C-78.87659484 54.33625428 -78.88229697 51.29315984 -78.88671875 48.25 C-78.89188004 47.29787628 -78.89704132 46.34575256 -78.90235901 45.36477661 C-78.90243454 44.48401459 -78.90251007 43.60325256 -78.90258789 42.69580078 C-78.9048085 41.91858673 -78.90702911 41.14137268 -78.90931702 40.34060669 C-78.7890625 38.4296875 -78.7890625 38.4296875 -77.7890625 36.4296875 C-74.33334853 35.27778284 -71.66857224 35.30961657 -68.02270508 35.31616211 C-67.33951706 35.31601608 -66.65632904 35.31587006 -65.95243835 35.3157196 C-63.69612443 35.31641581 -61.43989324 35.32419454 -59.18359375 35.33203125 C-57.61846461 35.33389647 -56.05333489 35.33531988 -54.48820496 35.33631897 C-50.37002957 35.34013598 -46.25188948 35.34995932 -42.13372803 35.36102295 C-37.93095375 35.37125459 -33.72817377 35.37582035 -29.52539062 35.38085938 C-21.27993172 35.39158231 -13.0345015 35.40864896 -4.7890625 35.4296875 C-4.79953613 34.44049316 -4.81000977 33.45129883 -4.82080078 32.43212891 C-4.85695269 28.76826586 -4.87994532 25.10441864 -4.89892578 21.44042969 C-4.90899438 19.85348867 -4.92265017 18.26656625 -4.93994141 16.6796875 C-4.96415251 14.40099503 -4.97553672 12.12254744 -4.984375 9.84375 C-4.99469757 9.13223785 -5.00502014 8.42072571 -5.01565552 7.68765259 C-5.01605672 5.93337085 -4.91108459 4.17972041 -4.7890625 2.4296875 C-2.7890625 0.4296875 -2.7890625 0.4296875 0 0 Z " fill="#FDFDFD" transform="translate(968.7890625,479.5703125)"/>
<path d="M0 0 C4.95 0 9.9 0 15 0 C15 4.95 15 9.9 15 15 C18.63 15 22.26 15 26 15 C23.00816387 18.1552856 19.82700319 20.69566827 16.3125 23.25 C5.32379268 31.44034086 -2.54721685 40.19095467 -10.60888672 51.22583008 C-12 53 -12 53 -15 56 C-15 52.37 -15 48.74 -15 45 C-19.95 45 -24.9 45 -30 45 C-30 40.05 -30 35.1 -30 30 C-25.38 29.67 -20.76 29.34 -16 29 C-15.855625 26.875625 -15.71125 24.75125 -15.5625 22.5625 C-15.125 16.125 -15.125 16.125 -14 15 C-9.33154772 14.85573386 -4.67134047 14.95791585 0 15 C0 10.05 0 5.1 0 0 Z " fill="#FBFAFA" transform="translate(877,427)"/>
<path d="M0 0 C2.49860707 0.35996881 3.67934282 0.5972233 5.28125 2.609375 C5.6834375 3.31578125 6.085625 4.0221875 6.5 4.75 C9.73942683 9.97000903 13.75436799 14.20355668 18.03710938 18.56933594 C22 22.68964277 22 22.68964277 22 26 C21.21625 25.505 20.4325 25.01 19.625 24.5 C17.21447673 22.83462035 17.21447673 22.83462035 15 23 C15 27.62 15 32.24 15 37 C15.66 37 16.32 37 17 37 C16.34 38.32 15.68 39.64 15 41 C14.67 40.34 14.34 39.68 14 39 C9.71 39 5.42 39 1 39 C0.67 43.62 0.34 48.24 0 53 C-4.95 53 -9.9 53 -15 53 C-15 48.05 -15 43.1 -15 38 C-10.05 38 -5.1 38 0 38 C-0.020625 35.89625 -0.04125 33.7925 -0.0625 31.625 C-0.125 25.25 -0.125 25.25 1 23 C-4.28 23 -9.56 23 -15 23 C-15 18.05 -15 13.1 -15 8 C-10.05 8 -5.1 8 0 8 C0 5.36 0 2.72 0 0 Z " fill="#FCFCFC" transform="translate(862,599)"/>
<path d="M0 0 C4.95 0 9.9 0 15 0 C15.33 4.62 15.66 9.24 16 14 C20.62 14 25.24 14 30 14 C30 9.38 30 4.76 30 0 C34.95 0 39.9 0 45 0 C45 4.95 45 9.9 45 15 C40.38 15.33 35.76 15.66 31 16 C31 20.95 31 25.9 31 31 C17.64201725 30.3872485 17.64201725 30.3872485 15.03125 28.8125 C12.85867756 24.99403935 14.46388419 20.14271308 15 16 C10.05 16 5.1 16 0 16 C0 10.72 0 5.44 0 0 Z " fill="#EDEDED" transform="translate(1027,427)"/>
<path d="M0 0 C4.95 0 9.9 0 15 0 C15 4.95 15 9.9 15 15 C18.63 15 22.26 15 26 15 C22.28249221 19.20240011 17.68339021 21.99782679 13 25 C13.66 22.03 14.32 19.06 15 16 C12.85473901 15.80606125 10.70876323 15.62001324 8.5625 15.4375 C7.36753906 15.33308594 6.17257812 15.22867187 4.94140625 15.12109375 C3.48541016 15.06115234 3.48541016 15.06115234 2 15 C0.1351287 16.8648713 0.65259426 19.99309434 0.5 22.5 C0.11111111 28.88888889 0.11111111 28.88888889 -1 30 C-3.14394519 30.0991757 -5.29126732 30.1297015 -7.4375 30.125 C-8.61183594 30.12757813 -9.78617188 30.13015625 -10.99609375 30.1328125 C-14 30 -14 30 -16 29 C-15.85970581 26.8537974 -15.71261836 24.70803782 -15.5625 22.5625 C-15.48128906 21.36753906 -15.40007813 20.17257812 -15.31640625 18.94140625 C-15 16 -15 16 -14 15 C-9.33154772 14.85573386 -4.67134047 14.95791585 0 15 C0 10.05 0 5.1 0 0 Z " fill="#EDEDED" transform="translate(877,427)"/>
<path d="M0 0 C0.65484375 0.0721875 1.3096875 0.144375 1.984375 0.21875 C8.21179327 0.85204677 14.30786707 1.06771668 20.56640625 0.9375 C23 1 23 1 25 2 C24.97679687 2.77085937 24.95359375 3.54171875 24.9296875 4.3359375 C24.91164063 5.33882813 24.89359375 6.34171875 24.875 7.375 C24.85179687 8.37273437 24.82859375 9.37046875 24.8046875 10.3984375 C24.72783152 13.16262173 24.72783152 13.16262173 27 15 C30.12196336 15.46486718 30.12196336 15.46486718 33.625 15.625 C34.81351563 15.69976562 36.00203125 15.77453125 37.2265625 15.8515625 C38.14179687 15.90054687 39.05703125 15.94953125 40 16 C39.98839844 17.00160156 39.97679687 18.00320313 39.96484375 19.03515625 C39.95545602 20.37760228 39.94635688 21.72005036 39.9375 23.0625 C39.92589844 24.37347656 39.91429687 25.68445313 39.90234375 27.03515625 C39.8978168 30.99456738 39.8978168 30.99456738 40.69140625 34.80859375 C41 38 41 38 39.5625 39.9375 C39.046875 40.288125 38.53125 40.63875 38 41 C37.62230469 40.34515625 37.24460937 39.6903125 36.85546875 39.015625 C31.42916328 30.01837846 24.89454077 21.87737041 16.66015625 15.2734375 C15.78230469 14.52320313 14.90445312 13.77296875 14 13 C14 12.34 14 11.68 14 11 C13.28457031 10.74476563 12.56914063 10.48953125 11.83203125 10.2265625 C8.79753382 8.9123112 6.36811089 7.30503984 3.6875 5.375 C2.80449219 4.74335938 1.92148437 4.11171875 1.01171875 3.4609375 C0.34785156 2.97882813 -0.31601562 2.49671875 -1 2 C-0.67 1.34 -0.34 0.68 0 0 Z " fill="#FDFDFD" transform="translate(1017,441)"/>
<path d="M0 0 C4.62 0 9.24 0 14 0 C14 4.62 14 9.24 14 14 C14.66 14 15.32 14 16 14 C15.34 15.32 14.68 16.64 14 18 C13.67 17.34 13.34 16.68 13 16 C8.71 16 4.42 16 0 16 C-0.33 20.62 -0.66 25.24 -1 30 C-5.95 30 -10.9 30 -16 30 C-16 25.05 -16 20.1 -16 15 C-11.05 15 -6.1 15 -1 15 C-1.020625 12.89625 -1.04125 10.7925 -1.0625 8.625 C-1.125 2.25 -1.125 2.25 0 0 Z " fill="#EDEDED" transform="translate(863,622)"/>
<path d="M0 0 C5.28 0 10.56 0 16 0 C16 3.63 16 7.26 16 11 C16.66 10.67 17.32 10.34 18 10 C18.33 10.66 18.66 11.32 19 12 C20.32 11.34 21.64 10.68 23 10 C23.66 11.32 24.32 12.64 25 14 C23.52464063 16.00291212 22.04497707 18.00236777 20.5625 20 C20.14162109 20.57234375 19.72074219 21.1446875 19.28710938 21.734375 C18.21555864 23.17453919 17.11033324 24.58951996 16 26 C15.67 26 15.34 26 15 26 C15 22.37 15 18.74 15 15 C10.05 15 5.1 15 0 15 C0 10.05 0 5.1 0 0 Z " fill="#EDEDED" transform="translate(847,457)"/>
<path d="M0 0 C0.33 0 0.66 0 1 0 C1.19393875 2.14526099 1.37998676 4.29123677 1.5625 6.4375 C1.66691406 7.63246094 1.77132813 8.82742188 1.87890625 10.05859375 C1.91886719 11.02925781 1.95882813 11.99992188 2 13 C1.67 13.33 1.34 13.66 1 14 C0.76518307 16.18292774 0.58636677 18.37203174 0.4375 20.5625 C0.293125 22.686875 0.14875 24.81125 0 27 C-4.95 27 -9.9 27 -15 27 C-15 22.05 -15 17.1 -15 12 C-10.05 12 -5.1 12 0 12 C0 8.04 0 4.08 0 0 Z " fill="#ECECEC" transform="translate(1042,625)"/>
<path d="M0 0 C4.95 0 9.9 0 15 0 C15.33 4.95 15.66 9.9 16 15 C10.72 15 5.44 15 0 15 C0 10.05 0 5.1 0 0 Z " fill="#EDEDED" transform="translate(847,607)"/>
<path d="M0 0 C4.95 0 9.9 0 15 0 C15 5.28 15 10.56 15 16 C10.05 15.67 5.1 15.34 0 15 C0 10.05 0 5.1 0 0 Z " fill="#EDEDED" transform="translate(847,427)"/>
<path d="M0 0 C4.95 0 9.9 0 15 0 C15 4.95 15 9.9 15 15 C10.05 15 5.1 15 0 15 C0 10.05 0 5.1 0 0 Z " fill="#EDEDED" transform="translate(1057,637)"/>
<path d="M0 0 C4.95 0 9.9 0 15 0 C15 4.95 15 9.9 15 15 C10.66666667 15 6.33333333 15 2 15 C1.01 15.495 1.01 15.495 0 16 C0 10.72 0 5.44 0 0 Z " fill="#EDEDED" transform="translate(1057,607)"/>
<path d="M0 0 C0.99 0 1.98 0 3 0 C3.27972656 0.92039062 3.55945313 1.84078125 3.84765625 2.7890625 C6.74790532 12.04106622 10.42625536 20.44564763 15 29 C14.01 29 13.02 29 12 29 C11.67 28.34 11.34 27.68 11 27 C10.34 27.99 9.68 28.98 9 30 C7 26.25 7 26.25 7 24 C4.03 23.67 1.06 23.34 -2 23 C-2 18.05 -2 13.1 -2 8 C-1.01 8 -0.02 8 1 8 C0.484375 7.5875 -0.03125 7.175 -0.5625 6.75 C-1.036875 6.1725 -1.51125 5.595 -2 5 C-1.74853421 2.86254078 -1.54074221 1.54074221 0 0 Z " fill="#EFEEEE" transform="translate(849,569)"/>
<path d="M0 0 C0.66 0.66 1.32 1.32 2 2 C1.67 2.99 1.34 3.98 1 5 C-1.64 5 -4.28 5 -7 5 C-7.33 6.98 -7.66 8.96 -8 11 C-8.99 11 -9.98 11 -11 11 C-11.66 10.34 -12.32 9.68 -13 9 C-14.20272819 11.40545638 -14.10071472 12.94996953 -14.0625 15.625 C-14.041875 17.06875 -14.02125 18.5125 -14 20 C-18.95 20 -23.9 20 -29 20 C-30 15 -30 15 -29 13 C-26.51362478 11.82489171 -24.03884026 10.7367204 -21.5 9.6875 C-16.0163645 7.37732097 -10.82388662 4.96728744 -5.796875 1.75 C-3.50132188 0.79185609 -2.30071158 1.18558882 0 2 C0 1.34 0 0.68 0 0 Z " fill="#F5F2F3" transform="translate(1026,632)"/>
<path d="M0 0 C1.32 0 2.64 0 4 0 C5 3 5 3 3.56640625 6.35546875 C2.90851193 7.6380304 2.24010257 8.91524057 1.5625 10.1875 C1.22412109 10.84169922 0.88574219 11.49589844 0.53710938 12.16992188 C-0.29969098 13.78459299 -1.14869746 15.39292763 -2 17 C-2.66 17 -3.32 17 -4 17 C-4.33 17.66 -4.66 18.32 -5 19 C-6.65 19 -8.3 19 -10 19 C-10 14.05 -10 9.1 -10 4 C-5.545 3.505 -5.545 3.505 -1 3 C-0.67 2.01 -0.34 1.02 0 0 Z " fill="#EFEEEE" transform="translate(857,483)"/>
<path d="M0 0 C2.60574338 1.12145918 5.20959056 2.24699797 7.8125 3.375 C8.55048828 3.69210937 9.28847656 4.00921875 10.04882812 4.3359375 C10.76103516 4.6453125 11.47324219 4.9546875 12.20703125 5.2734375 C12.8616333 5.55622559 13.51623535 5.83901367 14.19067383 6.13037109 C16 7 16 7 19 9 C19.25 11.5625 19.25 11.5625 19 14 C18 15 18 15 14.62109375 15.09765625 C13.22652923 15.09098369 11.83198257 15.07902532 10.4375 15.0625 C9.72658203 15.05798828 9.01566406 15.05347656 8.28320312 15.04882812 C6.52209987 15.03700864 4.76103964 15.01907263 3 15 C2.67 11.04 2.34 7.08 2 3 C1.34 3 0.68 3 0 3 C0 2.01 0 1.02 0 0 Z " fill="#EFEDEE" transform="translate(904,637)"/>
<path d="M0 0 C4.95 0 9.9 0 15 0 C15.16276042 2.27864583 15.32552083 4.55729167 15.48828125 6.8359375 C15.82990528 9.37921338 15.82990528 9.37921338 19 11 C12.6646024 12.62910224 8.15419337 10.78801557 2.1875 8.4375 C1.02605469 7.98246094 -0.13539063 7.52742188 -1.33203125 7.05859375 C-2.65267578 6.53458984 -2.65267578 6.53458984 -4 6 C-2.68 5.67 -1.36 5.34 0 5 C0 3.35 0 1.7 0 0 Z " fill="#EEEDED" transform="translate(997,427)"/>
<path d="M0 0 C4.29 0 8.58 0 13 0 C13 4.95 13 9.9 13 15 C9 16 9 16 6 16 C5.73445313 15.26394531 5.46890625 14.52789062 5.1953125 13.76953125 C4.84210938 12.79371094 4.48890625 11.81789063 4.125 10.8125 C3.60292969 9.36810547 3.60292969 9.36810547 3.0703125 7.89453125 C2.09106003 5.24626087 1.04862941 2.62157353 0 0 Z " fill="#EFEDEE" transform="translate(1059,487)"/>
<path d="M0 0 C0.33 0.66 0.66 1.32 1 2 C2.65 2.33 4.3 2.66 6 3 C6 7.95 6 12.9 6 18 C1.05 18.495 1.05 18.495 -4 19 C-4.33 18.01 -4.66 17.02 -5 16 C-4.505 15.360625 -4.01 14.72125 -3.5 14.0625 C-2.7575 13.0415625 -2.7575 13.0415625 -2 12 C-2.16371094 11.38511719 -2.32742188 10.77023437 -2.49609375 10.13671875 C-3.12441707 7.47243305 -2.60371174 6.24890818 -1.5625 3.75 C-1.27503906 3.04359375 -0.98757813 2.3371875 -0.69140625 1.609375 C-0.34916016 0.81273437 -0.34916016 0.81273437 0 0 Z " fill="#EEEDED" transform="translate(1066,574)"/>
<path d="M0 0 C4.95 0 9.9 0 15 0 C15 1.98 15 3.96 15 6 C14.01 6 13.02 6 12 6 C11.67 6.99 11.34 7.98 11 9 C10.13375 9.144375 9.2675 9.28875 8.375 9.4375 C6.704375 9.7159375 6.704375 9.7159375 5 10 C3 10.33333333 1 10.66666667 -1 11 C-0.67 7.37 -0.34 3.74 0 0 Z " fill="#EDEDED" transform="translate(907,427)"/>
<path d="M0 0 C0.99 0.495 0.99 0.495 2 1 C1.67 1.99 1.34 2.98 1 4 C2.32 4.66 3.64 5.32 5 6 C4.67 6.66 4.34 7.32 4 8 C3.01 7.01 3.01 7.01 2 6 C-1.04182893 5.74994614 -1.04182893 5.74994614 -4 6 C-12.02772972 14.02772972 -5.65612984 28.65228471 -6 40 C-28.77 39.67 -51.54 39.34 -75 39 C-75 38.67 -75 38.34 -75 38 C-74.19233688 37.98969254 -73.38467377 37.97938507 -72.55253601 37.96876526 C-64.94515058 37.87083216 -57.33784714 37.76832367 -49.73059368 37.66066074 C-45.81952916 37.60547057 -41.9084571 37.55205681 -37.99731445 37.50268555 C-34.22363082 37.45498438 -30.45003769 37.40263949 -26.67646217 37.34705925 C-25.23597273 37.32666176 -23.79545849 37.30794438 -22.35492516 37.29092598 C-20.33901658 37.26682457 -18.32318886 37.2362232 -16.30737305 37.20532227 C-15.15931686 37.18977798 -14.01126068 37.1742337 -12.82841492 37.15821838 C-9.92168722 37.11986724 -9.92168722 37.11986724 -7 36 C-7.01047363 35.10168457 -7.02094727 34.20336914 -7.03173828 33.27783203 C-7.0657947 29.94935553 -7.09088618 26.62106378 -7.10986328 23.29248047 C-7.11992963 21.85104453 -7.1335838 20.40962905 -7.15087891 18.96826172 C-7.17510012 16.89806066 -7.18647641 14.82812924 -7.1953125 12.7578125 C-7.20578613 11.5114502 -7.21625977 10.26508789 -7.22705078 8.98095703 C-7 6 -7 6 -5 4 C-4.319375 3.855625 -3.63875 3.71125 -2.9375 3.5625 C-1.9784375 3.2840625 -1.9784375 3.2840625 -1 3 C-0.67 2.01 -0.34 1.02 0 0 Z " fill="#8D7392" transform="translate(970,475)"/>
<path d="M0 0 C1.23556641 0.01740234 1.23556641 0.01740234 2.49609375 0.03515625 C3.32238281 0.04417969 4.14867187 0.05320312 5 0.0625 C5.63808594 0.07410156 6.27617188 0.08570313 6.93359375 0.09765625 C8.00031327 3.29781481 7.88204847 4.98309919 7.49609375 8.28515625 C7.39425781 9.18621094 7.29242187 10.08726562 7.1875 11.015625 C7.10371094 11.70269531 7.01992188 12.38976562 6.93359375 13.09765625 C6.27359375 12.76765625 5.61359375 12.43765625 4.93359375 12.09765625 C4.93359375 11.43765625 4.93359375 10.77765625 4.93359375 10.09765625 C3.61359375 11.08765625 2.29359375 12.07765625 0.93359375 13.09765625 C0.27359375 12.43765625 -0.38640625 11.77765625 -1.06640625 11.09765625 C-2.05640625 11.59265625 -2.05640625 11.59265625 -3.06640625 12.09765625 C-3.09327904 10.28523573 -3.1127434 8.47270392 -3.12890625 6.66015625 C-3.14050781 5.65082031 -3.15210938 4.64148438 -3.1640625 3.6015625 C-3.02917925 0.14315592 -3.02917925 0.14315592 0 0 Z " fill="#FEFEFE" transform="translate(865.06640625,456.90234375)"/>
<path d="M0 0 C0.66 0.33 1.32 0.66 2 1 C2 4.3 2 7.6 2 11 C-2.29 11 -6.58 11 -11 11 C-10.34 10.01 -9.68 9.02 -9 8 C-6.375 7.8125 -6.375 7.8125 -4 8 C-3.67 8.66 -3.34 9.32 -3 10 C-3 8.68 -3 7.36 -3 6 C-4.65 6.33 -6.3 6.66 -8 7 C-8 6.01 -8 5.02 -8 4 C-6.71349294 3.30289269 -5.42059335 2.61757124 -4.125 1.9375 C-3.04605469 1.36322266 -3.04605469 1.36322266 -1.9453125 0.77734375 C-1.30335938 0.52082031 -0.66140625 0.26429688 0 0 Z " fill="#ECECEB" transform="translate(1010,641)"/>
<path d="M0 0 C1.485 0.99 1.485 0.99 3 2 C5.64632287 1.6878236 5.64632287 1.6878236 8 1 C7.67 2.32 7.34 3.64 7 5 C7.99 5.33 8.98 5.66 10 6 C10 6.66 10 7.32 10 8 C10.99 8.33 11.98 8.66 13 9 C13 9.99 13 10.98 13 12 C13.94726954 13.69719127 14.94228261 15.36935236 16 17 C15.34 17.33 14.68 17.66 14 18 C13.38125 17.25556641 13.38125 17.25556641 12.75 16.49609375 C8.51886498 11.5188434 4.0216147 7.17380962 -1 3 C-0.67 2.01 -0.34 1.02 0 0 Z " fill="#F4F0F2" transform="translate(1032,451)"/>
<path d="M0 0 C1.3946796 4.70704366 1.41153105 8.2040895 -0.4375 12.75 C-2.201049 17.10896073 -2.68680425 21.33446338 -3 26 C-3.33 26 -3.66 26 -4 26 C-4 17.75 -4 9.5 -4 1 C-3.01 2.485 -3.01 2.485 -2 4 C-1.34 2.68 -0.68 1.36 0 0 Z " fill="#957698" transform="translate(852,526)"/>
<path d="M0 0 C1.828125 0.21484375 1.828125 0.21484375 4 1 C5.484375 3.06640625 5.484375 3.06640625 6.75 5.5625 C7.17796875 6.38878906 7.6059375 7.21507812 8.046875 8.06640625 C8.36140625 8.70449219 8.6759375 9.34257813 9 10 C6.625 11.0625 6.625 11.0625 4 12 C1.36170741 10.68085371 1.01736771 9.76142665 0 7 C-0.0777346 4.66796188 -0.08967728 2.33160941 0 0 Z " fill="#F8F4F6" transform="translate(862,599)"/>
<path d="M0 0 C1.7936743 1.1217963 3.5848773 2.24754483 5.375 3.375 C6.37273438 4.00148438 7.37046875 4.62796875 8.3984375 5.2734375 C11 7 11 7 13 9 C9.78548731 10.60725635 6.56387464 10.05748185 3 10 C3 8.68 3 7.36 3 6 C1.68 5.67 0.36 5.34 -1 5 C-0.67 3.35 -0.34 1.7 0 0 Z " fill="#F5F1F2" transform="translate(889,627)"/>
<path d="M0 0 C2 3 2 3 1.625 5.1875 C1.41875 5.785625 1.2125 6.38375 1 7 C0.34 7 -0.32 7 -1 7 C-1 7.66 -1 8.32 -1 9 C-4 11 -4 11 -9 10 C-7.02 7.03 -5.04 4.06 -3 1 C-2.01 1.33 -1.02 1.66 0 2 C0 1.34 0 0.68 0 0 Z " fill="#F5F0F2" transform="translate(1056,600)"/>
<path d="M0 0 C0.33 0.99 0.66 1.98 1 3 C1.66 3 2.32 3 3 3 C3.6875 6.3125 3.6875 6.3125 4 10 C2.51953125 11.73046875 2.51953125 11.73046875 1 13 C0.15556432 11.75747321 -0.6751458 10.5056114 -1.5 9.25 C-1.9640625 8.55390625 -2.428125 7.8578125 -2.90625 7.140625 C-4 5 -4 5 -4 1 C-2 0 -2 0 0 0 Z " fill="#F5EFF1" transform="translate(1054,469)"/>
<path d="M0 0 C3.91939465 3.80411834 7.49102731 7.81576108 11 12 C8 12 8 12 5 10 C4.34 10 3.68 10 3 10 C2.34 8.68 1.68 7.36 1 6 C0.01 6.33 -0.98 6.66 -2 7 C-2.6875 5.1875 -2.6875 5.1875 -3 3 C-1.5625 1.25 -1.5625 1.25 0 0 Z " fill="#F7F3F6" transform="translate(874,612)"/>
<path d="M0 0 C0.66 0 1.32 0 2 0 C2 0.66 2 1.32 2 2 C2.66 2.33 3.32 2.66 4 3 C2.35 3.66 0.7 4.32 -1 5 C-1 5.99 -1 6.98 -1 8 C-2.26691507 8.67408308 -3.53870749 9.33900497 -4.8125 10 C-5.52019531 10.37125 -6.22789063 10.7425 -6.95703125 11.125 C-9 12 -9 12 -12 12 C-11.43410156 11.51789062 -10.86820313 11.03578125 -10.28515625 10.5390625 C-9.18494141 9.59160156 -9.18494141 9.59160156 -8.0625 8.625 C-7.33160156 7.99851562 -6.60070313 7.37203125 -5.84765625 6.7265625 C-3.91619094 5.12252286 -3.91619094 5.12252286 -3 3 C-2.34 3 -1.68 3 -1 3 C-0.67 2.01 -0.34 1.02 0 0 Z " fill="#F4EFF1" transform="translate(1043,614)"/>
<path d="M0 0 C2.97 0.33 5.94 0.66 9 1 C9.79953138 4.28696233 10.09658936 5.71023192 9 9 C5.7 6.69 2.4 4.38 -1 2 C-0.67 1.34 -0.34 0.68 0 0 Z " fill="#EEEBEE" transform="translate(1017,441)"/>
<path d="M0 0 C0.66 0.33 1.32 0.66 2 1 C1.01 2.485 1.01 2.485 0 4 C0.99 4.33 1.98 4.66 3 5 C3 6.32 3 7.64 3 9 C0.1875 9.625 0.1875 9.625 -3 10 C-3.99 9.34 -4.98 8.68 -6 8 C-4.55746343 4.63408134 -2.66735273 2.48952921 0 0 Z " fill="#997B9D" transform="translate(883,457)"/>
<path d="M0 0 C1.32 0.33 2.64 0.66 4 1 C1.71461395 5.08963819 -0.95706926 8.46362104 -4 12 C-4.66 11.67 -5.32 11.34 -6 11 C-5.67 8.36 -5.34 5.72 -5 3 C-4.01 3 -3.02 3 -2 3 C-1.67 3.66 -1.34 4.32 -1 5 C-0.67 3.35 -0.34 1.7 0 0 Z " fill="#F7F6F5" transform="translate(877,457)"/>
<path d="M0 0 C0.99 0 1.98 0 3 0 C3.33 3.3 3.66 6.6 4 10 C2.02 10.33 0.04 10.66 -2 11 C-2 10.01 -2 9.02 -2 8 C-1.01 8 -0.02 8 1 8 C0.484375 7.5875 -0.03125 7.175 -0.5625 6.75 C-1.036875 6.1725 -1.51125 5.595 -2 5 C-1.74853421 2.86254078 -1.54074221 1.54074221 0 0 Z " fill="#F6F2F3" transform="translate(849,569)"/>
<path d="M0 0 C0.33 0 0.66 0 1 0 C1.33 1.65 1.66 3.3 2 5 C2.99 4.67 3.98 4.34 5 4 C4.67 5.32 4.34 6.64 4 8 C3.34 8 2.68 8 2 8 C2.495 8.825 2.99 9.65 3.5 10.5 C5.32352081 14.75488188 5.23673689 17.42308671 5 22 C1.01499541 18.01499541 0.21752462 10.92104485 -0.19140625 5.4296875 C-0.1881607 3.61867035 -0.10430848 1.80801365 0 0 Z " fill="#8D7091" transform="translate(849,553)"/>
<path d="M0 0 C0 2.62113708 -0.31292445 4.50935112 -1 7 C-2.32 7 -3.64 7 -5 7 C-5.33 7.66 -5.66 8.32 -6 9 C-9.0625 9.625 -9.0625 9.625 -12 10 C-8.29909479 6.0747975 -4.45040344 3.05419844 0 0 Z " fill="#987A9B" transform="translate(903,442)"/>
<path d="M0 0 C3.84772347 1.76461591 6.84060121 4.18605895 10.09765625 6.85546875 C10.72542969 7.23316406 11.35320313 7.61085938 12 8 C12.99 7.67 13.98 7.34 15 7 C17 9 17 9 17 13 C12.69998657 11.55619987 9.72376262 9.39167267 6.25 6.5 C5.28578125 5.7059375 4.3215625 4.911875 3.328125 4.09375 C1 2 1 2 0 0 Z " fill="#8C7291" transform="translate(883,621)"/>
<path d="M0 0 C2.64 0.33 5.28 0.66 8 1 C8 2.65 8 4.3 8 6 C5.69 6 3.38 6 1 6 C0.67 5.34 0.34 4.68 0 4 C-0.99 3.34 -1.98 2.68 -3 2 C-2.01 2 -1.02 2 0 2 C0 1.34 0 0.68 0 0 Z " fill="#A988AE" transform="translate(943,428)"/>
<path d="M0 0 C0.66 0.33 1.32 0.66 2 1 C0.40956621 6.08938811 -2.7446951 9.87456643 -6 14 C-6 13.01 -6 12.02 -6 11 C-6.15127402 9.43593472 -6.31902522 7.87340748 -6.5 6.3125 C-6.5928125 5.50425781 -6.685625 4.69601562 -6.78125 3.86328125 C-6.8534375 3.24839844 -6.925625 2.63351562 -7 2 C-5.515 2.99 -5.515 2.99 -4 4 C-3.01 4 -2.02 4 -1 4 C-0.67 2.68 -0.34 1.36 0 0 Z " fill="#947696" transform="translate(1054,595)"/>
<path d="M0 0 C1.32 1.65 2.64 3.3 4 5 C3.54625 5.4125 3.0925 5.825 2.625 6.25 C0.94049626 8.06408095 0.00734029 9.75285627 -1 12 C-2.32 11.67 -3.64 11.34 -5 11 C-3.55049545 7.2089881 -1.84827434 3.6125362 0 0 Z " fill="#F9F6F7" transform="translate(1059,591)"/>
<path d="M0 0 C2.52631142 3.12781414 4.42373366 6.29577411 6 10 C5.67 10.99 5.34 11.98 5 13 C4.38125 12.34 3.7625 11.68 3.125 11 C1.24362573 8.7715451 1.24362573 8.7715451 -1 9 C-1.33 6.69 -1.66 4.38 -2 2 C-1.34 2 -0.68 2 0 2 C0 1.34 0 0.68 0 0 Z " fill="#947798" transform="translate(1057,485)"/>
<path d="M0 0 C1.25683594 0.00322266 2.51367188 0.00644531 3.80859375 0.00976562 C5.12730469 0.01814453 6.44601562 0.02652344 7.8046875 0.03515625 C9.14452961 0.04017136 10.4843735 0.04473424 11.82421875 0.04882812 C15.10941956 0.06064539 18.39453147 0.07712008 21.6796875 0.09765625 C21.6796875 0.42765625 21.6796875 0.75765625 21.6796875 1.09765625 C20.81802979 1.13524048 20.81802979 1.13524048 19.93896484 1.17358398 C17.31069029 1.290355 14.68270355 1.41271044 12.0546875 1.53515625 C11.15105469 1.57447266 10.24742187 1.61378906 9.31640625 1.65429688 C5.54035831 1.83345243 1.9117083 2.05829558 -1.8203125 2.69140625 C-4.72640968 3.16364704 -5.89316451 2.68463763 -8.3203125 1.09765625 C-5.50207058 -0.31146471 -3.14779968 -0.01417928 0 0 Z " fill="#EFE1EC" transform="translate(941.3203125,426.90234375)"/>
<path d="M0 0 C5.42662124 0.56527305 10.69229868 1.7603328 16 3 C15.67 3.66 15.34 4.32 15 5 C13.96875 4.835 12.9375 4.67 11.875 4.5 C8.51755674 4.06678152 5.37663843 3.91764297 2 4 C1.67 3.34 1.34 2.68 1 2 C0.34 1.67 -0.32 1.34 -1 1 C-0.67 0.67 -0.34 0.34 0 0 Z " fill="#F6F0F4" transform="translate(925,647)"/>
<path d="M0 0 C0.66 0 1.32 0 2 0 C2.66 0.99 3.32 1.98 4 3 C5.32 3 6.64 3 8 3 C8.66 3.66 9.32 4.32 10 5 C9.625 7.625 9.625 7.625 9 10 C7.86800647 9.0919838 6.74467637 8.17316174 5.625 7.25 C4.99851562 6.73953125 4.37203125 6.2290625 3.7265625 5.703125 C1.91687682 3.91800519 0.99882545 2.32050356 0 0 Z " fill="#937596" transform="translate(874,611)"/>
<path d="M0 0 C0.66 0.66 1.32 1.32 2 2 C3.32 1.34 4.64 0.68 6 0 C6.66 1.32 7.32 2.64 8 4 C7.34 4.66 6.68 5.32 6 6 C2.375 5.625 2.375 5.625 -1 5 C-1.33 4.01 -1.66 3.02 -2 2 C-1.34 1.34 -0.68 0.68 0 0 Z " fill="#F6F4F2" transform="translate(864,467)"/>
<path d="M0 0 C3 1 3 1 4.16796875 2.84765625 C4.50441406 3.57855469 4.84085938 4.30945313 5.1875 5.0625 C5.53167969 5.79597656 5.87585938 6.52945313 6.23046875 7.28515625 C6.48441406 7.85105469 6.73835937 8.41695312 7 9 C6.01 9 5.02 9 4 9 C3.67 8.34 3.34 7.68 3 7 C2.01 8.485 2.01 8.485 1 10 C-0.4606285 7.35261084 -1 6.10551666 -1 3 C-0.67 2.01 -0.34 1.02 0 0 Z " fill="#F5F1F3" transform="translate(857,589)"/>
<path d="M0 0 C2 3 2 3 3 6 C2.34 6 1.68 6 1 6 C1 7.65 1 9.3 1 11 C-1 8 -1 8 -1 5 C-1.66 4.67 -2.32 4.34 -3 4 C-2.67 5.65 -2.34 7.3 -2 9 C-2.66 8.67 -3.32 8.34 -4 8 C-4 7.34 -4 6.68 -4 6 C-4.66 6 -5.32 6 -6 6 C-6 5.34 -6 4.68 -6 4 C-5.34 4 -4.68 4 -4 4 C-3.67 3.34 -3.34 2.68 -3 2 C-2.01 1.34 -1.02 0.68 0 0 Z " fill="#EAE7E8" transform="translate(853,576)"/>
<path d="M0 0 C0.66 0.33 1.32 0.66 2 1 C2 4.17370278 1.69066658 5.3794668 0 8 C-2.125 9.25 -2.125 9.25 -4 10 C-3.38461538 3.47692308 -3.38461538 3.47692308 -1.4375 1.0625 C-0.7259375 0.5365625 -0.7259375 0.5365625 0 0 Z M-7 10 C-4 11 -4 11 -4 11 Z " fill="#9D7DA0" transform="translate(978,592)"/>
<path d="M0 0 C3.21043882 1.38188453 5.04936365 2.92421903 7.25 5.625 C8.03117188 6.57246094 8.03117188 6.57246094 8.828125 7.5390625 C9.40820312 8.26222656 9.40820312 8.26222656 10 9 C6.25 10.125 6.25 10.125 4 9 C4 7.35 4 5.7 4 4 C3.34 4 2.68 4 2 4 C2 3.34 2 2.68 2 2 C1.34 2 0.68 2 0 2 C0 1.34 0 0.68 0 0 Z " fill="#F8F4F5" transform="translate(1003,513)"/>
<path d="M0 0 C2.64 0 5.28 0 8 0 C7.67 0.99 7.34 1.98 7 3 C8.32 3.33 9.64 3.66 11 4 C3.57142857 6.42857143 3.57142857 6.42857143 0 5 C1.32 4.34 2.64 3.68 4 3 C2.35 2.67 0.7 2.34 -1 2 C-0.67 1.34 -0.34 0.68 0 0 Z " fill="#927596" transform="translate(983,643)"/>
<path d="M0 0 C3.81684226 1.55500981 6.19195732 4.03595495 9 7 C8.67 7.66 8.34 8.32 8 9 C6.125 8.6875 6.125 8.6875 4 8 C2 5 2 5 2 2 C1.34 2 0.68 2 0 2 C0 1.34 0 0.68 0 0 Z " fill="#F6F2F3" transform="translate(1013,523)"/>
<path d="M0 0 C2.95562064 0.20151959 5.07037079 0.96252665 7.75 2.1875 C4.78312999 3.83576111 2.09373475 4.63021087 -1.25 5.1875 C-1.91 3.8675 -2.57 2.5475 -3.25 1.1875 C-2.25 0.1875 -2.25 0.1875 0 0 Z " fill="#F9F7F7" transform="translate(929.25,426.8125)"/>
<path d="M0 0 C1.79240663 0.11389875 3.58394835 0.24147687 5.375 0.375 C6.87160156 0.47941406 6.87160156 0.47941406 8.3984375 0.5859375 C11 1 11 1 13 3 C12.01 3.66 11.02 4.32 10 5 C6.56224696 3.85408232 3.3240073 2.44249373 0 1 C0 0.67 0 0.34 0 0 Z " fill="#917495" transform="translate(975,429)"/>
<path d="M0 0 C0.66 1.32 1.32 2.64 2 4 C0.37419034 3.88601335 -1.25067157 3.75844341 -2.875 3.625 C-3.77992188 3.55539062 -4.68484375 3.48578125 -5.6171875 3.4140625 C-8 3 -8 3 -10 1 C-6.59437148 0.22157062 -3.49234244 -0.09978121 0 0 Z " fill="#AA8CAF" transform="translate(977,428)"/>
<path d="M0 0 C0.66 0 1.32 0 2 0 C2 0.66 2 1.32 2 2 C2.66 2 3.32 2 4 2 C4 2.66 4 3.32 4 4 C4.66 4 5.32 4 6 4 C6 4.66 6 5.32 6 6 C5.01 6.495 5.01 6.495 4 7 C3.34 7.66 2.68 8.32 2 9 C1.01 8.67 0.02 8.34 -1 8 C-0.67 7.34 -0.34 6.68 0 6 C0.66 6.33 1.32 6.66 2 7 C2 6.34 2 5.68 2 5 C1.34 4.67 0.68 4.34 0 4 C0 2.68 0 1.36 0 0 Z " fill="#977A9C" transform="translate(888,560)"/>
<path d="M0 0 C1.34110539 2.20887947 2.06609767 3.45469419 1.75 6.0625 C0.61812457 8.98651152 -1.26533118 11.39799677 -3 14 C-2.48594831 9.03083364 -1.76615118 4.70973649 0 0 Z " fill="#8E7393" transform="translate(853,504)"/>
<path d="M0 0 C1.17539996 0.92652701 2.34010577 1.86663387 3.5 2.8125 C4.1496875 3.33457031 4.799375 3.85664063 5.46875 4.39453125 C7 6 7 6 7 9 C5.1875 8.875 5.1875 8.875 3 8 C0 2.96428571 0 2.96428571 0 0 Z " fill="#F7F3F3" transform="translate(974,483)"/>
<path d="M0 0 C2.97 0.99 5.94 1.98 9 3 C8.67 4.32 8.34 5.64 8 7 C5.36 6.67 2.72 6.34 0 6 C0 5.67 0 5.34 0 5 C1.65 5 3.3 5 5 5 C4.67 4.34 4.34 3.68 4 3 C1.97536745 2.34786708 1.97536745 2.34786708 0 2 C0 1.34 0 0.68 0 0 Z " fill="#917495" transform="translate(999,435)"/>
<path d="M0 0 C1.32 0.33 2.64 0.66 4 1 C3.01 1.495 3.01 1.495 2 2 C3.11854586 5.72614153 3.11854586 5.72614153 6 8 C4.33388095 8.042721 2.66617115 8.04063832 1 8 C0 7 0 7 -0.0625 3.4375 C-0.041875 2.303125 -0.02125 1.16875 0 0 Z " fill="#E9E9E9" transform="translate(862,599)"/>
<path d="M0 0 C0.66 0.33 1.32 0.66 2 1 C1.814375 1.5775 1.62875 2.155 1.4375 2.75 C0.95976454 5.20692525 1.24270636 6.64397534 2 9 C1.34 9 0.68 9 0 9 C-0.33 9.66 -0.66 10.32 -1 11 C-2.38550197 8.22899606 -2.1877467 6.0665294 -2 3 C-1.34 2.01 -0.68 1.02 0 0 Z " fill="#9A7B9F" transform="translate(860,579)"/>
<path d="M0 0 C-1.8125 3 -1.8125 3 -4 6 C-4.99 6 -5.98 6 -7 6 C-7.33 4.68 -7.66 3.36 -8 2 C-4.77208445 -0.1519437 -3.71599191 -0.20086443 0 0 Z " fill="#F5F5F4" transform="translate(999,571)"/>
<path d="M0 0 C0.33 0.66 0.66 1.32 1 2 C0.06421005 4.35981813 -0.93347808 6.69631264 -2 9 C-2.99 8.67 -3.98 8.34 -5 8 C-4.67 5.69 -4.34 3.38 -4 1 C-2.68 0.67 -1.36 0.34 0 0 Z " fill="#AA89B0" transform="translate(1062,579)"/>
<path d="M0 0 C0.33 0.66 0.66 1.32 1 2 C1.66 2.33 2.32 2.66 3 3 C2.21625 3.0825 1.4325 3.165 0.625 3.25 C-2.14749104 3.72806339 -2.14749104 3.72806339 -3.3125 6.0625 C-3.6528125 7.0215625 -3.6528125 7.0215625 -4 8 C-4.99 8 -5.98 8 -7 8 C-5.50902342 4.2047869 -3.24299151 2.38957269 0 0 Z " fill="#AA89AF" transform="translate(889,454)"/>
<path d="M0 0 C0.33 0.99 0.66 1.98 1 3 C2.670625 2.690625 2.670625 2.690625 4.375 2.375 C5.57125 2.25125 6.7675 2.1275 8 2 C8.66 2.66 9.32 3.32 10 4 C6.78548731 5.60725635 3.56387464 5.05748185 0 5 C0 3.35 0 1.7 0 0 Z " fill="#E8E7E6" transform="translate(892,632)"/>
<path d="M0 0 C0.33 0.66 0.66 1.32 1 2 C1.99 1.34 2.98 0.68 4 0 C4.99 0.33 5.98 0.66 7 1 C6.67 2.32 6.34 3.64 6 5 C3.03 4.505 3.03 4.505 0 4 C0 2.68 0 1.36 0 0 Z " fill="#F6F2F2" transform="translate(965,595)"/>
<path d="M0 0 C0.33 2.31 0.66 4.62 1 7 C0.01 7.33 -0.98 7.66 -2 8 C-2 5.69 -2 3.38 -2 1 C-3.32 0.67 -4.64 0.34 -6 0 C-3.50907189 -1.24546405 -2.58919267 -0.7767578 0 0 Z " fill="#F8F4F7" transform="translate(966,564)"/>
<path d="M0 0 C3.57410797 2.68058098 6.31941902 5.42589203 9 9 C8.67 9.66 8.34 10.32 8 11 C5.28179134 9.18786089 4.13162568 8.07846042 2.3125 5.5 C1.87550781 4.8915625 1.43851563 4.283125 0.98828125 3.65625 C0 2 0 2 0 0 Z " fill="#886F8C" transform="translate(1041,463)"/>
<path d="M0 0 C1.65 0 3.3 0 5 0 C2.8709858 2.34191563 0.95591271 3.83554954 -2 5 C-3.32 5 -4.64 5 -6 5 C-5.67 4.01 -5.34 3.02 -5 2 C-3.35 2 -1.7 2 0 2 C0 1.34 0 0.68 0 0 Z " fill="#F9F5F7" transform="translate(909,436)"/>
<path d="M0 0 C0 1.65 0 3.3 0 5 C-1.98 5.99 -1.98 5.99 -4 7 C-4.33 5.35 -4.66 3.7 -5 2 C-2 0 -2 0 0 0 Z " fill="#F4F5F4" transform="translate(980,587)"/>
<path d="M0 0 C0 1.65 0 3.3 0 5 C-1.98 5.99 -1.98 5.99 -4 7 C-4.33 5.35 -4.66 3.7 -5 2 C-2 0 -2 0 0 0 Z " fill="#F4F5F4" transform="translate(1020,547)"/>
<path d="M0 0 C0.94875 0.04125 1.8975 0.0825 2.875 0.125 C0.91117993 1.63059539 -0.90763366 3.01631683 -3.125 4.125 C-3.78272428 7.15434491 -3.78272428 7.15434491 -4.125 10.125 C-4.455 10.125 -4.785 10.125 -5.125 10.125 C-5.3203125 4.0703125 -5.3203125 4.0703125 -5.125 2.125 C-3.125 0.125 -3.125 0.125 0 0 Z " fill="#FBF2FA" transform="translate(969.125,479.875)"/>
<path d="M0 0 C0.66 0.66 1.32 1.32 2 2 C1.67 2.99 1.34 3.98 1 5 C-1.31 5 -3.62 5 -6 5 C-5.34 3.68 -4.68 2.36 -4 1 C-2.68 1.33 -1.36 1.66 0 2 C0 1.34 0 0.68 0 0 Z " fill="#E9E8E8" transform="translate(1026,632)"/>
<path d="M0 0 C3.7952131 1.49097658 5.61042731 3.75700849 8 7 C7.38125 6.814375 6.7625 6.62875 6.125 6.4375 C3.95839822 5.76313824 3.95839822 5.76313824 2 7 C2 5.35 2 3.7 2 2 C1.34 2 0.68 2 0 2 C0 1.34 0 0.68 0 0 Z " fill="#F4F1F3" transform="translate(989,499)"/>
<path d="M0 0 C4.29 0 8.58 0 13 0 C13 0.33 13 0.66 13 1 C10.03 1 7.06 1 4 1 C3.67 1.99 3.34 2.98 3 4 C2.34 4 1.68 4 1 4 C0.67 2.68 0.34 1.36 0 0 Z " fill="#EBE8E8" transform="translate(1059,487)"/>
<path d="M0 0 C1.32 0.33 2.64 0.66 4 1 C2.03681826 4.53372712 -0.04070881 7.24479785 -3 10 C-3.33 9.34 -3.66 8.68 -4 8 C-3.34 8 -2.68 8 -2 8 C-1.34 5.36 -0.68 2.72 0 0 Z " fill="#EDE8EB" transform="translate(877,457)"/>
<path d="M0 0 C0.33 0 0.66 0 1 0 C1.125 2.375 1.125 2.375 1 5 C0.34 5.66 -0.32 6.32 -1 7 C-1.99 7 -2.98 7 -4 7 C-4.33 6.01 -4.66 5.02 -5 4 C-4.01 3.67 -3.02 3.34 -2 3 C-1.34 2.01 -0.68 1.02 0 0 Z " fill="#F7F4F3" transform="translate(1028,537)"/>
<path d="M0 0 C3.24208567 0.35049575 4.61527704 0.56221181 6.8125 3.0625 C7.204375 3.701875 7.59625 4.34125 8 5 C5 5 5 5 2 3 C1.34 3 0.68 3 0 3 C0 2.01 0 1.02 0 0 Z " fill="#EFEBEE" transform="translate(877,619)"/>
<path d="M0 0 C2 3 2 3 1.625 5.1875 C1.41875 5.785625 1.2125 6.38375 1 7 C-0.65 7 -2.3 7 -4 7 C-3.34 6.01 -2.68 5.02 -2 4 C-2 3.01 -2 2.02 -2 1 C-1.34 1.33 -0.68 1.66 0 2 C0 1.34 0 0.68 0 0 Z " fill="#EAE8E8" transform="translate(1056,600)"/>
<path d="M0 0 C1 2 1 2 0.0625 5.125 C-0.288125 6.07375 -0.63875 7.0225 -1 8 C-2.32 8 -3.64 8 -5 8 C-3.62845496 5.04590299 -2.01136276 2.55991624 0 0 Z " fill="#8F7292" transform="translate(871,471)"/>
<path d="M0 0 C1.15224028 0.92961422 2.29659176 1.8690125 3.4375 2.8125 C4.07558594 3.33457031 4.71367188 3.85664063 5.37109375 4.39453125 C7 6 7 6 8 9 C4.68470727 8.01437243 3.25050621 7.34552581 1.1875 4.5 C0 2 0 2 0 0 Z " fill="#AC8BAF" transform="translate(1042,467)"/>
<path d="M0 0 C1.5625 1.8125 1.5625 1.8125 3 4 C2.67 4.99 2.34 5.98 2 7 C1.38125 6.649375 0.7625 6.29875 0.125 5.9375 C-0.926875 5.4734375 -0.926875 5.4734375 -2 5 C-2.99 5.495 -2.99 5.495 -4 6 C-2.84826645 3.53199953 -1.95216435 1.95216435 0 0 Z " fill="#907393" transform="translate(876,465)"/>
<path d="M0 0 C2.97 0.495 2.97 0.495 6 1 C4.35 2.65 2.7 4.3 1 6 C0 3 0 3 0 0 Z " fill="#EFEBEE" transform="translate(1007,557)"/>
<path d="M0 0 C0.99 0 1.98 0 3 0 C3 2.64 3 5.28 3 8 C2.34 6.68 1.68 5.36 1 4 C0.34 4.66 -0.32 5.32 -1 6 C-0.67 4.02 -0.34 2.04 0 0 Z " fill="#9A7C9E" transform="translate(1064,555)"/>
<path d="M0 0 C0.33 0.66 0.66 1.32 1 2 C0.01 2.495 0.01 2.495 -1 3 C-0.01 3.33 0.98 3.66 2 4 C1.67 4.99 1.34 5.98 1 7 C-1.02054804 5.35830472 -3.02043058 3.69088222 -5 2 C-5 1.67 -5 1.34 -5 1 C-3.35 0.67 -1.7 0.34 0 0 Z " fill="#896E8D" transform="translate(997,499)"/>
<path d="M0 0 C0.75 1.625 0.75 1.625 1 4 C-0.9375 7.25 -0.9375 7.25 -3 10 C-4 7 -4 7 -3.22265625 5.17578125 C-2.1484375 3.45052083 -1.07421875 1.72526042 0 0 Z " fill="#8B6F8E" transform="translate(861,486)"/>
<path d="M0 0 C1.32 1.32 2.64 2.64 4 4 C3.67 4.66 3.34 5.32 3 6 C1.68 5.67 0.36 5.34 -1 5 C-0.67 3.35 -0.34 1.7 0 0 Z " fill="#AA89AD" transform="translate(1050,477)"/>
<path d="M0 0 C2 0.75 2 0.75 4 3.75 C3.34 3.75 2.68 3.75 2 3.75 C2 4.74 2 5.73 2 6.75 C1.34 6.42 0.68 6.09 0 5.75 C0.33 5.09 0.66 4.43 1 3.75 C0.34 3.42 -0.32 3.09 -1 2.75 C-1 2.42 -1 2.09 -1 1.75 C-1.99 1.42 -2.98 1.09 -4 0.75 C-2 -0.25 -2 -0.25 0 0 Z " fill="#AB8AAE" transform="translate(1031,455.25)"/>
<path d="M0 0 C0.66 0.33 1.32 0.66 2 1 C1.1875 2.9375 1.1875 2.9375 0 5 C-0.99 5.33 -1.98 5.66 -3 6 C-3 4.35 -3 2.7 -3 1 C-2.01 0.67 -1.02 0.34 0 0 Z " fill="#AA88AD" transform="translate(1019,629)"/>
<path d="M0 0 C1.98 0 3.96 0 6 0 C6.33 0.99 6.66 1.98 7 3 C4.36 3 1.72 3 -1 3 C-0.67 2.01 -0.34 1.02 0 0 Z " fill="#F7F8F7" transform="translate(880,624)"/>
<path d="M0 0 C1.32 0.66 2.64 1.32 4 2 C2.35 3.65 0.7 5.3 -1 7 C-1.625 5.125 -1.625 5.125 -2 3 C-1.34 2.34 -0.68 1.68 0 1 C0 0.67 0 0.34 0 0 Z " fill="#927494" transform="translate(1041,611)"/>
<path d="M0 0 C2.475 0.495 2.475 0.495 5 1 C4.39816251 3.02045442 3.72693904 5.02111039 3 7 C2.01 7.495 2.01 7.495 1 8 C0.67 5.36 0.34 2.72 0 0 Z " fill="#917492" transform="translate(1056,586)"/>
<path d="M0 0 C0.66 0 1.32 0 2 0 C2.66 1.98 3.32 3.96 4 6 C1.03 5.505 1.03 5.505 -2 5 C-1.34 3.35 -0.68 1.7 0 0 Z " fill="#AB88AF" transform="translate(859,493)"/>
<path d="M0 0 C1.65 0 3.3 0 5 0 C5 1.98 5 3.96 5 6 C4.67 5.34 4.34 4.68 4 4 C3.01 4 2.02 4 1 4 C0.67 2.68 0.34 1.36 0 0 Z " fill="#EAEAE4" transform="translate(1052,472)"/>
<path d="M0 0 C1.32 0.99 2.64 1.98 4 3 C2.02 4.32 0.04 5.64 -2 7 C-1.125 2.25 -1.125 2.25 0 0 Z " fill="#EDE4EC" transform="translate(892,445)"/>
<path d="M0 0 C1.98 0.495 1.98 0.495 4 1 C4 1.99 4 2.98 4 4 C3.01 4.66 2.02 5.32 1 6 C-0.0625 4.125 -0.0625 4.125 -1 2 C-0.67 1.34 -0.34 0.68 0 0 Z " fill="#F6F7F3" transform="translate(1027,445)"/>
<path d="M0 0 C1.32 0 2.64 0 4 0 C4.33 2.31 4.66 4.62 5 7 C4.01 6.34 3.02 5.68 2 5 C2 4.34 2 3.68 2 3 C1.34 3 0.68 3 0 3 C0 2.01 0 1.02 0 0 Z " fill="#A988AC" transform="translate(874,608)"/>
<path d="M0 0 C2.31 1.98 4.62 3.96 7 6 C6.67 6.99 6.34 7.98 6 9 C4.99406757 7.8803014 3.9954151 6.7540588 3 5.625 C2.443125 4.99851562 1.88625 4.37203125 1.3125 3.7265625 C0 2 0 2 0 0 Z " fill="#8F7592" transform="translate(867,602)"/>
<path d="M0 0 C0.33 0 0.66 0 1 0 C1 2.64 1 5.28 1 8 C-0.32 8 -1.64 8 -3 8 C-2.5359375 7.13375 -2.5359375 7.13375 -2.0625 6.25 C-1.07416636 4.15705816 -0.4831387 2.25464725 0 0 Z " fill="#97779C" transform="translate(1070,547)"/>
<path d="M0 0 C1.32 0 2.64 0 4 0 C4 0.66 4 1.32 4 2 C4.66 2 5.32 2 6 2 C5.67 3.32 5.34 4.64 5 6 C3.35 4.02 1.7 2.04 0 0 Z " fill="#886D8F" transform="translate(1008,516)"/>
<path d="M0 0 C2.31 0.33 4.62 0.66 7 1 C7 1.99 7 2.98 7 4 C4.625 3.6875 4.625 3.6875 2 3 C1.34 2.01 0.68 1.02 0 0 Z " fill="#937497" transform="translate(976,484)"/>
</svg>
