<?xml version="1.0" encoding="UTF-8"?>
<svg version="1.1" xmlns="http://www.w3.org/2000/svg" width="225" height="225">
<path d="M0 0 C74.25 0 148.5 0 225 0 C225 74.25 225 148.5 225 225 C150.75 225 76.5 225 0 225 C0 150.75 0 76.5 0 0 Z " fill="#FEFDFE" transform="translate(0,0)"/>
<path d="M0 0 C2.75266252 3.42222908 3.07001055 5.12332125 2.77734375 9.40625 C1.74177332 14.90608625 -0.59222065 19.859686 -3.25 24.75 C-7.1267049 33.17761935 -8.17596129 41.68469128 -7.6875 50.875 C-7.51734375 49.76382813 -7.3471875 48.65265625 -7.171875 47.5078125 C-5.84428561 39.20594105 -4.44803215 31.47280985 -0.6875 23.875 C-0.26726562 22.98554687 0.15296875 22.09609375 0.5859375 21.1796875 C4.27537371 13.86196596 9.27170984 5.34144167 16.8671875 1.625 C25.16820405 -0.92099869 31.90406606 2.04409983 39.3125 5.875 C42.18599915 7.54597598 44.47917409 9.06850452 46.3125 11.875 C47.16529072 16.16100855 46.68365766 19.76152702 45.3125 23.875 C45.08183114 27.2249321 45.12732322 30.58044794 45.125 33.9375 C45.11275391 34.84177734 45.10050781 35.74605469 45.08789062 36.67773438 C45.074404 42.96699754 45.85119017 48.76068096 47.3125 54.875 C47.3268811 53.78203613 47.3268811 53.78203613 47.34155273 52.66699219 C47.36442057 50.92903646 47.38728841 49.19108073 47.41015625 47.453125 C47.31988838 45.07005315 46.89642421 43.16995795 46.3125 40.875 C46.03306196 35.82045902 46.00053841 30.79485596 47.3125 25.875 C53.36335152 25.24470297 57.44549246 25.78173424 62.46484375 29.32421875 C71.43667796 36.85448975 76.48471959 46.97317684 77.56640625 58.60546875 C77.71559118 65.49781264 76.63152849 72.12675601 75.3125 78.875 C78.70158118 71.5658816 82.07219069 64.25146884 85.3125 56.875 C88.50067529 57.17270737 89.91064703 57.40964882 92.04296875 59.87890625 C97.75386495 69.90742371 100.71214996 80.10470574 97.54296875 91.6875 C94.16878648 99.50892605 88.13514441 103.18529751 80.91015625 107.21484375 C74.85437116 110.78620419 72.42387197 114.74409963 69.12890625 120.890625 C65.14151965 127.44194407 59.76657924 131.97494059 52.3125 133.875 C38.89519739 135.11975515 38.89519739 135.11975515 33.1875 132.625 C29.5025186 129.10023519 28.19369126 125.54036243 26.4453125 120.8046875 C25.12342465 117.38601202 23.49955404 114.79107205 21.3125 111.875 C22.25204445 114.85619772 22.25204445 114.85619772 23.50390625 117.546875 C28.30957816 128.33567689 28.30957816 128.33567689 27.3125 133.875 C24.41699977 139.55463507 20.55446196 142.50944633 14.734375 144.9609375 C10.24946067 146.15896256 6.05991205 146.24313163 1.4375 146.25 C0.57769531 146.27449219 -0.28210938 146.29898438 -1.16796875 146.32421875 C-8.44206979 146.35733302 -13.29629244 144.45770775 -19.046875 140.078125 C-21.26973372 137.0931433 -22.00665074 134.21541856 -22.9375 130.625 C-23.44023437 128.73007812 -23.44023437 128.73007812 -23.953125 126.796875 C-24.19546875 125.83265625 -24.4378125 124.8684375 -24.6875 123.875 C-24.89424944 129.66398419 -24.27912079 134.30432723 -22.6875 139.875 C-30.52926438 140.53458766 -36.40847805 139.91065127 -42.6875 134.875 C-46.29564972 131.13081591 -47.30598126 128.31566609 -47.9375 123.1875 C-48.08703125 122.04925781 -48.2365625 120.91101563 -48.390625 119.73828125 C-48.6875 116.875 -48.6875 116.875 -48.6875 114.875 C-49.3475 114.875 -50.0075 114.875 -50.6875 114.875 C-50.6875 119.165 -50.6875 123.455 -50.6875 127.875 C-59.01040367 129.95572592 -69.0209241 130.2250491 -76.6875 125.875 C-80.47784613 122.84592846 -82.87361675 119.61737311 -83.8125 114.8125 C-83.65953022 109.99395199 -82.68560315 108.50906442 -79.6875 104.875 C-80.15800781 105.28492188 -80.62851563 105.69484375 -81.11328125 106.1171875 C-81.73589844 106.65601563 -82.35851562 107.19484375 -83 107.75 C-83.61488281 108.28367187 -84.22976562 108.81734375 -84.86328125 109.3671875 C-90.26632529 113.83308686 -94.92082275 113.42243675 -101.6875 112.875 C-106.80127012 111.38735778 -109.21240095 108.63897396 -111.765625 104.12109375 C-113.33715142 100.29216286 -113.62398802 96.90910224 -112.6875 92.875 C-111.2555474 90.18885444 -109.6797649 88.21591125 -107.6875 85.875 C-108.595 86.555625 -109.5025 87.23625 -110.4375 87.9375 C-113.6875 89.875 -113.6875 89.875 -115.72265625 89.70703125 C-118.12318184 88.6905065 -118.93519715 87.65289133 -120.375 85.5 C-120.79136719 84.89414063 -121.20773438 84.28828125 -121.63671875 83.6640625 C-124.37284219 79.00553262 -124.44501007 74.10041668 -123.6875 68.875 C-119.62536824 58.16691216 -119.62536824 58.16691216 -114.6875 54.875 C-114.32140625 55.39449219 -113.9553125 55.91398437 -113.578125 56.44921875 C-109.96591071 61.10209477 -107.20320238 63.29351268 -101.5625 65.125 C-97.70891774 66.52367191 -96.08443844 67.2590321 -93.83984375 70.7421875 C-92.59774325 73.76233857 -91.56933634 76.73261874 -90.6875 79.875 C-90.3575 80.865 -90.0275 81.855 -89.6875 82.875 C-89.29008757 88.14071469 -90.0207578 91.3193154 -92.6875 95.875 C-88.63618589 91.97111127 -88.63618589 91.97111127 -87.3125 86.625 C-87.40247304 78.39246698 -91.50840983 70.2460615 -95 62.9375 C-96.75110867 59.07076616 -97.32277894 56.16313283 -96.6875 51.875 C-95.12157881 48.19317554 -93.08258877 44.09486573 -89.6875 41.875 C-86.625 41.5625 -86.625 41.5625 -83.6875 41.875 C-81.6875 43.875 -81.6875 43.875 -81.5625 46.5 C-81.60375 47.28375 -81.645 48.0675 -81.6875 48.875 C-82.6775 49.37 -82.6775 49.37 -83.6875 49.875 C-82.0375 50.535 -80.3875 51.195 -78.6875 51.875 C-78.79578125 51.03582031 -78.79578125 51.03582031 -78.90625 50.1796875 C-80.31662939 37.99557667 -81.45246445 26.52244668 -74.390625 15.9296875 C-71.5867756 12.82232863 -69.32189063 11.97814146 -65.1796875 11.3046875 C-58.94831468 11.01975395 -53.94127547 10.9821487 -48.8125 14.8125 C-47.0078125 16.46484375 -47.0078125 16.46484375 -45.6875 17.875 C-45.3575 18.205 -45.0275 18.535 -44.6875 18.875 C-44.63273088 29.10587205 -45.24505708 38.49421355 -49.6875 47.875 C-44.9200968 44.2583493 -43.73964717 39.52971164 -42.6875 33.875 C-42.21817853 27.87821202 -42.25117164 21.8792293 -42.24804688 15.8671875 C-42.12260359 7.82151502 -41.60063599 3.93306696 -36 -1.875 C-25.5407096 -7.52867049 -9.8060566 -6.66811849 0 0 Z " fill="#810381" transform="translate(124.6875,50.125)"/>
<path d="M0 0 C0.33 0 0.66 0 1 0 C1 32.34 1 64.68 1 98 C-73.25 98 -147.5 98 -224 98 C-224 66.65 -224 35.3 -224 3 C-218.375 8.625 -218.375 8.625 -216 12 C-212.64404172 11.40072174 -210.62198774 10.15377564 -208 8 C-207.34 8.33 -206.68 8.66 -206 9 C-207.2375 10.4540625 -207.2375 10.4540625 -208.5 11.9375 C-211.05642247 15.56031585 -211.75252974 18.30957524 -211.48828125 22.71875 C-210.63543818 26.70323283 -208.83908237 30.07679667 -206 33 C-200.59650441 35.76097667 -194.91239284 36.14963194 -189 35 C-185.50085552 32.74914583 -182.74880328 30.10975725 -180 27 C-179.34 27.33 -178.68 27.66 -178 28 C-178.680625 28.825 -179.36125 29.65 -180.0625 30.5 C-182.24926689 33.81138986 -182.4190822 36.18939328 -181.66015625 40.04296875 C-180.2396264 44.25412527 -177.98700579 46.81406186 -174.265625 49.03515625 C-166.69117467 52.19117722 -158.03565496 51.24909608 -150 51 C-150 46.71 -150 42.42 -150 38 C-149.34 38 -148.68 38 -148 38 C-146.20891875 41.58216251 -146.24762086 45.79046044 -145.79296875 49.73828125 C-144.73583461 54.08659164 -142.7974921 56.63887013 -139.24609375 59.328125 C-133.61457572 62.19861799 -128.27348237 62.76935727 -122 63 C-122.495 61.906875 -122.99 60.81375 -123.5 59.6875 C-125.48623962 54.49343677 -125.27222437 49.484817 -125 44 C-122.77384033 47.33923951 -122.18698065 49.98735223 -121.25 53.875 C-119.56483318 59.95162384 -118.48120211 62.86788451 -113 66 C-105.11685185 70.10396102 -93.07737727 69.08091461 -84.60546875 67.27734375 C-78.98176493 65.19480276 -75.71529571 62.43059142 -73 57 C-71.91287914 48.66540673 -76.29754748 41.24919443 -80 34 C-75.99857982 35.33380673 -75.49928712 37.0671265 -73.4375 40.6875 C-72.83808594 41.72261719 -72.23867187 42.75773437 -71.62109375 43.82421875 C-70 47 -70 47 -69.16015625 50.20703125 C-68.20649093 53.21090148 -68.20649093 53.21090148 -65.33984375 54.8515625 C-58.84197702 57.08591667 -49.64187152 57.38953429 -43.0625 54.9375 C-36.73495941 50.93436207 -32.40155748 47.21296002 -29 40.4375 C-26.19694005 34.92907388 -23.22088655 32.18064249 -18 29 C-16.05964052 27.81717813 -14.1222435 26.62948577 -12.1875 25.4375 C-11.27355469 24.89996094 -10.35960937 24.36242187 -9.41796875 23.80859375 C-6.74068786 21.80603954 -5.60425643 19.89536972 -4 17 C-3.01 16.505 -3.01 16.505 -2 16 C-0.89485234 12.68455701 -0.67892369 9.79589889 -0.4375 6.3125 C-0.35371094 5.13300781 -0.26992187 3.95351562 -0.18359375 2.73828125 C-0.12300781 1.83464844 -0.06242188 0.93101563 0 0 Z " fill="#FEFDFE" transform="translate(224,127)"/>
<path d="M0 0 C2.93871164 1.6008245 5.71481596 3.26821064 8.5 5.125 C8.5 6.445 8.5 7.765 8.5 9.125 C7.78714844 9.16238281 7.07429688 9.19976562 6.33984375 9.23828125 C-0.28503313 9.66733602 -0.28503313 9.66733602 -6.5 11.8125 C-7.49 12.245625 -8.48 12.67875 -9.5 13.125 C-10.49 12.465 -11.48 11.805 -12.5 11.125 C-11.51 13.6 -11.51 13.6 -10.5 16.125 C-9.70928101 15.69622559 -9.70928101 15.69622559 -8.90258789 15.25878906 C-2.73569482 12.18373514 2.23881404 11.61466862 9.0625 11.875 C10.43245117 11.90207031 10.43245117 11.90207031 11.83007812 11.9296875 C14.05453514 11.97627299 16.27666967 12.04164515 18.5 12.125 C16.19 11.135 13.88 10.145 11.5 9.125 C11.5 7.475 11.5 5.825 11.5 4.125 C17.05505696 3.77780894 21.56504831 4.41077657 26.5 7.125 C29.11440141 9.80643735 30.31896531 11.58189592 31.5 15.125 C27.54 15.62 27.54 15.62 23.5 16.125 C24.31082031 16.29515625 25.12164062 16.4653125 25.95703125 16.640625 C46.77227017 21.19623026 46.77227017 21.19623026 51.5 27.125 C51.5 28.445 51.5 29.765 51.5 31.125 C49.52 31.125 47.54 31.125 45.5 31.125 C45.5 30.465 45.5 29.805 45.5 29.125 C44.51 29.785 43.52 30.445 42.5 31.125 C42.24339906 34.20421132 42.10568496 36.33636993 43.5 39.125 C43.83 37.145 44.16 35.165 44.5 33.125 C50.36181863 33.52926335 53.7823519 34.3278686 58.5 38.125 C59.60647808 40.33795616 59.69588368 41.67172699 59.75 44.125 C59.78867187 45.176875 59.78867187 45.176875 59.828125 46.25 C59.66570312 47.178125 59.66570312 47.178125 59.5 48.125 C56.5 50.125 56.5 50.125 54.125 50 C51.5 49.125 51.5 49.125 49.29296875 47.2109375 C45.99869785 44.75060091 43.15205103 43.91245261 39.1875 42.875 C37.93324219 42.53984375 36.67898437 42.2046875 35.38671875 41.859375 C34.43410156 41.61703125 33.48148437 41.3746875 32.5 41.125 C32.50902344 40.42375 32.51804687 39.7225 32.52734375 39 C32.32638413 32.56929214 31.40753844 28.44783404 26.7734375 23.8515625 C19.83925861 18.58539915 12.02041747 16.20467705 3.34375 16.55859375 C-1.38950854 17.50134442 -4.97303222 19.89124807 -8.5 23.125 C-8.83 23.785 -9.16 24.445 -9.5 25.125 C-10.16 25.125 -10.82 25.125 -11.5 25.125 C-11.995 23.5471875 -11.995 23.5471875 -12.5 21.9375 C-14.50504031 17.24323501 -17.99717376 15.23052471 -22.5 13.125 C-27.10213929 11.28026062 -31.33135391 10.73999198 -36.25 10.75 C-36.95084717 10.74943604 -37.65169434 10.74887207 -38.3737793 10.74829102 C-44.39429 10.87503132 -49.13338521 12.40343772 -54.5 15.125 C-55.49 15.455 -56.48 15.785 -57.5 16.125 C-59.70359712 21.18031105 -60.49705314 26.7261584 -61.5 32.125 C-66.25 30.25 -66.25 30.25 -68.5 29.125 C-68.644375 28.031875 -68.78875 26.93875 -68.9375 25.8125 C-69.31339856 23.84586425 -69.31339856 23.84586425 -70.5 22.125 C-73.26958768 20.70780069 -75.98385837 19.81719382 -78.96875 18.94921875 C-81.5 18.125 -81.5 18.125 -83.5 16.125 C-83.17028521 12.82785207 -82.8773161 11.5023161 -80.5 9.125 C-69.73729348 7.59795842 -69.73729348 7.59795842 -65.53125 10.46875 C-64.1875 12.125 -64.1875 12.125 -62.5 15.125 C-62.768125 13.8875 -63.03625 12.65 -63.3125 11.375 C-63.58203125 9.171875 -63.58203125 9.171875 -63.5 7.125 C-61.5 4.625 -61.5 4.625 -58.5 3.125 C-54.6875 2.875 -54.6875 2.875 -51.5 3.125 C-51.005 5.105 -51.005 5.105 -50.5 7.125 C-51.49 7.455 -52.48 7.785 -53.5 8.125 C-51.52 8.125 -49.54 8.125 -47.5 8.125 C-47.995 5.155 -47.995 5.155 -48.5 2.125 C-43.31168687 -1.15182935 -38.48980693 -1.66882983 -32.5 -0.875 C-31.51 -0.215 -30.52 0.445 -29.5 1.125 C-29.5 1.785 -29.5 2.445 -29.5 3.125 C-30.82 3.455 -32.14 3.785 -33.5 4.125 C-31.19 4.125 -28.88 4.125 -26.5 4.125 C-26.5 3.135 -26.5 2.145 -26.5 1.125 C-17.24982813 -3.99114444 -9.60755226 -4.7284455 0 0 Z " fill="#830A83" transform="translate(141.5,31.875)"/>
<path d="M0 0 C3.49416309 2.14122314 5.33975438 3.96832097 7.44140625 7.49609375 C7.44140625 8.81609375 7.44140625 10.13609375 7.44140625 11.49609375 C8.10140625 11.49609375 8.76140625 11.49609375 9.44140625 11.49609375 C9.70179688 10.8928125 9.9621875 10.28953125 10.23046875 9.66796875 C12.35694499 5.85403072 15.45572466 4.11191061 19.44140625 2.49609375 C28.73155924 0.70697727 36.57545482 3.61125423 44.44140625 8.49609375 C48.53968213 11.59002241 51.12744572 14.25394167 51.85546875 19.453125 C51.87643841 22.17568612 51.75442405 24.79320985 51.44140625 27.49609375 C52.57578125 27.57859375 53.71015625 27.66109375 54.87890625 27.74609375 C60.23194207 28.41284198 66.21270482 30.13924199 70.00390625 34.1484375 C70.47828125 34.59316406 70.95265625 35.03789063 71.44140625 35.49609375 C74.59062534 35.26326226 74.59062534 35.26326226 77.44140625 34.49609375 C77.77140625 32.18609375 78.10140625 29.87609375 78.44140625 27.49609375 C78.77140625 27.49609375 79.10140625 27.49609375 79.44140625 27.49609375 C79.93640625 30.46609375 79.93640625 30.46609375 80.44140625 33.49609375 C81.43140625 32.50609375 81.43140625 32.50609375 82.44140625 31.49609375 C86.40275137 31.81728389 89.21511515 33.22897027 92.44140625 35.49609375 C94.65054625 38.80980375 94.66622178 39.84069585 94.56640625 43.68359375 C94.54835937 44.58464844 94.5303125 45.48570313 94.51171875 46.4140625 C94.48851562 47.10113281 94.4653125 47.78820312 94.44140625 48.49609375 C92.13140625 49.15609375 89.82140625 49.81609375 87.44140625 50.49609375 C88.51390625 50.49609375 89.58640625 50.49609375 90.69140625 50.49609375 C93.27473958 50.49609375 95.85807292 50.49609375 98.44140625 50.49609375 C102.074126 54.15426162 102.70326454 56.98355691 102.8671875 62.09375 C102.85154221 64.24897194 102.8128195 66.40412036 102.75390625 68.55859375 C102.7369873 69.67516357 102.72006836 70.7917334 102.70263672 71.94213867 C102.30359146 93.50472198 102.30359146 93.50472198 99.44140625 98.49609375 C99.11140625 97.83609375 98.78140625 97.17609375 98.44140625 96.49609375 C98.77140625 95.50609375 99.10140625 94.51609375 99.44140625 93.49609375 C100.25356677 82.3601235 98.62653433 73.5159243 92.8203125 63.9921875 C91.13025645 62.15850062 89.86874913 61.87230613 87.44140625 61.49609375 C87.09078125 62.67171875 86.74015625 63.84734375 86.37890625 65.05859375 C84.0418522 72.13782543 80.66668044 78.78929071 77.44140625 85.49609375 C77.11140625 85.49609375 76.78140625 85.49609375 76.44140625 85.49609375 C76.58345366 83.91241628 76.73020778 82.32916057 76.87890625 80.74609375 C77.00072266 79.42351562 77.00072266 79.42351562 77.125 78.07421875 C77.44140625 75.49609375 77.44140625 75.49609375 77.95703125 73.4765625 C80.34890551 63.69688306 77.65757926 53.16631347 72.79296875 44.58984375 C68.90718185 38.82055315 64.89915416 34.33234601 58.44140625 31.49609375 C56.08576029 31.04798238 56.08576029 31.04798238 53.69140625 30.87109375 C52.8921875 30.79632813 52.09296875 30.7215625 51.26953125 30.64453125 C50.66625 30.59554687 50.06296875 30.5465625 49.44140625 30.49609375 C49.41435317 32.91283599 49.39454187 35.32927315 49.37890625 37.74609375 C49.36633789 38.76896484 49.36633789 38.76896484 49.35351562 39.8125 C49.3369302 43.22909772 49.55031712 46.21020259 50.44140625 49.49609375 C50.50765132 51.24496356 50.5269322 52.99612123 50.50390625 54.74609375 C50.49488281 55.638125 50.48585938 56.53015625 50.4765625 57.44921875 C50.46496094 58.1246875 50.45335937 58.80015625 50.44140625 59.49609375 C49.45140625 59.99109375 49.45140625 59.99109375 48.44140625 60.49609375 C46.52353721 53.18421802 46.24877892 46.00955176 46.25390625 38.49609375 C46.25326172 37.56385986 46.25261719 36.63162598 46.25195312 35.67114258 C46.30632408 28.90134025 46.30632408 28.90134025 47.44140625 25.49609375 C47.89820509 22.40836489 47.9804108 19.57767529 47.44140625 16.49609375 C42.70045754 10.70160088 34.3747718 7.37587727 27.09765625 6.078125 C22.47605984 5.89148361 19.2101047 6.90511357 15.44140625 9.49609375 C9.50560249 15.06752144 5.63820255 21.05981849 2.44140625 28.49609375 C2.07144531 29.32238281 1.70148438 30.14867187 1.3203125 31 C-2.48927103 39.91693726 -3.7816067 48.8859907 -4.55859375 58.49609375 C-8.1711894 53.07720027 -7.04340528 46.98304585 -5.8359375 40.7890625 C-4.11810215 33.92467589 -2.01981831 27.65770379 1.390625 21.44921875 C3.81057347 16.95117327 4.19411921 12.49301953 3.44140625 7.49609375 C-0.26387086 2.64090306 -6.79134921 1.55950223 -12.55859375 0.49609375 C-20.09620512 -0.23407725 -28.00443682 0.22748294 -34.49609375 4.37109375 C-38.27826531 8.26787657 -38.80627211 11.28128759 -38.8671875 16.66015625 C-38.89232422 17.86542969 -38.91746094 19.07070312 -38.94335938 20.3125 C-38.97819045 22.82807797 -39.00950801 25.34370732 -39.03710938 27.859375 C-39.22822705 36.63214248 -39.48744656 45.60188874 -45.55859375 52.49609375 C-46.21859375 52.49609375 -46.87859375 52.49609375 -47.55859375 52.49609375 C-47.35363281 51.84125 -47.14867188 51.18640625 -46.9375 50.51171875 C-44.86658332 43.49636464 -43.92790781 36.7932302 -43.55859375 29.49609375 C-43.22859375 29.49609375 -42.89859375 29.49609375 -42.55859375 29.49609375 C-42.22859375 31.14609375 -41.89859375 32.79609375 -41.55859375 34.49609375 C-41.55859375 28.22609375 -41.55859375 21.95609375 -41.55859375 15.49609375 C-41.88859375 15.49609375 -42.21859375 15.49609375 -42.55859375 15.49609375 C-42.06285268 10.53868309 -41.34418949 6.67448737 -38.55859375 2.49609375 C-27.62149659 -5.94900659 -12.03871896 -5.78186094 0 0 Z " fill="#EDDEED" transform="translate(122.55859375,45.50390625)"/>
<path d="M0 0 C3.21499788 1.22840622 6.36149898 2.54773717 9.5078125 3.94140625 C11.17197591 4.61429729 12.83777369 5.28323257 14.5078125 5.94140625 C14.5078125 6.93140625 14.5078125 7.92140625 14.5078125 8.94140625 C12.91839844 9.03228516 12.91839844 9.03228516 11.296875 9.125 C9.90884029 9.20940752 8.52082018 9.29405542 7.1328125 9.37890625 C6.43414062 9.41822266 5.73546875 9.45753906 5.015625 9.49804688 C1.13420758 9.68420759 1.13420758 9.68420759 -2.4921875 10.94140625 C-9.02552083 11.17473958 -9.02552083 11.17473958 -11.4921875 9.94140625 C-10.9971875 10.93140625 -10.9971875 10.93140625 -10.4921875 11.94140625 C-9.5021875 12.27140625 -8.5121875 12.60140625 -7.4921875 12.94140625 C-7.7603125 13.58078125 -8.0284375 14.22015625 -8.3046875 14.87890625 C-8.6965625 15.88953125 -9.0884375 16.90015625 -9.4921875 17.94140625 C-9.87117188 18.88886719 -9.87117188 18.88886719 -10.2578125 19.85546875 C-12.59291185 26.15107974 -13.16442385 32.26180905 -13.4921875 38.94140625 C-14.47058594 39.00134766 -14.47058594 39.00134766 -15.46875 39.0625 C-19.3825172 39.53007396 -22.42122687 40.04196666 -25.4921875 42.62109375 C-30.32559014 48.96493472 -30.13499291 55.23964509 -29.4921875 62.94140625 C-33.89061484 62.68267523 -35.98741672 62.38033736 -39.3671875 59.44140625 C-40.0684375 58.61640625 -40.7696875 57.79140625 -41.4921875 56.94140625 C-41.8221875 56.61140625 -42.1521875 56.28140625 -42.4921875 55.94140625 C-42.92853016 49.98482163 -42.89531577 44.49864038 -40.4921875 38.94140625 C-41.8121875 40.59140625 -43.1321875 42.24140625 -44.4921875 43.94140625 C-45.4291691 31.11863954 -45.4291691 31.11863954 -42.0546875 26.87890625 C-40.20525022 25.70832124 -38.42183384 24.91510461 -36.37109375 24.1484375 C-29.89319662 21.39785726 -27.96928291 17.60887871 -25.3046875 11.37890625 C-25.00836426 10.6219043 -24.71204102 9.86490234 -24.40673828 9.08496094 C-19.91298922 -2.01089737 -10.78917879 -3.27054525 0 0 Z " fill="#820682" transform="translate(55.4921875,50.05859375)"/>
<path d="M0 0 C1.13208145 3.39624434 0.83374631 4.53814181 0.00390625 7.9453125 C-0.22562744 8.93168701 -0.45516113 9.91806152 -0.69165039 10.93432617 C-0.93778076 11.98724854 -1.18391113 13.0401709 -1.4375 14.125 C-4.64567757 28.76893692 -6.53920551 42.87208686 0 57 C3.74369113 62.48916737 7.71767053 64.2940226 14 66 C18.37473299 66.77084904 22.14992252 67.07200751 26.08984375 64.7890625 C27.41853688 63.75241875 28.72464742 62.68624396 30.0078125 61.59375 C35.24822139 57.40142289 41.52396193 55.63148277 48.0546875 54.58984375 C50.4755934 53.85579397 51.46024623 52.99614785 53 51 C55.23959776 44.97625429 54.40723547 37.19742473 53.5 30.9375 C52.86531028 25.93931845 52.91677738 21.03034492 53 16 C53.33 16 53.66 16 54 16 C60.4807344 46.38275151 60.4807344 46.38275151 56 54 C56.83144531 54.32613281 57.66289062 54.65226562 58.51953125 54.98828125 C59.60621094 55.42527344 60.69289063 55.86226562 61.8125 56.3125 C62.89144531 56.74175781 63.97039062 57.17101562 65.08203125 57.61328125 C67.76490367 58.88827417 68.97105899 59.95933101 71 62 C75.67360132 62.53631491 78.00359283 62.47904191 82.25 60.4375 C88.08140897 55.26875114 89.66795239 49.49043859 90.75 42.0625 C90.87503906 41.28326172 91.00007812 40.50402344 91.12890625 39.70117188 C91.43172582 37.80272608 91.71764805 35.90159762 92 34 C92.66 34 93.32 34 94 34 C94.5349172 44.42097948 93.36344515 53.09568602 86.609375 61.37109375 C83.48243632 64.53598071 80.5290088 65.90028203 76.125 66.1875 C75.073125 66.0946875 75.073125 66.0946875 74 66 C74.23771118 67.05997192 74.23771118 67.05997192 74.48022461 68.14135742 C75.00759166 71.04175234 75.2061855 73.7938127 75.31640625 76.73828125 C75.35830078 77.80498047 75.40019531 78.87167969 75.44335938 79.97070312 C75.48267578 81.07349609 75.52199219 82.17628906 75.5625 83.3125 C75.60568359 84.43462891 75.64886719 85.55675781 75.69335938 86.71289062 C75.79914787 89.47514569 75.90123672 92.2374863 76 95 C73.48480855 92.812877 72.51958399 91.29553501 72 88 C71.90831429 86.00328889 71.81941634 84.00627583 71.76147461 82.00830078 C71.526781 71.84969416 71.526781 71.84969416 67 63 C59.89937719 58.54470726 50.14350261 58.84153397 42 60 C35.88137914 61.79804467 30.47884754 64.2060163 27.25 69.9375 C25.49538765 74.69744837 25.07241164 78.61640204 26.953125 83.44921875 C29.37716339 88.58112281 32.16124218 92.8322058 36 97 C35.67 97.66 35.34 98.32 35 99 C28.28475623 92.12691931 22.48503043 86.01437738 21.6875 76.125 C22 73 22 73 23 70 C20.29057607 69.89138167 17.585561 69.81241423 14.875 69.75 C14.11445312 69.71648437 13.35390625 69.68296875 12.5703125 69.6484375 C7.22491741 69.55627552 4.12710395 70.29158776 0 74 C-4.241954 79.62550522 -4.52301358 84.03340661 -4.25 90.9375 C-4.23195312 91.81212891 -4.21390625 92.68675781 -4.1953125 93.58789062 C-4.14858353 95.72574108 -4.07685441 97.86302045 -4 100 C-7.24909747 96.75090253 -7.93904437 93.49341285 -8.125 88.9375 C-8.125 85.95571412 -8.08680882 82.98043628 -8 80 C-10.72977064 79.91873891 -13.4571017 79.85938337 -16.1875 79.8125 C-16.95642578 79.78736328 -17.72535156 79.76222656 -18.51757812 79.73632812 C-23.31971493 79.67449804 -25.93801674 80.20786462 -30 83 C-30.66 82.67 -31.32 82.34 -32 82 C-31.34 81.360625 -30.68 80.72125 -30 80.0625 C-27.42323533 76.1168291 -27.0395666 72.62046338 -28 68 C-30.46455458 64.81944332 -33.4275953 63.27595182 -37.359375 62.5859375 C-38.14828125 62.51632813 -38.9371875 62.44671875 -39.75 62.375 C-40.54921875 62.30023438 -41.3484375 62.22546875 -42.171875 62.1484375 C-42.77515625 62.09945312 -43.3784375 62.05046875 -44 62 C-43.67 61.34 -43.34 60.68 -43 60 C-42.58297878 57.0842309 -42.58297878 57.0842309 -43 54 C-44.91666921 51.74934898 -44.91666921 51.74934898 -47 50 C-47 49.34 -47 48.68 -47 48 C-43.1281583 49.25573244 -40.97161329 50.36808079 -39 54 C-38.8125 56.75 -38.8125 56.75 -39 59 C-38.13375 59.0825 -37.2675 59.165 -36.375 59.25 C-31.40571976 60.3542845 -27.24425947 63.06054208 -24 67 C-23.48828125 69.26171875 -23.48828125 69.26171875 -23.3125 71.6875 C-23.21388672 72.89986328 -23.21388672 72.89986328 -23.11328125 74.13671875 C-23.07589844 74.75160156 -23.03851563 75.36648437 -23 76 C-21.55367187 75.98259766 -21.55367187 75.98259766 -20.078125 75.96484375 C-18.81484375 75.95582031 -17.5515625 75.94679688 -16.25 75.9375 C-14.99703125 75.92589844 -13.7440625 75.91429687 -12.453125 75.90234375 C-9.71463499 75.97978973 -7.58119707 76.17219185 -5 77 C-4.7215625 75.9171875 -4.7215625 75.9171875 -4.4375 74.8125 C-2.46665159 70.95649225 0.39798015 69.26330124 4 67 C3.04270084 65.87411986 2.08412105 64.7493285 1.125 63.625 C0.59132812 62.99851563 0.05765625 62.37203125 -0.4921875 61.7265625 C-1.61432007 60.44163349 -2.79371975 59.20628025 -4 58 C-6.7329019 52.01428601 -7.46114299 46.32306288 -7.3125 39.8125 C-7.3012207 38.98588867 -7.28994141 38.15927734 -7.27832031 37.30761719 C-6.6006996 6.6006996 -6.6006996 6.6006996 0 0 Z " fill="#F1E4F1" transform="translate(93,71)"/>
<path d="M0 0 C3.96074927 0.56582132 6.72259306 1.69695729 10 4 C12.20914 7.31371 12.22481553 8.3446021 12.125 12.1875 C12.10695312 13.08855469 12.08890625 13.98960938 12.0703125 14.91796875 C12.04710937 15.60503906 12.02390625 16.29210937 12 17 C9.69 17.66 7.38 18.32 5 19 C6.0725 19 7.145 19 8.25 19 C16 19 16 19 17.73046875 20.5859375 C19.38962126 23.74087981 19.36458592 26.07514437 19.3125 29.625 C19.30863281 30.77226563 19.30476563 31.91953125 19.30078125 33.1015625 C19 36 19 36 17 38 C15.99466333 36.37829621 14.99588093 34.75252763 14 33.125 C13.443125 32.22007813 12.88625 31.31515625 12.3125 30.3828125 C11 28 11 28 11 26 C6.14922412 27.11940982 3.222107 28.1334716 0 32 C-0.33951619 30.43883181 -0.67132544 28.87598662 -1 27.3125 C-1.185625 26.44238281 -1.37125 25.57226562 -1.5625 24.67578125 C-2.1320648 21.19228222 -2.60688162 18.21376324 -1 15 C-1.99 15.33 -2.98 15.66 -4 16 C-4.86657116 14.90554162 -5.71792724 13.79902219 -6.5625 12.6875 C-7.03816406 12.07261719 -7.51382813 11.45773438 -8.00390625 10.82421875 C-8.33261719 10.22222656 -8.66132813 9.62023437 -9 9 C-8.67 8.01 -8.34 7.02 -8 6 C-6.5459375 5.5359375 -6.5459375 5.5359375 -5.0625 5.0625 C-1.89495953 4.31531979 -1.89495953 4.31531979 -0.625 1.875 C-0.41875 1.25625 -0.2125 0.6375 0 0 Z " fill="#820782" transform="translate(205,77)"/>
<path d="M0 0 C0.66 0.33 1.32 0.66 2 1 C0.74156064 4.77531809 -1.04400256 5.69046988 -4.2109375 7.9140625 C-9.89811846 14.54496781 -9.38147405 23.31114224 -9.1875 31.5625 C-9.17396484 32.66658203 -9.16042969 33.77066406 -9.14648438 34.90820312 C-9.11144815 37.60599272 -9.06232591 40.30272636 -9 43 C-11.97 42.67 -14.94 42.34 -18 42 C-14 40 -14 40 -12 40 C-12.66 38.02 -13.32 36.04 -14 34 C-16.78839304 33.49734308 -16.78839304 33.49734308 -20 34 C-23.80752512 37.80752512 -25.7632869 40.66283271 -26.30859375 46.046875 C-25.89981891 51.28333239 -24.11317491 55.45457559 -22.0625 60.25 C-21.32382639 62.02587852 -20.58552858 63.80191341 -19.84765625 65.578125 C-19.51773682 66.35575195 -19.18781738 67.13337891 -18.84790039 67.93457031 C-17.0502254 72.31358856 -16.33538369 76.29451651 -17 81 C-18.875 84.5 -18.875 84.5 -21 87 C-21.66 87 -22.32 87 -23 87 C-22.67 86.154375 -22.34 85.30875 -22 84.4375 C-19.31565698 75.21007086 -22.84491026 67.31017948 -27 59 C-28.67245723 58.43271662 -30.36396296 57.92112747 -32.0625 57.4375 C-38.55958768 55.22374036 -41.97025715 51.40378124 -46 46 C-45.01 45.505 -45.01 45.505 -44 45 C-43.29875 45.763125 -42.5975 46.52625 -41.875 47.3125 C-38.05934415 50.87930873 -34.14221213 53.01111305 -29 54 C-29.33 53.34 -29.66 52.68 -30 52 C-30.99973702 44.59688408 -30.01696896 39.80094773 -25.60546875 33.77734375 C-23.61890068 31.57810172 -21.98186174 30.09386824 -18.95703125 29.8046875 C-18.24933594 29.82789062 -17.54164062 29.85109375 -16.8125 29.875 C-15.554375 29.91625 -14.29625 29.9575 -13 30 C-13.04640625 29.26136719 -13.0928125 28.52273437 -13.140625 27.76171875 C-13.45656964 18.88141748 -11.97824662 11.46736993 -7 4 C-8.32 3.67 -9.64 3.34 -11 3 C-11 2.34 -11 1.68 -11 1 C-10.37351563 1.01160156 -9.74703125 1.02320313 -9.1015625 1.03515625 C-7.87566406 1.04869141 -7.87566406 1.04869141 -6.625 1.0625 C-5.40683594 1.07990234 -5.40683594 1.07990234 -4.1640625 1.09765625 C-1.95062858 1.14466334 -1.95062858 1.14466334 0 0 Z " fill="#EFE1EF" transform="translate(55,59)"/>
<path d="M0 0 C0.33 0 0.66 0 1 0 C7.4807344 30.38275151 7.4807344 30.38275151 3 38 C3.83144531 38.32613281 4.66289062 38.65226562 5.51953125 38.98828125 C6.60621094 39.42527344 7.69289062 39.86226562 8.8125 40.3125 C9.89144531 40.74175781 10.97039062 41.17101562 12.08203125 41.61328125 C14.76490367 42.88827417 15.97105899 43.95933101 18 46 C22.67360132 46.53631491 25.00359283 46.47904191 29.25 44.4375 C35.08140897 39.26875114 36.66795239 33.49043859 37.75 26.0625 C37.87503906 25.28326172 38.00007813 24.50402344 38.12890625 23.70117188 C38.43172582 21.80272608 38.71764805 19.90159762 39 18 C39.66 18 40.32 18 41 18 C41.5349172 28.42097948 40.36344515 37.09568602 33.609375 45.37109375 C30.48243632 48.53598071 27.5290088 49.90028203 23.125 50.1875 C22.073125 50.0946875 22.073125 50.0946875 21 50 C21.15847412 50.70664795 21.31694824 51.4132959 21.48022461 52.14135742 C22.00759166 55.04175234 22.2061855 57.7938127 22.31640625 60.73828125 C22.37924805 62.33833008 22.37924805 62.33833008 22.44335938 63.97070312 C22.48267578 65.07349609 22.52199219 66.17628906 22.5625 67.3125 C22.60568359 68.43462891 22.64886719 69.55675781 22.69335938 70.71289062 C22.79914787 73.47514569 22.90123672 76.2374863 23 79 C20.48480855 76.812877 19.51958399 75.29553501 19 72 C18.90831429 70.00328889 18.81941634 68.00627583 18.76147461 66.00830078 C18.526781 55.84969416 18.526781 55.84969416 14 47 C7.46760057 43.31810214 0.37951276 43.32622846 -7 43 C-7 42.34 -7 41.68 -7 41 C-9.64 41.33 -12.28 41.66 -15 42 C-11.61973078 39.74648719 -9.08482771 39.33456209 -5.15625 38.66015625 C-2.61749295 37.88289186 -1.60118589 37.10399732 0 35 C2.23959776 28.97625429 1.40723547 21.19742473 0.5 14.9375 C-0.13468972 9.93931845 -0.08322262 5.03034492 0 0 Z " fill="#ECDBEC" transform="translate(146,87)"/>
<path d="M0 0 C3.8718417 1.25573244 6.02838671 2.36808079 8 6 C8.1875 8.75 8.1875 8.75 8 11 C8.86625 11.0825 9.7325 11.165 10.625 11.25 C15.59428024 12.3542845 19.75574053 15.06054208 23 19 C23.51171875 21.26171875 23.51171875 21.26171875 23.6875 23.6875 C23.78611328 24.89986328 23.78611328 24.89986328 23.88671875 26.13671875 C23.92410156 26.75160156 23.96148437 27.36648437 24 28 C24.97582031 27.97679687 25.95164062 27.95359375 26.95703125 27.9296875 C28.22933594 27.91164062 29.50164062 27.89359375 30.8125 27.875 C32.07707031 27.85179687 33.34164062 27.82859375 34.64453125 27.8046875 C38 28 38 28 41 30 C35.75557878 32.5526823 31.08110059 32.02944518 25.375 31.77734375 C21.68488218 32.02078902 20.03667431 33.0098938 17 35 C16.34 34.67 15.68 34.34 15 34 C15.66 33.360625 16.32 32.72125 17 32.0625 C19.57676467 28.1168291 19.9604334 24.62046338 19 20 C16.53544542 16.81944332 13.5724047 15.27595182 9.640625 14.5859375 C8.45726562 14.48152344 8.45726562 14.48152344 7.25 14.375 C6.45078125 14.30023438 5.6515625 14.22546875 4.828125 14.1484375 C3.92320313 14.07496094 3.92320313 14.07496094 3 14 C3.33 13.34 3.66 12.68 4 12 C4.41702122 9.0842309 4.41702122 9.0842309 4 6 C2.08333079 3.74934898 2.08333079 3.74934898 0 2 C0 1.34 0 0.68 0 0 Z " fill="#EEDFEE" transform="translate(46,119)"/>
<path d="M0 0 C10.57786267 -1.02919745 18.85102627 1.35792937 27.375 7.79296875 C30.35292214 10.70484826 31.8294356 12.78191274 32.4140625 16.95703125 C32.43503216 19.67959237 32.3130178 22.2971161 32 25 C31.34 25 30.68 25 30 25 C29.20046862 28.28696233 28.90341064 29.71023192 30 33 C30.0671811 35.5150926 29.99819325 38.01236733 29.9375 40.52734375 C29.99699552 42.88113527 30.43163602 44.73095 31 47 C31.06624507 48.74886981 31.08552595 50.50002748 31.0625 52.25 C31.05347656 53.14203125 31.04445312 54.0340625 31.03515625 54.953125 C31.02355469 55.62859375 31.01195312 56.3040625 31 57 C30.01 57.495 30.01 57.495 29 58 C27.08213096 50.68812427 26.80737267 43.51345801 26.8125 36 C26.81185547 35.06776611 26.81121094 34.13553223 26.81054688 33.17504883 C26.86491783 26.4052465 26.86491783 26.4052465 28 23 C28.45679884 19.91227114 28.53900455 17.08158154 28 14 C23.47108808 8.46466321 16.5425328 6.48785632 10 4 C10.33 3.34 10.66 2.68 11 2 C7.37 1.67 3.74 1.34 0 1 C0 0.67 0 0.34 0 0 Z " fill="#E3CCE3" transform="translate(142,48)"/>
<path d="M0 0 C1.58246707 -0.08153933 3.16616273 -0.13943557 4.75 -0.1875 C6.07257813 -0.23970703 6.07257813 -0.23970703 7.421875 -0.29296875 C10.50312129 0.05717287 11.8194961 0.8194961 14 3 C14.25 6.1875 14.25 6.1875 14 9 C14.78375 9.309375 15.5675 9.61875 16.375 9.9375 C19 11 19 11 21 12 C21.33 10.68 21.66 9.36 22 8 C22.33 8 22.66 8 23 8 C23.05790353 11.29159316 23.09356261 14.58305603 23.125 17.875 C23.14175781 18.81214844 23.15851563 19.74929687 23.17578125 20.71484375 C23.18222656 21.61074219 23.18867187 22.50664063 23.1953125 23.4296875 C23.20578613 24.25710449 23.21625977 25.08452148 23.22705078 25.93701172 C23 28 23 28 21 30 C21.020625 29.13117188 21.04125 28.26234375 21.0625 27.3671875 C21.00970628 20.8277456 21.00970628 20.8277456 18.71484375 14.8359375 C12.53368869 9.3204453 3.82029603 10.0189813 -4 10 C-3.34 9.01 -2.68 8.02 -2 7 C1.0390625 6.70703125 1.0390625 6.70703125 4.625 6.8125 C5.81351563 6.83957031 7.00203125 6.86664063 8.2265625 6.89453125 C9.14179687 6.92933594 10.05703125 6.96414062 11 7 C10.67 6.01 10.34 5.02 10 4 C7.67108904 2.97299556 7.67108904 2.97299556 4.9375 2.3125 C4.01839844 2.06113281 3.09929688 1.80976562 2.15234375 1.55078125 C1.44207031 1.36902344 0.73179688 1.18726563 0 1 C0 0.67 0 0.34 0 0 Z " fill="#F7EFF7" transform="translate(59,52)"/>
<path d="M0 0 C0.66 0 1.32 0 2 0 C2.28397435 3.78632464 1.99150816 6.02016812 0.5 9.5625 C-2.05869888 16.02723196 -2.41037921 23.28031857 0.06640625 29.8125 C3.0222255 35.09592624 6.70270582 38.91821278 11.4609375 42.625 C11.96882813 43.07875 12.47671875 43.5325 13 44 C13 44.66 13 45.32 13 46 C4.69330417 43.15199 -1.12967372 36.74065256 -5 29 C-7.01894488 18.53819472 -4.09510383 9.49186567 0 0 Z " fill="#EDDDED" transform="translate(59,82)"/>
<path d="M0 0 C0.66 0.33 1.32 0.66 2 1 C2 1.66 2 2.32 2 3 C0.3149161 4.32463815 -1.46699122 5.43367753 -3.2734375 6.5859375 C-5.35655067 8.29201661 -6.0057817 9.49434617 -7 12 C-7.31761043 14.93331079 -7.31761043 14.93331079 -7.30859375 18.1640625 C-7.33373047 19.36933594 -7.35886719 20.57460937 -7.38476562 21.81640625 C-7.4195967 24.33198422 -7.45091426 26.84761357 -7.47851562 29.36328125 C-7.6696333 38.13604873 -7.92885281 47.10579499 -14 54 C-14.66 54 -15.32 54 -16 54 C-15.79503906 53.34515625 -15.59007813 52.6903125 -15.37890625 52.015625 C-13.30798957 45.00027089 -12.36931406 38.29713645 -12 31 C-11.67 31 -11.34 31 -11 31 C-10.67 32.65 -10.34 34.3 -10 36 C-10 29.73 -10 23.46 -10 17 C-10.33 17 -10.66 17 -11 17 C-10.50425893 12.04258934 -9.78559574 8.17839362 -7 4 C-4.7162559 2.24082821 -2.66437312 1.21107869 0 0 Z " fill="#F3E8F3" transform="translate(91,44)"/>
<path d="M0 0 C1.45922693 0.11409593 2.91740598 0.24165544 4.375 0.375 C5.59316406 0.47941406 5.59316406 0.47941406 6.8359375 0.5859375 C9 1 9 1 11 3 C10.02160156 3.14695313 10.02160156 3.14695313 9.0234375 3.296875 C1.97323654 4.50310407 -2.83035419 5.94671663 -7.1484375 12.0234375 C-9.65804663 16.56640981 -9.45060379 20.86453873 -9.25 25.9375 C-9.23195313 26.81212891 -9.21390625 27.68675781 -9.1953125 28.58789062 C-9.14858353 30.72574108 -9.07685441 32.86302045 -9 35 C-13.6480813 30.3519187 -13.37550532 23.81823926 -13.75390625 17.609375 C-13.83963812 15.0196772 -13.83963812 15.0196772 -15 13 C-14.4225 12.95875 -13.845 12.9175 -13.25 12.875 C-10.6981273 12.1305921 -10.6981273 12.1305921 -9.125 9.1875 C-6.79454346 5.69181519 -4.52738109 4.1948149 -1 2 C-0.67 1.34 -0.34 0.68 0 0 Z " fill="#EDDEED" transform="translate(98,136)"/>
<path d="M0 0 C0.495 0.99 0.495 0.99 1 2 C-2.93157023 9.19189677 -7.28968618 13.90419218 -15 17 C-21.73009876 18.45668245 -27.09470849 16.12715201 -33 13 C-29.93473852 11.97824617 -27.68915891 12.052706 -24.50317383 12.21826172 C-17.45379473 12.53041731 -12.49103576 12.33474141 -6.7734375 7.734375 C-4.26851795 5.28462989 -2.08254773 2.82151628 0 0 Z " fill="#DFC7DF" transform="translate(212,134)"/>
<path d="M0 0 C0.99 0 1.98 0 3 0 C3.33 0.99 3.66 1.98 4 3 C5.8653245 4.01754868 5.8653245 4.01754868 8.0625 4.6875 C8.79597656 4.93886719 9.52945313 5.19023438 10.28515625 5.44921875 C10.85105469 5.63097656 11.41695312 5.81273437 12 6 C9.20261108 6.93246297 7.73152012 7.08858024 4.8671875 6.9921875 C3.65675781 6.96705078 3.65675781 6.96705078 2.421875 6.94140625 C0.74715519 6.89774024 -0.92737483 6.84589176 -2.6015625 6.78515625 C-8.60757032 6.6806213 -13.4319455 7.76171251 -19 10 C-20.5625 7.625 -20.5625 7.625 -22 5 C-21.67 4.34 -21.34 3.68 -21 3 C-19.68 3.99 -18.36 4.98 -17 6 C-16.236875 5.505 -15.47375 5.01 -14.6875 4.5 C-9.71898225 2.47890803 -5.29348964 2.74568644 0 3 C0 2.01 0 1.02 0 0 Z " fill="#EBD7EB" transform="translate(150,38)"/>
<path d="M0 0 C0.66 0 1.32 0 2 0 C2.53356899 10.39471433 1.39149954 19.13388385 -5.40234375 27.36328125 C-7.81053411 29.83035157 -9.66523343 31.06626536 -13 32 C-15.85116392 31.63327421 -18.24413888 30.90278209 -21 30 C-21 29.67 -21 29.34 -21 29 C-20.00419922 28.85304687 -20.00419922 28.85304687 -18.98828125 28.703125 C-13.68589374 27.80520244 -9.77074166 27.11353636 -6 23 C-3.14127523 18.14749795 -2.16154281 13.59970226 -1.3125 8.125 C-1.18294922 7.34125 -1.05339844 6.5575 -0.91992188 5.75 C-0.60460494 3.83474158 -0.30108482 1.91754727 0 0 Z " fill="#EDDDED" transform="translate(185,105)"/>
<path d="M0 0 C2 2 2 2 2.125 5.625 C2.08375 6.73875 2.0425 7.8525 2 9 C2.99 8.67 3.98 8.34 5 8 C4.48053489 13.62631926 2.93544322 17.89709576 0.4375 22.9375 C0.10814453 23.62134766 -0.22121094 24.30519531 -0.56054688 25.00976562 C-1.36517039 26.67731871 -2.1813897 28.33926839 -3 30 C-3.33 30 -3.66 30 -4 30 C-3.85795259 28.41632253 -3.71119847 26.83306682 -3.5625 25.25 C-3.48128906 24.36828125 -3.40007812 23.4865625 -3.31640625 22.578125 C-3 20 -3 20 -2.49609375 18.15234375 C-1.59719383 14.25239211 -1.59598821 10.21271112 -1.39453125 6.22460938 C-1.10240974 1.10240974 -1.10240974 1.10240974 0 0 Z " fill="#F5EEF5" transform="translate(203,101)"/>
<path d="M0 0 C2.475 0.495 2.475 0.495 5 1 C5.80929482 4.60870608 6.17814083 8.04461938 6.31640625 11.73828125 C6.37924805 13.33833008 6.37924805 13.33833008 6.44335938 14.97070312 C6.48267578 16.07349609 6.52199219 17.17628906 6.5625 18.3125 C6.60568359 19.43462891 6.64886719 20.55675781 6.69335938 21.71289062 C6.79914787 24.47514569 6.90123672 27.2374863 7 30 C4.48291137 27.81122728 3.52552137 26.29556291 3 23 C2.77640271 19.45793493 2.60864288 15.92150246 2.48242188 12.375 C2.27367553 7.91649314 1.64927546 4.206654 0 0 Z " fill="#E5CEE5" transform="translate(162,136)"/>
<path d="M0 0 C0.33 0 0.66 0 1 0 C1 1.98 1 3.96 1 6 C1.66 6 2.32 6 3 6 C2 9 2 9 0 11 C0.30077325 13.005155 0.6435691 15.00398694 1 17 C1.04019299 19.54823553 1.00099221 22.08518775 0.9375 24.6328125 C0.9128872 26.95673069 0.9128872 26.95673069 1.49609375 28.9765625 C2.11308517 31.45409393 2.09604672 33.70044908 2.0625 36.25 C2.05347656 37.14203125 2.04445312 38.0340625 2.03515625 38.953125 C2.02355469 39.62859375 2.01195312 40.3040625 2 41 C1.01 41.495 1.01 41.495 0 42 C-1.8763483 34.84642211 -2.21884947 27.79097113 -2.25 20.4375 C-2.26353516 19.12712769 -2.26353516 19.12712769 -2.27734375 17.7902832 C-2.24976972 11.65678542 -1.40487822 5.96593216 0 0 Z " fill="#E8D5E8" transform="translate(171,64)"/>
<path d="M0 0 C0.33 0 0.66 0 1 0 C1.4895011 8.52094512 0.91822063 17.33629656 -5 24 C-5.66 24 -6.32 24 -7 24 C-6.79503906 23.34515625 -6.59007813 22.6903125 -6.37890625 22.015625 C-4.30798957 15.00027089 -3.36931406 8.29713645 -3 1 C-2.67 1 -2.34 1 -2 1 C-1.67 2.65 -1.34 4.3 -1 6 C-0.67 4.02 -0.34 2.04 0 0 Z " fill="#E8D4E8" transform="translate(82,74)"/>
<path d="M0 0 C0.66 0 1.32 0 2 0 C2.46398555 4.29186633 1.59653044 7.36943258 0.0625 11.3125 C-1.87265188 16.30423452 -2.65049944 20.67011645 -3 26 C-3.66 26 -4.32 26 -5 26 C-5.81169046 16.15148909 -3.71852457 8.97758075 0 0 Z " fill="#F7EFF7" transform="translate(59,82)"/>
<path d="M0 0 C4.82856166 -0.38628493 8.11485977 -0.45837619 12.5 1.8125 C15 4 15 4 16 7 C18.31 7 20.62 7 23 7 C22.67 7.66 22.34 8.32 22 9 C15.95949893 8.58341372 13.01582026 7.55287268 8 4 C5.36671099 2.86050403 2.71587717 1.93650937 0 1 C0 0.67 0 0.34 0 0 Z " fill="#F4EAF4" transform="translate(148,128)"/>
<path d="M0 0 C0.66 0.66 1.32 1.32 2 2 C1.27554688 2.03738281 0.55109375 2.07476562 -0.1953125 2.11328125 C-5.85736893 2.49830109 -10.01804597 3.08373423 -15 6 C-17.25 6.75 -17.25 6.75 -19 7 C-19.66 6.67 -20.32 6.34 -21 6 C-14.75971033 -0.33455387 -8.71300341 -1.28350192 0 0 Z " fill="#F3EAF3" transform="translate(153,49)"/>
<path d="M0 0 C2.04718475 3.33262634 2.11814299 5.37228483 1.5390625 9.203125 C1.39726563 10.1828125 1.25546875 11.1625 1.109375 12.171875 C0.94953125 13.18765625 0.7896875 14.2034375 0.625 15.25 C0.47289063 16.28125 0.32078125 17.3125 0.1640625 18.375 C-0.21276221 20.91856682 -0.60115326 23.45980917 -1 26 C-4.49816041 20.75275939 -3.52306253 14.62438311 -2.32421875 8.609375 C-1.60218987 5.7212595 -0.83752958 2.85657409 0 0 Z " fill="#E3CAE3" transform="translate(119,78)"/>
<path d="M0 0 C0.33 0 0.66 0 1 0 C2.967341 8.35842054 4.37364833 16.26082883 3.8125 24.875 C3.74881226 25.89980469 3.74881226 25.89980469 3.68383789 26.9453125 C3.27522811 31.72477189 3.27522811 31.72477189 1 34 C1.01740234 32.515 1.01740234 32.515 1.03515625 31 C1.19054301 22.85233189 1.19054301 22.85233189 0.5 14.75 C-0.15740436 9.81946726 -0.08215665 4.96591317 0 0 Z " fill="#D7B8D7" transform="translate(146,87)"/>
<path d="M0 0 C1.09916562 3.29749685 0.89023727 4.54881363 0.22265625 7.88671875 C0.03896484 8.82451172 -0.14472656 9.76230469 -0.33398438 10.72851562 C-0.53314453 11.70498047 -0.73230469 12.68144531 -0.9375 13.6875 C-1.13279297 14.67556641 -1.32808594 15.66363281 -1.52929688 16.68164062 C-2.01275776 19.12252852 -2.50323966 21.56179009 -3 24 C-3.99 24 -4.98 24 -6 24 C-2.8647541 2.8647541 -2.8647541 2.8647541 0 0 Z " fill="#E2C9E2" transform="translate(93,71)"/>
<path d="M0 0 C0.66 0 1.32 0 2 0 C2 0.66 2 1.32 2 2 C5.465 1.505 5.465 1.505 9 1 C8.67 2.32 8.34 3.64 8 5 C5.69 4.67 3.38 4.34 1 4 C1 6.31 1 8.62 1 11 C-0.5 9.875 -0.5 9.875 -2 8 C-2.3125 4.9375 -2.3125 4.9375 -2 2 C-1.34 1.34 -0.68 0.68 0 0 Z " fill="#E5CEE5" transform="translate(185,61)"/>
<path d="M0 0 C0.33 0 0.66 0 1 0 C1.05790353 3.29159316 1.09356261 6.58305603 1.125 9.875 C1.14175781 10.81214844 1.15851563 11.74929687 1.17578125 12.71484375 C1.18222656 13.61074219 1.18867187 14.50664063 1.1953125 15.4296875 C1.20578613 16.25710449 1.21625977 17.08452148 1.22705078 17.93701172 C1 20 1 20 -1 22 C-1.16858098 19.9168207 -1.33479255 17.83344956 -1.5 15.75 C-1.5928125 14.58984375 -1.685625 13.4296875 -1.78125 12.234375 C-2.10149363 7.49934424 -1.92157035 4.32353328 0 0 Z " fill="#FCF9FC" transform="translate(81,60)"/>
<path d="M0 0 C3.29592519 1.0358622 4.96136371 1.95933022 7.375 4.5 C10.60892204 7.57992576 12.70432309 8.07348145 17 9 C16.01 9.33 15.02 9.66 14 10 C14 10.66 14 11.32 14 12 C7.34921606 10.83611281 3.92882777 6.09551013 0 1 C0 0.67 0 0.34 0 0 Z " fill="#E8D4E8" transform="translate(9,104)"/>
<path d="M0 0 C0.66 0 1.32 0 2 0 C2.2852807 3.37899141 2.42878224 6.62944593 2 10 C-0.77858383 12.77858383 -2.41938995 12.96713528 -6.3125 13.1875 C-7.6428125 13.0946875 -7.6428125 13.0946875 -9 13 C-6 11 -6 11 -3.890625 10.1640625 C-1.80340197 9.14312756 -1.80340197 9.14312756 -1.171875 6.8359375 C-1.03265625 6.02382812 -0.8934375 5.21171875 -0.75 4.375 C-0.60046875 3.55773437 -0.4509375 2.74046875 -0.296875 1.8984375 C-0.19890625 1.27195312 -0.1009375 0.64546875 0 0 Z " fill="#DFC6DF" transform="translate(31,66)"/>
<path d="M0 0 C2.20004472 0.41780398 4.38631928 0.9093008 6.5625 1.4375 C7.76003906 1.72496094 8.95757812 2.01242188 10.19140625 2.30859375 C11.11824219 2.53675781 12.04507813 2.76492187 13 3 C13 3.66 13 4.32 13 5 C8.71 4.67 4.42 4.34 0 4 C-0.66 5.32 -1.32 6.64 -2 8 C-1.125 1.125 -1.125 1.125 0 0 Z " fill="#F9F4F9" transform="translate(172,72)"/>
<path d="M0 0 C0.99 0 1.98 0 3 0 C3.30292969 0.65226563 3.60585937 1.30453125 3.91796875 1.9765625 C6.46004706 7.27972895 9.01380014 11.67212586 13 16 C12.67 16.66 12.34 17.32 12 18 C10.55410731 16.46620188 9.11865196 14.92256145 7.6875 13.375 C6.48673828 12.08722656 6.48673828 12.08722656 5.26171875 10.7734375 C2.68353247 7.611931 0 4.22670854 0 0 Z " fill="#E2CAE2" transform="translate(116,152)"/>
<path d="M0 0 C3.83641483 1.50716297 5.85990819 3.48413488 8 7 C8.32789227 9.76146771 8.18960429 12.20333676 8 15 C7.34 15 6.68 15 6 15 C5.773125 13.80375 5.54625 12.6075 5.3125 11.375 C4.2051224 6.83232692 2.19168889 4.35967251 -1 1 C-0.67 0.67 -0.34 0.34 0 0 Z " fill="#F6EDF6" transform="translate(166,55)"/>
<path d="M0 0 C0.33 0.66 0.66 1.32 1 2 C0.06981474 3.46300982 -0.86944027 4.92025579 -1.8125 6.375 C-2.33457031 7.18710938 -2.85664063 7.99921875 -3.39453125 8.8359375 C-5 11 -5 11 -8 13 C-8.99 12.67 -9.98 12.34 -11 12 C-10.29875 11.319375 -9.5975 10.63875 -8.875 9.9375 C-5.72065663 6.79219487 -2.86065696 3.4111614 0 0 Z " fill="#EBDAEB" transform="translate(212,134)"/>
<path d="M0 0 C4.06124391 1.35374797 4.60315649 3.26258828 6.6875 6.9375 C7.31011719 8.01902344 7.93273437 9.10054687 8.57421875 10.21484375 C10 13 10 13 10 15 C9.01 15.33 8.02 15.66 7 16 C6.66226563 15.18015625 6.32453125 14.3603125 5.9765625 13.515625 C5.53054687 12.43796875 5.08453125 11.3603125 4.625 10.25 C4.18414062 9.18265625 3.74328125 8.1153125 3.2890625 7.015625 C2.26692415 4.62444074 1.19786405 2.30616817 0 0 Z " fill="#E0C4E0" transform="translate(144,161)"/>
<path d="M0 0 C0 3.78713193 -1.26892594 5.83354401 -3 9.1875 C-3.556875 10.27417969 -4.11375 11.36085938 -4.6875 12.48046875 C-5.120625 13.31191406 -5.55375 14.14335938 -6 15 C-6.33 15 -6.66 15 -7 15 C-7.49842868 8.89424872 -6.42265865 5.88951236 -3 1 C-2.01 0.67 -1.02 0.34 0 0 Z " fill="#EBDAEB" transform="translate(127,67)"/>
<path d="M0 0 C0.33 0 0.66 0 1 0 C1 1.98 1 3.96 1 6 C1.66 6 2.32 6 3 6 C2 9 2 9 0 11 C0.144375 11.86625 0.28875 12.7325 0.4375 13.625 C1.12259726 17.73558354 0.63703998 20.89463121 0 25 C-0.33 25 -0.66 25 -1 25 C-1.86252888 16.25815325 -2.4348809 8.55226763 0 0 Z " fill="#D5B4D5" transform="translate(171,64)"/>
<path d="M0 0 C0.33 0 0.66 0 1 0 C1.33 1.98 1.66 3.96 2 6 C2.33 6 2.66 6 3 6 C3.33 10.62 3.66 15.24 4 20 C0.75090253 16.75090253 0.06095563 13.49341285 -0.125 8.9375 C-0.125 5.95571412 -0.08680882 2.98043628 0 0 Z " fill="#E3C9E3" transform="translate(85,151)"/>
<path d="M0 0 C2.27057377 -0.05398987 4.54151288 -0.09278742 6.8125 -0.125 C8.07707031 -0.14820313 9.34164062 -0.17140625 10.64453125 -0.1953125 C14 0 14 0 17 2 C13.10281829 3.86665742 10.45915815 4.13965761 6.1875 3.625 C4.72376953 3.45871094 4.72376953 3.45871094 3.23046875 3.2890625 C2.49441406 3.19367188 1.75835937 3.09828125 1 3 C0.67 2.01 0.34 1.02 0 0 Z " fill="#D2AED2" transform="translate(70,147)"/>
<path d="M0 0 C0.66 0 1.32 0 2 0 C2.02725341 1.7290774 2.04650987 3.45828176 2.0625 5.1875 C2.07410156 6.15042969 2.08570313 7.11335938 2.09765625 8.10546875 C2.00486622 10.85576513 1.62111685 13.32479591 1 16 C0.01 15.67 -0.98 15.34 -2 15 C-1.34 10.05 -0.68 5.1 0 0 Z " fill="#C79BC7" transform="translate(185,105)"/>
<path d="M0 0 C0.99 0.33 1.98 0.66 3 1 C3.39012425 2.76756294 3.7616098 4.53924783 4.125 6.3125 C4.33382812 7.29863281 4.54265625 8.28476563 4.7578125 9.30078125 C5 12 5 12 3 15 C1.094753 9.89665983 -0.42589023 5.53657294 0 0 Z " fill="#E7D4E7" transform="translate(86,114)"/>
<path d="M0 0 C0.66 0 1.32 0 2 0 C3.17051429 2.34102859 3.1992246 3.89352953 3.25 6.5 C3.27578125 7.2940625 3.3015625 8.088125 3.328125 8.90625 C3.21984375 9.5971875 3.1115625 10.288125 3 11 C2.01 11.66 1.02 12.32 0 13 C0 8.71 0 4.42 0 0 Z " fill="#D8B7D8" transform="translate(74,165)"/>
<path d="M0 0 C0.66 0 1.32 0 2 0 C2 0.66 2 1.32 2 2 C2.66 1.67 3.32 1.34 4 1 C5.70702735 0.93003986 7.41668003 0.91559846 9.125 0.9375 C10.03507812 0.94652344 10.94515625 0.95554688 11.8828125 0.96484375 C12.93082031 0.98224609 12.93082031 0.98224609 14 1 C14 1.33 14 1.66 14 2 C13.19175781 2.10957031 12.38351563 2.21914062 11.55078125 2.33203125 C9.94783203 2.56986328 9.94783203 2.56986328 8.3125 2.8125 C7.25675781 2.96332031 6.20101562 3.11414063 5.11328125 3.26953125 C1.89780469 4.02397807 -0.20868643 5.29392568 -3 7 C-3.66 6.67 -4.32 6.34 -5 6 C-3.38405168 3.95880212 -1.7143618 1.95927063 0 0 Z " fill="#F2E6F2" transform="translate(66,147)"/>
<path d="M0 0 C3.12910468 1.25164187 4.92874253 3.42801274 7.1875 5.875 C6.1975 6.535 5.2075 7.195 4.1875 7.875 C-1.5625 3.125 -1.5625 3.125 -3.8125 0.875 C-1.8125 -0.125 -1.8125 -0.125 0 0 Z " fill="#ECDCEC" transform="translate(186.8125,76.125)"/>
<path d="M0 0 C0.33 0 0.66 0 1 0 C1.33 3.3 1.66 6.6 2 10 C3.32 8.02 4.64 6.04 6 4 C6.33 4.66 6.66 5.32 7 6 C6.22265625 7.9453125 6.22265625 7.9453125 5.0625 10.125 C4.68222656 10.84945312 4.30195313 11.57390625 3.91015625 12.3203125 C3.60980469 12.87460938 3.30945313 13.42890625 3 14 C2.01 13.67 1.02 13.34 0 13 C0 8.71 0 4.42 0 0 Z " fill="#D0A9D0" transform="translate(10,82)"/>
<path d="M0 0 C1.45922693 0.11409593 2.91740598 0.24165544 4.375 0.375 C5.59316406 0.47941406 5.59316406 0.47941406 6.8359375 0.5859375 C9 1 9 1 11 3 C5.06 3.495 5.06 3.495 -1 4 C-0.67 2.68 -0.34 1.36 0 0 Z " fill="#FAF5FA" transform="translate(98,136)"/>
<path d="M0 0 C0.99 0.33 1.98 0.66 3 1 C2.40895235 5.84659077 1.02055843 9.60748167 -1 14 C-1.33 14 -1.66 14 -2 14 C-1.85795259 12.41632253 -1.71119847 10.83306682 -1.5625 9.25 C-1.48128906 8.36828125 -1.40007812 7.4865625 -1.31640625 6.578125 C-1.03761535 4.30649548 -0.61209423 2.20148177 0 0 Z " fill="#E4CDE4" transform="translate(201,117)"/>
<path d="M0 0 C2 1 2 1 3 3 C-1.9431354 6.04192948 -6.30920875 6.83464938 -12 6 C-12.99 5.34 -13.98 4.68 -15 4 C-13.87851563 4.06960937 -13.87851563 4.06960937 -12.734375 4.140625 C-6.61876684 4.55844026 -6.61876684 4.55844026 -1.3125 2 C-0.879375 1.34 -0.44625 0.68 0 0 Z " fill="#D2B0D2" transform="translate(200,145)"/>
<path d="M0 0 C0.886875 0.12375 1.77375 0.2475 2.6875 0.375 C2.3575 1.035 2.0275 1.695 1.6875 2.375 C0.6975 2.375 -0.2925 2.375 -1.3125 2.375 C-0.6525 3.035 0.0075 3.695 0.6875 4.375 C-0.6325 4.375 -1.9525 4.375 -3.3125 4.375 C-3.6425 5.365 -3.9725 6.355 -4.3125 7.375 C-5.6325 7.045 -6.9525 6.715 -8.3125 6.375 C-4.12788462 0.46730769 -4.12788462 0.46730769 0 0 Z " fill="#DABCDA" transform="translate(213.3125,102.625)"/>
<path d="M0 0 C9.17286652 -0.63019694 9.17286652 -0.63019694 12.625 2 C13.07875 2.66 13.5325 3.32 14 4 C13.34 4 12.68 4 12 4 C11.67 4.99 11.34 5.98 11 7 C10.67 6.01 10.34 5.02 10 4 C7.67108904 2.97299556 7.67108904 2.97299556 4.9375 2.3125 C4.01839844 2.06113281 3.09929688 1.80976562 2.15234375 1.55078125 C1.44207031 1.36902344 0.73179688 1.18726563 0 1 C0 0.67 0 0.34 0 0 Z " fill="#E8D6E8" transform="translate(59,52)"/>
<path d="M0 0 C-0.11458693 1.43836751 -0.24209116 2.87570966 -0.375 4.3125 C-0.44460937 5.11300781 -0.51421875 5.91351563 -0.5859375 6.73828125 C-1 9 -1 9 -3 12 C-3 9.03 -3 6.06 -3 3 C-3.99 2.67 -4.98 2.34 -6 2 C-2.25 0 -2.25 0 0 0 Z " fill="#FCFAFC" transform="translate(89,148)"/>
<path d="M0 0 C4.09621053 2.28905883 7.53415091 4.85655548 11 8 C11 8.66 11 9.32 11 10 C7.00547824 8.63044968 4.07840246 6.9073801 1 4 C0.1875 1.75 0.1875 1.75 0 0 Z " fill="#EFE0EF" transform="translate(61,118)"/>
<path d="M0 0 C0.33 0 0.66 0 1 0 C1.05437607 1.58294782 1.09296271 3.16644256 1.125 4.75 C1.14820312 5.63171875 1.17140625 6.5134375 1.1953125 7.421875 C0.99139502 10.1135858 0.36551721 11.69904974 -1 14 C-2.78409802 10.93753253 -3.22880021 8.77920727 -3.125 5.25 C-3.10695313 4.45078125 -3.08890625 3.6515625 -3.0703125 2.828125 C-3.04710938 2.22484375 -3.02390625 1.6215625 -3 1 C-2.67 1 -2.34 1 -2 1 C-1.67 2.65 -1.34 4.3 -1 6 C-0.67 4.02 -0.34 2.04 0 0 Z " fill="#D5B1D5" transform="translate(82,74)"/>
<path d="M0 0 C0 6.27 0 12.54 0 19 C-0.33 19 -0.66 19 -1 19 C-1.33 14.71 -1.66 10.42 -2 6 C-2.33 6 -2.66 6 -3 6 C-3 4.35 -3 2.7 -3 1 C-1 0 -1 0 0 0 Z " fill="#E9D7E9" transform="translate(83,55)"/>
<path d="M0 0 C0.33 0 0.66 0 1 0 C1 3.3 1 6.6 1 10 C-1.97 9.67 -4.94 9.34 -8 9 C-4 7 -4 7 -1 7 C-0.67 4.69 -0.34 2.38 0 0 Z " fill="#F0E2F0" transform="translate(45,92)"/>
<path d="M0 0 C0.7425 0.515625 1.485 1.03125 2.25 1.5625 C4.83215454 3.24942772 4.83215454 3.24942772 7.3125 2.6875 C7.869375 2.460625 8.42625 2.23375 9 2 C9.33 2.99 9.66 3.98 10 5 C7.69 5.66 5.38 6.32 3 7 C0 2.25 0 2.25 0 0 Z " fill="#E2C8E2" transform="translate(128,41)"/>
<path d="M0 0 C2.78030572 4.17045858 3.29986321 7.98663274 2.5625 12.9375 C2.376875 13.618125 2.19125 14.29875 2 15 C-0.02558881 11.65060119 -0.21738987 9.13037449 -0.125 5.25 C-0.09792969 3.77273437 -0.09792969 3.77273437 -0.0703125 2.265625 C-0.04710938 1.51796875 -0.02390625 0.7703125 0 0 Z " fill="#D6B1D6" transform="translate(99,171)"/>
<path d="M0 0 C0.33 0.99 0.66 1.98 1 3 C0.01 4.485 0.01 4.485 -1 6 C-1.33 6 -1.66 6 -2 6 C-2.33 8.97 -2.66 11.94 -3 15 C-3.33 15 -3.66 15 -4 15 C-4.63019694 4.84682713 -4.63019694 4.84682713 -2 1.3125 C-1.34 0.879375 -0.68 0.44625 0 0 Z " fill="#E0C9E0" transform="translate(29,96)"/>
<path d="M0 0 C0.66 0 1.32 0 2 0 C2.19622241 4.21878192 1.80230168 7.17010894 0 11 C-0.99 10.67 -1.98 10.34 -3 10 C-2.01 6.7 -1.02 3.4 0 0 Z " fill="#E4CCE4" transform="translate(59,82)"/>
<path d="M0 0 C0 0.66 0 1.32 0 2 C-1.98 2.66 -3.96 3.32 -6 4 C-6 3.67 -6 3.34 -6 3 C-8.97 2.505 -8.97 2.505 -12 2 C-12 1.67 -12 1.34 -12 1 C-10.37681021 0.63762737 -8.7513642 0.28534843 -7.125 -0.0625 C-6.22007812 -0.25972656 -5.31515625 -0.45695313 -4.3828125 -0.66015625 C-2 -1 -2 -1 0 0 Z " fill="#E3CCE3" transform="translate(176,133)"/>
<path d="M0 0 C0.33 0 0.66 0 1 0 C1.33 3.96 1.66 7.92 2 12 C1.34 12 0.68 12 0 12 C-0.33 12.66 -0.66 13.32 -1 14 C-1.33 12.35 -1.66 10.7 -2 9 C-1.34 9 -0.68 9 0 9 C0 6.03 0 3.06 0 0 Z " fill="#D7B4D7" transform="translate(56,99)"/>
<path d="M0 0 C1.90401138 1.90401138 2.93520439 3.33425686 3.19921875 6.046875 C3.1886578 8.03233273 3.09915043 10.0169914 3 12 C2.67 12 2.34 12 2 12 C1.566875 10.3603125 1.566875 10.3603125 1.125 8.6875 C0.18106796 4.95986155 0.18106796 4.95986155 -2 2 C-1.34 2 -0.68 2 0 2 C0 1.34 0 0.68 0 0 Z " fill="#EBD9EB" transform="translate(77,40)"/>
<path d="M0 0 C0.90105469 0.02707031 1.80210937 0.05414063 2.73046875 0.08203125 C3.76107422 0.13423828 3.76107422 0.13423828 4.8125 0.1875 C4.8125 0.5175 4.8125 0.8475 4.8125 1.1875 C1.73632812 1.48046875 1.73632812 1.48046875 -1.33984375 1.7734375 C-1.94957031 1.91007812 -2.55929688 2.04671875 -3.1875 2.1875 C-3.5175 2.8475 -3.8475 3.5075 -4.1875 4.1875 C-5.5075 3.8575 -6.8275 3.5275 -8.1875 3.1875 C-5.67753317 0.01043235 -3.96125134 -0.15433447 0 0 Z " fill="#EFE2EF" transform="translate(144.1875,40.8125)"/>
<path d="M0 0 C4.67692308 1.47692308 4.67692308 1.47692308 6.3125 4.125 C6.539375 4.74375 6.76625 5.3625 7 6 C3.75728494 5.4409112 2.06942576 4.5867822 0 2 C0 1.34 0 0.68 0 0 Z " fill="#DFC4DF" transform="translate(46,119)"/>
<path d="M0 0 C0.33 0.66 0.66 1.32 1 2 C-0.2739589 4.03833424 -1.61061923 6.03852126 -3 8 C-3.66 8 -4.32 8 -5 8 C-3.375 2.25 -3.375 2.25 0 0 Z " fill="#E6D0E6" transform="translate(37,138)"/>
<path d="M0 0 C0.66 0 1.32 0 2 0 C2 1.32 2 2.64 2 4 C-0.31 4.33 -2.62 4.66 -5 5 C-4.67 4.34 -4.34 3.68 -4 3 C-3.01 3 -2.02 3 -1 3 C-0.67 2.01 -0.34 1.02 0 0 Z " fill="#E1C7E1" transform="translate(92,36)"/>
<path d="M0 0 C0.99 0 1.98 0 3 0 C3.33 2.31 3.66 4.62 4 7 C3.34 7 2.68 7 2 7 C2 6.34 2 5.68 2 5 C1.34 5 0.68 5 0 5 C0 3.35 0 1.7 0 0 Z " fill="#E4CBE4" transform="translate(66,142)"/>
<path d="M0 0 C2.86724686 0.57344937 3.8614515 0.8614515 6 3 C5.01 3.66 4.02 4.32 3 5 C2.01 4.34 1.02 3.68 0 3 C0 2.01 0 1.02 0 0 Z " fill="#F2E6F2" transform="translate(74,62)"/>
</svg>
