<svg version="1.1" id="Layer_1" xmlns="http://www.w3.org/2000/svg" xmlns:xlink="http://www.w3.org/1999/xlink" x="0px" y="0px"
	 width="100%" viewBox="0 0 225 225" enable-background="new 0 0 225 225" xml:space="preserve">
<path fill="#810381" opacity="1.000000" stroke="none" 
	d="
M1.000000,132.000000 
	C1.000000,130.933487 1.000000,129.866959 1.324837,128.271240 
	C3.493291,123.402298 6.715031,121.449799 11.474961,121.642662 
	C15.798016,121.817825 20.135496,121.622437 24.466660,121.615295 
	C31.548634,121.603607 38.630642,121.612137 45.828499,121.612137 
	C45.949890,119.371735 45.884640,118.030823 46.115532,116.743011 
	C47.289707,110.193962 45.284206,105.440224 40.129478,100.726852 
	C23.570389,85.585518 18.877003,65.589455 19.000246,44.048248 
	C19.029463,38.941330 22.312048,35.620670 26.828733,35.306515 
	C31.116217,35.008293 34.783237,38.201363 35.615749,43.141254 
	C35.946331,45.102810 35.781273,47.148945 36.123810,49.107258 
	C37.353294,56.136372 38.105221,63.324989 40.155678,70.115730 
	C42.855083,79.055679 47.768620,87.289185 56.261345,91.583969 
	C88.934135,108.106636 122.610085,110.116463 157.426392,98.226929 
	C177.371750,91.415718 187.103363,77.409164 189.973236,57.487354 
	C190.731354,52.224751 190.882111,46.860954 191.869843,41.649395 
	C192.680435,37.372536 195.877167,35.183517 200.248779,35.356670 
	C204.431702,35.522346 207.993713,38.847370 208.017975,43.088055 
	C208.154846,67.012398 202.606659,88.668045 182.894104,104.540100 
	C181.771759,105.443787 180.654678,107.126511 180.624969,108.470749 
	C180.533539,112.608078 180.971603,116.757103 181.237610,121.502365 
	C191.750473,121.502365 202.218353,121.807396 212.657257,121.389122 
	C219.021011,121.134132 223.606400,122.849464 226.000000,129.000000 
	C226.000000,129.750000 226.000000,130.500000 225.666382,131.732574 
	C223.491119,136.574860 220.224014,138.350861 215.488800,138.298630 
	C204.661652,138.179199 193.829880,138.251862 183.004471,138.469452 
	C181.536072,138.498978 179.238831,139.473282 178.799484,140.590057 
	C177.495148,143.905472 176.927185,147.510590 176.163223,150.627716 
	C181.530304,153.457184 186.561157,155.715744 191.187820,158.618546 
	C208.649521,169.574203 216.337051,185.998688 216.777771,206.115921 
	C216.945404,213.767288 210.920471,217.902176 204.536499,214.974091 
	C200.310898,213.035995 200.180191,209.067673 199.851364,205.212616 
	C198.141190,185.163940 186.938522,171.527664 168.363037,167.209106 
	C157.458603,184.585098 143.058914,197.896667 122.322655,204.388916 
	C122.322655,202.017517 122.329002,200.376694 122.321701,198.735916 
	C122.232681,178.743591 122.249542,158.749710 121.964890,138.760147 
	C121.904121,134.492905 121.396950,129.987045 119.866928,126.071106 
	C118.832047,123.422432 115.592537,119.848251 113.437073,119.913719 
	C111.162422,119.982803 108.004036,123.517273 107.027100,126.193275 
	C105.525742,130.305817 105.083031,134.971634 105.021255,139.414230 
	C104.745621,159.237335 104.769890,179.064590 104.667908,198.890244 
	C104.659088,200.603516 104.519310,202.316086 104.423698,204.390610 
	C83.741631,197.692902 69.394943,184.381592 58.568275,167.107056 
	C39.123283,172.424088 28.356453,185.851852 27.178806,205.848618 
	C26.798056,212.313904 23.543329,216.007324 18.400961,215.809570 
	C13.129744,215.606857 9.950081,211.906693 10.210542,205.357986 
	C11.009430,185.271744 18.808502,168.926880 36.467510,158.233521 
	C41.104546,155.425568 46.057240,153.138901 50.949718,150.568298 
	C50.286037,148.033051 49.372303,145.660751 49.091331,143.215744 
	C48.632748,139.225082 46.652939,138.170471 42.774128,138.280365 
	C33.285686,138.549240 23.775597,138.094879 14.290008,138.408722 
	C8.520199,138.599625 3.900400,137.320618 1.000000,132.000000 
z"/>
<path fill="#FDFCFD" opacity="1.000000" stroke="none" 
	d="
M226.000000,128.531342 
	C223.606400,122.849464 219.021011,121.134132 212.657257,121.389122 
	C202.218353,121.807396 191.750473,121.502365 181.237610,121.502365 
	C180.971603,116.757103 180.533539,112.608078 180.624969,108.470749 
	C180.654678,107.126511 181.771759,105.443787 182.894104,104.540100 
	C202.606659,88.668045 208.154846,67.012398 208.017975,43.088055 
	C207.993713,38.847370 204.431702,35.522346 200.248779,35.356670 
	C195.877167,35.183517 192.680435,37.372536 191.869843,41.649395 
	C190.882111,46.860954 190.731354,52.224751 189.973236,57.487354 
	C187.103363,77.409164 177.371750,91.415718 157.426392,98.226929 
	C122.610085,110.116463 88.934135,108.106636 56.261345,91.583969 
	C47.768620,87.289185 42.855083,79.055679 40.155678,70.115730 
	C38.105221,63.324989 37.353294,56.136372 36.123810,49.107258 
	C35.781273,47.148945 35.946331,45.102810 35.615749,43.141254 
	C34.783237,38.201363 31.116217,35.008293 26.828733,35.306515 
	C22.312048,35.620670 19.029463,38.941330 19.000246,44.048248 
	C18.877003,65.589455 23.570389,85.585518 40.129478,100.726852 
	C45.284206,105.440224 47.289707,110.193962 46.115532,116.743011 
	C45.884640,118.030823 45.949890,119.371735 45.828499,121.612137 
	C38.630642,121.612137 31.548634,121.603607 24.466660,121.615295 
	C20.135496,121.622437 15.798016,121.817825 11.474961,121.642662 
	C6.715031,121.449799 3.493291,123.402298 1.324837,127.871010 
	C1.000000,85.705269 1.000000,43.410542 1.000000,1.057905 
	C75.892967,1.057905 150.785995,1.057905 226.000000,1.057905 
	C226.000000,43.353687 226.000000,85.708183 226.000000,128.531342 
M115.123360,11.348432 
	C106.450783,10.697398 98.115875,13.334539 94.568665,20.913273 
	C90.377914,29.866957 83.888741,34.901051 75.689301,38.916195 
	C74.526634,39.485535 73.601929,40.555157 72.594490,41.424976 
	C62.834896,49.851440 62.360088,60.701752 64.867393,72.141266 
	C67.169739,82.645615 74.669785,88.266045 84.497887,90.557106 
	C103.401306,94.963722 122.502487,94.894417 141.435638,90.783989 
	C152.449097,88.392944 160.513504,82.178925 162.689545,70.294533 
	C165.038651,57.464844 162.411713,46.387520 150.972809,38.711494 
	C147.953293,36.685261 144.452423,35.374298 141.443253,33.335430 
	C139.581390,32.073910 137.538193,30.327038 136.766830,28.336693 
	C133.008881,18.640211 126.654419,12.451556 115.123360,11.348432 
z"/>
<path fill="#FEFCFE" opacity="1.000000" stroke="none" 
	d="
M1.000000,132.468658 
	C3.900400,137.320618 8.520199,138.599625 14.290008,138.408722 
	C23.775597,138.094879 33.285686,138.549240 42.774128,138.280365 
	C46.652939,138.170471 48.632748,139.225082 49.091331,143.215744 
	C49.372303,145.660751 50.286037,148.033051 50.949718,150.568298 
	C46.057240,153.138901 41.104546,155.425568 36.467510,158.233521 
	C18.808502,168.926880 11.009430,185.271744 10.210542,205.357986 
	C9.950081,211.906693 13.129744,215.606857 18.400961,215.809570 
	C23.543329,216.007324 26.798056,212.313904 27.178806,205.848618 
	C28.356453,185.851852 39.123283,172.424088 58.568275,167.107056 
	C69.394943,184.381592 83.741631,197.692902 104.423698,204.390610 
	C104.519310,202.316086 104.659088,200.603516 104.667908,198.890244 
	C104.769890,179.064590 104.745621,159.237335 105.021255,139.414230 
	C105.083031,134.971634 105.525742,130.305817 107.027100,126.193275 
	C108.004036,123.517273 111.162422,119.982803 113.437073,119.913719 
	C115.592537,119.848251 118.832047,123.422432 119.866928,126.071106 
	C121.396950,129.987045 121.904121,134.492905 121.964890,138.760147 
	C122.249542,158.749710 122.232681,178.743591 122.321701,198.735916 
	C122.329002,200.376694 122.322655,202.017517 122.322655,204.388916 
	C143.058914,197.896667 157.458603,184.585098 168.363037,167.209106 
	C186.938522,171.527664 198.141190,185.163940 199.851364,205.212616 
	C200.180191,209.067673 200.310898,213.035995 204.536499,214.974091 
	C210.920471,217.902176 216.945404,213.767288 216.777771,206.115921 
	C216.337051,185.998688 208.649521,169.574203 191.187820,158.618546 
	C186.561157,155.715744 181.530304,153.457184 176.163223,150.627716 
	C176.927185,147.510590 177.495148,143.905472 178.799484,140.590057 
	C179.238831,139.473282 181.536072,138.498978 183.004471,138.469452 
	C193.829880,138.251862 204.661652,138.179199 215.488800,138.298630 
	C220.224014,138.350861 223.491119,136.574860 225.666382,132.107574 
	C226.000000,163.300110 226.000000,194.600235 226.000000,225.950165 
	C151.112762,225.950165 76.225479,225.950165 1.000000,225.950165 
	C1.000000,194.979919 1.000000,163.958618 1.000000,132.468658 
z"/>
<path fill="#810281" opacity="1.000000" stroke="none" 
	d="
M115.540802,11.399233 
	C126.654419,12.451556 133.008881,18.640211 136.766830,28.336693 
	C137.538193,30.327038 139.581390,32.073910 141.443253,33.335430 
	C144.452423,35.374298 147.953293,36.685261 150.972809,38.711494 
	C162.411713,46.387520 165.038651,57.464844 162.689545,70.294533 
	C160.513504,82.178925 152.449097,88.392944 141.435638,90.783989 
	C122.502487,94.894417 103.401306,94.963722 84.497887,90.557106 
	C74.669785,88.266045 67.169739,82.645615 64.867393,72.141266 
	C62.360088,60.701752 62.834896,49.851440 72.594490,41.424976 
	C73.601929,40.555157 74.526634,39.485535 75.689301,38.916195 
	C83.888741,34.901051 90.377914,29.866957 94.568665,20.913273 
	C98.115875,13.334539 106.450783,10.697398 115.540802,11.399233 
z"/>
</svg>