<?xml version="1.0" encoding="UTF-8"?>
<svg version="1.1" xmlns="http://www.w3.org/2000/svg" width="225" height="225">
<path d="M0 0 C74.25 0 148.5 0 225 0 C225 74.25 225 148.5 225 225 C150.75 225 76.5 225 0 225 C0 150.75 0 76.5 0 0 Z " fill="#FEFDFE" transform="translate(0,0)"/>
<path d="M0 0 C13.59220123 11.23322416 22.77743039 23.93772696 24.671875 41.875 C25.39271366 58.38875836 17.4247256 74.05276763 7.74609375 86.96484375 C3.57020686 92.96915568 4.81816094 102.16572391 5.8125 109.07421875 C6.15779514 110.83987689 6.52549997 112.6014584 6.92578125 114.35546875 C7.46883256 117.57983588 7.42734645 120.68980389 7.36328125 123.953125 C5.63613278 123.08955076 3.90906498 122.22581485 2.18237305 121.36132812 C0.71130562 120.6266947 -0.76120942 119.89495343 -2.23510742 119.16601562 C-5.37886521 117.60745921 -8.48530137 116.03892139 -11.5390625 114.30859375 C-17.76097491 110.80939828 -22.56707483 110.18709309 -29.63671875 110.953125 C-30.78914062 111.02917969 -31.9415625 111.10523438 -33.12890625 111.18359375 C-38.66406571 111.87995252 -42.87224362 112.64845157 -46.52734375 117.046875 C-48.83206312 120.20702166 -50.78160554 123.51282245 -52.63671875 126.953125 C-43.87666982 125.75984099 -43.87666982 125.75984099 -35.26171875 123.828125 C-26.86436011 121.80117636 -21.36725646 123.94382797 -13.7421875 127.328125 C-12.71362137 127.7720459 -11.68505524 128.2159668 -10.62532043 128.67333984 C-7.35298169 130.08806254 -4.08843921 131.51978278 -0.82421875 132.953125 C2.45913877 134.38328 5.74399845 135.80985982 9.03044128 137.23291016 C11.07251423 138.11837055 13.11254865 139.0085496 15.15034485 139.90380859 C16.06857529 140.30422363 16.98680573 140.70463867 17.93286133 141.1171875 C18.74225662 141.47248535 19.55165192 141.8277832 20.38557434 142.19384766 C22.32139425 143.07259563 22.32139425 143.07259563 24.36328125 142.953125 C24.02554688 142.00953125 23.6878125 141.0659375 23.33984375 140.09375 C18.22519909 125.50449836 13.98913584 109.83361235 20.36328125 94.953125 C21.99126985 91.93147949 23.72355331 88.99986013 25.51171875 86.0703125 C28.41838993 81.17680278 30.8848322 76.07343732 33.36328125 70.953125 C34.35328125 70.953125 35.34328125 70.953125 36.36328125 70.953125 C37.02328125 67.983125 37.68328125 65.013125 38.36328125 61.953125 C38.69328125 61.953125 39.02328125 61.953125 39.36328125 61.953125 C39.36328125 99.573125 39.36328125 137.193125 39.36328125 175.953125 C-34.88671875 175.953125 -109.13671875 175.953125 -185.63671875 175.953125 C-185.63671875 156.483125 -185.63671875 137.013125 -185.63671875 116.953125 C-184.15171875 115.963125 -184.15171875 115.963125 -182.63671875 114.953125 C-175.93896181 118.37988437 -173.37011384 123.84864867 -171 130.828125 C-169.89479837 137.29296033 -171.14352448 143.13030713 -172.63671875 149.390625 C-172.8275 150.21755859 -173.01828125 151.04449219 -173.21484375 151.89648438 C-173.68200312 153.91694866 -174.15841249 155.93527047 -174.63671875 157.953125 C-173.7645874 157.55931641 -172.89245605 157.16550781 -171.99389648 156.75976562 C-168.73633908 155.29298083 -165.47132213 153.84348913 -162.20385742 152.39892578 C-160.79455854 151.77303745 -159.38728535 151.14256601 -157.98217773 150.50732422 C-155.95430014 149.59150853 -153.91954823 148.6927867 -151.8828125 147.796875 C-150.95268593 147.3703363 -150.95268593 147.3703363 -150.00376892 146.93518066 C-144.19877195 144.41746568 -139.11809977 144.43952697 -133.07421875 145.953125 C-110.40193066 150.25680554 -86.43393634 145.81868744 -67.234375 132.9453125 C-57.77195439 125.6884185 -50.14536909 114.77559724 -47.63671875 102.953125 C-46.56892756 87.69896512 -48.86031814 76.85495937 -58.4296875 64.48046875 C-70.5121704 50.64442196 -90.19447529 42.40171948 -108.30175781 40.703125 C-118.38290408 40.12354059 -127.95311176 40.6809328 -137.7265625 43.296875 C-140.78534229 43.98664011 -143.51172365 44.0648983 -146.63671875 43.953125 C-146.78109375 43.31375 -146.92546875 42.674375 -147.07421875 42.015625 C-147.44679056 39.97767354 -147.44679056 39.97767354 -148.63671875 38.953125 C-149.17027142 27.67892519 -142.84006226 18.69527757 -135.89453125 10.36328125 C-100.39962858 -27.5266062 -41.05910594 -30.63906393 0 0 Z " fill="#FEFDFE" transform="translate(185.63671875,49.046875)"/>
<path d="M0 0 C10.14030293 7.66631336 17.01282621 17.96816613 21.03125 30.0234375 C22.08094731 46.95625961 18.9103154 58.56590815 8.36328125 72.17578125 C-2.69211352 84.50022796 -20.88277694 91.06462897 -36.96875 93.0234375 C-40.5322626 93.18561731 -44.08938944 93.21334409 -47.65625 93.2109375 C-48.63924072 93.21158203 -49.62223145 93.21222656 -50.63500977 93.21289062 C-56.45816249 93.17038233 -61.97669052 92.88231848 -67.65234375 91.4609375 C-75.71818141 89.93754152 -81.20336831 92.50547323 -88.40625 95.8359375 C-90.40413473 96.7400803 -92.40281867 97.64245943 -94.40234375 98.54296875 C-95.34706543 98.9704541 -96.29178711 99.39793945 -97.26513672 99.83837891 C-100.78705124 101.38211858 -104.34989448 102.72513534 -107.96875 104.0234375 C-107.67842339 102.54400723 -107.38639321 101.06491127 -107.09375 99.5859375 C-106.91328125 98.67328125 -106.7328125 97.760625 -106.546875 96.8203125 C-106.02809874 94.31055708 -105.44500243 91.82684041 -104.84375 89.3359375 C-102.33370288 77.87004226 -106.1705085 69.80825017 -112.09960938 60.15991211 C-118.4067112 49.70143278 -118.85755059 36.16724283 -116.12890625 24.40234375 C-110.38258082 9.5238109 -97.99713555 -1.11787692 -83.96875 -7.9765625 C-55.51951522 -19.689181 -25.62751709 -17.06253112 0 0 Z " fill="#800180" transform="translate(117.96875,103.9765625)"/>
<path d="M0 0 C1.57651434 1.3167333 3.13984462 2.64946424 4.6875 4 C5.73357422 4.90298828 5.73357422 4.90298828 6.80078125 5.82421875 C18.57699136 16.73150462 27.35039833 33.64737931 27.98828125 49.83203125 C28.21192199 68.6103989 23.31116835 82.57649232 13.375 98.375 C6.09601123 110.25542036 6.61775111 122.78002616 9.6875 136 C11.19527821 141.383485 12.92391894 146.69579438 14.6875 152 C10.30214979 151.3276669 6.44536153 149.76813225 2.40234375 148.015625 C1.70540909 147.71815369 1.00847443 147.42068237 0.29042053 147.11419678 C-1.93333437 146.16394074 -4.15421769 145.20717963 -6.375 144.25 C-7.84030133 143.62194427 -9.30579452 142.994336 -10.77148438 142.3671875 C-11.4885556 142.06010864 -12.20562683 141.75302979 -12.94442749 141.43664551 C-14.37548349 140.82452665 -15.80697971 140.21343592 -17.23892212 139.60339355 C-20.43913525 138.23877138 -23.62706001 136.85855148 -26.80029297 135.43164062 C-36.82024586 131.00331175 -43.60218181 132.08002573 -53.90429688 134.66601562 C-54.67193359 134.84970703 -55.43957031 135.03339844 -56.23046875 135.22265625 C-57.26337036 135.48187866 -57.26337036 135.48187866 -58.31713867 135.74633789 C-60.5734301 136.03317097 -62.15753308 135.67751653 -64.3125 135 C-57.01542113 122.27214585 -57.01542113 122.27214585 -50.91796875 119.40234375 C-47.30637168 118.60994263 -44.0086961 118.16020664 -40.3125 118 C-39.51142822 117.91395508 -38.71035645 117.82791016 -37.88500977 117.73925781 C-29.32229215 117.15167367 -23.44945856 120.37221492 -16.125 124.5 C-14.98224609 125.12003906 -13.83949219 125.74007812 -12.66210938 126.37890625 C-9.86706015 127.89922591 -7.08523892 129.43947636 -4.3125 131 C-4.46597 129.40089914 -4.6212711 127.80197394 -4.77734375 126.203125 C-4.86363037 125.31270508 -4.94991699 124.42228516 -5.03881836 123.50488281 C-5.24935772 121.57791241 -5.54441601 119.66004084 -5.875 117.75 C-7.37644867 104.88043999 -6.28668295 97.52825415 1.125 87.1875 C10.20530235 74.45174402 14.62489971 59.5446631 12.21875 43.96484375 C9.56830273 31.73807805 3.43046854 22.75801667 -5.3125 14 C-5.92738281 13.37351563 -6.54226562 12.74703125 -7.17578125 12.1015625 C-18.95804801 0.95003807 -34.70640411 -4.61193312 -50.0625 -8.75 C-50.84262451 -8.96100342 -51.62274902 -9.17200684 -52.42651367 -9.3894043 C-76.55634263 -15.61011658 -101.65776502 -11.32447283 -123.1015625 1.13671875 C-137.11265278 9.68158204 -151.75103957 20.87455947 -157.3125 37 C-157.49683594 38.08410156 -157.68117188 39.16820312 -157.87109375 40.28515625 C-159.61873744 49.51705937 -159.61873744 49.51705937 -163.03857422 52.51123047 C-174.08115786 60 -174.08115786 60 -178.3125 60 C-179.61180699 42.96464168 -173.5090563 26.46299147 -162.57421875 13.5078125 C-148.06647038 -2.57849917 -131.41820939 -13.93806215 -110.40478516 -19.44873047 C-109.01726212 -19.81431122 -107.63388468 -20.19603011 -106.25537109 -20.59423828 C-70.20158539 -30.90857276 -29.50191893 -22.8171941 0 0 Z " fill="#80057E" transform="translate(196.3125,41)"/>
<path d="M0 0 C3.10936759 2.95389921 6.0727394 6.14547879 8 10 C7.43796875 10.02964844 6.8759375 10.05929688 6.296875 10.08984375 C2.75289 11.49417794 1.24672517 14.47635638 -0.75 17.5625 C-1.16121094 18.17802734 -1.57242188 18.79355469 -1.99609375 19.42773438 C-3.00763511 20.94504641 -4.00519789 22.47166086 -5 24 C-3.35 24 -1.7 24 0 24 C-0.99 26.475 -0.99 26.475 -2 29 C-4.31 28.34 -6.62 27.68 -9 27 C-9 26.34 -9 25.68 -9 25 C-9.66 25 -10.32 25 -11 25 C-11.28875 25.78375 -11.5775 26.5675 -11.875 27.375 C-13.15379624 30.35885788 -14.09259585 31.61570757 -17.09375 32.88671875 C-18.28484375 33.28310547 -18.28484375 33.28310547 -19.5 33.6875 C-20.2940625 33.95949219 -21.088125 34.23148438 -21.90625 34.51171875 C-24 35 -24 35 -26 34 C-25.3709375 33.59910156 -24.741875 33.19820312 -24.09375 32.78515625 C-12.54934831 25.11786537 -4.17676551 15.10970538 -0.30859375 1.58203125 C-0.20675781 1.05996094 -0.10492188 0.53789062 0 0 Z " fill="#F3EBF3" transform="translate(138,152)"/>
<path d="M0 0 C4.3050091 -0.02483806 8.60997951 -0.04292512 12.91503906 -0.05493164 C14.37761157 -0.05994045 15.84017911 -0.06674938 17.30273438 -0.07543945 C19.41277291 -0.08765698 21.52274487 -0.09326295 23.6328125 -0.09765625 C25.53377686 -0.10551147 25.53377686 -0.10551147 27.47314453 -0.11352539 C30.747196 -0.00813747 33.78889152 0.37549774 37 1 C32.89285714 8.1875 32.89285714 8.1875 30 11 C26.25 11.3125 26.25 11.3125 23 11 C23 10.34 23 9.68 23 9 C23.66 9 24.32 9 25 9 C25 8.34 25 7.68 25 7 C20.94691667 5.89210465 16.92888626 5.66268733 12.75 5.4375 C12.00492188 5.39431641 11.25984375 5.35113281 10.4921875 5.30664062 C8.661651 5.20103275 6.83084824 5.10005799 5 5 C5 4.01 5 3.02 5 2 C3.35 1.67 1.7 1.34 0 1 C0 0.67 0 0.34 0 0 Z " fill="#830182" transform="translate(107,17)"/>
<path d="M0 0 C0.99 0 1.98 0 3 0 C5 4.75 5 4.75 5 7 C5.66 6.34 6.32 5.68 7 5 C9.11692464 7.11692464 8.18871075 11.82151632 8.203125 14.75 C8.20882507 15.63727783 8.21452515 16.52455566 8.22039795 17.4387207 C8.22986914 19.32518312 8.23639029 21.21166225 8.24023438 23.09814453 C8.24986628 25.96026488 8.28083799 28.82164443 8.3125 31.68359375 C8.31903736 33.51822491 8.32428494 35.35286121 8.328125 37.1875 C8.3404718 38.03473633 8.3528186 38.88197266 8.36553955 39.75488281 C8.34384884 45.65941436 7.17646307 50.51835429 5 56 C4.34 56 3.68 56 3 56 C3.2165625 55.22140625 3.433125 54.4428125 3.65625 53.640625 C8.14941029 35.58477718 7.35496061 17.79474315 -1 1 C-0.67 0.67 -0.34 0.34 0 0 Z " fill="#F7F1F8" transform="translate(217,64)"/>
<path d="M0 0 C2.1640625 0.0234375 2.1640625 0.0234375 4.625 0.375 C5.85089844 0.54128906 5.85089844 0.54128906 7.1015625 0.7109375 C7.72804687 0.80632813 8.35453125 0.90171875 9 1 C9 1.33 9 1.66 9 2 C8.28972656 2.04898437 7.57945312 2.09796875 6.84765625 2.1484375 C5.46900391 2.26058594 5.46900391 2.26058594 4.0625 2.375 C3.14597656 2.44460937 2.22945312 2.51421875 1.28515625 2.5859375 C0.53105469 2.72257812 -0.22304687 2.85921875 -1 3 C-1.33 3.66 -1.66 4.32 -2 5 C-2 2 -2 2 0 0 Z M-15 4 C-13.35 4 -11.7 4 -10 4 C-10.33 4.99 -10.66 5.98 -11 7 C-11.66 7 -12.32 7 -13 7 C-13 7.66 -13 8.32 -13 9 C-9.87709365 8.51421457 -7.00419641 8.0013988 -4 7 C-3.505 8.485 -3.505 8.485 -3 10 C-0.69 10 1.62 10 4 10 C4 10.66 4 11.32 4 12 C2.52076554 11.85485591 1.04161704 11.70883578 -0.4375 11.5625 C-1.26121094 11.48128906 -2.08492187 11.40007813 -2.93359375 11.31640625 C-4.61564601 11.14284417 -6.2971895 10.96077422 -7.97363281 10.73950195 C-14.90868716 9.85911733 -21.73317025 9.96836751 -28.7109375 10.12695312 C-29.608125 10.13791016 -30.5053125 10.14886719 -31.4296875 10.16015625 C-32.63987549 10.18541382 -32.63987549 10.18541382 -33.87451172 10.21118164 C-36 10 -36 10 -39 8 C-39 7.34 -39 6.68 -39 6 C-32.84765625 5.90234375 -32.84765625 5.90234375 -31 6 C-30.67 6.33 -30.34 6.66 -30 7 C-27.47403741 7.23653523 -24.96892793 7.42173692 -22.4375 7.5625 C-21.72658203 7.60568359 -21.01566406 7.64886719 -20.28320312 7.69335938 C-18.52238088 7.79971777 -16.7612168 7.90038846 -15 8 C-15 6.68 -15 5.36 -15 4 Z " fill="#770775" transform="translate(143,19)"/>
<path d="M0 0 C-2.6763326 1.78422174 -5.10689904 3.00275245 -8.04296875 4.27734375 C-9.03490234 4.70853516 -10.02683594 5.13972656 -11.04882812 5.58398438 C-12.08458984 6.03064453 -13.12035156 6.47730469 -14.1875 6.9375 C-15.20392578 7.38029297 -16.22035156 7.82308594 -17.26757812 8.27929688 C-22.79633042 10.67425672 -28.33606513 12.94470388 -34 15 C-33.71788123 13.3733152 -33.42397625 11.74867104 -33.125 10.125 C-32.96257813 9.22007812 -32.80015625 8.31515625 -32.6328125 7.3828125 C-32 5 -32 5 -30 3 C-29.835 3.639375 -29.67 4.27875 -29.5 4.9375 C-28.218214 7.16119241 -28.218214 7.16119241 -26.0859375 7.48828125 C-24.06424845 7.7275978 -22.03158061 7.86893028 -20 8 C-19.79375 7.360625 -19.5875 6.72125 -19.375 6.0625 C-18.92125 5.381875 -18.4675 4.70125 -18 4 C-16.01178687 3.60235737 -14.00875442 3.27571139 -12 3 C-11.195625 2.484375 -10.39125 1.96875 -9.5625 1.4375 C-6.2487553 -0.42142995 -3.73733329 -0.21984313 0 0 Z " fill="#790D79" transform="translate(44,193)"/>
<path d="M0 0 C2.0625 2.3125 2.0625 2.3125 4 5 C3.67 5.99 3.34 6.98 3 8 C3.99 8.33 4.98 8.66 6 9 C5.0821875 9.37511719 4.164375 9.75023438 3.21875 10.13671875 C-3.57743243 12.9562736 -9.88811195 15.84391613 -16 20 C-16 19.34 -16 18.68 -16 18 C-16.66 18 -17.32 18 -18 18 C-16.60970863 13.82912589 -13.72156282 12.81791302 -10.0625 10.8125 C-9.41603516 10.44447266 -8.76957031 10.07644531 -8.10351562 9.69726562 C-3.28446776 7 -3.28446776 7 -1 7 C-0.67 4.69 -0.34 2.38 0 0 Z " fill="#F1E2F0" transform="translate(36,85)"/>
<path d="M0 0 C0.66 0.66 1.32 1.32 2 2 C-4.67878257 11.20419722 -11.19175555 17.33409754 -21.3125 22.5 C-22.01882568 22.86295166 -22.72515137 23.22590332 -23.45288086 23.59985352 C-28.62448164 26.12517279 -28.62448164 26.12517279 -32 25 C-30.730447 24.35165346 -29.45930294 23.70642185 -28.1875 23.0625 C-27.47980469 22.70285156 -26.77210937 22.34320313 -26.04296875 21.97265625 C-24 21 -24 21 -21 20 C-20.175 19.175 -19.35 18.35 -18.5 17.5 C-16 15 -16 15 -13 14 C-13 13.34 -13 12.68 -13 12 C-12.01 12 -11.02 12 -10 12 C-10 11.34 -10 10.68 -10 10 C-9.01 9.67 -8.02 9.34 -7 9 C-6.67 8.01 -6.34 7.02 -6 6 C-5.01 6.33 -4.02 6.66 -3 7 C-2.87625 6.401875 -2.7525 5.80375 -2.625 5.1875 C-2 3 -2 3 0 0 Z " fill="#7E117B" transform="translate(130,166)"/>
<path d="M0 0 C0.66 0 1.32 0 2 0 C2.33 0.99 2.66 1.98 3 3 C2.33333333 4.33333333 1.66666667 5.66666667 1 7 C0.71519194 9.0742625 0.51125776 11.16071439 0.375 13.25 C0.30023438 14.32765625 0.22546875 15.4053125 0.1484375 16.515625 C0.09945312 17.33546875 0.05046875 18.1553125 0 19 C0.66 19 1.32 19 2 19 C2 21.31 2 23.62 2 26 C1.34 25.01 0.68 24.02 0 23 C-0.33 24.32 -0.66 25.64 -1 27 C-2.32 26.67 -3.64 26.34 -5 26 C-5.99 27.32 -6.98 28.64 -8 30 C-8.33 27.36 -8.66 24.72 -9 22 C-8.34 22 -7.68 22 -7 22 C-6.67 21.34 -6.34 20.68 -6 20 C-5.34 20.33 -4.68 20.66 -4 21 C-3.67 20.34 -3.34 19.68 -3 19 C-2.67 19.33 -2.34 19.66 -2 20 C-1.93941406 18.97519531 -1.87882813 17.95039063 -1.81640625 16.89453125 C-1.73194974 15.53384305 -1.64730433 14.17316657 -1.5625 12.8125 C-1.52318359 12.13896484 -1.48386719 11.46542969 -1.44335938 10.77148438 C-1.21072435 7.10300898 -0.82792989 3.58305794 0 0 Z " fill="#780277" transform="translate(201,141)"/>
<path d="M0 0 C3.33727786 1.17255709 5.77437487 2.18868404 8 5 C8 5.66 8 6.32 8 7 C8.66 7.33 9.32 7.66 10 8 C10.72159424 9.64363134 11.39351421 11.31050386 12 13 C12.99 12.67 13.98 12.34 15 12 C15.66 14.64 16.32 17.28 17 20 C16.01 20 15.02 20 14 20 C12.421875 18.05859375 12.421875 18.05859375 10.75 15.4375 C7.95650092 11.23236065 5.04127034 7.83252095 1.28515625 4.47265625 C0 3 0 3 0 0 Z " fill="#F4ECF4" transform="translate(199,41)"/>
<path d="M0 0 C4.3050091 -0.02483806 8.60997951 -0.04292512 12.91503906 -0.05493164 C14.37761157 -0.05994045 15.84017911 -0.06674938 17.30273438 -0.07543945 C19.41277291 -0.08765698 21.52274487 -0.09326295 23.6328125 -0.09765625 C25.53377686 -0.10551147 25.53377686 -0.10551147 27.47314453 -0.11352539 C30.747196 -0.00813747 33.78889152 0.37549774 37 1 C35.71937515 2.7074998 34.38232443 4.37373596 33 6 C32.34 6 31.68 6 31 6 C31.33 5.01 31.66 4.02 32 3 C31.3915625 3.01160156 30.783125 3.02320313 30.15625 3.03515625 C24.29444714 3.09549834 18.47412114 2.91697181 12.625 2.5625 C11.94759766 2.52326416 11.27019531 2.48402832 10.57226562 2.44360352 C6.97232016 2.21124826 3.51696755 1.80795201 0 1 C0 0.67 0 0.34 0 0 Z " fill="#841283" transform="translate(107,17)"/>
<path d="M0 0 C1.26582219 3.86723631 1.1118765 7.73151262 1.0625 11.75 C1.05798828 12.44738281 1.05347656 13.14476563 1.04882812 13.86328125 C1.0371002 15.57555803 1.01916653 17.28779033 1 19 C1.763125 18.484375 2.52625 17.96875 3.3125 17.4375 C4.199375 16.963125 5.08625 16.48875 6 16 C6.99 16.33 7.98 16.66 9 17 C5.04 18.98 1.08 20.96 -3 23 C-3.32480105 14.77170671 -2.31423742 7.89320264 0 0 Z " fill="#7F0C7C" transform="translate(21,78)"/>
<path d="M0 0 C0.33 0 0.66 0 1 0 C1.02578125 1.02738281 1.0515625 2.05476562 1.078125 3.11328125 C1.3971317 11.79047345 2.47069427 18.95612402 6 27 C6.33 27.99 6.66 28.98 7 30 C5.02 30.99 5.02 30.99 3 32 C2.67 31.01 2.34 30.02 2 29 C1.34 29.33 0.68 29.66 0 30 C0 20.1 0 10.2 0 0 Z " fill="#EAE0EC" transform="translate(0,136)"/>
<path d="M0 0 C1.47919922 0.06960937 1.47919922 0.06960937 2.98828125 0.140625 C3.98214844 0.17671875 4.97601563 0.2128125 6 0.25 C7.13888672 0.31960937 7.13888672 0.31960937 8.30078125 0.390625 C8.30078125 1.380625 8.30078125 2.370625 8.30078125 3.390625 C5.33078125 4.050625 2.36078125 4.710625 -0.69921875 5.390625 C-0.36921875 6.710625 -0.03921875 8.030625 0.30078125 9.390625 C-2.33921875 9.390625 -4.97921875 9.390625 -7.69921875 9.390625 C-4.54571519 0.6578459 -4.54571519 0.6578459 0 0 Z " fill="#7C0478" transform="translate(143.69921875,163.609375)"/>
<path d="M0 0 C1 2 1 2 0.9375 4 C0.628125 4.66 0.31875 5.32 0 6 C-0.94875 6.28875 -1.8975 6.5775 -2.875 6.875 C-6.99319131 8.35754887 -7.16617127 10.17287918 -9 14 C-11.625 15.25 -11.625 15.25 -14 16 C-14.33 16.66 -14.66 17.32 -15 18 C-15.66 18 -16.32 18 -17 18 C-14.37329753 12.08991945 -10.24857614 8.17445954 -5.25 4.1875 C-4.26515625 3.39730469 -3.2803125 2.60710938 -2.265625 1.79296875 C-1.51796875 1.20128906 -0.7703125 0.60960937 0 0 Z " fill="#F5EBF3" transform="translate(63,48)"/>
<path d="M0 0 C1.1446875 -0.00515625 2.289375 -0.0103125 3.46875 -0.015625 C6.5 0.25 6.5 0.25 9.5 2.25 C8.51 2.25 7.52 2.25 6.5 2.25 C6.5 2.91 6.5 3.57 6.5 4.25 C1.55 4.25 -3.4 4.25 -8.5 4.25 C-8.83 3.59 -9.16 2.93 -9.5 2.25 C-5.92878282 -0.13081145 -4.23325367 -0.01906871 0 0 Z " fill="#840182" transform="translate(121.5,22.75)"/>
<path d="M0 0 C3.3 0.66 6.6 1.32 10 2 C6.20874874 3.89562563 3.11484422 4.79391625 -1 5.6875 C-2.8253125 6.09548828 -2.8253125 6.09548828 -4.6875 6.51171875 C-7.64433877 6.94757352 -9.25086369 7.02405328 -12 6 C-10.5 4 -10.5 4 -8 2 C-5.24128373 1.64199865 -2.79902476 1.81339835 0 2 C0 1.34 0 0.68 0 0 Z " fill="#780B77" transform="translate(144,170)"/>
<path d="M0 0 C2.77689856 4.16534785 2 8.12463411 2 13 C0.68 12.34 -0.64 11.68 -2 11 C-2.99 11.66 -3.98 12.32 -5 13 C-5.68359375 11.296875 -5.68359375 11.296875 -6 9 C-4.78515625 6.640625 -4.78515625 6.640625 -3.0625 4.25 C-2.49660156 3.45078125 -1.93070313 2.6515625 -1.34765625 1.828125 C-0.90292969 1.22484375 -0.45820313 0.6215625 0 0 Z " fill="#F6F2F5" transform="translate(214,131)"/>
<path d="M0 0 C0.33 0 0.66 0 1 0 C1.02712153 1.916588 1.04645097 3.8332873 1.0625 5.75 C1.07410156 6.81734375 1.08570313 7.8846875 1.09765625 8.984375 C1.01510087 11.53368501 0.74617558 13.57933591 0 16 C-1.32 16.33 -2.64 16.66 -4 17 C-4 16.01 -4 15.02 -4 14 C-4.66 14 -5.32 14 -6 14 C-5.67 12.35 -5.34 10.7 -5 9 C-4.01 9 -3.02 9 -2 9 C-1.34 6.03 -0.68 3.06 0 0 Z " fill="#F8F6F7" transform="translate(224,111)"/>
<path d="M0 0 C0.99 0.495 0.99 0.495 2 1 C3.65 0.67 5.3 0.34 7 0 C5.02 5.61 3.04 11.22 1 17 C0.67 17 0.34 17 0 17 C0 11.39 0 5.78 0 0 Z " fill="#F7F9F6" transform="translate(0,119)"/>
<path d="M0 0 C-0.33 0.99 -0.66 1.98 -1 3 C-0.34 3.33 0.32 3.66 1 4 C-5.06815522 5.22899346 -10.79895188 6.27560214 -17 6 C-14.55436688 3.55436688 -12.24474828 2.65868745 -9.0625 1.3125 C-8.00160156 0.85488281 -6.94070312 0.39726562 -5.84765625 -0.07421875 C-3 -1 -3 -1 0 0 Z " fill="#EFE5EF" transform="translate(30,201)"/>
<path d="M0 0 C0.69867188 0.15597656 1.39734375 0.31195313 2.1171875 0.47265625 C3.48230469 0.76462891 3.48230469 0.76462891 4.875 1.0625 C6.23238281 1.35833984 6.23238281 1.35833984 7.6171875 1.66015625 C10.01014125 2.23202157 10.01014125 2.23202157 12 1 C12.144375 1.763125 12.28875 2.52625 12.4375 3.3125 C12.9632594 6.08172908 12.9632594 6.08172908 14 9 C8.52067211 7.45454854 3.88570819 4.84456788 -1 2 C-0.67 1.34 -0.34 0.68 0 0 Z " fill="#F4EEF5" transform="translate(172,160)"/>
<path d="M0 0 C0.99 0.66 1.98 1.32 3 2 C3 2.66 3 3.32 3 4 C3.66 4.33 4.32 4.66 5 5 C4.34 5 3.68 5 3 5 C3 6.32 3 7.64 3 9 C2.34 9 1.68 9 1 9 C0.67 8.34 0.34 7.68 0 7 C-2.31 9.64 -4.62 12.28 -7 15 C-7.66 14.67 -8.32 14.34 -9 14 C-8.51789063 13.32453125 -8.03578125 12.6490625 -7.5390625 11.953125 C-6.90742188 11.06109375 -6.27578125 10.1690625 -5.625 9.25 C-4.99851563 8.36828125 -4.37203125 7.4865625 -3.7265625 6.578125 C-2.28519059 4.42585021 -1.08501907 2.34539477 0 0 Z " fill="#7D077B" transform="translate(203,119)"/>
<path d="M0 0 C2.63595772 2.63595772 3.07702112 5.06187181 4.125 8.625 C4.47820312 9.81351563 4.83140625 11.00203125 5.1953125 12.2265625 C5.46085938 13.14179688 5.72640625 14.05703125 6 15 C1.6027062 14.21775257 -1.94559445 12.82845741 -6 11 C-5.34 10.34 -4.68 9.68 -4 9 C-2.02 9.66 -0.04 10.32 2 11 C1.67 10.484375 1.34 9.96875 1 9.4375 C-0.32010877 6.21973488 -0.13242105 3.4429472 0 0 Z " fill="#781A76" transform="translate(205,178)"/>
<path d="M0 0 C4.00950907 3.67538331 6.59369247 7.09826243 9 12 C9 13.32 9 14.64 9 16 C7.35 15.67 5.7 15.34 4 15 C3.896875 14.319375 3.79375 13.63875 3.6875 12.9375 C3.04910275 9.82115475 3.04910275 9.82115475 1.4375 6.375 C0 3 0 3 0 0 Z " fill="#81127F" transform="translate(126,112)"/>
<path d="M0 0 C0.33 0 0.66 0 1 0 C2.22899346 6.06815522 3.27560214 11.79895188 3 18 C0.69 17.01 -1.62 16.02 -4 15 C-3.34 14.34 -2.68 13.68 -2 13 C-1.54337847 10.80708918 -1.179588 8.59414111 -0.875 6.375 C-0.70742187 5.18648437 -0.53984375 3.99796875 -0.3671875 2.7734375 C-0.24601563 1.85820312 -0.12484375 0.94296875 0 0 Z " fill="#ECD9EB" transform="translate(190,155)"/>
<path d="M0 0 C2.10388569 -0.05402274 4.20816714 -0.09280256 6.3125 -0.125 C8.07013672 -0.15980469 8.07013672 -0.15980469 9.86328125 -0.1953125 C13 0 13 0 16 2 C11.90996141 3.14982602 7.96822949 3.11094256 3.75 3.0625 C3.00492187 3.05798828 2.25984375 3.05347656 1.4921875 3.04882812 C-0.3385764 3.03709246 -2.16929873 3.0191585 -4 3 C-2.68 2.67 -1.36 2.34 0 2 C0 1.34 0 0.68 0 0 Z " fill="#F1ECF0" transform="translate(64,197)"/>
<path d="M0 0 C0.33 0 0.66 0 1 0 C1.08825361 3.47900249 1.14080635 6.95771117 1.1875 10.4375 C1.22520508 11.89833008 1.22520508 11.89833008 1.26367188 13.38867188 C1.32828288 19.82823521 0.47643415 25.04483196 -2 31 C-2.66 31 -3.32 31 -4 31 C-3.69255859 29.77990234 -3.69255859 29.77990234 -3.37890625 28.53515625 C-1.13385991 18.98565292 -0.34331404 9.77853094 0 0 Z " fill="#E4CEE3" transform="translate(224,89)"/>
<path d="M0 0 C0.66 0.33 1.32 0.66 2 1 C1.49477778 5.37859255 -1.17827222 7.81651224 -4 11 C-4.99 10.01 -5.98 9.02 -7 8 C-4.69 5.36 -2.38 2.72 0 0 Z " fill="#F5EEF4" transform="translate(14,105)"/>
<path d="M0 0 C0.99 0.33 1.98 0.66 3 1 C2.25 8.625 2.25 8.625 0 12 C-1.64826111 9.03312999 -2.44271087 6.34373475 -3 3 C-2.01 3 -1.02 3 0 3 C0 2.01 0 1.02 0 0 Z " fill="#F8F1F7" transform="translate(11,189)"/>
<path d="M0 0 C1.875 0.1875 1.875 0.1875 4 1 C5.47610545 3.60075722 6.11364801 5.20446391 5.6875 8.1875 C5 10 5 10 4 12 C3.34 12 2.68 12 2 12 C1.93941406 11.30132812 1.87882813 10.60265625 1.81640625 9.8828125 C1.73261719 8.97273437 1.64882812 8.06265625 1.5625 7.125 C1.48128906 6.22007812 1.40007813 5.31515625 1.31640625 4.3828125 C1.13010715 1.98889139 1.13010715 1.98889139 0 0 Z " fill="#FAF0FA" transform="translate(8,172)"/>
<path d="M0 0 C2.98205122 2.55604391 4.58490064 5.35053322 6 9 C5.1875 11.375 5.1875 11.375 4 13 C3.01 12.34 2.02 11.68 1 11 C1.33 9.02 1.66 7.04 2 5 C1.34 4.67 0.68 4.34 0 4 C0 2.68 0 1.36 0 0 Z " fill="#F5EEF5" transform="translate(201,67)"/>
<path d="M0 0 C0.73605469 0.00451172 1.47210938 0.00902344 2.23046875 0.01367188 C4.02868158 0.02534858 5.82685197 0.04327989 7.625 0.0625 C7.625 0.3925 7.625 0.7225 7.625 1.0625 C-0.295 1.5575 -0.295 1.5575 -8.375 2.0625 C-8.375 2.7225 -8.375 3.3825 -8.375 4.0625 C-10.355 3.4025 -12.335 2.7425 -14.375 2.0625 C-14.375 1.7325 -14.375 1.4025 -14.375 1.0625 C-9.51770355 0.08950844 -4.9249375 -0.05788805 0 0 Z " fill="#DEC0DE" transform="translate(120.375,27.9375)"/>
<path d="M0 0 C0.33 0 0.66 0 1 0 C0.67 5.28 0.34 10.56 0 16 C-0.66 16 -1.32 16 -2 16 C-2.05423638 14.08364783 -2.09289963 12.16685075 -2.125 10.25 C-2.14820313 9.18265625 -2.17140625 8.1153125 -2.1953125 7.015625 C-2.00487687 4.07529894 -1.52670104 2.47638122 0 0 Z " fill="#810675" transform="translate(3,136)"/>
<path d="M0 0 C1.32 0 2.64 0 4 0 C4 0.66 4 1.32 4 2 C4.99 1.67 5.98 1.34 7 1 C7.36923077 5.55384615 7.36923077 5.55384615 5.5 7.8125 C5.005 8.204375 4.51 8.59625 4 9 C0 3.375 0 3.375 0 0 Z " fill="#F3EEF3" transform="translate(128,112)"/>
<path d="M0 0 C0.99 0 1.98 0 3 0 C4.4216319 3.3171411 5.39009109 6.44219804 6 10 C5.01 10 4.02 10 3 10 C1.68 7.03 0.36 4.06 -1 1 C-0.67 0.67 -0.34 0.34 0 0 Z " fill="#F2EBF2" transform="translate(217,64)"/>
<path d="M0 0 C3.12857014 1.3881735 5.28189174 3.01101878 7.6875 5.4375 C8.28949219 6.03433594 8.89148438 6.63117187 9.51171875 7.24609375 C11 9 11 9 12 12 C9.625 11.3125 9.625 11.3125 7 10 C6.27840576 8.35636866 5.60648579 6.68949614 5 5 C4.01 4.67 3.02 4.34 2 4 C0.8125 1.9375 0.8125 1.9375 0 0 Z " fill="#791478" transform="translate(198,44)"/>
<path d="M0 0 C0.99 0.33 1.98 0.66 3 1 C3 5.29 3 9.58 3 14 C0 11 0 11 -0.29296875 8.30078125 C-0.25816406 7.31464844 -0.22335938 6.32851562 -0.1875 5.3125 C-0.16042969 4.31863281 -0.13335937 3.32476562 -0.10546875 2.30078125 C-0.07066406 1.54152344 -0.03585938 0.78226563 0 0 Z " fill="#79077B" transform="translate(136,138)"/>
<path d="M0 0 C1.485 0.99 1.485 0.99 3 2 C3.66 2.33 4.32 2.66 5 3 C3.35 6.3 1.7 9.6 0 13 C-0.33 11.68 -0.66 10.36 -1 9 C-0.34 9 0.32 9 1 9 C0.67 8.34 0.34 7.68 0 7 C-0.04022391 4.6670134 -0.04320247 2.33293334 0 0 Z " fill="#F4E5F3" transform="translate(200,113)"/>
<path d="M0 0 C1.6266848 0.28211877 3.25132896 0.57602375 4.875 0.875 C5.77992188 1.03742187 6.68484375 1.19984375 7.6171875 1.3671875 C10 2 10 2 12 4 C9.09399739 5.25664978 7.20395416 6 4 6 C4 5.01 4 4.02 4 3 C2.68 2.34 1.36 1.68 0 1 C0 0.67 0 0.34 0 0 Z " fill="#F3E2F0" transform="translate(150,33)"/>
<path d="M0 0 C2.97 0.99 5.94 1.98 9 3 C5.3558226 5.4294516 3.28758728 5.16179575 -1 5 C-0.67 3.35 -0.34 1.7 0 0 Z " fill="#F6EDF4" transform="translate(185,183)"/>
<path d="M0 0 C0.66 0 1.32 0 2 0 C3.125 3.3125 3.125 3.3125 4 7 C3.01 8.485 3.01 8.485 2 10 C1.01 9.67 0.02 9.34 -1 9 C-1 5.72724974 -0.70074844 3.153368 0 0 Z " fill="#F3EEF3" transform="translate(210,184)"/>
<path d="M0 0 C2 2 2 2 2.125 5.125 C2.08375 6.07375 2.0425 7.0225 2 8 C1.34 8 0.68 8 0 8 C-0.66 9.32 -1.32 10.64 -2 12 C-3.40907283 9.18185434 -2.50872691 7.82722796 -1.5625 4.875 C-1.27503906 3.96492188 -0.98757812 3.05484375 -0.69140625 2.1171875 C-0.46324219 1.41851562 -0.23507813 0.71984375 0 0 Z " fill="#7E127C" transform="translate(209,102)"/>
<path d="M0 0 C1.98 0.66 3.96 1.32 6 2 C6 2.99 6 3.98 6 5 C4.1875 5.625 4.1875 5.625 2 6 C1.01 5.34 0.02 4.68 -1 4 C-0.67 2.68 -0.34 1.36 0 0 Z " fill="#F4EFF3" transform="translate(169,176)"/>
<path d="M0 0 C0 0.66 0 1.32 0 2 C1.32 2 2.64 2 4 2 C3.67 2.66 3.34 3.32 3 4 C1.54207116 4.05399736 0.08357288 4.09279177 -1.375 4.125 C-2.18710938 4.14820313 -2.99921875 4.17140625 -3.8359375 4.1953125 C-6 4 -6 4 -8 2 C-5.09399739 0.74335022 -3.20395416 0 0 0 Z " fill="#861584" transform="translate(149,161)"/>
<path d="M0 0 C0.33 0 0.66 0 1 0 C1.33 1.65 1.66 3.3 2 5 C2.721875 4.690625 3.44375 4.38125 4.1875 4.0625 C6.80307309 3.07439461 9.25118982 2.4712246 12 2 C8.18765077 5.3502463 4.66714289 7.16974789 0 9 C0 6.03 0 3.06 0 0 Z " fill="#701171" transform="translate(18,92)"/>
<path d="M0 0 C1.670625 0.061875 1.670625 0.061875 3.375 0.125 C-4.52822581 5.3938172 -4.52822581 5.3938172 -9.0625 4.8125 C-9.578125 4.585625 -10.09375 4.35875 -10.625 4.125 C-9.449375 3.691875 -9.449375 3.691875 -8.25 3.25 C-0.725 0.025 -0.725 0.025 0 0 Z " fill="#7B0E71" transform="translate(40.625,192.875)"/>
<path d="M0 0 C0.66 0.66 1.32 1.32 2 2 C0.02 4.64 -1.96 7.28 -4 10 C-4.99 9.67 -5.98 9.34 -7 9 C-6.67 8.01 -6.34 7.02 -6 6 C-5.01 6.33 -4.02 6.66 -3 7 C-2.814375 6.1028125 -2.814375 6.1028125 -2.625 5.1875 C-2 3 -2 3 0 0 Z " fill="#770E76" transform="translate(130,166)"/>
<path d="M0 0 C3.875 4.75 3.875 4.75 5 7 C3.02 7.66 1.04 8.32 -1 9 C-2.0326802 6.21176345 -2.04509293 5.1322726 -1.0625 2.25 C-0.711875 1.5075 -0.36125 0.765 0 0 Z " fill="#F8F1F6" transform="translate(141,155)"/>
<path d="M0 0 C0.99 0.33 1.98 0.66 3 1 C1.70700306 3.88437779 0.34058637 5.87219421 -2 8 C-2.66 7.67 -3.32 7.34 -4 7 C-4 6.34 -4 5.68 -4 5 C-3.34 4.67 -2.68 4.34 -2 4 C-0.86649466 1.98330173 -0.86649466 1.98330173 0 0 Z " fill="#F0EAF4" transform="translate(196,125)"/>
<path d="M0 0 C0.66 0 1.32 0 2 0 C2 2.31 2 4.62 2 7 C0.68 7.33 -0.64 7.66 -2 8 C-1.125 2.25 -1.125 2.25 0 0 Z " fill="#F0E6EE" transform="translate(206,144)"/>
<path d="M0 0 C0.33 0 0.66 0 1 0 C1.3125 2.1875 1.3125 2.1875 1 5 C-1.3125 7.8125 -1.3125 7.8125 -4 10 C-4.99 10 -5.98 10 -7 10 C-5.85821872 8.33055479 -4.71147095 6.6645052 -3.5625 5 C-2.92441406 4.071875 -2.28632813 3.14375 -1.62890625 2.1875 C-1.09136719 1.465625 -0.55382812 0.74375 0 0 Z " fill="#7B1578" transform="translate(201,123)"/>
<path d="M0 0 C1.32 0.33 2.64 0.66 4 1 C3.67 3.31 3.34 5.62 3 8 C2.01 8 1.02 8 0 8 C0 5.36 0 2.72 0 0 Z " fill="#890783" transform="translate(4,124)"/>
<path d="M0 0 C0.66 0.33 1.32 0.66 2 1 C-0.475 6.94 -0.475 6.94 -3 13 C-3.33 13 -3.66 13 -4 13 C-4.24042276 8.91281305 -3.42258812 5.82320557 -2 2 C-1.34 2 -0.68 2 0 2 C0 1.34 0 0.68 0 0 Z " fill="#F6E5F6" transform="translate(5,119)"/>
<path d="M0 0 C0.99 0.33 1.98 0.66 3 1 C2.01 1.33 1.02 1.66 0 2 C-0.73323796 4.01508358 -0.73323796 4.01508358 -1 6 C-2.32 5.34 -3.64 4.68 -5 4 C-3.36587557 2.29159719 -2.13093906 1.06546953 0 0 Z " fill="#F0E8F0" transform="translate(88,34)"/>
<path d="M0 0 C0.66 0.33 1.32 0.66 2 1 C2.625 3.5625 2.625 3.5625 3 6 C0.03 5.01 -2.94 4.02 -6 3 C-4.68 2.67 -3.36 2.34 -2 2 C-1.34 1.34 -0.68 0.68 0 0 Z " fill="#831982" transform="translate(167,170)"/>
<path d="M0 0 C0.99 0.33 1.98 0.66 3 1 C3 1.66 3 2.32 3 3 C3.66 3.33 4.32 3.66 5 4 C4 5 4 5 1.71484375 5.09765625 C0.34005859 5.08025391 0.34005859 5.08025391 -1.0625 5.0625 C-1.98160156 5.05347656 -2.90070313 5.04445312 -3.84765625 5.03515625 C-4.55792969 5.02355469 -5.26820313 5.01195312 -6 5 C-6 4.67 -6 4.34 -6 4 C-4.02 3.67 -2.04 3.34 0 3 C0 2.01 0 1.02 0 0 Z " fill="#E7D8EC" transform="translate(163,154)"/>
<path d="M0 0 C3.3 0 6.6 0 10 0 C10 0.66 10 1.32 10 2 C8.35 2 6.7 2 5 2 C4.67 2.99 4.34 3.98 4 5 C3.67 4.34 3.34 3.68 3 3 C2.01 2.67 1.02 2.34 0 2 C0 1.34 0 0.68 0 0 Z " fill="#F6F8F3" transform="translate(152,155)"/>
<path d="M0 0 C1.32 0.33 2.64 0.66 4 1 C2.68 1.33 1.36 1.66 0 2 C0 1.34 0 0.68 0 0 Z M-6 1 C-3.03 1.495 -3.03 1.495 0 2 C-0.99 3.485 -0.99 3.485 -2 5 C-4.625 5.1875 -4.625 5.1875 -7 5 C-6.34 4.34 -5.68 3.68 -5 3 C-5.33 2.34 -5.66 1.68 -6 1 Z " fill="#890586" transform="translate(40,95)"/>
<path d="M0 0 C0.66 0.33 1.32 0.66 2 1 C1.6875 2.9375 1.6875 2.9375 1 5 C-2.28976808 6.09658936 -3.71303767 5.79953138 -7 5 C-4.702779 3.25728062 -2.40133271 1.60088848 0 0 Z " fill="#ECD8EB" transform="translate(33,92)"/>
<path d="M0 0 C1.32 0.66 2.64 1.32 4 2 C3.67 4.31 3.34 6.62 3 9 C0.53721199 6.53721199 0.00228745 4.29323018 -1 1 C-0.67 0.67 -0.34 0.34 0 0 Z " fill="#F2E6F0" transform="translate(17,76)"/>
<path d="M0 0 C1.98 0.66 3.96 1.32 6 2 C5.67 3.32 5.34 4.64 5 6 C3.35 5.67 1.7 5.34 0 5 C0 3.35 0 1.7 0 0 Z " fill="#F8F7F8" transform="translate(16,72)"/>
<path d="M0 0 C0.2475 0.639375 0.495 1.27875 0.75 1.9375 C1.81562433 4.18741541 1.81562433 4.18741541 4.125 4.75 C4.74375 4.8325 5.3625 4.915 6 5 C6 5.99 6 6.98 6 8 C2.2047869 6.50902342 0.38957269 4.24299151 -2 1 C-1.34 0.67 -0.68 0.34 0 0 Z " fill="#812582" transform="translate(193,53)"/>
<path d="M0 0 C0.99 0.33 1.98 0.66 3 1 C2 4 2 4 -0.0625 5.1875 C-0.701875 5.455625 -1.34125 5.72375 -2 6 C-2.33 4.68 -2.66 3.36 -3 2 C-2.01 1.34 -1.02 0.68 0 0 Z " fill="#F2EDF1" transform="translate(51,34)"/>
<path d="M0 0 C0.66 0.33 1.32 0.66 2 1 C2.625 3.5625 2.625 3.5625 3 6 C1.35 6.66 -0.3 7.32 -2 8 C-1.34 5.36 -0.68 2.72 0 0 Z " fill="#851A87" transform="translate(12,198)"/>
<path d="M0 0 C1.09054688 0.02320313 2.18109375 0.04640625 3.3046875 0.0703125 C4.40039062 0.08835938 5.49609375 0.10640625 6.625 0.125 C7.46804687 0.14820313 8.31109375 0.17140625 9.1796875 0.1953125 C9.1796875 0.5253125 9.1796875 0.8553125 9.1796875 1.1953125 C7.59882702 1.56035853 6.01484843 1.91191756 4.4296875 2.2578125 C3.54796875 2.45503906 2.66625 2.65226563 1.7578125 2.85546875 C-0.80710278 3.19357122 -2.39122889 3.00689885 -4.8203125 2.1953125 C-2.8203125 0.1953125 -2.8203125 0.1953125 0 0 Z " fill="#7F327E" transform="translate(136.8203125,173.8046875)"/>
<path d="M0 0 C0.99 0 1.98 0 3 0 C3.33 1.32 3.66 2.64 4 4 C2.35 4.66 0.7 5.32 -1 6 C-0.67 4.02 -0.34 2.04 0 0 Z " fill="#861187" transform="translate(25,67)"/>
<path d="M0 0 C1 3 1 3 0.22265625 5.04296875 C-0.16019531 5.75066406 -0.54304687 6.45835938 -0.9375 7.1875 C-1.31777344 7.90292969 -1.69804687 8.61835937 -2.08984375 9.35546875 C-2.54037109 10.16951172 -2.54037109 10.16951172 -3 11 C-4.25541557 7.23375329 -3.37061958 5.62811066 -2 2 C-1.34 2 -0.68 2 0 2 C0 1.34 0 0.68 0 0 Z " fill="#791374" transform="translate(220,115)"/>
<path d="M0 0 C-2.39509338 2.89932357 -4.31245243 3.50168276 -8 4 C-8 3.01 -8 2.02 -8 1 C-5.29120665 -0.35439668 -2.99066732 -0.06501451 0 0 Z " fill="#F7EDF3" transform="translate(31,97)"/>
<path d="M0 0 C-0.33 0.99 -0.66 1.98 -1 3 C-2.65 3.33 -4.3 3.66 -6 4 C-6 3.34 -6 2.68 -6 2 C-6.66 1.67 -7.32 1.34 -8 1 C-5.23735711 0.40267181 -2.83967231 0 0 0 Z " fill="#7A127A" transform="translate(85,34)"/>
<path d="M0 0 C2.97 0.33 5.94 0.66 9 1 C9 1.33 9 1.66 9 2 C4.545 2.495 4.545 2.495 0 3 C0 2.01 0 1.02 0 0 Z " fill="#880D89" transform="translate(135,172)"/>
<path d="M0 0 C0.99 0.33 1.98 0.66 3 1 C3 3.97 3 6.94 3 10 C0.70366176 6.55549263 0.45983515 4.06187717 0 0 Z " fill="#7D0E7E" transform="translate(12,171)"/>
<path d="M0 0 C2.375 0.25 2.375 0.25 5 1 C6.3125 3.0625 6.3125 3.0625 7 5 C6 6 6 6 3.4375 6.0625 C2.2309375 6.0315625 2.2309375 6.0315625 1 6 C1.99 5.67 2.98 5.34 4 5 C4 4.01 4 3.02 4 2 C2.68 1.34 1.36 0.68 0 0 Z " fill="#760C7A" transform="translate(170,162)"/>
<path d="M0 0 C4.455 0.99 4.455 0.99 9 2 C8.67 3.32 8.34 4.64 8 6 C6.66402348 5.19185349 5.331275 4.37836819 4 3.5625 C3.2575 3.11003906 2.515 2.65757813 1.75 2.19140625 C1.1725 1.79824219 0.595 1.40507813 0 1 C0 0.67 0 0.34 0 0 Z " fill="#7F1B7F" transform="translate(175,42)"/>
<path d="M0 0 C2 1 2 1 4 4 C1.69 4.33 -0.62 4.66 -3 5 C-3 4.01 -3 3.02 -3 2 C-2.01 1.34 -1.02 0.68 0 0 Z " fill="#F1ECF4" transform="translate(70,43)"/>
<path d="M0 0 C0.33 0.66 0.66 1.32 1 2 C0.34 2 -0.32 2 -1 2 C-1.33 3.32 -1.66 4.64 -2 6 C-3.65 5.67 -5.3 5.34 -7 5 C-2.25 1.125 -2.25 1.125 0 0 Z " fill="#EFDFF0" transform="translate(79,38)"/>
<path d="M0 0 C2.64 0 5.28 0 8 0 C5.61426621 1.89213369 3.92824652 3.02391783 1 4 C0.34 3.34 -0.32 2.68 -1 2 C-0.67 1.34 -0.34 0.68 0 0 Z " fill="#F5EBF2" transform="translate(64,26)"/>
<path d="M0 0 C1.670625 0.061875 1.670625 0.061875 3.375 0.125 C1.6875 1.6875 1.6875 1.6875 -0.625 3.125 C-3.375 2.8125 -3.375 2.8125 -5.625 2.125 C-3.625 0.125 -3.625 0.125 0 0 Z " fill="#F2E2F0" transform="translate(44.625,193.875)"/>
<path d="M0 0 C1.32 0.33 2.64 0.66 4 1 C4.33 2.32 4.66 3.64 5 5 C4.01 5.66 3.02 6.32 2 7 C1.34 4.69 0.68 2.38 0 0 Z " fill="#F2EDEE" transform="translate(8,172)"/>
<path d="M0 0 C0.66 0 1.32 0 2 0 C2.66 1.65 3.32 3.3 4 5 C3.01 5.495 3.01 5.495 2 6 C1.67 5.34 1.34 4.68 1 4 C0.01 4.33 -0.98 4.66 -2 5 C-1.34 3.35 -0.68 1.7 0 0 Z " fill="#770675" transform="translate(130,160)"/>
<path d="M0 0 C0.33 0.66 0.66 1.32 1 2 C0.34 2 -0.32 2 -1 2 C-0.67 3.65 -0.34 5.3 0 7 C-0.99 7 -1.98 7 -3 7 C-3.33 5.68 -3.66 4.36 -4 3 C-2.68 2.01 -1.36 1.02 0 0 Z " fill="#740572" transform="translate(13,113)"/>
<path d="M0 0 C1.98 0.99 3.96 1.98 6 3 C4 4 2 5 0 6 C-1 3 -1 3 0 0 Z " fill="#F3E9F3" transform="translate(174,42)"/>
<path d="M0 0 C2.64 1.65 5.28 3.3 8 5 C7.01 5.495 7.01 5.495 6 6 C3.64018187 5.06421005 1.30368736 4.06652192 -1 3 C-0.67 2.01 -0.34 1.02 0 0 Z " fill="#791777" transform="translate(167,36)"/>
<path d="M0 0 C2.64 0 5.28 0 8 0 C7.67 0.99 7.34 1.98 7 3 C5.125 3.875 5.125 3.875 3 4 C1.25 2.625 1.25 2.625 0 1 C0 0.67 0 0.34 0 0 Z " fill="#8B0F88" transform="translate(72,26)"/>
</svg>
