<?xml version="1.0" encoding="UTF-8"?>
<svg version="1.1" xmlns="http://www.w3.org/2000/svg" width="512" height="512">
<path d="M0 0 C0.94697754 0.17692383 1.89395508 0.35384766 2.86962891 0.53613281 C40.26132684 7.67303511 77.03447652 21.55848177 108 44 C109.02738281 44.73605469 110.05476563 45.47210938 111.11328125 46.23046875 C121.34309296 53.72702338 131.24570842 61.80554851 140 71 C140.78375 71.78375 141.5675 72.5675 142.375 73.375 C143.24125 74.24125 144.1075 75.1075 145 76 C145.95132813 76.89912109 145.95132813 76.89912109 146.921875 77.81640625 C162.57826629 92.8898468 175.00094001 111.79842285 185 131 C185.37366699 131.71462402 185.74733398 132.42924805 186.13232422 133.16552734 C194.69424228 149.77455304 200.65728338 167.3114983 204.875 185.5 C205.06610352 186.32218018 205.25720703 187.14436035 205.45410156 187.99145508 C208.64810315 202.69632535 209.37685295 217.19859618 209.3125 232.1875 C209.31034485 233.0924118 209.3081897 233.99732361 209.30596924 234.92965698 C209.25540055 248.16418508 208.89455109 261.03643562 206 274 C205.79600586 274.94504395 205.59201172 275.89008789 205.38183594 276.86376953 C196.47556453 317.30498301 177.86176077 354.08901857 149.49609375 384.31640625 C147.36940178 386.60284973 145.32927439 388.92987084 143.3125 391.3125 C140.54516626 394.48908732 137.60500437 397.26484869 134.38671875 399.98046875 C132.59456367 401.49690766 130.83085355 403.04706691 129.08203125 404.61328125 C114.17279585 417.89339899 97.7455442 428.8909333 80 438 C79.16227051 438.43908691 78.32454102 438.87817383 77.46142578 439.33056641 C16.57617214 471.01517597 -54.83042443 476.26566972 -120.77734375 459.01171875 C-127.85520214 457.23594215 -134.66783251 456.66957982 -141.9375 456.5625 C-142.80705322 456.54018311 -143.67660645 456.51786621 -144.57250977 456.49487305 C-161.34620833 456.55221638 -177.18516436 464.42333352 -192.4140625 470.62109375 C-194.76012512 471.5682674 -197.106516 472.51462833 -199.45321655 473.46022034 C-204.97180949 475.68601879 -210.48728399 477.91941662 -216.0011791 480.15681845 C-224.06744967 483.42940274 -232.13948225 486.68771339 -240.21103477 489.94724369 C-246.0079622 492.28844193 -251.80415461 494.63140159 -257.59805298 496.98008728 C-263.39499618 499.32932024 -269.19589268 501.66852851 -275 504 C-275.72950615 504.29427509 -276.4590123 504.58855019 -277.21062469 504.89174271 C-279.03662788 505.6261018 -280.86651331 506.35078859 -282.69677734 507.07446289 C-283.62743011 507.44398575 -284.55808289 507.81350861 -285.51693726 508.19422913 C-289.37654402 509.44669797 -293.02401955 509.91944548 -297 509 C-299.87029869 507.20606332 -301.49131638 506.01736724 -303 503 C-304.01893557 493.99326184 -300.6021903 486.47688419 -297.41015625 478.25 C-296.82501178 476.70901124 -296.24125319 475.16749561 -295.65879822 473.62548828 C-294.12161094 469.5662239 -292.56713158 465.5138095 -291.00842285 461.46276855 C-289.45918976 457.42924455 -287.92397494 453.390405 -286.38867188 449.3515625 C-286.08908758 448.56372375 -285.78950329 447.77588501 -285.48084068 446.96417236 C-284.88025226 445.38474981 -284.27972886 443.80530253 -283.6792717 442.22583008 C-282.78855952 439.88394795 -281.89663384 437.5425307 -281.00454712 435.20117188 C-277.5284146 426.07122186 -274.08519503 416.93117025 -270.74609375 407.75 C-270.38765884 406.77530762 -270.02922394 405.80061523 -269.65992737 404.79638672 C-263.70340412 388.25759698 -262.05081511 369.57530556 -269 353 C-271.90877512 346.95862579 -275.06277523 341.04777353 -278.21484375 335.13110352 C-290.37757598 312.23435389 -298.44022685 287.71231831 -302 262 C-302.0942627 261.33137939 -302.18852539 260.66275879 -302.28564453 259.97387695 C-304.97085614 237.82688569 -304.83075755 212.77715836 -300 191 C-299.79600586 190.05350586 -299.59201172 189.10701172 -299.38183594 188.13183594 C-292.90815547 158.74113817 -281.53272835 130.59223165 -264 106 C-263.52062988 105.32146973 -263.04125977 104.64293945 -262.54736328 103.94384766 C-256.43242226 95.35309141 -249.88456624 87.38631355 -242.59375 79.76953125 C-240.0059508 77.08049375 -240.0059508 77.08049375 -237.87890625 74.3359375 C-236.17615186 72.21899961 -234.51004949 70.55379968 -232.4375 68.8125 C-230.1407313 66.85940837 -227.8905079 64.89609423 -225.703125 62.8203125 C-212.93431195 50.72562933 -198.39186292 40.47738597 -183 32 C-182.17048828 31.53883789 -181.34097656 31.07767578 -180.48632812 30.60253906 C-153.20359407 15.55100918 -124.59161082 5.71543112 -94 0 C-93.13681152 -0.16661133 -92.27362305 -0.33322266 -91.38427734 -0.50488281 C-62.37329533 -5.85003037 -28.94604819 -5.58712224 0 0 Z M-170 210 C-176.43839931 216.66834214 -179.96868288 224.71447511 -180 234 C-179.3586213 241.93357565 -175.80633411 249.32491879 -170.07421875 254.859375 C-163.14814869 260.29264161 -155.84382382 263.19337807 -147 263 C-137.35575233 261.61649372 -130.59481587 257.56160219 -124.625 249.9375 C-119.70513262 243.21734595 -118.57454511 235.80509567 -119.17578125 227.6015625 C-120.73680755 218.61383534 -126.18132717 211.74867855 -133.421875 206.44140625 C-145.90983202 199.45950301 -158.97431781 201.50572444 -170 210 Z M-67.9140625 210.7890625 C-74.02967318 217.32105519 -77.17471045 223.48633153 -77.5 232.5 C-77.14287522 242.39581257 -73.17130884 249.29702153 -66 256 C-59.4282588 261.28421639 -52.46263712 263.3713099 -44.0625 262.9375 C-35.10356019 261.72720844 -27.50500174 257.13014853 -22 250 C-17.25103201 242.13814141 -16.25412557 235.15294483 -17 226 C-19.09465955 217.68445396 -24.87765091 210.8921183 -31.875 206.125 C-43.94081805 199.15311681 -57.9395206 201.46591926 -67.9140625 210.7890625 Z M33 212 C26.92006783 219.16516738 24.642216 226.09931496 25.0625 235.4375 C26.22981159 244.82845613 30.41039688 251.42521758 37.6796875 257.375 C44.31923482 262.02491866 52.50596005 263.86925671 60.54296875 262.59765625 C69.95069575 260.13268592 76.65466885 255.48356346 81.80859375 247.24609375 C85.77728978 239.76412583 86.75677792 232.80401093 84.84765625 224.5859375 C81.58721826 214.63934789 75.60254378 208.95406854 66.5625 204.1875 C54.16847763 200.05615921 42.26223592 202.5360124 33 212 Z " fill="#FFCB26" transform="translate(303,3)"/>
</svg>
