<?xml version="1.0" encoding="UTF-8"?>
<svg version="1.1" xmlns="http://www.w3.org/2000/svg" width="225" height="225">
<path d="M0 0 C74.25 0 148.5 0 225 0 C225 74.25 225 148.5 225 225 C150.75 225 76.5 225 0 225 C0 150.75 0 76.5 0 0 Z " fill="#FFC107" transform="translate(0,0)"/>
<path d="M0 0 C2.95265112 1.32994383 5.02350216 2.77779316 7.29980469 5.07275391 C7.92014587 5.69324615 8.54048706 6.3137384 9.17962646 6.95303345 C9.83706848 7.62079803 10.4945105 8.28856262 11.171875 8.9765625 C11.8542926 9.66181 12.53671021 10.3470575 13.23980713 11.05307007 C15.41461598 13.23905845 17.58236072 15.43190429 19.75 17.625 C21.2247999 19.10983255 22.70005506 20.59421306 24.17578125 22.078125 C27.78915448 25.7135291 31.39620853 29.35509824 35 33 C33.70177246 35.88157982 32.82761696 37.15186125 30.375 39.3125 C27.69717812 41.82657959 27.69717812 41.82657959 27.61328125 45.34375 C28.06407712 49.60582001 29.00365337 51.01463472 31.8125 54.1875 C32.63105469 55.12464844 33.44960937 56.06179687 34.29296875 57.02734375 C35.19399397 58.01942827 36.09637399 59.01028378 37 60 C37.93395853 61.04264211 38.86754832 62.08561463 39.80078125 63.12890625 C42.49625441 66.12211347 45.24213366 69.0642068 48 72 C48.58136719 72.63550781 49.16273437 73.27101563 49.76171875 73.92578125 C54.69056053 79.12775784 60.42488946 83.37729241 66.0859375 87.7421875 C69 90 69 90 70 91 C73.24488794 91.67038093 73.24488794 91.67038093 77 91 C79.66377352 88.93905337 81.83879866 86.5750484 84 84 C86.95265112 85.32994383 89.02350216 86.77779316 91.29980469 89.07275391 C91.92014587 89.69324615 92.54048706 90.3137384 93.17962646 90.95303345 C94.16578949 91.95468033 94.16578949 91.95468033 95.171875 92.9765625 C95.8542926 93.66181 96.53671021 94.3470575 97.23980713 95.05307007 C99.41461598 97.23905845 101.58236072 99.43190429 103.75 101.625 C105.2247999 103.10983255 106.70005506 104.59421306 108.17578125 106.078125 C111.78915448 109.7135291 115.39620853 113.35509824 119 117 C116.3082761 122.60920998 112.26749232 126.47190735 107.125 129.9375 C96.3373457 133.60530246 84.63617903 128.71282903 74.78515625 124.0859375 C60.29425625 116.89333726 47.20315321 107.54366179 35.51171875 96.39453125 C33.45871213 94.43731032 31.37969385 92.60787289 29.1875 90.8125 C25.36258955 87.55628127 22.18541651 83.87465868 19 80 C18.16339844 78.989375 17.32679687 77.97875 16.46484375 76.9375 C3.68894554 61.25011857 -13.27252181 38.45292992 -12.41015625 17.15625 C-11.04199601 9.96363617 -5.16526262 4.76335458 0 0 Z " fill="#FFFEFB" transform="translate(54,52)"/>
<path d="M0 0 C34.65 0 69.3 0 105 0 C105 0.33 105 0.66 105 1 C104.04222656 1.08636719 103.08445312 1.17273438 102.09765625 1.26171875 C85.30666949 2.95532184 70.71156927 7.76494061 56 16 C55.00226562 16.55558594 54.00453125 17.11117188 52.9765625 17.68359375 C45.43158309 22.19112443 39.29185956 27.93446632 33 34 C32.01193359 34.89332031 32.01193359 34.89332031 31.00390625 35.8046875 C12.53182076 52.95429112 2.57752685 80.46530604 1 105 C0.67 105 0.34 105 0 105 C0 70.35 0 35.7 0 0 Z " fill="#FFFEFD" transform="translate(0,0)"/>
<path d="M0 0 C0.33 0 0.66 0 1 0 C1 34.32 1 68.64 1 104 C-33.32 104 -67.64 104 -103 104 C-103 103.67 -103 103.34 -103 103 C-101.77925781 102.82984375 -100.55851562 102.6596875 -99.30078125 102.484375 C-70.29104613 98.28859331 -42.45635251 85.6429668 -24.1171875 61.9296875 C-10.40354007 42.95323811 -2.49182585 23.41004809 0 0 Z " fill="#FFFEFC" transform="translate(224,121)"/>
<path d="M0 0 C0.33 0 0.66 0 1 0 C1.15855469 1.06476563 1.31710938 2.12953125 1.48046875 3.2265625 C4.90522814 25.02623019 13.59896336 43.61733109 27 61 C27.52207031 61.69609375 28.04414063 62.3921875 28.58203125 63.109375 C32.93236988 68.57550654 38.49782749 72.75416949 44 77 C44.78246094 77.60972656 45.56492188 78.21945313 46.37109375 78.84765625 C63.22533489 91.32491066 82.44411673 97.30450571 103 100 C103 100.33 103 100.66 103 101 C69.01 101 35.02 101 0 101 C0 67.67 0 34.34 0 0 Z " fill="#FFFEFD" transform="translate(0,124)"/>
<path d="M0 0 C33.33 0 66.66 0 101 0 C101 33.99 101 67.98 101 103 C100.67 103 100.34 103 100 103 C99.85304688 101.82566406 99.70609375 100.65132813 99.5546875 99.44140625 C96.41429517 76.19617847 87.90294722 57.06344174 73 39 C72.18273437 37.9790625 71.36546875 36.958125 70.5234375 35.90625 C66.52296616 31.29889602 61.81068483 27.72566624 57 24 C56.21625 23.38898437 55.4325 22.77796875 54.625 22.1484375 C43.41398674 13.85380269 29.60768946 7.1404748 16.0625 3.875 C15.39798828 3.70613281 14.73347656 3.53726562 14.04882812 3.36328125 C9.3834185 2.21389808 4.77618539 1.52297896 0 1 C0 0.67 0 0.34 0 0 Z " fill="#FFFEFD" transform="translate(124,0)"/>
<path d="M0 0 C5.56620641 0.25631238 8.37379377 3.76155079 12.0859375 7.484375 C12.74711578 8.13698303 13.40829407 8.78959106 14.08950806 9.4619751 C15.48126265 10.84226128 16.86782916 12.22779573 18.24951172 13.61816406 C20.37112907 15.74611751 22.51803531 17.84601779 24.66796875 19.9453125 C26.01724445 21.2900437 27.36495623 22.63634631 28.7109375 23.984375 C29.67947159 24.92527985 29.67947159 24.92527985 30.66757202 25.88519287 C34.92135891 30.22963243 34.92135891 30.22963243 35.26806641 33.62597656 C34 36 34 36 28 41 C16.78 29.78 5.56 18.56 -6 7 C-4.02 4.69 -2.04 2.38 0 0 Z " fill="#FFFDF9" transform="translate(148,126)"/>
<path d="M0 0 C5.56620641 0.25631238 8.37379377 3.76155079 12.0859375 7.484375 C12.74711578 8.13698303 13.40829407 8.78959106 14.08950806 9.4619751 C15.48126265 10.84226128 16.86782916 12.22779573 18.24951172 13.61816406 C20.37112907 15.74611751 22.51803531 17.84601779 24.66796875 19.9453125 C26.01724445 21.2900437 27.36495623 22.63634631 28.7109375 23.984375 C29.67947159 24.92527985 29.67947159 24.92527985 30.66757202 25.88519287 C34.92135891 30.22963243 34.92135891 30.22963243 35.26806641 33.62597656 C34 36 34 36 28 41 C16.78 29.78 5.56 18.56 -6 7 C-4.02 4.69 -2.04 2.38 0 0 Z " fill="#FFFDF9" transform="translate(64,42)"/>
</svg>
