<?xml version="1.0" encoding="UTF-8"?>
<svg version="1.1" xmlns="http://www.w3.org/2000/svg" width="225" height="225">
<path d="M0 0 C74.25 0 148.5 0 225 0 C225 74.25 225 148.5 225 225 C150.75 225 76.5 225 0 225 C0 150.75 0 76.5 0 0 Z " fill="#FFFEFE" transform="translate(0,0)"/>
<path d="M0 0 C0.77085938 0.04382813 1.54171875 0.08765625 2.3359375 0.1328125 C5.80099665 1.25629584 6.80243795 2.73614314 8.625 5.875 C9.22557129 8.97831302 9.3202175 12.0325259 9.375 15.1875 C9.40464844 16.02345703 9.43429688 16.85941406 9.46484375 17.72070312 C9.53516107 19.77162485 9.58238973 21.82331562 9.625 23.875 C10.18445313 23.3903125 10.74390625 22.905625 11.3203125 22.40625 C32.14144895 4.99951213 55.81100245 -1.59351508 82.625 -0.125 C107.12940644 2.15473579 129.46955134 14.63145039 145.5 33.15234375 C156.00315828 46.60951529 162.0650278 61.371334 165.625 77.875 C165.81835938 78.66648437 166.01171875 79.45796875 166.2109375 80.2734375 C169.91595232 103.55211555 163.22643394 128.79104973 149.625 147.875 C133.71628077 168.73252277 112.54471568 182.3864318 86.46875 186.40234375 C71.61777517 188.2285307 71.61777517 188.2285307 66.82421875 184.97265625 C64.16777 182.43888541 63.67587481 181.65508035 63.4375 178 C63.62519813 174.87169788 63.8073143 173.3851374 65.625 170.875 C69.75476688 167.78526632 72.84880407 167.55114267 77.9375 167.5 C96.89121272 166.80344613 114.14310203 158.03545019 127.625 144.875 C140.63296963 130.42621003 147.23466661 112.90118256 147.0625 93.5625 C147.05492676 92.37132568 147.04735352 91.18015137 147.03955078 89.95288086 C146.87716834 81.28675513 146.07160804 73.90990499 142.625 65.875 C142.2125 64.87210937 141.8 63.86921875 141.375 62.8359375 C132.49400672 43.30784432 116.81714267 30.10950179 97.0234375 22.48828125 C79.9596143 17.36913429 59.8855484 17.32694492 43.625 24.875 C42.69945312 25.27074219 41.77390625 25.66648437 40.8203125 26.07421875 C32.54063638 29.86173017 25.96242012 35.41591911 19.625 41.875 C20.32584717 41.85928955 21.02669434 41.8435791 21.7487793 41.82739258 C24.93660351 41.76487588 28.12429851 41.72595619 31.3125 41.6875 C32.41529297 41.66236328 33.51808594 41.63722656 34.65429688 41.61132812 C35.72099609 41.60166016 36.78769531 41.59199219 37.88671875 41.58203125 C38.86600342 41.5663208 39.84528809 41.55061035 40.85424805 41.53442383 C44.14751457 41.93922661 45.96615396 42.9167397 48.625 44.875 C50.95036063 48.36304095 50.95957898 49.77640754 50.625 53.875 C49.7551432 56.91949881 48.86372157 57.71904834 46.19360352 59.46337891 C41.42080303 61.35134035 37.23881463 61.3056285 32.15234375 61.2734375 C31.15167374 61.27630768 30.15100372 61.27917786 29.12001038 61.28213501 C27.01123486 61.28417066 24.90244025 61.27867585 22.79370117 61.26611328 C19.56972011 61.25003601 16.34698944 61.26598806 13.12304688 61.28515625 C11.07030974 61.28317406 9.01757338 61.27933089 6.96484375 61.2734375 C5.52249611 61.28254654 5.52249611 61.28254654 4.05101013 61.2918396 C-4.55937558 61.20149009 -4.55937558 61.20149009 -8.375 57.875 C-10.21095219 54.87074454 -10.63335728 52.59116091 -10.66552734 49.09399414 C-10.67828705 48.14943863 -10.69104675 47.20488312 -10.70419312 46.23170471 C-10.70641876 45.21809372 -10.70864441 44.20448273 -10.7109375 43.16015625 C-10.7175943 42.11226425 -10.7242511 41.06437225 -10.73110962 39.98472595 C-10.74122893 37.76986444 -10.74592686 35.55497249 -10.74560547 33.34008789 C-10.74997943 29.95342784 -10.78631004 26.56807021 -10.82421875 23.18164062 C-10.83008687 21.02865029 -10.8340563 18.87565376 -10.8359375 16.72265625 C-10.85030853 15.71106949 -10.86467957 14.69948273 -10.87948608 13.65724182 C-10.85061893 9.21120331 -10.82838805 6.61694471 -8.47119141 2.75952148 C-5.4573447 0.05000801 -3.95818618 -0.30245276 0 0 Z " fill="#FFC403" transform="translate(34.375,19.125)"/>
<path d="M0 0 C2.61243383 1.89176243 3.46373211 3.32863361 4.8125 6.3125 C5.17803429 9.9244241 5.09496103 13.49943665 5 17.125 C4.97969727 18.59356445 4.97969727 18.59356445 4.95898438 20.09179688 C4.92375312 22.49926625 4.87449265 24.90559564 4.8125 27.3125 C5.62074219 27.26609375 6.42898437 27.2196875 7.26171875 27.171875 C16.06780459 26.87444387 16.06780459 26.87444387 20 29.1875 C22.35956081 31.95388164 22.77744376 32.9409039 23.125 36.625 C22.76374058 40.88786111 21.79257946 42.33242054 18.8125 45.3125 C14.6053881 47.41605595 9.12244707 46.58624276 4.5 46.625 C3.35853516 46.65400391 2.21707031 46.68300781 1.04101562 46.71289062 C-7.3688095 46.7767876 -7.3688095 46.7767876 -11.41796875 44.48046875 C-14.62176927 40.55528268 -14.3756862 36.58995331 -14.42578125 31.7578125 C-14.433853 31.01925018 -14.44192474 30.28068787 -14.45024109 29.51974487 C-14.46405873 27.95801119 -14.47479125 26.39624761 -14.48266602 24.83447266 C-14.49419676 23.23998142 -14.51466613 21.64552912 -14.54418945 20.05126953 C-14.58690091 17.74485095 -14.60303795 15.43957763 -14.61328125 13.1328125 C-14.63954338 12.07007614 -14.63954338 12.07007614 -14.66633606 10.98587036 C-14.6505729 7.37238882 -14.27420995 5.44593247 -12.28588867 2.38623047 C-8.59568791 -1.26060667 -4.9506021 -1.55590352 0 0 Z " fill="#FFC405" transform="translate(112.1875,75.6875)"/>
</svg>
