<?xml version="1.0" encoding="UTF-8"?>
<svg version="1.1" xmlns="http://www.w3.org/2000/svg" width="512" height="512">
<path d="M0 0 C4.74611163 3.99104841 8.79161406 8.80455992 10 15 C10.10825106 16.34210855 10.17472864 17.68806019 10.20532227 19.03417969 C10.2352401 20.20494049 10.2352401 20.20494049 10.26576233 21.39935303 C10.28247482 22.23178528 10.29918732 23.06421753 10.31640625 23.921875 C10.33718735 24.78186096 10.35796844 25.64184692 10.37937927 26.52789307 C10.44463739 29.26851598 10.50364917 32.00923275 10.5625 34.75 C10.60570781 36.6106867 10.64932282 38.47136398 10.69335938 40.33203125 C10.80029442 44.88792523 10.90162851 49.4439134 11 54 C11.70995117 53.34265869 12.41990234 52.68531738 13.15136719 52.00805664 C18.34393118 47.23711483 23.51437414 42.55469359 29.25 38.4375 C29.877854 37.98334717 30.50570801 37.52919434 31.15258789 37.0612793 C78.41151677 3.38392281 136.90740695 -9.49268839 194 0 C216.12258374 4.12415267 237.23379302 11.23691246 257 22 C258.15371094 22.61359375 259.30742187 23.2271875 260.49609375 23.859375 C286.89591925 38.36279786 310.1604377 58.75953163 328 83 C328.94746094 84.27230469 328.94746094 84.27230469 329.9140625 85.5703125 C363.38499974 131.87941745 376.22137802 189.74480741 367.50048828 246.01123047 C364.90019993 261.53939144 360.71425503 276.33801194 355 291 C354.72961914 291.69786621 354.45923828 292.39573242 354.18066406 293.11474609 C340.18903924 328.57332529 314.59744585 360.4820753 284 383 C282.72769531 383.94746094 282.72769531 383.94746094 281.4296875 384.9140625 C245.17655188 411.11682389 197.1882136 428.35115373 152 425 C144.850739 423.61975052 140.95323136 419.6585649 136.75 413.9375 C133.5536853 408.57225747 133.0704123 402.97453637 134.49609375 396.87890625 C136.88962748 389.72535063 141.59385218 385.81642849 148 382 C151.25006382 380.95602161 154.41432257 380.78152212 157.8125 380.60546875 C204.53329811 377.91968693 249.41518906 361.95997822 281.4375 326.3125 C282.63670035 324.88474617 283.82258827 323.44577457 285 322 C285.40331543 321.5143457 285.80663086 321.02869141 286.22216797 320.52832031 C293.413809 311.8415957 299.54517518 302.86689011 305 293 C305.3412793 292.39526855 305.68255859 291.79053711 306.03417969 291.16748047 C316.24186764 272.88643932 321.95571355 252.62659391 325 232 C325.22623047 230.49179687 325.22623047 230.49179687 325.45703125 228.953125 C330.28771009 187.47369602 317.94690828 142.43244611 292.62695312 109.19775391 C289.54700498 105.34781872 286.28899595 101.67166263 283 98 C281.85724609 96.65808594 281.85724609 96.65808594 280.69140625 95.2890625 C275.34031523 89.08904617 269.4733466 83.99851866 263 79 C262.08605469 78.27039063 261.17210937 77.54078125 260.23046875 76.7890625 C224.91468275 49.25144551 180.62048496 37.97529353 136.30078125 42.50390625 C131.48329944 43.10770344 126.74586393 43.98295637 122 45 C120.86473877 45.23348145 120.86473877 45.23348145 119.70654297 45.47167969 C87.52230767 52.30545883 59.12161139 68.87838861 36 92 C36.63369507 92.00586624 37.26739014 92.01173248 37.92028809 92.01777649 C44.53959514 92.08190816 51.15842488 92.16637858 57.77734375 92.26245117 C60.24472749 92.29562363 62.71218571 92.32367926 65.1796875 92.34643555 C68.73469666 92.38012213 72.28902798 92.43244702 75.84375 92.48828125 C76.93989624 92.49467117 78.03604248 92.5010611 79.16540527 92.50764465 C86.68763607 92.65074877 92.79260488 93.30287229 98.75 98.3125 C103.93796827 104.50923987 106.35086236 108.73187929 106.21484375 116.84765625 C105.56820573 123.32579351 102.991111 127.82139544 98 132 C93.08956129 135.60766925 89.65561116 137.11661217 83.62457275 137.14044189 C82.75556335 137.14615204 81.88655396 137.15186218 80.99121094 137.15774536 C79.57291992 137.15942215 79.57291992 137.15942215 78.12597656 137.16113281 C77.12387146 137.16609772 76.12176636 137.17106262 75.08929443 137.17617798 C71.7730643 137.19078622 68.45688202 137.19759969 65.140625 137.203125 C62.83380126 137.20887791 60.52697753 137.21463562 58.22015381 137.22039795 C53.38146746 137.23090438 48.54279771 137.23674928 43.70410156 137.24023438 C37.51248826 137.24571583 31.32109522 137.26973815 25.12955093 137.29820633 C20.36309169 137.31685687 15.59668522 137.32203962 10.83019257 137.32357025 C8.54810127 137.32659225 6.2660108 137.33460542 3.98395538 137.34775543 C0.78633513 137.36486474 -2.41075062 137.36292345 -5.60839844 137.35644531 C-6.54582886 137.3656601 -7.48325928 137.37487488 -8.44909668 137.3843689 C-16.33959478 137.3344496 -23.21647034 135.78352966 -29 130 C-32.42427392 125.048685 -34.11678221 120.61257632 -34.14044189 114.62457275 C-34.14615204 113.75556335 -34.15186218 112.88655396 -34.15774536 111.99121094 C-34.15886322 111.04568359 -34.15998108 110.10015625 -34.16113281 109.12597656 C-34.16609772 108.12387146 -34.17106262 107.12176636 -34.17617798 106.08929443 C-34.19078622 102.7730643 -34.19759969 99.45688202 -34.203125 96.140625 C-34.20887791 93.83380126 -34.21463562 91.52697753 -34.22039795 89.22015381 C-34.23090438 84.38146746 -34.23674928 79.54279771 -34.24023438 74.70410156 C-34.24571583 68.51248826 -34.26973815 62.32109522 -34.29820633 56.12955093 C-34.31685687 51.36309169 -34.32203962 46.59668522 -34.32357025 41.83019257 C-34.32659225 39.54810127 -34.33460542 37.2660108 -34.34775543 34.98395538 C-34.36486474 31.78633513 -34.36292345 28.58924938 -34.35644531 25.39160156 C-34.3656601 24.45417114 -34.37487488 23.51674072 -34.3843689 22.55090332 C-34.3344496 14.66040522 -32.78352966 7.78352966 -27 2 C-18.48405919 -3.88952916 -9.23581646 -4.96549272 0 0 Z " fill="#9900FF" transform="translate(88,45)"/>
<path d="M0 0 C4.28630858 4.28630858 7.03964171 9.35374069 7.37025452 15.47735596 C7.36803391 16.28565857 7.36581329 17.09396118 7.36352539 17.92675781 C7.36344986 18.84741028 7.36337433 19.76806274 7.36329651 20.71661377 C7.35813522 21.70216248 7.35297394 22.68771118 7.34765625 23.703125 C7.3462413 24.71848328 7.34482635 25.73384155 7.34336853 26.77996826 C7.33777516 30.02000892 7.32522385 33.25998025 7.3125 36.5 C7.30748414 38.69791567 7.30292139 40.89583242 7.29882812 43.09375 C7.2878079 48.47919029 7.27107633 53.86459019 7.25 59.25 C8.31528931 59.2185791 8.31528931 59.2185791 9.40209961 59.18652344 C12.66375194 59.10265314 15.92517644 59.05111643 19.1875 59 C20.30447266 58.96648437 21.42144531 58.93296875 22.57226562 58.8984375 C30.86099397 58.80120901 36.90226739 59.99101512 43.58984375 65.00390625 C48.86338927 70.9737145 50.38569696 76.72261049 50.19140625 84.63671875 C49.26202744 91.21121331 45.38245587 96.19291584 40.25 100.25 C33.59585964 103.35178745 27.87400611 103.69057605 20.59375 103.6484375 C18.94119202 103.65274277 18.94119202 103.65274277 17.25524902 103.65713501 C14.935623 103.65916833 12.61597954 103.65368997 10.29638672 103.64111328 C6.76100043 103.62504998 3.2267573 103.6409878 -0.30859375 103.66015625 C-2.570315 103.65817369 -4.83203555 103.65432975 -7.09375 103.6484375 C-8.14292603 103.65451019 -9.19210205 103.66058289 -10.27307129 103.6668396 C-17.67746057 103.59644227 -23.63947521 102.86566857 -29.5 97.9375 C-35.15471688 91.18325484 -36.86349341 87.00731634 -36.91113281 78.31347656 C-36.91609772 77.62348572 -36.92106262 76.93349487 -36.92617798 76.22259521 C-36.94075357 73.94526155 -36.94759461 71.6679976 -36.953125 69.390625 C-36.95888114 67.80124918 -36.96463881 66.21187337 -36.97039795 64.62249756 C-36.98089548 61.29032062 -36.98674601 57.95816771 -36.99023438 54.62597656 C-36.99571027 50.37141211 -37.01972401 46.1171691 -37.04820633 41.86270523 C-37.06689987 38.57858373 -37.07204191 35.29453854 -37.07357025 32.01036835 C-37.07658321 30.44278968 -37.08456554 28.87521192 -37.09775543 27.30768585 C-37.23767822 9.39750923 -37.23767822 9.39750923 -31.4375 2.5 C-21.24187281 -6.03587393 -11.3377148 -7.21490942 0 0 Z " fill="#9800FF" transform="translate(258.75,174.75)"/>
</svg>
