<?xml version="1.0" encoding="UTF-8"?>
<svg version="1.1" xmlns="http://www.w3.org/2000/svg" width="201" height="200">
<path d="M0 0 C66.33 0 132.66 0 201 0 C201 66 201 132 201 200 C134.67 200 68.34 200 0 200 C0 134 0 68 0 0 Z " fill="#FEFEFE" transform="translate(0,0)"/>
<path d="M0 0 C1.31834335 -0.00915436 2.63668671 -0.01830872 3.99497986 -0.02774048 C5.42188665 -0.00193228 6.84877201 0.0250851 8.27563477 0.05322266 C9.75243913 0.0586721 11.22925555 0.06144651 12.70606995 0.06167603 C15.79569953 0.06938933 18.88390088 0.10027007 21.97314453 0.14941406 C25.9185209 0.21162281 29.86252864 0.23025331 33.80834866 0.2332058 C36.85664575 0.23792439 39.90465621 0.25875956 42.95283699 0.28508377 C44.4067662 0.29708335 45.86072636 0.30581996 47.31469536 0.31113815 C61.68767627 0.39086905 61.68767627 0.39086905 67.27954102 3.84228516 C69.27954102 6.84228516 69.27954102 6.84228516 69.27954102 9.84228516 C72.24954102 10.33728516 72.24954102 10.33728516 75.27954102 10.84228516 C75.77454102 12.32728516 75.77454102 12.32728516 76.27954102 13.84228516 C76.93954102 13.84228516 77.59954102 13.84228516 78.27954102 13.84228516 C78.27954102 42.88228516 78.27954102 71.92228516 78.27954102 101.84228516 C77.61954102 101.84228516 76.95954102 101.84228516 76.27954102 101.84228516 C76.27954102 102.50228516 76.27954102 103.16228516 76.27954102 103.84228516 C74.56098239 105.06510571 72.83944707 106.28420265 71.09594727 107.47119141 C68.70912286 109.27285886 67.0654261 111.46110504 65.27954102 113.84228516 C62.48546931 115.23932101 60.15498055 115.00055048 57.02905273 115.03515625 C55.71363495 115.05121918 54.39821716 115.0672821 53.04293823 115.08383179 C51.59837491 115.09532212 50.15380434 115.10593017 48.70922852 115.11572266 C47.98186619 115.12104633 47.25450386 115.12637001 46.50510025 115.13185501 C42.65095321 115.15859358 38.79683854 115.17796126 34.94262695 115.19238281 C31.76101745 115.20569261 28.58005381 115.23348767 25.39868164 115.27441406 C21.55132032 115.32390582 17.70454241 115.34852458 13.85687637 115.35560989 C12.39531209 115.36229743 10.93375954 115.37745427 9.47237778 115.4015007 C-4.23754033 115.61411697 -4.23754033 115.61411697 -10.41305542 111.30825806 C-12.8460975 108.58012281 -12.84695778 105.21418727 -12.88108826 101.68791199 C-12.89113388 100.86794235 -12.9011795 100.04797272 -12.91152954 99.20315552 C-12.91736053 98.31216156 -12.92319153 97.4211676 -12.92919922 96.50317383 C-12.938983 95.55798386 -12.94876678 94.61279388 -12.95884705 93.63896179 C-12.98874849 90.51274008 -13.01016988 87.3865609 -13.02905273 84.26025391 C-13.03562456 83.19146814 -13.04219639 82.12268238 -13.04896736 81.02150917 C-13.08153516 75.36599678 -13.10599446 69.71050307 -13.12548828 64.05493164 C-13.14331254 59.37659335 -13.17815521 54.69885651 -13.22802734 50.02075195 C-13.28820974 44.36858638 -13.31896091 38.71697916 -13.32866096 33.06450844 C-13.33721818 30.91271782 -13.35604272 28.76094224 -13.38540459 26.60933495 C-13.42432537 23.59542167 -13.42535295 20.58368509 -13.41748047 17.56958008 C-13.43748108 16.68465881 -13.45748169 15.79973755 -13.47808838 14.88800049 C-13.41385881 9.39859119 -12.35455297 6.07310972 -8.4458456 2.11504459 C-5.66158393 0.06118879 -3.41268797 -0.01917934 0 0 Z " fill="#FCC510" transform="translate(67.720458984375,42.15771484375)"/>
<path d="M0 0 C1.31834335 -0.00915436 2.63668671 -0.01830872 3.99497986 -0.02774048 C5.42188665 -0.00193228 6.84877201 0.0250851 8.27563477 0.05322266 C9.75243913 0.0586721 11.22925555 0.06144651 12.70606995 0.06167603 C15.79569953 0.06938933 18.88390088 0.10027007 21.97314453 0.14941406 C25.9185209 0.21162281 29.86252864 0.23025331 33.80834866 0.2332058 C36.85664575 0.23792439 39.90465621 0.25875956 42.95283699 0.28508377 C44.4067662 0.29708335 45.86072636 0.30581996 47.31469536 0.31113815 C61.68767627 0.39086905 61.68767627 0.39086905 67.27954102 3.84228516 C69.27954102 6.84228516 69.27954102 6.84228516 69.27954102 9.84228516 C72.24954102 10.33728516 72.24954102 10.33728516 75.27954102 10.84228516 C75.77454102 12.32728516 75.77454102 12.32728516 76.27954102 13.84228516 C76.93954102 13.84228516 77.59954102 13.84228516 78.27954102 13.84228516 C78.27954102 42.88228516 78.27954102 71.92228516 78.27954102 101.84228516 C77.61954102 101.84228516 76.95954102 101.84228516 76.27954102 101.84228516 C76.27954102 102.50228516 76.27954102 103.16228516 76.27954102 103.84228516 C74.56098239 105.06510571 72.83944707 106.28420265 71.09594727 107.47119141 C68.70912286 109.27285886 67.0654261 111.46110504 65.27954102 113.84228516 C62.48546931 115.23932101 60.15498055 115.00055048 57.02905273 115.03515625 C55.71363495 115.05121918 54.39821716 115.0672821 53.04293823 115.08383179 C51.59837491 115.09532212 50.15380434 115.10593017 48.70922852 115.11572266 C47.98186619 115.12104633 47.25450386 115.12637001 46.50510025 115.13185501 C42.65095321 115.15859358 38.79683854 115.17796126 34.94262695 115.19238281 C31.76101745 115.20569261 28.58005381 115.23348767 25.39868164 115.27441406 C21.55132032 115.32390582 17.70454241 115.34852458 13.85687637 115.35560989 C12.39531209 115.36229743 10.93375954 115.37745427 9.47237778 115.4015007 C-4.23754033 115.61411697 -4.23754033 115.61411697 -10.41305542 111.30825806 C-12.8460975 108.58012281 -12.84695778 105.21418727 -12.88108826 101.68791199 C-12.89113388 100.86794235 -12.9011795 100.04797272 -12.91152954 99.20315552 C-12.91736053 98.31216156 -12.92319153 97.4211676 -12.92919922 96.50317383 C-12.938983 95.55798386 -12.94876678 94.61279388 -12.95884705 93.63896179 C-12.98874849 90.51274008 -13.01016988 87.3865609 -13.02905273 84.26025391 C-13.03562456 83.19146814 -13.04219639 82.12268238 -13.04896736 81.02150917 C-13.08153516 75.36599678 -13.10599446 69.71050307 -13.12548828 64.05493164 C-13.14331254 59.37659335 -13.17815521 54.69885651 -13.22802734 50.02075195 C-13.28820974 44.36858638 -13.31896091 38.71697916 -13.32866096 33.06450844 C-13.33721818 30.91271782 -13.35604272 28.76094224 -13.38540459 26.60933495 C-13.42432537 23.59542167 -13.42535295 20.58368509 -13.41748047 17.56958008 C-13.43748108 16.68465881 -13.45748169 15.79973755 -13.47808838 14.88800049 C-13.41385881 9.39859119 -12.35455297 6.07310972 -8.4458456 2.11504459 C-5.66158393 0.06118879 -3.41268797 -0.01917934 0 0 Z M-8.72045898 4.84228516 C-10.45103472 7.63889264 -10.97018396 9.75919805 -10.96769714 13.02357483 C-10.97189163 13.8493251 -10.97608612 14.67507538 -10.98040771 15.52584839 C-10.97478821 16.42312653 -10.9691687 17.32040466 -10.96337891 18.24487305 C-10.96527725 19.19648819 -10.9671756 20.14810333 -10.96913147 21.1285553 C-10.97283621 24.27410113 -10.96213966 27.41941609 -10.95092773 30.56494141 C-10.9497357 32.74922153 -10.94928282 34.93350216 -10.94953918 37.11778259 C-10.94797486 41.69500946 -10.93968862 46.27215805 -10.92626953 50.84936523 C-10.90926979 56.72303148 -10.90545552 62.59661176 -10.90621471 68.47029972 C-10.9059431 72.98006514 -10.90046337 77.48981169 -10.89321327 81.99957085 C-10.89002643 84.16576431 -10.88805916 86.33195991 -10.88731956 88.49815559 C-10.88515676 91.52183824 -10.876414 94.54542885 -10.86572266 97.5690918 C-10.86617584 98.46839417 -10.86662903 99.36769653 -10.86709595 100.29425049 C-10.86283096 101.11718094 -10.85856598 101.94011139 -10.85417175 102.78797913 C-10.85249591 103.50270417 -10.85082006 104.21742922 -10.84909344 104.9538126 C-10.78440378 107.06882737 -10.78440378 107.06882737 -9.72045898 109.84228516 C-5.47157293 112.50448945 -2.21289709 113.21507258 2.75634766 113.19873047 C4.02108414 113.20173157 5.28582062 113.20473267 6.58888245 113.20782471 C7.95582488 113.19581836 9.32276321 113.18333534 10.68969727 113.17041016 C12.10403746 113.16734848 13.51838068 113.16547547 14.932724 113.16473389 C17.88902428 113.16014445 20.84505009 113.14577107 23.80126953 113.12353516 C27.58290808 113.09522811 31.36433126 113.08431914 35.14606571 113.07985306 C38.76480367 113.07468796 42.38348806 113.06015268 46.00219727 113.04541016 C46.68844744 113.04352943 47.37469761 113.04164871 48.08174324 113.039711 C50.03189709 113.03280529 51.98201937 113.01826895 53.93212891 113.00341797 C55.03988174 112.99658997 56.14763458 112.98976196 57.28895569 112.98272705 C60.06129068 112.85253448 62.58122595 112.47081731 65.27954102 111.84228516 C65.27954102 111.18228516 65.27954102 110.52228516 65.27954102 109.84228516 C65.93954102 109.84228516 66.59954102 109.84228516 67.27954102 109.84228516 C67.27954102 108.85228516 67.27954102 107.86228516 67.27954102 106.84228516 C68.26954102 106.51228516 69.25954102 106.18228516 70.27954102 105.84228516 C70.13834086 103.25862271 69.99175768 100.67545631 69.84204102 98.09228516 C69.80272461 97.36267578 69.7634082 96.63306641 69.72290039 95.88134766 C69.51807004 92.41498786 69.19434082 89.1889549 68.27954102 85.84228516 C67.61954102 85.84228516 66.95954102 85.84228516 66.27954102 85.84228516 C66.25427539 78.02775764 66.23670996 70.21324057 66.22460938 62.39868164 C66.21956719 59.73787035 66.21273366 57.07706184 66.20410156 54.41625977 C66.19203093 50.60123 66.18631172 46.78623672 66.18188477 42.97119141 C66.17672348 41.77329483 66.17156219 40.57539825 66.16624451 39.34120178 C66.16616898 38.24013596 66.16609344 37.13907013 66.16601562 36.00463867 C66.16379501 35.02979019 66.1615744 34.05494171 66.1592865 33.05055237 C66.27954102 30.84228516 66.27954102 30.84228516 67.27954102 29.84228516 C67.51435794 27.65935742 67.69317424 25.47025341 67.84204102 23.27978516 C67.96772461 21.48347656 67.96772461 21.48347656 68.09594727 19.65087891 C68.1565332 18.72404297 68.21711914 17.79720703 68.27954102 16.84228516 C67.61954102 17.17228516 66.95954102 17.50228516 66.27954102 17.84228516 C66.27954102 19.16228516 66.27954102 20.48228516 66.27954102 21.84228516 C64.95954102 21.84228516 63.63954102 21.84228516 62.27954102 21.84228516 C62.18157227 23.11845703 62.08360352 24.39462891 61.98266602 25.70947266 C61.8326112 27.37883249 61.68151548 29.04809899 61.52954102 30.71728516 C61.43672852 31.97992188 61.43672852 31.97992188 61.34204102 33.26806641 C61.26469727 34.07373047 61.18735352 34.87939453 61.10766602 35.70947266 C61.04482422 36.45310059 60.98198242 37.19672852 60.91723633 37.96289062 C60.27954102 39.84228516 60.27954102 39.84228516 58.56817627 40.94456482 C55.89609211 41.99269352 53.89150795 42.08964429 51.02368164 42.08520508 C49.97579468 42.08828171 48.92790771 42.09135834 47.8482666 42.0945282 C46.72214966 42.08734268 45.59603271 42.08015717 44.43579102 42.07275391 C43.27454712 42.07229568 42.11330322 42.07183746 40.91687012 42.07136536 C38.46239195 42.06834519 36.00791565 42.06046595 33.5534668 42.0480957 C29.79412045 42.02985589 26.03502072 42.02758597 22.27563477 42.02783203 C19.89151805 42.02291602 17.50740301 42.01708734 15.12329102 42.01025391 C13.99717407 42.00914108 12.87105713 42.00802826 11.71081543 42.00688171 C10.66292847 42.00050186 9.6150415 41.99412201 8.53540039 41.98754883 C7.61480835 41.98373703 6.69421631 41.97992523 5.74572754 41.97599792 C3.45019371 41.85153768 1.47902726 41.4882728 -0.72045898 40.84228516 C-0.82936609 37.84128928 -0.90819453 34.84432138 -0.97045898 31.84228516 C-1.02073242 30.58351563 -1.02073242 30.58351563 -1.07202148 29.29931641 C-1.15672311 23.83606166 -0.31025015 20.33413728 2.38012695 15.58837891 C3.57057147 13.27728792 3.69042723 11.41646454 3.52954102 8.84228516 C3.49344727 8.07916016 3.45735352 7.31603516 3.42016602 6.52978516 C3.37375977 5.97291016 3.32735352 5.41603516 3.27954102 4.84228516 C4.92954102 5.17228516 6.57954102 5.50228516 8.27954102 5.84228516 C8.27954102 7.16228516 8.27954102 8.48228516 8.27954102 9.84228516 C6.95954102 10.17228516 5.63954102 10.50228516 4.27954102 10.84228516 C4.27954102 11.83228516 4.27954102 12.82228516 4.27954102 13.84228516 C6.91954102 13.51228516 9.55954102 13.18228516 12.27954102 12.84228516 C12.27954102 13.50228516 12.27954102 14.16228516 12.27954102 14.84228516 C25.47954102 14.84228516 38.67954102 14.84228516 52.27954102 14.84228516 C52.27954102 14.18228516 52.27954102 13.52228516 52.27954102 12.84228516 C47.2796451 12.02081277 42.44777084 11.70646286 37.37719727 11.74462891 C36.29334999 11.74675133 36.29334999 11.74675133 35.18760681 11.74891663 C32.90570737 11.7544629 30.62391023 11.76700495 28.34204102 11.77978516 C26.78409974 11.78480712 25.2261569 11.7893688 23.66821289 11.79345703 C19.8719502 11.80441466 16.07576289 11.82164143 12.27954102 11.84228516 C12.27954102 11.18228516 12.27954102 10.52228516 12.27954102 9.84228516 C25.14954102 9.84228516 38.01954102 9.84228516 51.27954102 9.84228516 C51.60954102 8.19228516 51.93954102 6.54228516 52.27954102 4.84228516 C55.90954102 4.84228516 59.53954102 4.84228516 63.27954102 4.84228516 C59.75821532 2.49473469 58.31143074 2.58944318 54.14331055 2.58349609 C52.87834747 2.57719177 51.6133844 2.57088745 50.31008911 2.56439209 C48.92750917 2.56797266 47.54493049 2.57207481 46.16235352 2.57666016 C44.74372287 2.57531262 43.32509268 2.57337136 41.90646362 2.57086182 C38.932308 2.56791277 35.95827251 2.57219977 32.98413086 2.58154297 C29.1788071 2.59291669 25.37376613 2.58639001 21.56845284 2.57439804 C18.6378671 2.5671557 15.70734789 2.5694786 12.7767601 2.57465363 C11.37418458 2.57598464 9.97160296 2.57436164 8.56903458 2.56969452 C6.60421114 2.56459286 4.63936645 2.57375246 2.67456055 2.58349609 C1.55775909 2.58508728 0.44095764 2.58667847 -0.70968628 2.58831787 C-3.84466767 2.85276251 -5.97011977 3.3173573 -8.72045898 4.84228516 Z " fill="#FBC315" transform="translate(67.720458984375,42.15771484375)"/>
<path d="M0 0 C1.90701439 -0.00956978 1.90701439 -0.00956978 3.85255432 -0.01933289 C5.23625653 -0.02086126 6.61995925 -0.02197538 8.00366211 -0.02270508 C9.42565444 -0.02591925 10.84764643 -0.02928344 12.26963806 -0.03279114 C15.24617276 -0.03877169 18.22267847 -0.04063203 21.19921875 -0.04003906 C25.01477856 -0.03993724 28.83015315 -0.05361527 32.64566898 -0.07081127 C35.58044797 -0.08192102 38.51518192 -0.08395863 41.44997978 -0.08342934 C42.8570056 -0.08461001 44.26403256 -0.08903667 45.67103767 -0.0967617 C47.6361362 -0.10654491 49.60128915 -0.10242362 51.56640625 -0.09765625 C52.68463272 -0.09908127 53.80285919 -0.10050629 54.95497131 -0.10197449 C57.71850586 0.14526367 57.71850586 0.14526367 60.71850586 2.14526367 C57.08850586 2.14526367 53.45850586 2.14526367 49.71850586 2.14526367 C49.38850586 3.79526367 49.05850586 5.44526367 48.71850586 7.14526367 C35.84850586 7.14526367 22.97850586 7.14526367 9.71850586 7.14526367 C9.71850586 7.80526367 9.71850586 8.46526367 9.71850586 9.14526367 C10.68151611 9.14002686 11.64452637 9.13479004 12.63671875 9.12939453 C16.23550474 9.11119059 19.83428671 9.09977577 23.43310547 9.09033203 C24.98584682 9.08532683 26.53858352 9.07852066 28.09130859 9.06982422 C30.33293818 9.05759061 32.57450504 9.0519971 34.81616211 9.04760742 C35.84472069 9.03986549 35.84472069 9.03986549 36.89405823 9.03196716 C41.28242407 9.03146507 45.40252431 9.43615698 49.71850586 10.14526367 C49.71850586 10.80526367 49.71850586 11.46526367 49.71850586 12.14526367 C36.51850586 12.14526367 23.31850586 12.14526367 9.71850586 12.14526367 C9.71850586 11.48526367 9.71850586 10.82526367 9.71850586 10.14526367 C7.07850586 10.47526367 4.43850586 10.80526367 1.71850586 11.14526367 C2.04850586 9.82526367 2.37850586 8.50526367 2.71850586 7.14526367 C3.70850586 7.14526367 4.69850586 7.14526367 5.71850586 7.14526367 C5.71850586 5.82526367 5.71850586 4.50526367 5.71850586 3.14526367 C3.24350586 2.65026367 3.24350586 2.65026367 0.71850586 2.14526367 C0.76491211 2.70213867 0.81131836 3.25901367 0.85913086 3.83276367 C0.89522461 4.59588867 0.93131836 5.35901367 0.96850586 6.14526367 C1.01491211 6.88776367 1.06131836 7.63026367 1.10913086 8.39526367 C0.71681643 11.15715728 0.06882077 12.45084172 -1.28149414 14.83276367 C-3.81249424 19.61179492 -3.74353225 23.83615553 -3.53149414 29.14526367 C-3.50442383 30.45043945 -3.50442383 30.45043945 -3.47680664 31.78198242 C-3.4301785 33.90356274 -3.35845491 36.02456702 -3.28149414 38.14526367 C-1.96149414 38.47526367 -0.64149414 38.80526367 0.71850586 39.14526367 C0.05850586 41.45526367 -0.60149414 43.76526367 -1.28149414 46.14526367 C-0.62149414 46.47526367 0.03850586 46.80526367 0.71850586 47.14526367 C0.77242983 49.91635674 0.81214041 52.68640185 0.84350586 55.45776367 C0.86026367 56.24344727 0.87702148 57.02913086 0.89428711 57.83862305 C0.90073242 58.59594727 0.90717773 59.35327148 0.91381836 60.13354492 C0.92429199 60.8300415 0.93476562 61.52653809 0.94555664 62.24414062 C0.71850586 64.14526367 0.71850586 64.14526367 -1.28149414 67.14526367 C-0.62149414 67.14526367 0.03850586 67.14526367 0.71850586 67.14526367 C0.7432084 72.78694336 0.76136707 78.42859162 0.7734375 84.0703125 C0.77846901 85.98991443 0.78529484 87.90951253 0.79394531 89.82910156 C0.80606255 92.58684231 0.81174597 95.34453243 0.81616211 98.10229492 C0.82132339 98.96176224 0.82648468 99.82122955 0.83180237 100.70674133 C0.8318779 101.50734482 0.83195343 102.3079483 0.83203125 103.1328125 C0.83425186 103.83674637 0.83647247 104.54068024 0.83876038 105.26594543 C0.71850586 107.14526367 0.71850586 107.14526367 -0.28149414 110.14526367 C-5.1313119 110.49167923 -8.15083184 109.73893535 -12.28149414 107.14526367 C-13.1828593 104.44116819 -13.41036112 102.87374956 -13.42193604 100.09768677 C-13.42764618 99.27620148 -13.43335632 98.45471619 -13.4392395 97.6083374 C-13.44035736 96.71060608 -13.44147522 95.81287476 -13.44262695 94.88793945 C-13.44759186 93.93968292 -13.45255676 92.99142639 -13.45767212 92.01443481 C-13.47229385 88.87314126 -13.47909547 85.73189819 -13.48461914 82.59057617 C-13.4903702 80.40965778 -13.49612794 78.2287394 -13.50189209 76.04782104 C-13.51240184 71.47304041 -13.51824481 66.89827734 -13.52172852 62.32348633 C-13.52721582 56.45999734 -13.55124914 50.59674026 -13.57970047 44.73332405 C-13.59831802 40.22776611 -13.60353196 35.72226415 -13.60506439 31.21667099 C-13.608093 29.05490729 -13.6161285 26.89314461 -13.62924957 24.73141861 C-13.64629276 21.70789143 -13.64443402 18.6849326 -13.63793945 15.66137695 C-13.64715424 14.76769409 -13.65636902 13.87401123 -13.66586304 12.95324707 C-13.63431083 8.26714466 -13.52096844 4.83477622 -10.28149414 1.14526367 C-7.05430086 -0.29926547 -3.49273529 0.01189753 0 0 Z " fill="#FBB414" transform="translate(70.281494140625,44.854736328125)"/>
<path d="M0 0 C1.54664085 -0.00922989 1.54664085 -0.00922989 3.12452698 -0.01864624 C4.78559731 0.00291031 4.78559731 0.00291031 6.48022461 0.02490234 C7.62164413 0.02581879 8.76306366 0.02673523 9.93907166 0.02767944 C12.35069948 0.033719 14.76231968 0.04947544 17.17382812 0.07421875 C20.87194343 0.11073493 24.5690572 0.11523805 28.26733398 0.11474609 C30.60913955 0.12457674 32.9509383 0.13623351 35.29272461 0.14990234 C36.95683128 0.15324081 36.95683128 0.15324081 38.65455627 0.15664673 C40.19646889 0.17578629 40.19646889 0.17578629 41.76953125 0.1953125 C42.67457901 0.2029361 43.57962677 0.21055969 44.51210022 0.21841431 C46.82006836 0.48583984 46.82006836 0.48583984 49.82006836 2.48583984 C50.12479417 5.20447208 50.23831126 7.64614684 50.19506836 10.36083984 C50.20666992 11.08142578 50.21827148 11.80201172 50.23022461 12.54443359 C50.20630378 16.8741029 49.90786923 19.40474931 46.82006836 22.48583984 C44.46740723 22.99377441 44.46740723 22.99377441 41.66186523 23.00341797 C40.08507996 23.02233093 40.08507996 23.02233093 38.47644043 23.04162598 C37.34202515 23.03352905 36.20760986 23.02543213 35.03881836 23.01708984 C33.87378784 23.02091675 32.70875732 23.02474365 31.50842285 23.02868652 C29.04377377 23.03141007 26.579096 23.0240181 24.11450195 23.00732422 C20.33471437 22.98592277 16.55682783 23.00711293 12.77709961 23.03271484 C10.38516832 23.03007165 7.99323821 23.02494685 5.60131836 23.01708984 C4.46690308 23.02518677 3.33248779 23.03328369 2.16369629 23.04162598 C1.1125061 23.02901733 0.06131592 23.01640869 -1.02172852 23.00341797 C-2.4104718 22.99864441 -2.4104718 22.99864441 -3.82727051 22.99377441 C-6.17993164 22.48583984 -6.17993164 22.48583984 -7.97521973 20.66052246 C-9.6931717 17.55936587 -9.61369993 15.00857882 -9.61743164 11.48583984 C-9.64643555 9.66052734 -9.64643555 9.66052734 -9.67602539 7.79833984 C-8.80399975 1.97568044 -5.69015798 -0.01790283 0 0 Z " fill="#FCF6E0" transform="translate(76.179931640625,61.51416015625)"/>
<path d="M0 0 C0.495 1.485 0.495 1.485 1 3 C3.97 3.495 3.97 3.495 7 4 C7.495 5.485 7.495 5.485 8 7 C8.66 7 9.32 7 10 7 C10 36.04 10 65.08 10 95 C9.34 95 8.68 95 8 95 C8 95.66 8 96.32 8 97 C6.28144138 98.22282056 4.55990605 99.4419175 2.81640625 100.62890625 C0.42958185 102.4305737 -1.21411492 104.61881989 -3 107 C-5.80363142 108.40181571 -8.14596107 108.15056211 -11.28222656 108.17700195 C-11.92637009 108.18357315 -12.57051361 108.19014435 -13.23417664 108.19691467 C-15.3696606 108.21665227 -17.50507414 108.22831263 -19.640625 108.23828125 C-20.37048363 108.24235678 -21.10034225 108.2464323 -21.85231781 108.25063133 C-25.71713478 108.27149639 -29.58191622 108.28579485 -33.44677734 108.29516602 C-37.43266769 108.30621737 -41.41799774 108.34060053 -45.40369034 108.38033772 C-48.47327691 108.40652856 -51.54273066 108.41486011 -54.61241913 108.41844749 C-56.08119226 108.42330898 -57.54995963 108.43491062 -59.01862335 108.45348549 C-61.07959351 108.47792628 -63.13912355 108.4769039 -65.20019531 108.4699707 C-66.37108704 108.47583694 -67.54197876 108.48170319 -68.74835205 108.48774719 C-72.67063688 107.89940447 -74.88040065 106.38739303 -78 104 C-76.515 103.505 -76.515 103.505 -75 103 C-74.01 103.66 -73.02 104.32 -72 105 C-68.90432894 105.29185219 -68.90432894 105.29185219 -65.32543945 105.22705078 C-64.31528778 105.22748886 -64.31528778 105.22748886 -63.284729 105.22793579 C-61.06078161 105.22654344 -58.83717005 105.21098703 -56.61328125 105.1953125 C-55.07057376 105.19158203 -53.5278639 105.18873522 -51.9851532 105.18673706 C-47.92611136 105.17910329 -43.8672128 105.15945706 -39.80822754 105.1373291 C-35.6657912 105.11686512 -31.5233317 105.10773416 -27.38085938 105.09765625 C-19.25384052 105.07621088 -11.12693809 105.04207808 -3 105 C-3 104.34 -3 103.68 -3 103 C-2.34 103 -1.68 103 -1 103 C-1 102.01 -1 101.02 -1 100 C-0.34 99.67 0.32 99.34 1 99 C1 69.3 1 39.6 1 9 C1.99 8.67 2.98 8.34 4 8 C4.33 7.01 4.66 6.02 5 5 C3.35 4.67 1.7 4.34 0 4 C0 2.68 0 1.36 0 0 Z " fill="#E9B041" transform="translate(136,49)"/>
<path d="M0 0 C1.51815699 0.00015911 3.0363194 0.00585313 4.55444336 0.01586914 C5.35208603 0.01728409 6.1497287 0.01869904 6.97154236 0.02015686 C9.52916146 0.02577223 12.08669429 0.03832727 14.64428711 0.05102539 C16.37410356 0.05603841 18.10392137 0.06060166 19.83374023 0.06469727 C24.08312264 0.07574664 28.33244023 0.09302153 32.58178711 0.11352539 C33.71380405 3.5095762 33.2981336 4.69098106 32.58178711 8.11352539 C32.58178711 9.12415039 32.58178711 10.13477539 32.58178711 11.17602539 C32.58178711 14.11352539 32.58178711 14.11352539 32.01928711 16.17602539 C31.32967773 18.6178727 31.32967773 18.6178727 32.58178711 23.11352539 C20.70178711 23.11352539 8.82178711 23.11352539 -3.41821289 23.11352539 C-4.41821289 19.11352539 -4.41821289 19.11352539 -3.41821289 17.11352539 C7.14178711 17.11352539 17.70178711 17.11352539 28.58178711 17.11352539 C28.58178711 16.45352539 28.58178711 15.79352539 28.58178711 15.11352539 C18.02178711 15.11352539 7.46178711 15.11352539 -3.41821289 15.11352539 C-3.41821289 14.45352539 -3.41821289 13.79352539 -3.41821289 13.11352539 C-4.40821289 13.11352539 -5.39821289 13.11352539 -6.41821289 13.11352539 C-6.41821289 11.13352539 -6.41821289 9.15352539 -6.41821289 7.11352539 C2.49178711 7.11352539 11.40178711 7.11352539 20.58178711 7.11352539 C12.66178711 6.78352539 4.74178711 6.45352539 -3.41821289 6.11352539 C-3.74821289 4.46352539 -4.07821289 2.81352539 -4.41821289 1.11352539 C-3.41821289 0.11352539 -3.41821289 0.11352539 0 0 Z " fill="#ECC63B" transform="translate(83.418212890625,90.886474609375)"/>
<path d="M0 0 C7.38003676 -0.04633108 14.76004218 -0.08187308 22.14019489 -0.10362434 C25.56706693 -0.11406363 28.9938395 -0.12822532 32.4206543 -0.15087891 C36.35985119 -0.17675686 40.29900774 -0.18647162 44.23828125 -0.1953125 C46.0852636 -0.21079636 46.0852636 -0.21079636 47.96955872 -0.22659302 C49.68099312 -0.22681961 49.68099312 -0.22681961 51.42700195 -0.22705078 C52.432939 -0.231492 53.43887604 -0.23593323 54.47529602 -0.24050903 C57 0 57 0 60 2 C56.37 2 52.74 2 49 2 C48.67 3.65 48.34 5.3 48 7 C35.13 7 22.26 7 9 7 C9 7.66 9 8.32 9 9 C9.96301025 8.99476318 10.92602051 8.98952637 11.91821289 8.98413086 C15.51699888 8.96592692 19.11578086 8.95451209 22.71459961 8.94506836 C24.26734096 8.94006316 25.82007766 8.93325699 27.37280273 8.92456055 C29.61443232 8.91232693 31.85599918 8.90673343 34.09765625 8.90234375 C35.12621483 8.89460182 35.12621483 8.89460182 36.17555237 8.88670349 C40.56391821 8.8862014 44.68401845 9.29089331 49 10 C49 10.66 49 11.32 49 12 C35.8 12 22.6 12 9 12 C9 11.34 9 10.68 9 10 C6.36 10.33 3.72 10.66 1 11 C1.33 9.68 1.66 8.36 2 7 C2.99 7 3.98 7 5 7 C5 5.68 5 4.36 5 3 C3.35 2.67 1.7 2.34 0 2 C0 1.34 0 0.68 0 0 Z " fill="#FCC60D" transform="translate(71,45)"/>
<path d="M0 0 C0.33 0.66 0.66 1.32 1 2 C12.22 2 23.44 2 35 2 C35 2.33 35 2.66 35 3 C23.78 3.33 12.56 3.66 1 4 C1 5.65 1 7.3 1 9 C1.68513672 8.99476318 2.37027344 8.98952637 3.07617188 8.98413086 C6.21743837 8.96318555 9.35869011 8.9502844 12.5 8.9375 C13.57765625 8.92912109 14.6553125 8.92074219 15.765625 8.91210938 C21.61328382 8.89428115 27.21863671 9.10894037 33 10 C33 10.33 33 10.66 33 11 C28.49764405 11.02472359 23.99532764 11.04287119 19.49291992 11.05493164 C17.9613374 11.0599596 16.42975967 11.06678284 14.89819336 11.07543945 C12.69643978 11.08757229 10.49474967 11.09324367 8.29296875 11.09765625 C7.60849167 11.10281754 6.92401459 11.10797882 6.21879578 11.11329651 C3.19093758 11.1136536 0.89849858 10.96616619 -2 10 C-2 11.98 -2 13.96 -2 16 C-1.01 16 -0.02 16 1 16 C1 16.66 1 17.32 1 18 C11.56 18 22.12 18 33 18 C33 18.66 33 19.32 33 20 C22.44 20 11.88 20 1 20 C1 21.98 1 23.96 1 26 C12.88 26 24.76 26 37 26 C37 25.34 37 24.68 37 24 C37.66 24 38.32 24 39 24 C38.67 25.32 38.34 26.64 38 28 C24.47 28.33 10.94 28.66 -3 29 C-3.99 26.69 -4.98 24.38 -6 22 C-6.66 21.34 -7.32 20.68 -8 20 C-8.046875 17.94140625 -8.046875 17.94140625 -7.75 15.5625 C-7.66234375 14.78003906 -7.5746875 13.99757813 -7.484375 13.19140625 C-7 11 -7 11 -5 8 C-4.34 8 -3.68 8 -3 8 C-2.67 6.35 -2.34 4.7 -2 3 C-1.34 3 -0.68 3 0 3 C0 2.01 0 1.02 0 0 Z " fill="#FAC51B" transform="translate(79,88)"/>
<path d="M0 0 C0.66 0 1.32 0 2 0 C2 34.32 2 68.64 2 104 C1.01 104 0.02 104 -1 104 C-1 101.36 -1 98.72 -1 96 C-1.66 96 -2.32 96 -3 96 C-3 69.6 -3 43.2 -3 16 C-2.34 16 -1.68 16 -1 16 C-1.33 12.37 -1.66 8.74 -2 5 C-1.34 5 -0.68 5 0 5 C0 3.35 0 1.7 0 0 Z " fill="#FBF9E8" transform="translate(54,48)"/>
<path d="M0 0 C1.31834335 -0.00915436 2.63668671 -0.01830872 3.99497986 -0.02774048 C5.42188665 -0.00193228 6.84877201 0.0250851 8.27563477 0.05322266 C9.75243913 0.0586721 11.22925555 0.06144651 12.70606995 0.06167603 C15.79569953 0.06938933 18.88390088 0.10027007 21.97314453 0.14941406 C25.9185209 0.21162281 29.86252864 0.23025331 33.80834866 0.2332058 C36.85664575 0.23792439 39.90465621 0.25875956 42.95283699 0.28508377 C44.4067662 0.29708335 45.86072636 0.30581996 47.31469536 0.31113815 C61.60283434 0.39039841 61.60283434 0.39039841 67.27954102 3.84228516 C67.77454102 4.83228516 67.77454102 4.83228516 68.27954102 5.84228516 C64.27954102 4.84228516 64.27954102 4.84228516 62.52952576 4.31620789 C59.65965462 3.71171616 56.96352868 3.70706905 54.02978516 3.69702148 C52.13245384 3.68745171 52.13245384 3.68745171 50.1967926 3.6776886 C48.81942788 3.67615989 47.44206264 3.67504595 46.06469727 3.67431641 C44.6474962 3.67110158 43.23029547 3.66773733 41.81309509 3.66423035 C38.8449527 3.65824854 35.8768394 3.6563895 32.90869141 3.65698242 C29.1112641 3.65708406 25.31402368 3.64342566 21.51664066 3.62621021 C18.59035897 3.61507575 15.66412228 3.61306365 12.73782158 3.61359215 C11.33803093 3.61241446 9.93823903 3.6080045 8.53846931 3.60025978 C6.57856797 3.59042997 4.61861163 3.5946099 2.65869141 3.59936523 C1.54490616 3.59794022 0.43112091 3.5965152 -0.71641541 3.595047 C-3.82017602 3.85049205 -5.98461017 4.36004148 -8.72045898 5.84228516 C-9.63875373 8.5971694 -9.84423622 10.20160731 -9.8407135 13.03739929 C-9.84208817 13.89135284 -9.84346283 14.7453064 -9.84487915 15.62513733 C-9.84128387 16.55877609 -9.8376886 17.49241486 -9.83398438 18.4543457 C-9.8341304 19.43989441 -9.83427643 20.42544312 -9.83442688 21.44085693 C-9.83372933 24.70359486 -9.82594426 27.96627593 -9.81811523 31.22900391 C-9.8162505 33.48916086 -9.81482686 35.74931821 -9.81382751 38.00947571 C-9.81000674 43.96234246 -9.80018018 49.91518487 -9.78912354 55.86804199 C-9.77889998 61.94083324 -9.77432787 68.01362841 -9.76928711 74.08642578 C-9.75855755 86.00505628 -9.74148637 97.92366869 -9.72045898 109.84228516 C-10.38045898 109.84228516 -11.04045898 109.84228516 -11.72045898 109.84228516 C-12.50313771 107.06219216 -12.85316518 104.57285424 -12.88108826 101.68791199 C-12.89113388 100.86794235 -12.9011795 100.04797272 -12.91152954 99.20315552 C-12.91736053 98.31216156 -12.92319153 97.4211676 -12.92919922 96.50317383 C-12.938983 95.55798386 -12.94876678 94.61279388 -12.95884705 93.63896179 C-12.98874849 90.51274008 -13.01016988 87.3865609 -13.02905273 84.26025391 C-13.03562456 83.19146814 -13.04219639 82.12268238 -13.04896736 81.02150917 C-13.08153516 75.36599678 -13.10599446 69.71050307 -13.12548828 64.05493164 C-13.14331254 59.37659335 -13.17815521 54.69885651 -13.22802734 50.02075195 C-13.28820974 44.36858638 -13.31896091 38.71697916 -13.32866096 33.06450844 C-13.33721818 30.91271782 -13.35604272 28.76094224 -13.38540459 26.60933495 C-13.42432537 23.59542167 -13.42535295 20.58368509 -13.41748047 17.56958008 C-13.43748108 16.68465881 -13.45748169 15.79973755 -13.47808838 14.88800049 C-13.41385881 9.39859119 -12.35455297 6.07310972 -8.4458456 2.11504459 C-5.66158393 0.06118879 -3.41268797 -0.01917934 0 0 Z " fill="#EAC054" transform="translate(67.720458984375,42.15771484375)"/>
<path d="M0 0 C5.51350585 -0.02490465 11.02697822 -0.04295608 16.54052734 -0.05493164 C18.41227795 -0.05992942 20.28402471 -0.06672988 22.15576172 -0.07543945 C24.86166335 -0.08770621 27.56751292 -0.093274 30.2734375 -0.09765625 C31.09677582 -0.10281754 31.92011414 -0.10797882 32.7684021 -0.11329651 C44.46133363 -0.11440038 44.46133363 -0.11440038 50 1 C50.66 1.66 51.32 2.32 52 3 C54.06874034 3.6425235 54.06874034 3.6425235 56 4 C56 4.66 56 5.32 56 6 C56.66 6 57.32 6 58 6 C57.96683318 8.56590557 57.89953481 11.12332066 57.8125 13.6875 C57.80669922 14.40873047 57.80089844 15.12996094 57.79492188 15.87304688 C57.76591797 16.57880859 57.73691406 17.28457031 57.70703125 18.01171875 C57.68346558 18.97791138 57.68346558 18.97791138 57.65942383 19.96362305 C56.50466273 23.5296587 55.07048418 24.81853679 52 27 C47.96854298 27.6951602 43.99818829 27.58117541 39.91796875 27.48828125 C38.74865311 27.48120651 37.57933746 27.47413177 36.37458801 27.46684265 C32.6449042 27.43888494 28.91672903 27.37613872 25.1875 27.3125 C22.65692274 27.28741915 20.12632192 27.26460561 17.59570312 27.24414062 C11.39662187 27.18905346 5.19841872 27.10541122 -1 27 C-1 26.67 -1 26.34 -1 26 C-0.35298126 25.99413376 0.29403748 25.98826752 0.96066284 25.98222351 C7.67637916 25.91844082 14.3916095 25.83406123 21.10693359 25.73754883 C23.61533209 25.70423137 26.12380678 25.67622098 28.63232422 25.65356445 C32.23177667 25.62014401 35.83052639 25.56783414 39.4296875 25.51171875 C41.12035843 25.50213387 41.12035843 25.50213387 42.84518433 25.49235535 C43.88611237 25.47256119 44.92704041 25.45276703 45.99951172 25.43237305 C46.91884491 25.42126999 47.8381781 25.41016693 48.78536987 25.39872742 C49.51619781 25.26714737 50.24702576 25.13556732 51 25 C53.48044315 21.27933528 53.44381173 18.13459526 53.625 13.8125 C53.66367188 13.06291016 53.70234375 12.31332031 53.7421875 11.54101562 C53.83628216 9.69440801 53.91922319 7.8472381 54 6 C51.01520374 5.00506791 49.04931881 4.87333529 45.93359375 4.87060547 C44.3868396 4.86587723 44.3868396 4.86587723 42.80883789 4.86105347 C41.69629639 4.8630777 40.58375488 4.86510193 39.4375 4.8671875 C38.29466553 4.86623077 37.15183105 4.86527405 35.97436523 4.86428833 C33.55680283 4.86360748 31.13923859 4.86545517 28.72167969 4.86962891 C25.01493231 4.87497845 21.3083061 4.86968067 17.6015625 4.86328125 C15.25520807 4.86394205 12.90885371 4.86522325 10.5625 4.8671875 C9.4499585 4.86516327 8.33741699 4.86313904 7.19116211 4.86105347 C6.15999268 4.86420563 5.12882324 4.86735779 4.06640625 4.87060547 C3.15834229 4.87140106 2.25027832 4.87219666 1.31469727 4.87301636 C-1.15971887 4.9066915 -1.15971887 4.9066915 -4 6 C-4.05407567 8.58361518 -4.093707 11.16609255 -4.125 13.75 C-4.14175781 14.47960937 -4.15851563 15.20921875 -4.17578125 15.9609375 C-4.21072239 19.8044624 -4.17499684 22.74606772 -2 26 C-3.32 25.67 -4.64 25.34 -6 25 C-6.02895976 21.87501937 -6.04678483 18.7500731 -6.0625 15.625 C-6.07087891 14.73554687 -6.07925781 13.84609375 -6.08789062 12.9296875 C-6.09111328 12.07890625 -6.09433594 11.228125 -6.09765625 10.3515625 C-6.10289307 9.56604004 -6.10812988 8.78051758 -6.11352539 7.97119141 C-6 6 -6 6 -5 4 C-3.66666667 3.33333333 -2.33333333 2.66666667 -1 2 C-0.67 1.34 -0.34 0.68 0 0 Z " fill="#FAC318" transform="translate(72,58)"/>
<path d="M0 0 C0.99 0 1.98 0 3 0 C3 26.4 3 52.8 3 80 C1.515 80.495 1.515 80.495 0 81 C0 54.27 0 27.54 0 0 Z " fill="#FBF0B6" transform="translate(138,60)"/>
<path d="M0 0 C11.88 0 23.76 0 36 0 C36 1.32 36 2.64 36 4 C33.00717264 5.49641368 29.93721394 5.14222979 26.65625 5.1328125 C25.56890564 5.13424759 25.56890564 5.13424759 24.45959473 5.13571167 C22.92635003 5.13639243 21.39310245 5.13454536 19.85986328 5.13037109 C17.50937442 5.12502134 15.15907665 5.13031953 12.80859375 5.13671875 C11.32031208 5.13605795 9.83203052 5.13477675 8.34375 5.1328125 C7.63851196 5.13483673 6.93327393 5.13686096 6.20666504 5.13894653 C1.22992486 5.11496243 1.22992486 5.11496243 -1 4 C-0.67 2.68 -0.34 1.36 0 0 Z " fill="#FBF2BB" transform="translate(79,100)"/>
<path d="M0 0 C1.43352212 0.00015908 2.86704998 0.00585132 4.30053711 0.01586914 C5.43041298 0.01799156 5.43041298 0.01799156 6.58311462 0.02015686 C8.99807646 0.02577163 11.41294687 0.03832656 13.82788086 0.05102539 C15.46134307 0.05603849 17.09480672 0.06060173 18.72827148 0.06469727 C22.74067671 0.07574585 26.75301326 0.09302033 30.76538086 0.11352539 C31.32788086 2.05102539 31.32788086 2.05102539 31.76538086 4.11352539 C30.76538086 5.11352539 30.76538086 5.11352539 27.53076172 5.22705078 C26.0972396 5.2268917 24.66371173 5.22119946 23.23022461 5.21118164 C22.10034874 5.20905922 22.10034874 5.20905922 20.94764709 5.20689392 C18.53268526 5.20127915 16.11781485 5.18872422 13.70288086 5.17602539 C12.06941865 5.17101229 10.435955 5.16644905 8.80249023 5.16235352 C4.79008501 5.15130493 0.77774845 5.13403045 -3.23461914 5.11352539 C-3.79711914 3.17602539 -3.79711914 3.17602539 -4.23461914 1.11352539 C-3.23461914 0.11352539 -3.23461914 0.11352539 0 0 Z " fill="#FCF3BC" transform="translate(83.234619140625,90.886474609375)"/>
<path d="M0 0 C1.39120471 0.00015906 2.78241534 0.00585033 4.17358398 0.01586914 C4.90463852 0.01728409 5.63569305 0.01869904 6.38890076 0.02015686 C8.73253406 0.02577131 11.07607313 0.03832617 13.41967773 0.05102539 C15.00496282 0.05603853 16.59024939 0.06060176 18.17553711 0.06469727 C22.06945383 0.07574542 25.96329979 0.09301967 29.85717773 0.11352539 C30.35217773 2.58852539 30.35217773 2.58852539 30.85717773 5.11352539 C19.63717773 5.11352539 8.41717773 5.11352539 -3.14282227 5.11352539 C-3.47282227 3.79352539 -3.80282227 2.47352539 -4.14282227 1.11352539 C-3.14282227 0.11352539 -3.14282227 0.11352539 0 0 Z " fill="#FEF4BE" transform="translate(83.142822265625,108.886474609375)"/>
<path d="M0 0 C0.99 0.33 1.98 0.66 3 1 C-4.60781298 8.81914111 -4.60781298 8.81914111 -8.98422241 9.38768005 C-10.14749054 9.39308304 -11.31075867 9.39848602 -12.50927734 9.40405273 C-13.15371292 9.41091599 -13.7981485 9.41777924 -14.46211243 9.42485046 C-16.58694663 9.4431123 -18.71104184 9.43928155 -20.8359375 9.43359375 C-22.31800577 9.43815662 -23.80007192 9.44346251 -25.28213501 9.44947815 C-28.38739621 9.45840855 -31.49240024 9.45598799 -34.59765625 9.44604492 C-38.56787847 9.43456824 -42.53720953 9.45474599 -46.50731468 9.48396206 C-49.56836546 9.5023536 -52.62920398 9.50202558 -55.69029617 9.49632454 C-57.15346144 9.49617161 -58.61664135 9.50219225 -60.07975388 9.51461601 C-62.13103989 9.52957762 -64.18069683 9.51881365 -66.23193359 9.50170898 C-67.39679291 9.50154282 -68.56165222 9.50137665 -69.7618103 9.50120544 C-73.66782976 8.89663363 -75.88856752 7.3769151 -79 5 C-78.01 4.67 -77.02 4.34 -76 4 C-75.01 4.66 -74.02 5.32 -73 6 C-69.90432894 6.29185219 -69.90432894 6.29185219 -66.32543945 6.22705078 C-65.31528778 6.22748886 -65.31528778 6.22748886 -64.284729 6.22793579 C-62.06078161 6.22654344 -59.83717005 6.21098703 -57.61328125 6.1953125 C-56.07057376 6.19158203 -54.5278639 6.18873522 -52.9851532 6.18673706 C-48.92611136 6.17910329 -44.8672128 6.15945706 -40.80822754 6.1373291 C-36.6657912 6.11686512 -32.5233317 6.10773416 -28.38085938 6.09765625 C-20.25384052 6.07621088 -12.12693809 6.04207808 -4 6 C-4 5.34 -4 4.68 -4 4 C-3.34 4 -2.68 4 -2 4 C-2 3.01 -2 2.02 -2 1 C-1.34 0.67 -0.68 0.34 0 0 Z " fill="#EAC843" transform="translate(137,148)"/>
<path d="M0 0 C0.65097656 -0.00671722 1.30195312 -0.01343445 1.97265625 -0.02035522 C4.12019537 -0.03931804 6.26742147 -0.04325896 8.41503906 -0.04541016 C9.91473517 -0.05184102 11.41443003 -0.0585696 12.91412354 -0.06558228 C16.05801295 -0.07755197 19.20179253 -0.0812636 22.34570312 -0.08007812 C26.35828353 -0.07987535 30.3701524 -0.10713537 34.38256454 -0.14162254 C37.48141662 -0.1639556 40.58009946 -0.16791367 43.67902374 -0.16685867 C45.15729465 -0.16920662 46.6355708 -0.17798448 48.1137619 -0.19352341 C56.11260691 -0.26971196 62.54230195 -0.19034888 69.43066406 4.29052734 C68.77066406 4.95052734 68.11066406 5.61052734 67.43066406 6.29052734 C66.58842285 5.80447021 65.74618164 5.31841309 64.87841797 4.81762695 C58.72183587 2.20176696 51.83804285 2.83918431 45.26660156 2.85693359 C43.78642539 2.85236712 42.30625133 2.84706016 40.82608032 2.84104919 C37.73455144 2.8321451 34.6432813 2.83451207 31.55175781 2.84448242 C27.59609706 2.85599892 23.64132549 2.83570705 19.68578148 2.80656528 C16.63335536 2.78820055 13.58114258 2.78849569 10.52867508 2.7942028 C9.07026543 2.79435583 7.61184115 2.78832715 6.15348434 2.77591133 C4.1149055 2.76099207 2.07617949 2.77431323 0.03759766 2.78881836 C-1.12043365 2.78898453 -2.27846497 2.7891507 -3.47158813 2.7893219 C-7.18204295 3.38966133 -8.86820789 4.74266557 -11.56933594 7.29052734 C-11.31933594 4.91552734 -11.31933594 4.91552734 -10.56933594 2.29052734 C-7.19831705 -0.07021696 -4.02386802 0.02610751 0 0 Z " fill="#FDF4C9" transform="translate(67.5693359375,40.70947265625)"/>
<path d="M0 0 C1.31856995 -0.00945648 2.63713989 -0.01891296 3.9956665 -0.02865601 C5.43819477 -0.02328411 6.88072031 -0.01713061 8.32324219 -0.01025391 C9.80434309 -0.01227547 11.28544303 -0.0151876 12.76654053 -0.01895142 C15.87359069 -0.02337644 18.98038224 -0.01694194 22.08740234 -0.00292969 C26.05630902 0.01410294 30.02460442 0.00436035 33.99348831 -0.01364708 C37.05457084 -0.02453137 40.11551057 -0.02101638 43.1765976 -0.0132637 C44.63892439 -0.01127139 46.10126442 -0.01368672 47.56357574 -0.02070236 C49.61694697 -0.02838716 51.669356 -0.01661419 53.72265625 0 C55.47113861 0.00358017 55.47113861 0.00358017 57.25494385 0.00723267 C61.31633684 0.46699841 63.98667185 1.53080996 67.62011719 3.38818359 C68.11511719 4.37818359 68.11511719 4.37818359 68.62011719 5.38818359 C64.62011719 4.38818359 64.62011719 4.38818359 62.87010193 3.86210632 C60.00023079 3.2576146 57.30410485 3.25296749 54.37036133 3.24291992 C52.47303001 3.23335014 52.47303001 3.23335014 50.53736877 3.22358704 C49.16000405 3.22205833 47.78263882 3.22094439 46.40527344 3.22021484 C44.98807237 3.21700002 43.57087164 3.21363577 42.15367126 3.21012878 C39.18552888 3.20414698 36.21741557 3.20228794 33.24926758 3.20288086 C29.45184027 3.2029825 25.65459985 3.18932409 21.85721684 3.17210865 C18.93093514 3.16097418 16.00469846 3.15896209 13.07839775 3.15949059 C11.6786071 3.15831289 10.2788152 3.15390294 8.87904549 3.14615822 C6.91914414 3.13632841 4.9591878 3.14050834 2.99926758 3.14526367 C1.88548233 3.14383865 0.77169708 3.14241364 -0.37583923 3.14094543 C-4.8306612 3.50758525 -7.68829144 4.92712268 -11.37988281 7.38818359 C-8.69379226 1.39613543 -6.66189672 0.01367816 0 0 Z " fill="#E7C644" transform="translate(67.3798828125,42.61181640625)"/>
<path d="M0 0 C1.65 0 3.3 0 5 0 C5 0.66 5 1.32 5 2 C5.66 2 6.32 2 7 2 C6.96683318 4.56590557 6.89953481 7.12332066 6.8125 9.6875 C6.80669922 10.40873047 6.80089844 11.12996094 6.79492188 11.87304688 C6.76591797 12.57880859 6.73691406 13.28457031 6.70703125 14.01171875 C6.68346558 14.97791138 6.68346558 14.97791138 6.65942383 15.96362305 C5.50466273 19.5296587 4.07048418 20.81853679 1 23 C-3.03145702 23.6951602 -7.00181171 23.58117541 -11.08203125 23.48828125 C-12.25134689 23.48120651 -13.42066254 23.47413177 -14.62541199 23.46684265 C-18.3550958 23.43888494 -22.08327097 23.37613872 -25.8125 23.3125 C-28.34307726 23.28741915 -30.87367808 23.26460561 -33.40429688 23.24414062 C-39.60337813 23.18905346 -45.80158128 23.10541122 -52 23 C-52 22.67 -52 22.34 -52 22 C-51.35298126 21.99413376 -50.70596252 21.98826752 -50.03933716 21.98222351 C-43.32362084 21.91844082 -36.6083905 21.83406123 -29.89306641 21.73754883 C-27.38466791 21.70423137 -24.87619322 21.67622098 -22.36767578 21.65356445 C-18.76822333 21.62014401 -15.16947361 21.56783414 -11.5703125 21.51171875 C-9.87964157 21.50213387 -9.87964157 21.50213387 -8.15481567 21.49235535 C-7.11388763 21.47256119 -6.07295959 21.45276703 -5.00048828 21.43237305 C-4.08115509 21.42126999 -3.1618219 21.41016693 -2.21463013 21.39872742 C-1.48380219 21.26714737 -0.75297424 21.13556732 0 21 C2.48044315 17.27933528 2.44381173 14.13459526 2.625 9.8125 C2.66367188 9.06291016 2.70234375 8.31332031 2.7421875 7.54101562 C2.83628216 5.69440801 2.91922319 3.8472381 3 2 C2.01 1.67 1.02 1.34 0 1 C0 0.67 0 0.34 0 0 Z " fill="#EFCA40" transform="translate(123,62)"/>
<path d="M0 0 C0.33 0 0.66 0 1 0 C1.04626739 11.69998437 1.08184065 23.3999471 1.10362434 35.1000042 C1.11407752 40.5323598 1.12826461 45.96465298 1.15087891 51.39697266 C1.1725527 56.63594301 1.18455706 61.87485319 1.18975449 67.1138649 C1.19346009 69.11622185 1.20069583 71.11857538 1.21146011 73.12090683 C1.22590247 75.91775473 1.227981 78.7143515 1.22705078 81.51123047 C1.23783661 82.76279434 1.23783661 82.76279434 1.24884033 84.03964233 C1.22810432 89.77189568 1.22810432 89.77189568 -1 92 C-1.99 92 -2.98 92 -4 92 C-4 92.66 -4 93.32 -4 94 C-5.485 94.495 -5.485 94.495 -7 95 C-8.21869929 97.50447516 -8.21869929 97.50447516 -9 100 C-10.32 99.67 -11.64 99.34 -13 99 C-7.57534247 92.21917808 -7.57534247 92.21917808 -4 90 C-3.34 90 -2.68 90 -2 90 C-2 89.34 -2 88.68 -2 88 C-1.34 88 -0.68 88 0 88 C0 58.96 0 29.92 0 0 Z " fill="#FEFBDD" transform="translate(146,56)"/>
<path d="M0 0 C2.0625 0.4375 2.0625 0.4375 4 1 C4 2.32 4 3.64 4 5 C15.88 5 27.76 5 40 5 C40 4.34 40 3.68 40 3 C40.66 3 41.32 3 42 3 C41.67 4.32 41.34 5.64 41 7 C35.17944212 7.16721165 29.35875454 7.32781152 23.5378418 7.48217773 C21.55602051 7.53567894 19.57424788 7.5910143 17.5925293 7.64819336 C14.75059507 7.72987855 11.90855338 7.80505172 9.06640625 7.87890625 C8.17474258 7.90594131 7.28307892 7.93297638 6.36439514 7.96083069 C4.24352554 8.01275915 2.12147191 8.01188911 0 8 C-1 7 -1 7 -1.125 4 C-1 1 -1 1 0 0 Z " fill="#F2CA33" transform="translate(76,109)"/>
<path d="M0 0 C0.33 0 0.66 0 1 0 C1.01030746 0.85396362 1.02061493 1.70792725 1.03123474 2.58776855 C1.12994105 10.70615202 1.23254681 18.82447538 1.33933926 26.94275665 C1.3940863 31.11464701 1.44741887 35.28654467 1.49731445 39.45849609 C1.5456822 43.4980619 1.59803218 47.53755962 1.65294075 51.57704163 C1.67304224 53.10447961 1.69180031 54.63193599 1.70907402 56.15940857 C1.82684235 66.46860545 2.26348451 76.7161717 3 87 C2.01 87 1.02 87 0 87 C0 58.29 0 29.58 0 0 Z " fill="#F3FCF9" transform="translate(147,57)"/>
<path d="M0 0 C0.82959229 0.65194336 1.65918457 1.30388672 2.51391602 1.97558594 C8.63443508 5.44288306 15.95899493 4.48811413 22.77734375 4.390625 C24.31432862 4.3831556 25.85132308 4.37746597 27.38832092 4.37347412 C31.41462955 4.35827253 35.44035206 4.31903923 39.46643066 4.2746582 C43.58235752 4.23358636 47.69837998 4.2154378 51.81445312 4.1953125 C59.8765697 4.15253854 67.93821174 4.08435504 76 4 C75.67 4.66 75.34 5.32 75 6 C66.05542306 6.15379407 57.11077599 6.30197537 48.16598797 6.4429636 C44.01270642 6.50860485 39.85947533 6.57618946 35.70629883 6.64819336 C31.69932653 6.71759136 27.69230214 6.78191327 23.6851902 6.84269524 C22.15533291 6.8667972 20.62550347 6.89273761 19.09570885 6.92053413 C16.95537035 6.95911226 14.81502675 6.99119158 12.67456055 7.02172852 C11.45544479 7.04171402 10.23632904 7.06169952 8.98027039 7.08229065 C6 7 6 7 3 6 C3 5.34 3 4.68 3 4 C2.34 4 1.68 4 1 4 C0.67 2.68 0.34 1.36 0 0 Z " fill="#FEF7B0" transform="translate(57,152)"/>
<path d="M0 0 C1.56116547 0.00045319 1.56116547 0.00045319 3.15386963 0.00091553 C4.8290567 0.03188324 4.8290567 0.03188324 6.53808594 0.06347656 C8.26088776 0.07196625 8.26088776 0.07196625 10.01849365 0.08062744 C13.68690668 0.10301825 17.3543431 0.15322215 21.02246094 0.20410156 C23.509426 0.22416295 25.99640637 0.24241435 28.48339844 0.25878906 C34.58008583 0.30289201 40.67620361 0.36983207 46.77246094 0.45410156 C46.77246094 1.44410156 46.77246094 2.43410156 46.77246094 3.45410156 C46.27746094 2.46410156 46.27746094 2.46410156 45.77246094 1.45410156 C29.27246094 1.45410156 12.77246094 1.45410156 -4.22753906 1.45410156 C-4.22753906 2.11410156 -4.22753906 2.77410156 -4.22753906 3.45410156 C-4.88753906 3.45410156 -5.54753906 3.45410156 -6.22753906 3.45410156 C-5.94910156 4.41316406 -5.94910156 4.41316406 -5.66503906 5.39160156 C-5.52066406 6.07222656 -5.37628906 6.75285156 -5.22753906 7.45410156 C-5.55753906 7.78410156 -5.88753906 8.11410156 -6.22753906 8.45410156 C-6.46181684 10.47004738 -6.6409003 12.49257556 -6.79003906 14.51660156 C-6.91572266 16.17369141 -6.91572266 16.17369141 -7.04394531 17.86425781 C-7.10453125 18.71890625 -7.16511719 19.57355469 -7.22753906 20.45410156 C-10.07718854 17.60445209 -9.56127013 15.54917332 -9.60253906 11.57910156 C-9.63089844 10.34417969 -9.65925781 9.10925781 -9.68847656 7.83691406 C-8.88303489 1.92579127 -5.75825946 -0.05590543 0 0 Z " fill="#FEEFA5" transform="translate(76.2275390625,61.5458984375)"/>
<path d="M0 0 C1.04085251 0.00007553 2.08170502 0.00015106 3.15409851 0.00022888 C4.27605118 0.00539017 5.39800385 0.01055145 6.55395508 0.01586914 C7.70390457 0.01728409 8.85385406 0.01869904 10.03865051 0.02015686 C13.71695541 0.02576111 17.39519978 0.03831435 21.07348633 0.05102539 C23.56502191 0.05603984 26.05655844 0.06060284 28.5480957 0.06469727 C34.66074662 0.07573192 40.77336215 0.09247421 46.88598633 0.11352539 C46.88598633 0.44352539 46.88598633 0.77352539 46.88598633 1.11352539 C46.25371628 1.12383286 45.62144623 1.13414032 44.97001648 1.14476013 C38.40031509 1.25278544 31.83075195 1.36738678 25.26123047 1.48583984 C22.80813484 1.52920141 20.35500879 1.57087558 17.90185547 1.61083984 C14.37954532 1.6685126 10.85738849 1.73221592 7.33520508 1.79711914 C5.68508675 1.82218788 5.68508675 1.82218788 4.00163269 1.84776306 C2.98080093 1.86770828 1.95996918 1.8876535 0.90820312 1.90820312 C0.00885544 1.92374741 -0.89049225 1.93929169 -1.8170929 1.95530701 C-4.27577836 2.02839879 -4.27577836 2.02839879 -7.11401367 3.11352539 C-7.16808934 5.69714057 -7.20772068 8.27961794 -7.23901367 10.86352539 C-7.25577148 11.59313477 -7.2725293 12.32274414 -7.28979492 13.07446289 C-7.32473606 16.91798779 -7.28901051 19.85959311 -5.11401367 23.11352539 C-6.43401367 22.78352539 -7.75401367 22.45352539 -9.11401367 22.11352539 C-9.14297343 18.98854476 -9.16079851 15.86359849 -9.17651367 12.73852539 C-9.18489258 11.84907227 -9.19327148 10.95961914 -9.2019043 10.04321289 C-9.20512695 9.19243164 -9.20834961 8.34165039 -9.21166992 7.46508789 C-9.21690674 6.67956543 -9.22214355 5.89404297 -9.22753906 5.0847168 C-9.11401367 3.11352539 -9.11401367 3.11352539 -8.11401367 1.11352539 C-5.11034854 0.11230368 -3.13661774 -0.00759472 0 0 Z " fill="#F1C94A" transform="translate(75.114013671875,60.886474609375)"/>
<path d="M0 0 C0.495 0.99 0.495 0.99 1 2 C0.67 2.66 0.34 3.32 0 4 C-2.28515625 4.4140625 -2.28515625 4.4140625 -5.0625 4.625 C-5.98160156 4.69976562 -6.90070313 4.77453125 -7.84765625 4.8515625 C-8.91306641 4.92503906 -8.91306641 4.92503906 -10 5 C-10 4.34 -10 3.68 -10 3 C-24.52 3 -39.04 3 -54 3 C-54 2.67 -54 2.34 -54 2 C-53.33823257 1.98969254 -52.67646515 1.97938507 -51.99464417 1.96876526 C-45.13328687 1.86094051 -38.27206734 1.74632391 -31.41088867 1.62768555 C-28.84711579 1.58425934 -26.28331254 1.54259015 -23.71948242 1.50268555 C-20.04336372 1.44516853 -16.36739901 1.38142137 -12.69140625 1.31640625 C-11.53725723 1.29969376 -10.38310822 1.28298126 -9.19398499 1.26576233 C-8.13296066 1.24581711 -7.07193634 1.22587189 -5.97875977 1.20532227 C-4.56978172 1.18200584 -4.56978172 1.18200584 -3.13233948 1.15821838 C-1.01693335 1.23454841 -1.01693335 1.23454841 0 0 Z " fill="#F7C720" transform="translate(125,83)"/>
<path d="M0 0 C0.33 0.66 0.66 1.32 1 2 C12.22 2 23.44 2 35 2 C35 2.33 35 2.66 35 3 C23.78 3.33 12.56 3.66 1 4 C1 5.32 1 6.64 1 8 C-0.32 8 -1.64 8 -3 8 C-2.67 6.35 -2.34 4.7 -2 3 C-1.34 3 -0.68 3 0 3 C0 2.01 0 1.02 0 0 Z " fill="#EDC945" transform="translate(79,88)"/>
<path d="M0 0 C1.32 0 2.64 0 4 0 C3.34 2.31 2.68 4.62 2 7 C2.66 7.33 3.32 7.66 4 8 C4 8.66 4 9.32 4 10 C1.69 10 -0.62 10 -3 10 C-3 8.02 -3 6.04 -3 4 C-2.01 3.67 -1.02 3.34 0 3 C0 2.01 0 1.02 0 0 Z " fill="#F8B31C" transform="translate(67,84)"/>
<path d="M0 0 C1.98 0.495 1.98 0.495 4 1 C3.34 1 2.68 1 2 1 C2.185625 1.639375 2.37125 2.27875 2.5625 2.9375 C2.706875 3.618125 2.85125 4.29875 3 5 C2.67 5.33 2.34 5.66 2 6 C1.76572222 8.01594582 1.58663876 10.038474 1.4375 12.0625 C1.31181641 13.71958984 1.31181641 13.71958984 1.18359375 15.41015625 C1.12300781 16.26480469 1.06242187 17.11945313 1 18 C-1 16 -1 16 -1.23046875 12.8125 C-1.21628906 11.554375 -1.20210938 10.29625 -1.1875 9 C-1.18105469 7.741875 -1.17460938 6.48375 -1.16796875 5.1875 C-1 2 -1 2 0 0 Z " fill="#FCEDBB" transform="translate(68,64)"/>
<path d="M0 0 C0.33 0.99 0.66 1.98 1 3 C1.94875 3.103125 2.8975 3.20625 3.875 3.3125 C7 4 7 4 9 7 C8.625 9.1875 8.625 9.1875 8 11 C7.34 10.67 6.68 10.34 6 10 C5.67 10.66 5.34 11.32 5 12 C3.68 11.01 2.36 10.02 1 9 C1.99 8.67 2.98 8.34 4 8 C4.33 7.01 4.66 6.02 5 5 C3.35 4.67 1.7 4.34 0 4 C0 2.68 0 1.36 0 0 Z " fill="#E7AC35" transform="translate(136,49)"/>
<path d="M0 0 C2.97 0.495 2.97 0.495 6 1 C6 6.28 6 11.56 6 17 C5.67 17 5.34 17 5 17 C5 13.7 5 10.4 5 7 C4.34 7 3.68 7 3 7 C3 6.01 3 5.02 3 4 C2.01 4 1.02 4 0 4 C0 2.68 0 1.36 0 0 Z " fill="#FCF3C6" transform="translate(120,63)"/>
<path d="M0 0 C0.60585938 0.34933594 1.21171875 0.69867188 1.8359375 1.05859375 C7.95414202 4.38124943 13.0429098 5.83717448 20 6 C20 6.33 20 6.66 20 7 C17.72923158 7.02699725 15.45837179 7.04639453 13.1875 7.0625 C11.29064453 7.07990234 11.29064453 7.07990234 9.35546875 7.09765625 C6 7 6 7 3 6 C3 5.34 3 4.68 3 4 C2.34 4 1.68 4 1 4 C0.67 2.68 0.34 1.36 0 0 Z " fill="#FAF0C0" transform="translate(57,152)"/>
<path d="M0 0 C1.134375 0.020625 2.26875 0.04125 3.4375 0.0625 C3.4375 1.3825 3.4375 2.7025 3.4375 4.0625 C0.7975 4.0625 -1.8425 4.0625 -4.5625 4.0625 C-4.5625 -0.28271095 -4.43767807 0.077854 0 0 Z " fill="#FAB60D" transform="translate(67.5625,44.9375)"/>
<path d="M0 0 C3.06303578 -0.08115993 6.12390815 -0.14057409 9.1875 -0.1875 C10.48397461 -0.22520508 10.48397461 -0.22520508 11.80664062 -0.26367188 C16.73038334 -0.32026662 19.96831189 -0.18027571 24 3 C21 4 21 4 18.83203125 3.1015625 C15.1042704 1.65159207 11.65353191 1.54512469 7.6875 1.375 C6.57665039 1.31699219 6.57665039 1.31699219 5.44335938 1.2578125 C3.62928691 1.16418295 1.81467884 1.08103149 0 1 C0 0.67 0 0.34 0 0 Z " fill="#EDC836" transform="translate(112,44)"/>
<path d="M0 0 C0.66 0 1.32 0 2 0 C1.67 1.32 1.34 2.64 1 4 C-5.93 4 -12.86 4 -20 4 C-20 3.67 -20 3.34 -20 3 C-10.1 2.505 -10.1 2.505 0 2 C0 1.34 0 0.68 0 0 Z " fill="#F4C71B" transform="translate(116,112)"/>
<path d="M0 0 C0.66 0.33 1.32 0.66 2 1 C0 4 0 4 -3 5 C-4.21869929 7.50447516 -4.21869929 7.50447516 -5 10 C-6.32 9.67 -7.64 9.34 -9 9 C-6.21000549 5.51250686 -3.74764169 2.49842779 0 0 Z " fill="#FAF0C1" transform="translate(142,146)"/>
<path d="M0 0 C0.33 0 0.66 0 1 0 C1.04898438 1.10859375 1.09796875 2.2171875 1.1484375 3.359375 C1.22349215 4.82294065 1.29903881 6.28648112 1.375 7.75 C1.4059375 8.47960937 1.436875 9.20921875 1.46875 9.9609375 C1.6748494 13.73942656 1.91512843 16.77946668 4 20 C2.68 19.67 1.36 19.34 0 19 C0 12.73 0 6.46 0 0 Z " fill="#E6B748" transform="translate(66,64)"/>
<path d="M0 0 C0.66 0 1.32 0 2 0 C2 0.99 2 1.98 2 3 C4.64 3 7.28 3 10 3 C10 4.65 10 6.3 10 8 C9.34 8 8.68 8 8 8 C7.54625 7.525625 7.0925 7.05125 6.625 6.5625 C4.77022513 4.77906263 3.49864408 4.4308007 1 4 C0.67 2.68 0.34 1.36 0 0 Z " fill="#FAECB5" transform="translate(136,48)"/>
<path d="M0 0 C2.64 0.33 5.28 0.66 8 1 C8.66 3.64 9.32 6.28 10 9 C9.34 9 8.68 9 8 9 C8 8.01 8 7.02 8 6 C7.34 6 6.68 6 6 6 C5.67 5.01 5.34 4.02 5 3 C2.49552484 1.78130071 2.49552484 1.78130071 0 1 C0 0.67 0 0.34 0 0 Z " fill="#FEFDDC" transform="translate(130,42)"/>
<path d="M0 0 C0 1.32 0 2.64 0 4 C-1.65 4 -3.3 4 -5 4 C-5 3.01 -5 2.02 -5 1 C-3 0 -3 0 0 0 Z " fill="#FDC707" transform="translate(77,88)"/>
<path d="M0 0 C4.08378283 0.74250597 8.01939223 1.82923301 12 3 C12 3.33 12 3.66 12 4 C4.61538462 4.49230769 4.61538462 4.49230769 1.5 2 C1.005 1.34 0.51 0.68 0 0 Z " fill="#E7B62E" transform="translate(58,152)"/>
<path d="M0 0 C0.99 0 1.98 0 3 0 C3 1.98 3 3.96 3 6 C2.01 6.495 2.01 6.495 1 7 C0.67 4.69 0.34 2.38 0 0 Z " fill="#FBB307" transform="translate(58,144)"/>
<path d="M0 0 C0.82638376 2.89234315 1 4.88742431 1 8 C-0.32 8 -1.64 8 -3 8 C-2.67 6.35 -2.34 4.7 -2 3 C-1.34 3 -0.68 3 0 3 C0 2.01 0 1.02 0 0 Z " fill="#F1CB39" transform="translate(79,88)"/>
<path d="M0 0 C-2.31 1.65 -4.62 3.3 -7 5 C-6.625 2.5625 -6.625 2.5625 -6 0 C-4 -1 -4 -1 0 0 Z " fill="#FDFBD5" transform="translate(63,43)"/>
</svg>
