<?xml version="1.0" encoding="UTF-8"?>
<svg version="1.1" xmlns="http://www.w3.org/2000/svg" width="362" height="362">
<path d="M0 0 C0.90703295 -0.00467997 1.81406589 -0.00935994 2.74858469 -0.01418173 C5.76519467 -0.02607575 8.78134562 -0.01669618 11.79795837 -0.00723267 C13.97034468 -0.01130105 16.14272892 -0.01664442 18.31510925 -0.02316284 C24.2018783 -0.03681613 30.08848923 -0.03154439 35.97526097 -0.02202559 C42.15106322 -0.01441196 48.32685223 -0.02147996 54.50265503 -0.02618408 C64.8802482 -0.03163953 75.25777729 -0.0244585 85.63536072 -0.01016235 C97.60212638 0.00613359 109.56871891 0.000897 121.5354901 -0.01564157 C131.83224038 -0.02929844 142.12894466 -0.03115472 152.42570108 -0.02332556 C158.56520915 -0.01866821 164.7046453 -0.01796996 170.84414864 -0.02793503 C176.62511422 -0.03666257 182.40588397 -0.03047789 188.18682861 -0.01325226 C190.29740004 -0.00931684 192.40798822 -0.01037031 194.51855278 -0.01704025 C224.2465003 -0.10225535 224.2465003 -0.10225535 231.90725803 4.92020607 C240.36222674 13.64435643 242.30290551 25.34091794 242.17466736 36.97714233 C242.18021637 38.27956375 242.18576538 39.58198517 242.19148254 40.9238739 C242.2055931 44.45913481 242.18880813 47.99360502 242.16519737 51.52879 C242.14491539 55.24898589 242.15097671 58.96915445 242.15330505 62.68939209 C242.15325168 68.93143569 242.13361158 75.17317457 242.10142517 81.41513062 C242.06450864 88.60891076 242.05575622 95.80229285 242.06272268 102.99615538 C242.06904904 109.94911429 242.05823617 116.90193823 242.03875732 123.85486984 C242.03063014 126.79959426 242.02786505 129.74424925 242.02944946 132.68898392 C242.03049953 136.80737272 242.0062081 140.92524721 241.97935486 145.04354858 C241.98228546 146.25109299 241.98521606 147.45863739 241.98823547 148.70277405 C241.87922104 159.57863212 239.83913412 169.00929463 232.55943298 177.38095093 C221.99697267 186.8778999 205.54651031 184.66779616 192.36582947 184.63973999 C190.22282289 184.6424533 188.07981725 184.64601614 185.93681335 184.65036011 C180.14150015 184.6594453 174.34625848 184.65595598 168.55094409 184.64960194 C162.47378017 184.64452254 156.39662218 184.64923871 150.31945801 184.65237427 C140.11696783 184.65600798 129.91450665 184.65123012 119.71202087 184.64169312 C107.93030647 184.63080681 96.14866128 184.63433785 84.36694854 184.64534593 C74.23501349 184.65443225 64.10309924 184.65569758 53.97116143 184.65046859 C47.92690367 184.64735667 41.88267842 184.64691821 35.83842278 184.65354156 C30.15598192 184.65933406 24.47363002 184.65528328 18.79119873 184.64375305 C16.71035472 184.64111678 14.62950317 184.64185385 12.54866219 184.64627838 C9.69968984 184.65177606 6.85099927 184.64484881 4.00204468 184.63491821 C2.77881576 184.64161038 2.77881576 184.64161038 1.53087515 184.64843774 C-6.09311259 184.5971963 -14.14117586 183.98106114 -20.50306702 179.44345093 C-21.23654358 178.93942749 -21.97002014 178.43540405 -22.72572327 177.91610718 C-24.44056702 176.38095093 -24.44056702 176.38095093 -25.44056702 173.38095093 C-26.43056702 173.05095093 -27.42056702 172.72095093 -28.44056702 172.38095093 C-33.11782797 165.06408402 -33.02276681 156.87913275 -32.98988342 148.49276733 C-32.99859683 147.12160645 -33.00896946 145.75045527 -33.02085876 144.37931824 C-33.04745669 140.68283016 -33.04881684 136.98675331 -33.04373217 133.29018831 C-33.04158022 130.19158044 -33.05139122 127.09305367 -33.06094301 123.99446332 C-33.08307042 116.67759177 -33.08404386 109.36092562 -33.07191467 102.04403687 C-33.05983958 94.52409792 -33.08445877 87.00490782 -33.12705481 79.48509657 C-33.16241081 73.00233501 -33.1742702 66.51981049 -33.16777933 60.03695619 C-33.16417281 56.17665797 -33.16923065 52.31689401 -33.1972084 48.45668411 C-33.22256058 44.82336915 -33.21829856 41.19121223 -33.19238663 37.55791283 C-33.18548274 35.60889471 -33.20786842 33.65983957 -33.23152161 31.71095276 C-33.12293783 22.51223918 -31.07435797 14.11088834 -24.44542885 7.34441566 C-17.403511 1.43160396 -8.95131042 -0.0721251 0 0 Z M4.55943298 21.38095093 C5.54943298 23.03095093 6.53943298 24.68095093 7.55943298 26.38095093 C8.21943298 26.38095093 8.87943298 26.38095093 9.55943298 26.38095093 C9.77599548 26.92235718 9.99255798 27.46376343 10.21568298 28.02157593 C12.02443295 31.19740436 14.47667098 33.58823174 17.05943298 36.13095093 C17.55830017 36.63755249 18.05716736 37.14415405 18.57115173 37.66610718 C21.09004936 40.50900692 21.09004936 40.50900692 24.55943298 41.38095093 C24.55943298 42.04095093 24.55943298 42.70095093 24.55943298 43.38095093 C26.89276632 46.04761759 26.89276632 46.04761759 29.55943298 48.38095093 C30.21943298 48.38095093 30.87943298 48.38095093 31.55943298 48.38095093 C31.88943298 49.37095093 32.21943298 50.36095093 32.55943298 51.38095093 C33.21943298 51.38095093 33.87943298 51.38095093 34.55943298 51.38095093 C34.55943298 52.04095093 34.55943298 52.70095093 34.55943298 53.38095093 C35.21943298 53.38095093 35.87943298 53.38095093 36.55943298 53.38095093 C36.78759705 53.93653687 37.01576111 54.4921228 37.25083923 55.06454468 C38.9280161 58.03339805 41.05607202 60.06710611 43.49693298 62.44345093 C44.37220642 63.30067749 45.24747986 64.15790405 46.14927673 65.04110718 C46.9446283 65.81325562 47.73997986 66.58540405 48.55943298 67.38095093 C49.11759705 67.97778687 49.67576111 68.5746228 50.25083923 69.18954468 C51.51096181 70.60535824 51.51096181 70.60535824 53.55943298 70.38095093 C53.55943298 71.04095093 53.55943298 71.70095093 53.55943298 72.38095093 C54.21943298 72.38095093 54.87943298 72.38095093 55.55943298 72.38095093 C55.76568298 72.91720093 55.97193298 73.45345093 56.18443298 74.00595093 C58.09193724 77.30073101 60.60762682 79.97458721 63.55943298 82.38095093 C64.21943298 82.38095093 64.87943298 82.38095093 65.55943298 82.38095093 C65.55943298 83.04095093 65.55943298 83.70095093 65.55943298 84.38095093 C66.21943298 84.38095093 66.87943298 84.38095093 67.55943298 84.38095093 C68.05443298 85.86595093 68.05443298 85.86595093 68.55943298 87.38095093 C69.21943298 87.38095093 69.87943298 87.38095093 70.55943298 87.38095093 C70.55943298 88.04095093 70.55943298 88.70095093 70.55943298 89.38095093 C71.21943298 89.38095093 71.87943298 89.38095093 72.55943298 89.38095093 C72.81982361 89.96231812 73.08021423 90.5436853 73.34849548 91.14266968 C77.74388859 99.26705758 86.39043902 104.62321371 94.55943298 108.38095093 C106.98711929 111.07309456 115.91170106 107.86217905 126.55943298 101.38095093 C126.55943298 100.72095093 126.55943298 100.06095093 126.55943298 99.38095093 C127.21943298 99.38095093 127.87943298 99.38095093 128.55943298 99.38095093 C130.19618806 97.76295591 130.19618806 97.76295591 131.87193298 95.69345093 C135.4677236 91.46970519 138.91688816 87.47598081 143.55943298 84.38095093 C143.55943298 83.72095093 143.55943298 83.06095093 143.55943298 82.38095093 C144.21943298 82.38095093 144.87943298 82.38095093 145.55943298 82.38095093 C147.22609965 81.04761759 147.22609965 81.04761759 148.55943298 79.38095093 C148.55943298 78.72095093 148.55943298 78.06095093 148.55943298 77.38095093 C149.21943298 77.38095093 149.87943298 77.38095093 150.55943298 77.38095093 C153.22609965 75.04761759 153.22609965 75.04761759 155.55943298 72.38095093 C155.55943298 71.72095093 155.55943298 71.06095093 155.55943298 70.38095093 C156.21943298 70.38095093 156.87943298 70.38095093 157.55943298 70.38095093 C159.22609965 69.04761759 159.22609965 69.04761759 160.55943298 67.38095093 C160.55943298 66.72095093 160.55943298 66.06095093 160.55943298 65.38095093 C161.21943298 65.38095093 161.87943298 65.38095093 162.55943298 65.38095093 C165.22609965 63.04761759 165.22609965 63.04761759 167.55943298 60.38095093 C167.55943298 59.72095093 167.55943298 59.06095093 167.55943298 58.38095093 C168.21943298 58.38095093 168.87943298 58.38095093 169.55943298 58.38095093 C171.22609965 57.04761759 171.22609965 57.04761759 172.55943298 55.38095093 C172.55943298 54.72095093 172.55943298 54.06095093 172.55943298 53.38095093 C173.21943298 53.38095093 173.87943298 53.38095093 174.55943298 53.38095093 C176.26229093 51.65931694 176.26229093 51.65931694 177.99693298 49.50595093 C180.14344182 46.91901371 181.7271986 45.26910718 184.55943298 43.38095093 C184.55943298 42.72095093 184.55943298 42.06095093 184.55943298 41.38095093 C185.21943298 41.38095093 185.87943298 41.38095093 186.55943298 41.38095093 C186.55943298 40.72095093 186.55943298 40.06095093 186.55943298 39.38095093 C187.54943298 39.05095093 188.53943298 38.72095093 189.55943298 38.38095093 C189.55943298 37.72095093 189.55943298 37.06095093 189.55943298 36.38095093 C190.21943298 36.38095093 190.87943298 36.38095093 191.55943298 36.38095093 C194.22609965 34.04761759 194.22609965 34.04761759 196.55943298 31.38095093 C196.55943298 30.72095093 196.55943298 30.06095093 196.55943298 29.38095093 C197.21943298 29.38095093 197.87943298 29.38095093 198.55943298 29.38095093 C200.22609965 28.04761759 200.22609965 28.04761759 201.55943298 26.38095093 C201.55943298 25.72095093 201.55943298 25.06095093 201.55943298 24.38095093 C202.87943298 23.72095093 204.19943298 23.06095093 205.55943298 22.38095093 C205.55943298 22.05095093 205.55943298 21.72095093 205.55943298 21.38095093 C139.22943298 21.38095093 72.89943298 21.38095093 4.55943298 21.38095093 Z M218.55943298 36.38095093 C217.18601133 37.76974631 215.87933154 39.2247839 214.604599 40.7046814 C209.56328444 46.42877676 204.24345719 51.8249548 198.83677673 57.20126343 C197.84050785 58.19566089 196.84446421 59.19028406 195.84863281 60.18511963 C193.26170213 62.76828206 190.6717804 65.34842412 188.0811615 67.92788696 C185.42427104 70.57443893 182.77030668 73.22392185 180.11607361 75.87313843 C174.93333989 81.0452356 169.74743367 86.21413635 164.55943298 91.38095093 C164.88943298 92.37095093 165.21943298 93.36095093 165.55943298 94.38095093 C166.21943298 94.38095093 166.87943298 94.38095093 167.55943298 94.38095093 C167.55943298 95.04095093 167.55943298 95.70095093 167.55943298 96.38095093 C168.21943298 96.38095093 168.87943298 96.38095093 169.55943298 96.38095093 C169.82755798 97.02032593 170.09568298 97.65970093 170.37193298 98.31845093 C171.44611051 100.71226779 171.44611051 100.71226779 174.55943298 101.38095093 C175.22609965 102.71428426 175.89276632 104.04761759 176.55943298 105.38095093 C177.54943298 105.71095093 178.53943298 106.04095093 179.55943298 106.38095093 C179.55943298 107.04095093 179.55943298 107.70095093 179.55943298 108.38095093 C180.21943298 108.38095093 180.87943298 108.38095093 181.55943298 108.38095093 C181.88943298 109.37095093 182.21943298 110.36095093 182.55943298 111.38095093 C183.21943298 111.38095093 183.87943298 111.38095093 184.55943298 111.38095093 C184.55943298 112.04095093 184.55943298 112.70095093 184.55943298 113.38095093 C185.21943298 113.38095093 185.87943298 113.38095093 186.55943298 113.38095093 C186.55943298 114.04095093 186.55943298 114.70095093 186.55943298 115.38095093 C187.21943298 115.38095093 187.87943298 115.38095093 188.55943298 115.38095093 C188.88943298 116.37095093 189.21943298 117.36095093 189.55943298 118.38095093 C190.21943298 118.38095093 190.87943298 118.38095093 191.55943298 118.38095093 C191.55943298 119.04095093 191.55943298 119.70095093 191.55943298 120.38095093 C192.21943298 120.38095093 192.87943298 120.38095093 193.55943298 120.38095093 C193.88943298 121.37095093 194.21943298 122.36095093 194.55943298 123.38095093 C195.21943298 123.38095093 195.87943298 123.38095093 196.55943298 123.38095093 C196.55943298 124.04095093 196.55943298 124.70095093 196.55943298 125.38095093 C197.21943298 125.38095093 197.87943298 125.38095093 198.55943298 125.38095093 C198.55943298 126.04095093 198.55943298 126.70095093 198.55943298 127.38095093 C199.21943298 127.38095093 199.87943298 127.38095093 200.55943298 127.38095093 C200.88943298 128.37095093 201.21943298 129.36095093 201.55943298 130.38095093 C203.93448516 133.08944015 203.93448516 133.08944015 206.55943298 135.38095093 C207.21943298 135.38095093 207.87943298 135.38095093 208.55943298 135.38095093 C208.55943298 136.04095093 208.55943298 136.70095093 208.55943298 137.38095093 C209.21943298 137.38095093 209.87943298 137.38095093 210.55943298 137.38095093 C210.82755798 137.97907593 211.09568298 138.57720093 211.37193298 139.19345093 C212.55860705 141.37942946 213.65542411 142.79427687 215.55943298 144.38095093 C216.21943298 144.38095093 216.87943298 144.38095093 217.55943298 144.38095093 C217.55943298 145.37095093 217.55943298 146.36095093 217.55943298 147.38095093 C218.54943298 147.38095093 219.53943298 147.38095093 220.55943298 147.38095093 C220.55943298 110.75095093 220.55943298 74.12095093 220.55943298 36.38095093 C219.89943298 36.38095093 219.23943298 36.38095093 218.55943298 36.38095093 Z M-11.44056702 37.38095093 C-11.77056702 73.68095093 -12.10056702 109.98095093 -12.44056702 147.38095093 C-10.46056702 146.88595093 -10.46056702 146.88595093 -8.44056702 146.38095093 C-8.44056702 145.72095093 -8.44056702 145.06095093 -8.44056702 144.38095093 C-7.78056702 144.38095093 -7.12056702 144.38095093 -6.44056702 144.38095093 C-3.77390035 142.04761759 -3.77390035 142.04761759 -1.44056702 139.38095093 C-1.44056702 138.72095093 -1.44056702 138.06095093 -1.44056702 137.38095093 C-0.78056702 137.38095093 -0.12056702 137.38095093 0.55943298 137.38095093 C0.55943298 136.72095093 0.55943298 136.06095093 0.55943298 135.38095093 C2.04443298 134.88595093 2.04443298 134.88595093 3.55943298 134.38095093 C3.55943298 133.72095093 3.55943298 133.06095093 3.55943298 132.38095093 C4.21943298 132.38095093 4.87943298 132.38095093 5.55943298 132.38095093 C5.55943298 131.72095093 5.55943298 131.06095093 5.55943298 130.38095093 C7.04443298 129.88595093 7.04443298 129.88595093 8.55943298 129.38095093 C8.55943298 128.72095093 8.55943298 128.06095093 8.55943298 127.38095093 C9.21943298 127.38095093 9.87943298 127.38095093 10.55943298 127.38095093 C12.12592157 125.79357694 12.12592157 125.79357694 13.74693298 123.75595093 C16.04301988 121.04628316 18.30961102 118.62798377 21.05943298 116.38095093 C24.22976169 113.76350516 26.79537229 110.87774496 29.45005798 107.74813843 C33.91574923 102.73664047 38.77941081 98.09033238 43.55943298 93.38095093 C42.11906799 89.2851263 40.60496942 87.32659391 37.14537048 84.63485718 C33.98129975 82.13321505 31.24618913 79.3220612 28.87193298 76.06845093 C28.43880798 75.51157593 28.00568298 74.95470093 27.55943298 74.38095093 C26.89943298 74.38095093 26.23943298 74.38095093 25.55943298 74.38095093 C25.29130798 73.74157593 25.02318298 73.10220093 24.74693298 72.44345093 C23.67275546 70.04963407 23.67275546 70.04963407 20.55943298 69.38095093 C20.55943298 68.72095093 20.55943298 68.06095093 20.55943298 67.38095093 C18.837799 65.67809298 18.837799 65.67809298 16.68443298 63.94345093 C14.09749577 61.79694209 12.44758924 60.21318531 10.55943298 57.38095093 C9.89943298 57.38095093 9.23943298 57.38095093 8.55943298 57.38095093 C8.55943298 56.72095093 8.55943298 56.06095093 8.55943298 55.38095093 C7.22609965 53.71428426 7.22609965 53.71428426 5.55943298 52.38095093 C4.89943298 52.38095093 4.23943298 52.38095093 3.55943298 52.38095093 C3.55943298 51.72095093 3.55943298 51.06095093 3.55943298 50.38095093 C1.90494614 48.74626193 1.90494614 48.74626193 -0.19056702 47.06845093 C-3.35994773 44.39096704 -5.85855607 41.63237212 -8.44056702 38.38095093 C-9.43056702 38.05095093 -10.42056702 37.72095093 -11.44056702 37.38095093 Z M58.55943298 107.38095093 C57.99957703 107.9460437 57.43972107 108.51113647 56.86289978 109.09335327 C54.32686341 111.65016605 51.7869517 114.20309457 49.24693298 116.75595093 C47.92532166 118.09013062 47.92532166 118.09013062 46.57701111 119.45126343 C45.30567322 120.7274353 45.30567322 120.7274353 44.00865173 122.02938843 C43.22836609 122.81491089 42.44808044 123.60043335 41.64414978 124.40975952 C39.55943298 126.38095093 39.55943298 126.38095093 36.55943298 128.38095093 C36.55943298 129.04095093 36.55943298 129.70095093 36.55943298 130.38095093 C35.89943298 130.38095093 35.23943298 130.38095093 34.55943298 130.38095093 C34.55943298 131.04095093 34.55943298 131.70095093 34.55943298 132.38095093 C33.89943298 132.38095093 33.23943298 132.38095093 32.55943298 132.38095093 C30.89276632 133.71428426 30.89276632 133.71428426 29.55943298 135.38095093 C29.55943298 136.04095093 29.55943298 136.70095093 29.55943298 137.38095093 C28.89943298 137.38095093 28.23943298 137.38095093 27.55943298 137.38095093 C27.55943298 138.04095093 27.55943298 138.70095093 27.55943298 139.38095093 C26.89943298 139.38095093 26.23943298 139.38095093 25.55943298 139.38095093 C21.73599577 142.82140653 21.73599577 142.82140653 19.55943298 147.38095093 C18.89943298 147.38095093 18.23943298 147.38095093 17.55943298 147.38095093 C17.55943298 148.04095093 17.55943298 148.70095093 17.55943298 149.38095093 C16.89943298 149.38095093 16.23943298 149.38095093 15.55943298 149.38095093 C15.55943298 150.04095093 15.55943298 150.70095093 15.55943298 151.38095093 C14.07443298 151.87595093 14.07443298 151.87595093 12.55943298 152.38095093 C12.55943298 153.04095093 12.55943298 153.70095093 12.55943298 154.38095093 C11.89943298 154.38095093 11.23943298 154.38095093 10.55943298 154.38095093 C10.55943298 155.04095093 10.55943298 155.70095093 10.55943298 156.38095093 C9.07443298 156.87595093 9.07443298 156.87595093 7.55943298 157.38095093 C7.55943298 158.04095093 7.55943298 158.70095093 7.55943298 159.38095093 C6.92005798 159.66970093 6.28068298 159.95845093 5.62193298 160.25595093 C3.40737219 161.20918544 3.40737219 161.20918544 2.55943298 163.38095093 C12.43953233 164.59008093 22.28364219 164.52249649 32.21788025 164.51034546 C34.08815546 164.51170249 35.9584304 164.51348412 37.82870483 164.51565552 C42.87762021 164.52019109 47.92651502 164.51845706 52.97543073 164.51527643 C58.26490155 164.51273613 63.55437066 164.5150947 68.84384155 164.5166626 C77.71461807 164.51847798 86.58538625 164.51609304 95.4561615 164.51132202 C105.72022274 164.5058655 115.98426416 164.50765464 126.24832493 164.51314843 C135.06634108 164.51767954 143.88435126 164.51833057 152.7023682 164.51570976 C157.96723725 164.51414892 163.23209696 164.51394827 168.49696541 164.51724625 C173.43737663 164.52012544 178.37776212 164.5181484 183.31817055 164.51235199 C185.13469144 164.5110253 186.95121448 164.51141698 188.76773453 164.51361465 C191.23845586 164.51632932 193.70909362 164.5129413 196.17980957 164.50793457 C196.90576075 164.51016529 197.63171192 164.51239601 198.37966162 164.51469433 C202.0939396 164.55328216 202.0939396 164.55328216 205.55943298 163.38095093 C205.55943298 162.72095093 205.55943298 162.06095093 205.55943298 161.38095093 C204.89943298 161.38095093 204.23943298 161.38095093 203.55943298 161.38095093 C203.55943298 160.72095093 203.55943298 160.06095093 203.55943298 159.38095093 C202.89943298 159.38095093 202.23943298 159.38095093 201.55943298 159.38095093 C201.22943298 158.39095093 200.89943298 157.40095093 200.55943298 156.38095093 C199.13674587 154.93876441 199.13674587 154.93876441 197.30943298 153.50595093 C192.55889001 149.50685748 188.26072463 145.11346554 183.95298767 140.64901733 C182.52445026 139.19020346 181.0456993 137.78090433 179.55943298 136.38095093 C178.89943298 136.38095093 178.23943298 136.38095093 177.55943298 136.38095093 C177.29130798 135.74157593 177.02318298 135.10220093 176.74693298 134.44345093 C175.67275546 132.04963407 175.67275546 132.04963407 172.55943298 131.38095093 C171.88044974 130.05384732 171.21538858 128.71958623 170.55943298 127.38095093 C168.7586349 125.58982547 168.7586349 125.58982547 166.68443298 123.94345093 C163.5564132 121.31410096 161.09199568 118.59535743 158.55943298 115.38095093 C157.89943298 115.38095093 157.23943298 115.38095093 156.55943298 115.38095093 C156.31193298 114.80345093 156.06443298 114.22595093 155.80943298 113.63095093 C154.39259982 111.08065123 152.68315761 109.36309391 150.55943298 107.38095093 C147.27716275 108.79796627 145.33049527 110.50038041 142.93443298 113.13095093 C133.44911259 122.80913365 120.21004789 128.38073574 106.70591736 128.67367554 C92.27911081 128.78147732 81.60822071 125.68622736 69.55943298 117.38095093 C69.06443298 116.39095093 69.06443298 116.39095093 68.55943298 115.38095093 C67.89943298 115.38095093 67.23943298 115.38095093 66.55943298 115.38095093 C66.55943298 114.72095093 66.55943298 114.06095093 66.55943298 113.38095093 C65.22609965 111.71428426 65.22609965 111.71428426 63.55943298 110.38095093 C62.89943298 110.38095093 62.23943298 110.38095093 61.55943298 110.38095093 C61.55943298 109.72095093 61.55943298 109.06095093 61.55943298 108.38095093 C60.56943298 108.05095093 59.57943298 107.72095093 58.55943298 107.38095093 Z " fill="#FACB5D" transform="translate(76.44056701660156,84.61904907226563)"/>
<path d="M0 0 C0.99 0.33 1.98 0.66 3 1 C3 40.6 3 80.2 3 121 C1.35 121 -0.3 121 -2 121 C-4.320755 118.6109875 -5.87969127 116.21555313 -7.5 113.3125 C-8.79191049 110.89278637 -8.79191049 110.89278637 -11 110 C-13.74526635 108.62736683 -14.44355648 106.59407253 -16 104 C-16.70125 103.649375 -17.4025 103.29875 -18.125 102.9375 C-20 102 -20 102 -20.75 99.875 C-20.8325 99.25625 -20.915 98.6375 -21 98 C-21.66 98 -22.32 98 -23 98 C-23 100.64 -23 103.28 -23 106 C-23.99 106 -24.98 106 -26 106 C-25.34 107.98 -24.68 109.96 -24 112 C-28 112 -28 112 -30 111 C-28.61085525 115.29718953 -26.61968015 117.70687757 -23.375 120.8125 C-22.55773437 121.60269531 -21.74046875 122.39289063 -20.8984375 123.20703125 C-20.27195312 123.79871094 -19.64546875 124.39039063 -19 125 C-22 125 -22 125 -23.88183594 123.44287109 C-24.57567383 122.72695801 -25.26951172 122.01104492 -25.984375 121.2734375 C-26.75523437 120.48839844 -27.52609375 119.70335937 -28.3203125 118.89453125 C-29.52300781 117.64736328 -29.52300781 117.64736328 -30.75 116.375 C-37.88277242 109.03870842 -37.88277242 109.03870842 -45.51928711 102.23925781 C-48.50658517 99.73908882 -51.34738129 97.34362675 -53.0625 93.8125 C-53.8484816 91.84418777 -53.8484816 91.84418777 -55.83984375 91.12890625 C-58.3722643 89.8054532 -59.68072018 88.31640524 -61.5 86.125 C-63.89758153 83.28915088 -66.31779415 80.57491762 -69 78 C-72.28227023 79.41701534 -74.22893771 81.11942949 -76.625 83.75 C-86.10876636 93.4265971 -99.35246616 99.00544675 -112.85620117 99.29150391 C-121.78318102 99.36239875 -129.905985 99.28967139 -138 95 C-138.33 94.34 -138.66 93.68 -139 93 C-138.40832031 93.13277344 -137.81664062 93.26554687 -137.20703125 93.40234375 C-136.41683594 93.57894531 -135.62664062 93.75554687 -134.8125 93.9375 C-134.03519531 94.11152344 -133.25789062 94.28554687 -132.45703125 94.46484375 C-131.64621094 94.64144531 -130.83539063 94.81804687 -130 95 C-129.24203125 95.18175781 -128.4840625 95.36351562 -127.703125 95.55078125 C-116.90556171 97.34517399 -103.90653817 96.95326909 -94 92 C-93.505 90.515 -93.505 90.515 -93 89 C-90.525 88.505 -90.525 88.505 -88 88 C-88 87.071875 -88 86.14375 -88 85.1875 C-88 81.56153877 -87.96369313 78.4933876 -87 75 C-87.70125 75.350625 -88.4025 75.70125 -89.125 76.0625 C-92.55046754 77.17950029 -94.54602707 76.92105945 -98 76 C-98.99 75.01 -98.99 75.01 -100 74 C-95.25 71 -95.25 71 -93 71 C-93 70.34 -93 69.68 -93 69 C-92.34 69 -91.68 69 -91 69 C-90.505 67.515 -90.505 67.515 -90 66 C-89.34 66 -88.68 66 -88 66 C-87.731875 65.401875 -87.46375 64.80375 -87.1875 64.1875 C-86.00082594 62.00152146 -84.90400887 60.58667406 -83 59 C-82.34 59 -81.68 59 -81 59 C-80.731875 58.360625 -80.46375 57.72125 -80.1875 57.0625 C-79 55 -79 55 -76 54 C-76 53.34 -76 52.68 -76 52 C-75.34 52 -74.68 52 -74 52 C-73.67 51.01 -73.34 50.02 -73 49 C-71.02 48.67 -69.04 48.34 -67 48 C-66.67 46.68 -66.34 45.36 -66 44 C-64.56496445 43.63597631 -63.12683494 43.28413409 -61.6875 42.9375 C-60.48673828 42.64166016 -60.48673828 42.64166016 -59.26171875 42.33984375 C-57 42 -57 42 -54 43 C-53.67 43.99 -53.34 44.98 -53 46 C-51.35 45.67 -49.7 45.34 -48 45 C-47.34 45.99 -46.68 46.98 -46 48 C-42.27264485 45.25929768 -39.41509237 42.26061084 -36.4765625 38.734375 C-34.44840296 36.35209237 -32.24054135 34.18157974 -30 32 C-28.9171875 30.8553125 -28.9171875 30.8553125 -27.8125 29.6875 C-26 28 -26 28 -24 28 C-23.62875 27.1646875 -23.62875 27.1646875 -23.25 26.3125 C-20.35874196 20.96367262 -16.04141834 16.40383465 -11 13 C-10.01 13 -9.02 13 -8 13 C-7.9175 12.4225 -7.835 11.845 -7.75 11.25 C-6.79586865 8.38760596 -5.11414621 7.11414621 -3 5 C-2.36707617 2.88719655 -2.36707617 2.88719655 -2 1 C-1.34 0.67 -0.68 0.34 0 0 Z M-1 6 C-2.37342166 7.38879539 -3.68010144 8.84383297 -4.95483398 10.32373047 C-9.99614854 16.04782583 -15.31597579 21.44400387 -20.72265625 26.8203125 C-21.71892513 27.81470996 -22.71496877 28.80933313 -23.71080017 29.8041687 C-26.29773085 32.38733113 -28.88765258 34.96747319 -31.47827148 37.54693604 C-34.13516194 40.193488 -36.7891263 42.84297092 -39.44335938 45.4921875 C-44.6260931 50.66428467 -49.81199932 55.83318542 -55 61 C-54.67 61.99 -54.34 62.98 -54 64 C-53.34 64 -52.68 64 -52 64 C-52 64.66 -52 65.32 -52 66 C-51.34 66 -50.68 66 -50 66 C-49.731875 66.639375 -49.46375 67.27875 -49.1875 67.9375 C-48.11332248 70.33131686 -48.11332248 70.33131686 -45 71 C-44.33333333 72.33333333 -43.66666667 73.66666667 -43 75 C-42.01 75.33 -41.02 75.66 -40 76 C-40 76.66 -40 77.32 -40 78 C-39.34 78 -38.68 78 -38 78 C-37.67 78.99 -37.34 79.98 -37 81 C-36.34 81 -35.68 81 -35 81 C-35 81.66 -35 82.32 -35 83 C-34.34 83 -33.68 83 -33 83 C-33 83.66 -33 84.32 -33 85 C-32.34 85 -31.68 85 -31 85 C-30.67 85.99 -30.34 86.98 -30 88 C-29.34 88 -28.68 88 -28 88 C-28 88.66 -28 89.32 -28 90 C-27.34 90 -26.68 90 -26 90 C-25.67 90.99 -25.34 91.98 -25 93 C-24.34 93 -23.68 93 -23 93 C-23 93.66 -23 94.32 -23 95 C-22.34 95 -21.68 95 -21 95 C-21 95.66 -21 96.32 -21 97 C-20.34 97 -19.68 97 -19 97 C-18.67 97.99 -18.34 98.98 -18 100 C-15.62494782 102.70848923 -15.62494782 102.70848923 -13 105 C-12.34 105 -11.68 105 -11 105 C-11 105.66 -11 106.32 -11 107 C-10.34 107 -9.68 107 -9 107 C-8.731875 107.598125 -8.46375 108.19625 -8.1875 108.8125 C-7.00082594 110.99847854 -5.90400887 112.41332594 -4 114 C-3.34 114 -2.68 114 -2 114 C-2 114.99 -2 115.98 -2 117 C-1.01 117 -0.02 117 1 117 C1 80.37 1 43.74 1 6 C0.34 6 -0.32 6 -1 6 Z " fill="#F9CB5E" transform="translate(296,115)"/>
<path d="M0 0 C0.33 0.66 0.66 1.32 1 2 C3.32156597 2.40729228 5.6568787 2.74438677 8 3 C8.33 4.65 8.66 6.3 9 8 C11.475 8.495 11.475 8.495 14 9 C14 9.66 14 10.32 14 11 C14.99 11.33 15.98 11.66 17 12 C18.66666667 13.66666667 20.33333333 15.33333333 22 17 C22.70898438 17.38671875 23.41796875 17.7734375 24.1484375 18.171875 C28.36761564 20.87677276 31.71349386 24.34485449 35.25 27.875 C35.9821875 28.58269531 36.714375 29.29039062 37.46875 30.01953125 C38.16484375 30.71175781 38.8609375 31.40398437 39.578125 32.1171875 C40.21137695 32.74222168 40.84462891 33.36725586 41.49707031 34.01123047 C43.25547801 36.33806431 43.49704646 38.16511714 44 41 C45.96758273 42.36020151 45.96758273 42.36020151 48 43 C48 43.66 48 44.32 48 45 C63.12913265 49.01799514 63.12913265 49.01799514 77.94140625 47.0625 C78.49699219 46.69125 79.05257812 46.32 79.625 45.9375 C83.85230909 43.51071145 86.02597927 44.0518276 90.6875 44.76953125 C93.57845968 45.05765054 95.48754487 44.42372457 98 43 C98 43.99 98 44.98 98 46 C98.309375 46.86625 98.309375 46.86625 98.625 47.75 C99.18678517 51.12071104 98.04541335 53.80226504 97 57 C95.35 57.33 93.7 57.66 92 58 C91.91105469 58.62519531 91.82210937 59.25039062 91.73046875 59.89453125 C91 62 91 62 89.36328125 63.01171875 C88.68652344 63.23472656 88.00976562 63.45773438 87.3125 63.6875 C86.31669922 64.03361328 86.31669922 64.03361328 85.30078125 64.38671875 C71.66237682 68.02208292 55.80101863 67.25154867 43.2734375 60.5390625 C36.91051691 56.45601574 33.41178372 53.23535117 31 46 C30.01 45.67 29.02 45.34 28 45 C28 44.34 28 43.68 28 43 C25.36 43 22.72 43 20 43 C19.67 43.99 19.34 44.98 19 46 C18.34 46 17.68 46 17 46 C16.67 46.99 16.34 47.98 16 49 C14.6875 50.6875 14.6875 50.6875 13 52 C11.68 52 10.36 52 9 52 C9 52.99 9 53.98 9 55 C6.99962478 57.50046903 4.82019578 58.58990211 2 60 C1.67 60.66 1.34 61.32 1 62 C0.34 62 -0.32 62 -1 62 C-1 61.34 -1 60.68 -1 60 C-3.31 60 -5.62 60 -8 60 C-8.495 58.515 -8.495 58.515 -9 57 C-10.65 57 -12.3 57 -14 57 C-13.06409496 55.8944811 -12.12620142 54.79064547 -11.1875 53.6875 C-10.40439453 52.76517578 -10.40439453 52.76517578 -9.60546875 51.82421875 C-6.63108286 48.44456373 -3.8777092 46.30816024 0 44 C3.89009435 41.28598068 5.41222498 39.42308754 7 35 C7.53625 34.505 8.0725 34.01 8.625 33.5 C10.24967415 32.01948933 10.24967415 32.01948933 10.3125 29.4375 C10.22966747 26.82203581 10.22966747 26.82203581 8 25 C8.99 24.34 9.98 23.68 11 23 C10.34 22.67 9.68 22.34 9 22 C8.375 19.9375 8.375 19.9375 8 18 C8 19.32 8 20.64 8 22 C7.01 22 6.02 22 5 22 C5 21.34 5 20.68 5 20 C3.02 19.67 1.04 19.34 -1 19 C-1.33 17.35 -1.66 15.7 -2 14 C-2.66 14 -3.32 14 -4 14 C-4.12375 13.360625 -4.2475 12.72125 -4.375 12.0625 C-4.58125 11.381875 -4.7875 10.70125 -5 10 C-5.66 9.67 -6.32 9.34 -7 9 C-7 8.34 -7 7.68 -7 7 C-6.34 7 -5.68 7 -5 7 C-5 6.34 -5 5.68 -5 5 C-4.01 4.67 -3.02 4.34 -2 4 C-0.79117904 1.99983534 -0.79117904 1.99983534 0 0 Z " fill="#FAC957" transform="translate(111,146)"/>
<path d="M0 0 C1.20960661 0.00436926 1.20960661 0.00436926 2.44364971 0.00882679 C3.29388303 0.00797237 4.14411634 0.00711794 5.0201143 0.00623763 C7.89149251 0.00458021 10.76281331 0.01010845 13.63418621 0.01555592 C15.68356872 0.01583776 17.73295134 0.01568012 19.78233379 0.01511341 C25.36474994 0.01482532 30.9471448 0.02072395 36.52955598 0.02768737 C42.35654081 0.03391895 48.18352607 0.03452455 54.01051372 0.03571278 C65.05318376 0.03882667 76.09584394 0.04704084 87.13850963 0.05706227 C99.70661161 0.0682216 112.27471405 0.0737334 124.84281975 0.0787577 C150.70418891 0.08922341 176.56554931 0.10682397 202.42691082 0.12908131 C202.09691082 2.10908131 201.76691082 4.08908131 201.42691082 6.12908131 C200.10691082 6.45908131 198.78691082 6.78908131 197.42691082 7.12908131 C197.42691082 6.46908131 197.42691082 5.80908131 197.42691082 5.12908131 C198.41691082 4.46908131 199.40691082 3.80908131 200.42691082 3.12908131 C134.75691082 3.12908131 69.08691082 3.12908131 1.42691082 3.12908131 C7.44414814 10.0059698 7.44414814 10.0059698 13.73941082 16.56658131 C14.58116863 17.41091725 15.42292644 18.25525318 16.29019207 19.12517506 C18.26206212 21.16567837 18.26206212 21.16567837 20.42691082 22.12908131 C20.42691082 22.78908131 20.42691082 23.44908131 20.42691082 24.12908131 C21.41691082 24.45908131 22.40691082 24.78908131 23.42691082 25.12908131 C25.11779303 27.10865073 26.78521554 29.10853327 28.42691082 31.12908131 C29.08691082 31.45908131 29.74691082 31.78908131 30.42691082 32.12908131 C30.42691082 32.78908131 30.42691082 33.44908131 30.42691082 34.12908131 C31.08691082 34.12908131 31.74691082 34.12908131 32.42691082 34.12908131 C33.87222332 35.63298756 33.87222332 35.63298756 35.55191082 37.69158131 C38.72003944 41.44664744 42.12121318 44.58173788 45.92300457 47.68376881 C46.66743816 48.3991985 46.66743816 48.3991985 47.42691082 49.12908131 C47.42691082 49.78908131 47.42691082 50.44908131 47.42691082 51.12908131 C48.08691082 51.12908131 48.74691082 51.12908131 49.42691082 51.12908131 C49.42691082 51.78908131 49.42691082 52.44908131 49.42691082 53.12908131 C50.08691082 53.12908131 50.74691082 53.12908131 51.42691082 53.12908131 C53.04800457 54.80876881 53.04800457 54.80876881 54.86441082 57.00408131 C57.01091965 59.59101852 58.59467643 61.24092505 61.42691082 63.12908131 C61.42691082 63.78908131 61.42691082 64.44908131 61.42691082 65.12908131 C62.08691082 65.12908131 62.74691082 65.12908131 63.42691082 65.12908131 C65.05191082 66.50408131 65.05191082 66.50408131 66.42691082 68.12908131 C66.42691082 68.78908131 66.42691082 69.44908131 66.42691082 70.12908131 C67.08691082 70.12908131 67.74691082 70.12908131 68.42691082 70.12908131 C69.87222332 71.66814381 69.87222332 71.66814381 71.55191082 73.75408131 C77.11702631 80.28905096 84.71008326 86.53368757 93.11441082 88.87908131 C98.21776896 89.26424041 103.3119562 89.20357094 108.42691082 89.12908131 C105.84214769 91.71384444 104.77516309 91.42714982 101.17691082 91.44158131 C83.87131004 91.14862072 83.87131004 91.14862072 78.65347332 86.57439381 C78.04632488 85.85896412 78.04632488 85.85896412 77.42691082 85.12908131 C76.74628582 84.86095631 76.06566082 84.59283131 75.36441082 84.31658131 C73.42691082 83.12908131 73.42691082 83.12908131 72.78628582 80.56267506 C70.83528712 75.63472144 67.49765065 72.65726664 63.73941082 69.00408131 C63.0439616 68.30154225 62.34851238 67.59900318 61.63198894 66.87517506 C57.48858632 62.78206584 53.57871194 59.82703202 48.42691082 57.12908131 C45.98941082 55.00408131 45.98941082 55.00408131 44.42691082 53.12908131 C44.42691082 52.46908131 44.42691082 51.80908131 44.42691082 51.12908131 C43.10691082 50.79908131 41.78691082 50.46908131 40.42691082 50.12908131 C39.93191082 51.11908131 39.93191082 51.11908131 39.42691082 52.12908131 C38.93191082 49.15908131 38.93191082 49.15908131 38.42691082 46.12908131 C37.29253582 45.81970631 36.15816082 45.51033131 34.98941082 45.19158131 C31.42691082 44.12908131 31.42691082 44.12908131 30.42691082 43.12908131 C29.76691082 44.44908131 29.10691082 45.76908131 28.42691082 47.12908131 C27.43691082 47.12908131 26.44691082 47.12908131 25.42691082 47.12908131 C25.42691082 47.78908131 25.42691082 48.44908131 25.42691082 49.12908131 C24.76691082 49.12908131 24.10691082 49.12908131 23.42691082 49.12908131 C24.08691082 49.78908131 24.74691082 50.44908131 25.42691082 51.12908131 C26.08691082 52.11908131 26.74691082 53.10908131 27.42691082 54.12908131 C26.93191082 55.11908131 26.93191082 55.11908131 26.42691082 56.12908131 C27.08691082 56.12908131 27.74691082 56.12908131 28.42691082 56.12908131 C28.46816082 56.74783131 28.50941082 57.36658131 28.55191082 58.00408131 C28.98503582 59.05595631 28.98503582 59.05595631 29.42691082 60.12908131 C32.42307028 61.43364691 32.42307028 61.43364691 35.42691082 62.12908131 C35.42691082 62.78908131 35.42691082 63.44908131 35.42691082 64.12908131 C36.41691082 64.12908131 37.40691082 64.12908131 38.42691082 64.12908131 C38.42691082 62.80908131 38.42691082 61.48908131 38.42691082 60.12908131 C39.41691082 60.62408131 39.41691082 60.62408131 40.42691082 61.12908131 C40.09691082 62.11908131 39.76691082 63.10908131 39.42691082 64.12908131 C40.41691082 64.45908131 41.40691082 64.78908131 42.42691082 65.12908131 C41.43691082 65.78908131 40.44691082 66.44908131 39.42691082 67.12908131 C40.41691082 68.11908131 40.41691082 68.11908131 41.42691082 69.12908131 C41.80191082 71.50408131 41.80191082 71.50408131 41.42691082 74.12908131 C40.13725906 75.50470985 38.80001789 76.83674524 37.42691082 78.12908131 C37.15878582 78.91283131 36.89066082 79.69658131 36.61441082 80.50408131 C34.1461979 85.96013091 28.527507 89.29541676 23.42691082 92.12908131 C22.43691082 92.78908131 21.44691082 93.44908131 20.42691082 94.12908131 C21.84803064 90.8570219 23.56227069 88.80942635 26.15737957 86.37908131 C26.87732097 85.68814381 27.59726238 84.99720631 28.33902019 84.28533131 C29.86213271 82.84196975 31.39084567 81.40449629 32.92495769 79.97283131 C33.64103191 79.28189381 34.35710613 78.59095631 35.09487957 77.87908131 C35.75769939 77.25517506 36.42051922 76.63126881 37.10342449 75.98845631 C38.6675628 74.21728613 38.6675628 74.21728613 38.23696941 71.99675709 C37.20358376 69.61417714 35.91059718 68.58315846 33.86441082 67.00408131 C31.92300457 65.49626881 31.92300457 65.49626881 30.42691082 64.12908131 C30.42691082 63.46908131 30.42691082 62.80908131 30.42691082 62.12908131 C29.82878582 61.86095631 29.23066082 61.59283131 28.61441082 61.31658131 C26.42843228 60.12990725 25.01358488 59.03309018 23.42691082 57.12908131 C23.42691082 56.46908131 23.42691082 55.80908131 23.42691082 55.12908131 C22.76691082 55.12908131 22.10691082 55.12908131 21.42691082 55.12908131 C18.80191082 52.75408131 18.80191082 52.75408131 16.42691082 50.12908131 C16.42691082 49.46908131 16.42691082 48.80908131 16.42691082 48.12908131 C15.89066082 47.92283131 15.35441082 47.71658131 14.80191082 47.50408131 C11.50713073 45.59657705 8.83327454 43.08088747 6.42691082 40.12908131 C6.42691082 39.46908131 6.42691082 38.80908131 6.42691082 38.12908131 C5.76691082 38.12908131 5.10691082 38.12908131 4.42691082 38.12908131 C4.42691082 37.46908131 4.42691082 36.80908131 4.42691082 36.12908131 C2.94191082 35.63408131 2.94191082 35.63408131 1.42691082 35.12908131 C1.42691082 34.46908131 1.42691082 33.80908131 1.42691082 33.12908131 C0.76691082 33.12908131 0.10691082 33.12908131 -0.57308918 33.12908131 C-0.57308918 32.46908131 -0.57308918 31.80908131 -0.57308918 31.12908131 C-1.21246418 30.86095631 -1.85183918 30.59283131 -2.51058918 30.31658131 C-4.57308918 29.12908131 -4.57308918 29.12908131 -5.57308918 26.12908131 C-6.15058918 25.84033131 -6.72808918 25.55158131 -7.32308918 25.25408131 C-10.32943947 23.75090616 -12.24562608 21.5259059 -14.57308918 19.12908131 C-14.58855038 20.97831448 -14.58855038 20.97831448 -14.60432392 22.86490589 C-14.70222625 34.50262066 -14.80497563 46.14028397 -14.91242844 57.77791458 C-14.96751168 63.76043066 -15.0209077 69.74295174 -15.07040364 75.72551686 C-15.1182633 81.50271439 -15.17061271 87.27985563 -15.22602993 93.05698544 C-15.24635598 95.25728214 -15.26508454 97.45759421 -15.2821632 99.65791851 C-15.30642439 102.74789038 -15.33644744 105.83775798 -15.36776692 108.92766529 C-15.37352238 109.83038166 -15.37927784 110.73309803 -15.38520771 111.66316944 C-15.44889844 117.21831831 -15.87775255 122.61624028 -16.57308918 128.12908131 C-14.59308918 127.63408131 -14.59308918 127.63408131 -12.57308918 127.12908131 C-12.57308918 127.78908131 -12.57308918 128.44908131 -12.57308918 129.12908131 C-15.54308918 130.11908131 -15.54308918 130.11908131 -18.57308918 131.12908131 C-18.57308918 92.51908131 -18.57308918 53.90908131 -18.57308918 14.12908131 C-12.57308918 15.12908131 -12.57308918 15.12908131 -10.69808918 17.19158131 C-10.32683918 17.83095631 -9.95558918 18.47033131 -9.57308918 19.12908131 C-5.2923792 15.35314172 -5.2923792 15.35314172 -3.57308918 10.12908131 C-4.89308918 10.12908131 -6.21308918 10.12908131 -7.57308918 10.12908131 C-7.57308918 9.46908131 -7.57308918 8.80908131 -7.57308918 8.12908131 C-6.58308918 8.12908131 -5.59308918 8.12908131 -4.57308918 8.12908131 C-5.23308918 5.81908131 -5.89308918 3.50908131 -6.57308918 1.12908131 C-4.78688395 -0.65712392 -2.3784233 0.00651798 0 0 Z " fill="#F8CF6A" transform="translate(80.57308918237686,103.8709186911583)"/>
<path d="M0 0 C2.25242004 1.75743691 2.94608633 2.63882412 3.37473011 5.51037407 C3.37456237 6.51877405 3.37439463 7.52717403 3.3742218 8.56613159 C3.38123611 9.72418304 3.38825043 10.8822345 3.39547729 12.07537842 C3.38783356 13.34713928 3.38018982 14.61890015 3.37231445 15.92919922 C3.37474227 17.28112061 3.3784615 18.6330402 3.38337708 19.98495483 C3.39279296 23.65864509 3.383354 27.33206923 3.37004495 31.00573874 C3.35873545 34.84978371 3.36283769 38.69381548 3.36479187 42.53787231 C3.36567522 48.99583282 3.35458775 55.45368845 3.33618164 61.91162109 C3.31503127 69.37506872 3.31150009 76.83836247 3.3177436 84.30183399 C3.32344216 91.48168077 3.31778464 98.66147343 3.30657005 105.84131241 C3.30192876 108.89622118 3.30104821 111.95109681 3.3031559 115.00600815 C3.30504211 118.6060502 3.29690936 122.20593609 3.2810955 125.80594254 C3.2748407 127.75513984 3.27835631 129.70436084 3.28216553 131.65356445 C3.27508072 132.81725555 3.26799591 133.98094666 3.26069641 135.17990112 C3.25864354 136.18905516 3.25659067 137.19820919 3.25447559 138.23794365 C2.91469657 141.92587617 2.07508217 144.87199927 -0.5078125 147.58203125 C-2.00520833 148.72135417 -3.50260417 149.86067708 -5 151 C-4.62403791 148.21788056 -4.32681541 146.4120716 -2.5625 144.1875 C-1 143 -1 143 1 143 C1 141.02 1 139.04 1 137 C0.01 136.67 -0.98 136.34 -2 136 C-2.66 135.01 -3.32 134.02 -4 133 C-4.66 133 -5.32 133 -6 133 C-6 90.76 -6 48.52 -6 5 C-5.01 5 -4.02 5 -3 5 C-2.67 4.01 -2.34 3.02 -2 2 C-1.34 2 -0.68 2 0 2 C0 1.34 0 0.68 0 0 Z " fill="#F9C957" transform="translate(312,107)"/>
<path d="M0 0 C1.35414123 -0.00573832 1.35414123 -0.00573832 2.73563886 -0.01159257 C5.76768609 -0.02192994 8.79954419 -0.01792885 11.831604 -0.01396179 C14.00325191 -0.01830818 16.17489828 -0.02349108 18.34654236 -0.02944946 C24.2542334 -0.04286699 30.16186055 -0.04341445 36.06956387 -0.04088616 C41.00660888 -0.03981708 45.94364094 -0.04469888 50.88068318 -0.04949158 C63.20739775 -0.06123446 75.53407698 -0.06035659 87.86079398 -0.05393478 C99.19724787 -0.04846058 110.53358098 -0.06239371 121.87001967 -0.08254749 C132.18789468 -0.10021198 142.50573243 -0.10615672 152.82362199 -0.10290974 C158.97997878 -0.1011025 165.13625188 -0.10367597 171.29259491 -0.11762428 C177.09400275 -0.13027482 182.89522898 -0.12819057 188.69663429 -0.11521339 C190.81526821 -0.11286271 192.93391518 -0.11552754 195.0525341 -0.12383652 C224.83402982 -0.23212168 224.83402982 -0.23212168 232.50822067 4.80001354 C240.96391818 13.52316133 242.90417248 25.2211728 242.77593994 36.85688782 C242.78148895 38.15930923 242.78703796 39.46173065 242.79275513 40.80361938 C242.80686569 44.3388803 242.79008072 47.87335051 242.76646996 51.40853548 C242.74618797 55.12873137 242.7522493 58.84889993 242.75457764 62.56913757 C242.75452426 68.81118117 242.73488417 75.05292006 242.70269775 81.2948761 C242.66578122 88.48865625 242.6570288 95.68203833 242.66399527 102.87590086 C242.67032162 109.82885977 242.65950875 116.78168371 242.64002991 123.73461533 C242.63190272 126.67933974 242.62913763 129.62399473 242.63072205 132.5687294 C242.63177211 136.6871182 242.60748069 140.8049927 242.58062744 144.92329407 C242.58355804 146.13083847 242.58648865 147.33838287 242.58950806 148.58251953 C242.48049363 159.4583776 240.4404067 168.88904011 233.16070557 177.26069641 C222.59824525 186.75764538 206.1477829 184.54754165 192.96710205 184.51948547 C190.82409547 184.52219879 188.68108983 184.52576163 186.53808594 184.53010559 C180.74277273 184.53919078 174.94753106 184.53570147 169.15221667 184.52934742 C163.07505275 184.52426802 156.99789477 184.5289842 150.92073059 184.53211975 C140.71824041 184.53575346 130.51577923 184.53097561 120.31329346 184.5214386 C108.53157905 184.5105523 96.74993386 184.51408333 84.96822113 184.52509141 C74.83628608 184.53417773 64.70437182 184.53544306 54.57243401 184.53021407 C48.52817625 184.52710216 42.483951 184.52666369 36.43969536 184.53328705 C30.7572545 184.53907954 25.0749026 184.53502876 19.39247131 184.52349854 C17.3116273 184.52086226 15.23077575 184.52159933 13.14993477 184.52602386 C10.30096242 184.53152155 7.45227186 184.52459429 4.60331726 184.5146637 C3.38008834 184.52135586 3.38008834 184.52135586 2.13214773 184.52818322 C-5.51851555 184.47676249 -13.55832226 183.8349295 -19.96429443 179.32319641 C-20.70937256 178.81917297 -21.45445068 178.31514954 -22.22210693 177.79585266 C-22.75577881 177.2892511 -23.28945068 176.78264954 -23.83929443 176.26069641 C-23.83929443 175.27069641 -23.83929443 174.28069641 -23.83929443 173.26069641 C-22.24424235 174.46512349 -20.64919027 175.66955058 -19.05413818 176.87397766 C-12.76173027 180.81366868 -7.78619948 181.69897938 -0.49169922 181.64164734 C0.42940336 181.64632731 1.35050595 181.65100728 2.29952073 181.65582907 C5.37546728 181.66776223 8.45096691 181.65832815 11.5269165 181.64888 C13.73667663 181.65294655 15.94643472 181.6582889 18.15618896 181.66481018 C24.15224032 181.67848275 30.14813674 181.67318443 36.14419079 181.66367292 C42.4251109 181.65607228 48.70601784 181.66312342 54.98693848 181.66783142 C66.21449514 181.67363895 77.44198805 181.66431759 88.66952971 181.64905341 C98.83231335 181.63566387 108.99499411 181.63796799 119.15777588 181.65180969 C130.97485503 181.66789714 142.79188439 181.67382181 154.6089766 181.6649729 C160.85846058 181.66030467 167.10787383 181.65964784 173.35735321 181.66958237 C179.23758967 181.67827674 185.11763283 181.67218488 190.99784851 181.6548996 C193.15083242 181.65094723 195.30383271 181.65204727 197.45681 181.65868759 C214.43098903 182.60346031 214.43098903 182.60346031 229.33694077 176.281744 C231.07999644 174.35013611 232.6116416 172.34856524 234.16070557 170.26069641 C234.67633057 169.82757141 235.19195557 169.39444641 235.72320557 168.94819641 C240.6304513 163.18751664 239.44951645 154.16473198 239.43536377 147.12446594 C239.4404747 145.81141479 239.44558563 144.49836365 239.45085144 143.14552307 C239.46419245 139.55864226 239.46482555 135.97186714 239.46228814 132.38496637 C239.461215 129.3831784 239.46611061 126.3814115 239.47089356 123.37962806 C239.48197202 116.29358127 239.48243566 109.2075875 239.47637939 102.12153625 C239.47034171 94.82846394 239.48264914 87.53558464 239.50394946 80.24254525 C239.52160374 73.96544519 239.52756077 67.68840637 239.52431172 61.41128242 C239.52250465 57.66912004 239.52507702 53.92709534 239.53902626 50.1849556 C239.55401347 46.00841626 239.54460114 41.83226614 239.53302002 37.65571594 C239.54066376 36.4273703 239.5483075 35.19902466 239.55618286 33.93345642 C239.5000714 24.76130773 238.31928469 16.44570538 232.16070557 9.26069641 C227.36192392 6.54440491 223.63487514 5.92554317 218.16070557 6.26069641 C217.83070557 5.60069641 217.50070557 4.94069641 217.16070557 4.26069641 C212.58152592 2.84601556 207.76368255 3.10787031 203.01756287 3.10247803 C202.09449146 3.09754005 201.17142006 3.09260207 200.22037679 3.08751446 C197.12651357 3.0721531 194.03267109 3.0637825 190.93878174 3.05537415 C188.72132179 3.04579456 186.50386368 3.03578443 184.28640747 3.02537537 C178.26418 2.99832904 172.2419447 2.97731796 166.21969008 2.95737338 C159.92692749 2.93551219 153.63418904 2.90812414 147.34144592 2.88131714 C136.77868706 2.83706663 126.21591925 2.79623106 115.65313721 2.75801086 C104.77422112 2.71863742 93.89531607 2.67720677 83.01641846 2.63301086 C82.34565807 2.63028659 81.67489768 2.62756232 80.98381122 2.62475549 C77.61874822 2.61107571 74.25368539 2.5973555 70.88862264 2.58361518 C42.97933955 2.469798 15.07003322 2.36295835 -12.83929443 2.26069641 C-8.88917124 -0.4236859 -4.581389 -0.02048778 0 0 Z " fill="#FEFCEB" transform="translate(75.83929443359375,84.73930358886719)"/>
<path d="M0 0 C3.77312005 -0.35098791 5.53511035 -0.30640454 8.75 1.8125 C11 4 11 4 13 7 C13 7.99 13 8.98 13 10 C13.99 10.33 14.98 10.66 16 11 C17.66666667 12.66666667 19.33333333 14.33333333 21 16 C22.63377642 17.05287814 24.29181597 18.0727001 26 19 C25.34 19.33 24.68 19.66 24 20 C21.6171875 18.85546875 21.6171875 18.85546875 18.875 17.1875 C17.96492188 16.64480469 17.05484375 16.10210937 16.1171875 15.54296875 C15.41851562 15.03378906 14.71984375 14.52460938 14 14 C14 13.34 14 12.68 14 12 C13.34 12 12.68 12 12 12 C12 11.34 12 10.68 12 10 C11.01 9.67 10.02 9.34 9 9 C9 8.34 9 7.68 9 7 C8.34 7 7.68 7 7 7 C7 6.34 7 5.68 7 5 C3.16887671 5.56138806 1.44686495 7.20143262 -1.22265625 9.9296875 C-2.00833984 10.72503906 -2.79402344 11.52039063 -3.60351562 12.33984375 C-4.41498047 13.17644531 -5.22644531 14.01304687 -6.0625 14.875 C-7.28549805 16.11830078 -7.28549805 16.11830078 -8.53320312 17.38671875 C-10.04908795 18.928761 -11.56187394 20.47385994 -13.07055664 22.02294922 C-13.70727295 22.67537598 -14.34398926 23.32780273 -15 24 C-15.80715454 24.87229248 -15.80715454 24.87229248 -16.63061523 25.76220703 C-18 27 -18 27 -20 27 C-20 27.66 -20 28.32 -20 29 C-20.66 29 -21.32 29 -22 29 C-22.495 30.485 -22.495 30.485 -23 32 C-23.66 32 -24.32 32 -25 32 C-25 32.66 -25 33.32 -25 34 C-25.66 34 -26.32 34 -27 34 C-27 34.66 -27 35.32 -27 36 C-27.66 36 -28.32 36 -29 36 C-29.2475 36.5775 -29.495 37.155 -29.75 37.75 C-31.18299988 40.32939979 -32.78424676 42.06121592 -35 44 C-35.66 44 -36.32 44 -37 44 C-37 44.66 -37 45.32 -37 46 C-37.66 46 -38.32 46 -39 46 C-39 46.66 -39 47.32 -39 48 C-40.375 49.625 -40.375 49.625 -42 51 C-42.66 51 -43.32 51 -44 51 C-44 51.66 -44 52.32 -44 53 C-45.64453125 54.76171875 -45.64453125 54.76171875 -47.8125 56.6875 C-48.52019531 57.33074219 -49.22789063 57.97398437 -49.95703125 58.63671875 C-50.63121094 59.08660156 -51.30539063 59.53648437 -52 60 C-52.99 59.67 -53.98 59.34 -55 59 C-54.52054932 58.53625977 -54.04109863 58.07251953 -53.54711914 57.59472656 C-51.37773106 55.48772714 -49.22008101 53.36908551 -47.0625 51.25 C-46.30775391 50.52039063 -45.55300781 49.79078125 -44.77539062 49.0390625 C-44.05673828 48.33007812 -43.33808594 47.62109375 -42.59765625 46.890625 C-41.93258057 46.24125977 -41.26750488 45.59189453 -40.58227539 44.92285156 C-38.89932397 42.87765401 -38.51003083 41.55316021 -38 39 C-36.4375 37.25 -36.4375 37.25 -35 36 C-35.66 36 -36.32 36 -37 36 C-37 35.34 -37 34.68 -37 34 C-38.65 34 -40.3 34 -42 34 C-42 32.68 -42 31.36 -42 30 C-42.66 30 -43.32 30 -44 30 C-44 29.34 -44 28.68 -44 28 C-44.66 28.66 -45.32 29.32 -46 30 C-45.67 30.66 -45.34 31.32 -45 32 C-48.37097383 33.49821059 -50.20442119 34 -54 34 C-54 32 -54 32 -52.625 30.375 C-51 29 -51 29 -49 29 C-49 28.34 -49 27.68 -49 27 C-47.625 25.375 -47.625 25.375 -46 24 C-45.34 24 -44.68 24 -44 24 C-43.77570313 23.44828125 -43.55140625 22.8965625 -43.3203125 22.328125 C-41.59614817 19.28788256 -39.37484178 17.18574327 -36.875 14.75 C-35.96492188 13.85796875 -35.05484375 12.9659375 -34.1171875 12.046875 C-33.41851562 11.37140625 -32.71984375 10.6959375 -32 10 C-31.34 10.33 -30.68 10.66 -30 11 C-30.99 11.99 -31.98 12.98 -33 14 C-32.38125 14.12375 -31.7625 14.2475 -31.125 14.375 C-29 15 -29 15 -27 17 C-25.01178687 17.39764263 -23.01055661 17.73775349 -21 18 C-21 18.66 -21 19.32 -21 20 C-20.34 20 -19.68 20 -19 20 C-18.34 18.68 -17.68 17.36 -17 16 C-16.01 16 -15.02 16 -14 16 C-13.67 15.01 -13.34 14.02 -13 13 C-12.34 13 -11.68 13 -11 13 C-11 12.01 -11 11.02 -11 10 C-9.68 10 -8.36 10 -7 10 C-6.67 9.01 -6.34 8.02 -6 7 C-4.5625 5.3125 -4.5625 5.3125 -3 4 C-2.34 4 -1.68 4 -1 4 C-0.67 2.68 -0.34 1.36 0 0 Z " fill="#F9C958" transform="translate(131,188)"/>
<path d="M0 0 C68.31 0 136.62 0 207 0 C206.67 1.98 206.34 3.96 206 6 C204.68 6.33 203.36 6.66 202 7 C202 6.34 202 5.68 202 5 C202.99 4.34 203.98 3.68 205 3 C139.33 3 73.66 3 6 3 C12.01723732 9.8768885 12.01723732 9.8768885 18.3125 16.4375 C19.15425781 17.28183594 19.99601562 18.12617187 20.86328125 18.99609375 C22.8351513 21.03659707 22.8351513 21.03659707 25 22 C25 22.66 25 23.32 25 24 C25.99 24.33 26.98 24.66 28 25 C29.69088222 26.97956942 31.35830472 28.97945196 33 31 C33.66 31.33 34.32 31.66 35 32 C35 32.66 35 33.32 35 34 C35.66 34 36.32 34 37 34 C38.4453125 35.50390625 38.4453125 35.50390625 40.125 37.5625 C43.29312862 41.31756613 46.69430236 44.45265657 50.49609375 47.5546875 C50.99238281 48.03164062 51.48867187 48.50859375 52 49 C52 49.66 52 50.32 52 51 C52.66 51 53.32 51 54 51 C54 51.66 54 52.32 54 53 C54.66 53 55.32 53 56 53 C57.62109375 54.6796875 57.62109375 54.6796875 59.4375 56.875 C61.58400884 59.46193722 63.16776562 61.11184374 66 63 C66 63.66 66 64.32 66 65 C66.66 65 67.32 65 68 65 C69.625 66.375 69.625 66.375 71 68 C71 68.66 71 69.32 71 70 C71.66 70 72.32 70 73 70 C74.4453125 71.5390625 74.4453125 71.5390625 76.125 73.625 C81.69011549 80.15996965 89.28317244 86.40460626 97.6875 88.75 C102.79085814 89.13515911 107.88504539 89.07448963 113 89 C110.41523687 91.58476313 109.34825227 91.29806851 105.75 91.3125 C88.44439922 91.01953941 88.44439922 91.01953941 83.2265625 86.4453125 C82.61941406 85.72988281 82.61941406 85.72988281 82 85 C81.319375 84.731875 80.63875 84.46375 79.9375 84.1875 C78 83 78 83 77.17822266 80.24511719 C75.79762865 76.44261914 74.11469772 74.68189479 71.2109375 71.890625 C70.26992187 70.97152344 69.32890625 70.05242187 68.359375 69.10546875 C67.3652601 68.15293902 66.37046004 67.20112388 65.375 66.25 C63.41809493 64.36573666 61.46963208 62.47352604 59.5234375 60.578125 C58.65638184 59.74700195 57.78932617 58.91587891 56.89599609 58.05957031 C55 56 55 56 55 54 C54.42535507 53.75067215 53.85071014 53.5013443 53.25865173 53.24446106 C50.67138935 51.81894369 48.94358792 50.18376581 46.86157227 48.08862305 C46.05716202 47.28406174 45.25275177 46.47950043 44.42396545 45.65055847 C43.56347092 44.77974136 42.70297638 43.90892426 41.81640625 43.01171875 C40.92388657 42.11636917 40.03136688 41.22101959 39.11180115 40.29853821 C36.74115451 37.91859395 34.37492677 35.53442385 32.01074219 33.14807129 C29.61686714 30.73381683 27.21740603 28.32512919 24.81835938 25.91601562 C20.53800452 21.61579421 16.26118719 17.31211326 11.9914856 13.00131226 C10.41631556 11.4183698 8.82593465 9.85056467 7.23022461 8.28833008 C4.67134213 5.6627794 2.34707666 2.81649199 0 0 Z " fill="#FEFEF1" transform="translate(76,104)"/>
<path d="M0 0 C1.37107481 -0.00256327 1.37107481 -0.00256327 2.76984811 -0.00517833 C5.83925936 -0.00847823 8.90845305 0.00253877 11.97784424 0.01345825 C14.17545059 0.01402226 16.37305732 0.01370602 18.57066345 0.01257324 C24.54340947 0.01199831 30.51607551 0.02377533 36.48880291 0.03772116 C42.72816757 0.05020515 48.96753396 0.05139717 55.20690918 0.05377197 C65.68151137 0.05928627 76.15608877 0.07178734 86.63067627 0.08963013 C97.41941175 0.10798894 108.20813926 0.12214544 118.99688721 0.13064575 C119.66193633 0.1311712 120.32698545 0.13169665 121.01218757 0.13223802 C124.34855287 0.1348481 127.68491823 0.137371 131.02128363 0.13986182 C158.69855608 0.16077929 186.37579575 0.19596853 214.05303955 0.24050903 C214.05303955 0.90050903 214.05303955 1.56050903 214.05303955 2.24050903 C215.04303955 2.15800903 216.03303955 2.07550903 217.05303955 1.99050903 C221.68716022 1.95260212 225.12938621 3.95765618 229.05303955 6.24050903 C228.39303955 6.57050903 227.73303955 6.90050903 227.05303955 7.24050903 C226.06303955 6.74550903 226.06303955 6.74550903 225.05303955 6.24050903 C222.72005295 6.20028513 220.3859729 6.19730656 218.05303955 6.24050903 C217.72303955 5.58050903 217.39303955 4.92050903 217.05303955 4.24050903 C212.4738599 2.82582818 207.65601654 3.08768293 202.90989685 3.08229065 C201.98682545 3.07735267 201.06375404 3.0724147 200.11271077 3.06732708 C197.01884756 3.05196573 193.92500507 3.04359512 190.83111572 3.03518677 C188.61365578 3.02560718 186.39619766 3.01559705 184.17874146 3.00518799 C178.15651399 2.97814166 172.13427868 2.95713058 166.11202407 2.937186 C159.81926148 2.91532481 153.52652303 2.88793676 147.23377991 2.86112976 C136.67102104 2.81687925 126.10825324 2.77604368 115.54547119 2.73782349 C104.6665551 2.69845004 93.78765005 2.65701939 82.90875244 2.61282349 C82.23799205 2.61009921 81.56723167 2.60737494 80.87614521 2.60456812 C77.51108221 2.59088833 74.14601938 2.57716812 70.78095663 2.56342781 C42.87167353 2.44961062 14.96236721 2.34277098 -12.94696045 2.24050903 C-8.69053176 -0.15217776 -4.77788393 -0.03251572 0 0 Z " fill="#F8E7BC" transform="translate(75.94696044921875,84.75949096679688)"/>
<path d="M0 0 C1.34313399 0.64669414 2.67391178 1.31903578 4 2 C4.804375 2.37125 5.60875 2.7425 6.4375 3.125 C9.53155617 5.38894354 10.83543536 7.7913363 12.734375 11.06640625 C14.41140271 13.62853192 16.53557963 15.22014084 19 17 C19.33 17.66 19.66 18.32 20 19 C22.52733235 19.65555119 22.52733235 19.65555119 25 20 C25 20.66 25 21.32 25 22 C25.99 22 26.98 22 28 22 C28.2475 21.21625 28.495 20.4325 28.75 19.625 C30.19745174 16.58535135 31.02642598 16.30093863 34 15 C34.66 14.01 35.32 13.02 36 12 C35.34 11.67 34.68 11.34 34 11 C34 10.34 34 9.68 34 9 C32.68 8.67 31.36 8.34 30 8 C29.67 8.66 29.34 9.32 29 10 C27.875 4.25 27.875 4.25 29 2 C51.13745117 24.13745117 51.13745117 24.13745117 52.58651733 25.59042358 C53.98519051 26.98523143 55.39745303 28.36636884 56.80981445 29.74731445 C59 32 59 32 60 34 C56.04322598 32.32598022 53.15535787 29.86850715 50 27 C50 26.34 50 25.68 50 25 C48.68 24.67 47.36 24.34 46 24 C45.67 24.66 45.34 25.32 45 26 C44.505 23.03 44.505 23.03 44 20 C42.865625 19.690625 41.73125 19.38125 40.5625 19.0625 C37 18 37 18 36 17 C35.34 18.32 34.68 19.64 34 21 C33.01 21 32.02 21 31 21 C31 21.66 31 22.32 31 23 C30.34 23 29.68 23 29 23 C29.66 23.66 30.32 24.32 31 25 C31.66 25.99 32.32 26.98 33 28 C32.67 28.66 32.34 29.32 32 30 C32.66 30 33.32 30 34 30 C34.04125 30.61875 34.0825 31.2375 34.125 31.875 C34.558125 32.926875 34.558125 32.926875 35 34 C37.99615946 35.3045656 37.99615946 35.3045656 41 36 C41 36.66 41 37.32 41 38 C41.99 38 42.98 38 44 38 C44 36.68 44 35.36 44 34 C44.99 34.495 44.99 34.495 46 35 C45.67 35.99 45.34 36.98 45 38 C45.99 38.33 46.98 38.66 48 39 C47.01 39.66 46.02 40.32 45 41 C45.66 41.66 46.32 42.32 47 43 C47.375 45.375 47.375 45.375 47 48 C45.71034824 49.37562854 44.37310707 50.70766393 43 52 C42.731875 52.78375 42.46375 53.5675 42.1875 54.375 C39.71928708 59.83104961 34.10059618 63.16633545 29 66 C27.515 66.99 27.515 66.99 26 68 C27.42111983 64.7279406 29.13535987 62.68034504 31.73046875 60.25 C32.45041016 59.5590625 33.17035156 58.868125 33.91210938 58.15625 C35.43522189 56.71288844 36.96393485 55.27541498 38.49804688 53.84375 C39.21412109 53.1528125 39.93019531 52.461875 40.66796875 51.75 C41.33078857 51.12609375 41.9936084 50.5021875 42.67651367 49.859375 C44.24065198 48.08820482 44.24065198 48.08820482 43.81005859 45.86767578 C42.77667294 43.48509583 41.48368636 42.45407715 39.4375 40.875 C37.49609375 39.3671875 37.49609375 39.3671875 36 38 C36 37.34 36 36.68 36 36 C35.401875 35.731875 34.80375 35.46375 34.1875 35.1875 C32.00152146 34.00082594 30.58667406 32.90400887 29 31 C29 30.34 29 29.68 29 29 C28.34 29 27.68 29 27 29 C24.375 26.625 24.375 26.625 22 24 C22 23.34 22 22.68 22 22 C21.46375 21.79375 20.9275 21.5875 20.375 21.375 C17.08021991 19.46749574 14.40636372 16.95180616 12 14 C12 13.34 12 12.68 12 12 C11.34 12 10.68 12 10 12 C10 11.34 10 10.68 10 10 C9.01 9.67 8.02 9.34 7 9 C7 8.34 7 7.68 7 7 C6.34 7 5.68 7 5 7 C5 6.34 5 5.68 5 5 C4.360625 4.731875 3.72125 4.46375 3.0625 4.1875 C1 3 1 3 0 0 Z " fill="#F5CA61" transform="translate(75,130)"/>
<path d="M0 0 C0 38.28 0 76.56 0 116 C-0.99 115.67 -1.98 115.34 -3 115 C-2.34 114.67 -1.68 114.34 -1 114 C-1 77.37 -1 40.74 -1 3 C-2.65 4.65 -4.3 6.3 -6 8 C-7.71849568 9.70924253 -9.43769179 11.41778103 -11.1574707 13.12573242 C-16.09865393 18.03441423 -21.03488971 22.94803856 -25.96822834 27.864604 C-28.94698841 30.83287201 -31.92761538 33.79921695 -34.91235352 36.76147461 C-37.8077865 39.63524793 -40.69836887 42.51381739 -43.58559227 45.39583778 C-44.68630922 46.49285301 -45.78878794 47.5881034 -46.89303017 48.68157005 C-48.42983637 50.20394861 -49.96036096 51.7323791 -51.48950195 53.26245117 C-52.36266556 54.13117355 -53.23582916 54.99989594 -54.13545227 55.89494324 C-56.22101632 57.7808451 -56.22101632 57.7808451 -56 60 C-55.34 60.33 -54.68 60.66 -54 61 C-54 61.66 -54 62.32 -54 63 C-53.34 63 -52.68 63 -52 63 C-51.34 64.32 -50.68 65.64 -50 67 C-53.43752007 65.4722133 -56.18953688 63.49818944 -59 61 C-59 60.34 -59 59.68 -59 59 C-59.66 59 -60.32 59 -61 59 C-61 57.35 -61 55.7 -61 54 C-60.071875 53.731875 -59.14375 53.46375 -58.1875 53.1875 C-55.1688359 52.06289965 -54.0844857 51.29293427 -52 49 C-51.34 49 -50.68 49 -50 49 C-49.773125 48.4225 -49.54625 47.845 -49.3125 47.25 C-47.65599487 44.41027692 -45.57432012 43.04775464 -43 41 C-41.44037546 39.28441301 -39.9607584 37.51541008 -38.4765625 35.734375 C-36.44840296 33.35209237 -34.24054135 31.18157974 -32 29 C-31.278125 28.236875 -30.55625 27.47375 -29.8125 26.6875 C-28 25 -28 25 -26 25 C-25.7525 24.443125 -25.505 23.88625 -25.25 23.3125 C-22.35874196 17.96367262 -18.04141834 13.40383465 -13 10 C-12.01 10 -11.02 10 -10 10 C-9.85884766 9.11054687 -9.85884766 9.11054687 -9.71484375 8.203125 C-8.84054781 5.50857359 -7.73279682 4.53677244 -5.5625 2.75 C-4.63630859 1.96882813 -4.63630859 1.96882813 -3.69140625 1.171875 C-2 0 -2 0 0 0 Z " fill="#FCF4DC" transform="translate(298,118)"/>
<path d="M0 0 C16.17 0 32.34 0 49 0 C49 0.33 49 0.66 49 1 C34.81 1.33 20.62 1.66 6 2 C7.99752777 5.99505553 9.81121374 7.95427073 13 11 C13.85980469 11.87140625 14.71960938 12.7428125 15.60546875 13.640625 C16.45753906 14.50171875 17.30960938 15.3628125 18.1875 16.25 C19.04730469 17.12140625 19.90710938 17.9928125 20.79296875 18.890625 C22.81431066 21.02994238 22.81431066 21.02994238 25 22 C25 22.66 25 23.32 25 24 C25.99 24.33 26.98 24.66 28 25 C29.69088222 26.97956942 31.35830472 28.97945196 33 31 C33.66 31.33 34.32 31.66 35 32 C35 32.66 35 33.32 35 34 C35.66 34 36.32 34 37 34 C38.4453125 35.50390625 38.4453125 35.50390625 40.125 37.5625 C43.29312862 41.31756613 46.69430236 44.45265657 50.49609375 47.5546875 C50.99238281 48.03164062 51.48867187 48.50859375 52 49 C52 49.66 52 50.32 52 51 C52.66 51 53.32 51 54 51 C54 51.66 54 52.32 54 53 C54.66 53 55.32 53 56 53 C57.62109375 54.6796875 57.62109375 54.6796875 59.4375 56.875 C61.58400884 59.46193722 63.16776562 61.11184374 66 63 C66 63.66 66 64.32 66 65 C66.66 65 67.32 65 68 65 C69.625 66.375 69.625 66.375 71 68 C71 68.66 71 69.32 71 70 C71.66 70 72.32 70 73 70 C74.4453125 71.5390625 74.4453125 71.5390625 76.125 73.625 C81.69011549 80.15996965 89.28317244 86.40460626 97.6875 88.75 C102.79085814 89.13515911 107.88504539 89.07448963 113 89 C110.41523687 91.58476313 109.34825227 91.29806851 105.75 91.3125 C88.44439922 91.01953941 88.44439922 91.01953941 83.2265625 86.4453125 C82.61941406 85.72988281 82.61941406 85.72988281 82 85 C81.319375 84.731875 80.63875 84.46375 79.9375 84.1875 C78 83 78 83 77.17822266 80.24511719 C75.79762865 76.44261914 74.11469772 74.68189479 71.2109375 71.890625 C70.26992187 70.97152344 69.32890625 70.05242187 68.359375 69.10546875 C67.3652601 68.15293902 66.37046004 67.20112388 65.375 66.25 C63.41809493 64.36573666 61.46963208 62.47352604 59.5234375 60.578125 C58.65638184 59.74700195 57.78932617 58.91587891 56.89599609 58.05957031 C55 56 55 56 55 54 C54.42535507 53.75067215 53.85071014 53.5013443 53.25865173 53.24446106 C50.67138935 51.81894369 48.94358792 50.18376581 46.86157227 48.08862305 C46.05716202 47.28406174 45.25275177 46.47950043 44.42396545 45.65055847 C43.56347092 44.77974136 42.70297638 43.90892426 41.81640625 43.01171875 C40.92388657 42.11636917 40.03136688 41.22101959 39.11180115 40.29853821 C36.74115451 37.91859395 34.37492677 35.53442385 32.01074219 33.14807129 C29.61686714 30.73381683 27.21740603 28.32512919 24.81835938 25.91601562 C20.53800452 21.61579421 16.26118719 17.31211326 11.9914856 13.00131226 C10.41631556 11.4183698 8.82593465 9.85056467 7.23022461 8.28833008 C4.67134213 5.6627794 2.34707666 2.81649199 0 0 Z " fill="#FEF8E0" transform="translate(76,104)"/>
<path d="M0 0 C1.6510403 0.39553053 3.2958515 0.81713897 4.9375 1.25 C5.85402344 1.48203125 6.77054688 1.7140625 7.71484375 1.953125 C10 3 10 3 10.81640625 5.109375 C10.87699219 5.73328125 10.93757813 6.3571875 11 7 C12.32 7.33 13.64 7.66 15 8 C15 8.66 15 9.32 15 10 C15.99 10.33 16.98 10.66 18 11 C17.01 11.495 17.01 11.495 16 12 C14.86649466 14.01669827 14.86649466 14.01669827 14 16 C13.01 16 12.02 16 11 16 C10.01 18.475 10.01 18.475 9 21 C8.01 21 7.02 21 6 21 C6 20.34 6 19.68 6 19 C5.2575 19.103125 4.515 19.20625 3.75 19.3125 C1 19 1 19 -1.0625 16.75 C-1.701875 15.8425 -2.34125 14.935 -3 14 C-4.31494512 12.64852862 -5.64264858 11.30887458 -7 10 C-6.01 10 -5.02 10 -4 10 C-4 10.66 -4 11.32 -4 12 C-3.34 11.67 -2.68 11.34 -2 11 C-2 10.01 -2 9.02 -2 8 C-1.67 7.01 -1.34 6.02 -1 5 C-2.98 5.99 -4.96 6.98 -7 8 C-7.33 6.35 -7.66 4.7 -8 3 C-7.01 2.34 -6.02 1.68 -5 1 C-5.33 2.32 -5.66 3.64 -6 5 C-3.50447516 4.21869929 -3.50447516 4.21869929 -1 3 C-0.67 2.01 -0.34 1.02 0 0 Z " fill="#FACA56" transform="translate(94,131)"/>
<path d="M0 0 C3.04395069 2.73955562 5.44396229 5.18063472 7 9 C6.01 8.67 5.02 8.34 4 8 C4 7.34 4 6.68 4 6 C3.34 6 2.68 6 2 6 C2 5.34 2 4.68 2 4 C-1.83112329 4.56138806 -3.55313505 6.20143262 -6.22265625 8.9296875 C-7.00833984 9.72503906 -7.79402344 10.52039063 -8.60351562 11.33984375 C-9.41498047 12.17644531 -10.22644531 13.01304687 -11.0625 13.875 C-12.28549805 15.11830078 -12.28549805 15.11830078 -13.53320312 16.38671875 C-15.04908795 17.928761 -16.56187394 19.47385994 -18.07055664 21.02294922 C-18.70727295 21.67537598 -19.34398926 22.32780273 -20 23 C-20.80715454 23.87229248 -20.80715454 23.87229248 -21.63061523 24.76220703 C-23 26 -23 26 -25 26 C-25 26.66 -25 27.32 -25 28 C-25.66 28 -26.32 28 -27 28 C-27.495 29.485 -27.495 29.485 -28 31 C-28.66 31 -29.32 31 -30 31 C-30 31.66 -30 32.32 -30 33 C-30.66 33 -31.32 33 -32 33 C-32 33.66 -32 34.32 -32 35 C-32.66 35 -33.32 35 -34 35 C-34.2475 35.5775 -34.495 36.155 -34.75 36.75 C-36.18299988 39.32939979 -37.78424676 41.06121592 -40 43 C-40.66 43 -41.32 43 -42 43 C-42 43.66 -42 44.32 -42 45 C-42.66 45 -43.32 45 -44 45 C-44 45.66 -44 46.32 -44 47 C-45.375 48.625 -45.375 48.625 -47 50 C-47.66 50 -48.32 50 -49 50 C-49 50.66 -49 51.32 -49 52 C-50.64453125 53.76171875 -50.64453125 53.76171875 -52.8125 55.6875 C-53.52019531 56.33074219 -54.22789063 56.97398437 -54.95703125 57.63671875 C-55.63121094 58.08660156 -56.30539063 58.53648437 -57 59 C-57.99 58.67 -58.98 58.34 -60 58 C-11 9 -11 9 -8.32011414 6.32792664 C-6.79784512 4.80053169 -5.29440602 3.25408636 -3.8125 1.6875 C-2 0 -2 0 0 0 Z " fill="#FEF6DA" transform="translate(136,189)"/>
<path d="M0 0 C1.32 0.33 2.64 0.66 4 1 C4.33 1.66 4.66 2.32 5 3 C4.34 3 3.68 3 3 3 C2.9845388 4.84923317 2.9845388 4.84923317 2.96876526 6.73582458 C2.87086293 18.37353935 2.76811355 30.01120266 2.66066074 41.64883327 C2.6055775 47.63134935 2.55218148 53.61387043 2.50268555 59.59643555 C2.45482588 65.37363308 2.40247647 71.15077432 2.34705925 76.92790413 C2.3267332 79.12820083 2.30800464 81.3285129 2.29092598 83.5288372 C2.26666479 86.61880907 2.23664175 89.70867668 2.20532227 92.79858398 C2.1995668 93.70130035 2.19381134 94.60401672 2.18788147 95.53408813 C2.12419074 101.089237 1.69533663 106.48715897 1 112 C2.98 111.505 2.98 111.505 5 111 C5 111.66 5 112.32 5 113 C2.525 113.495 2.525 113.495 0 114 C0 76.38 0 38.76 0 0 Z " fill="#FEFCF0" transform="translate(63,120)"/>
<path d="M0 0 C3.53586843 0.57760323 5.20958289 1.8272067 7.6875 4.375 C8.28949219 4.98085937 8.89148438 5.58671875 9.51171875 6.2109375 C11 8 11 8 12 11 C11.34 11 10.68 11 10 11 C8.4921875 9.46875 8.4921875 9.46875 6.875 7.5 C6.33617187 6.8503125 5.79734375 6.200625 5.2421875 5.53125 C4.83226562 5.0259375 4.42234375 4.520625 4 4 C0.71772977 5.41701534 -1.22893771 7.11942949 -3.625 9.75 C-13.10876636 19.4265971 -26.35246616 25.00544675 -39.85620117 25.29150391 C-48.78318102 25.36239875 -56.905985 25.28967139 -65 21 C-65.33 20.34 -65.66 19.68 -66 19 C-65.40832031 19.13277344 -64.81664062 19.26554687 -64.20703125 19.40234375 C-63.41683594 19.57894531 -62.62664062 19.75554687 -61.8125 19.9375 C-60.64654297 20.19853516 -60.64654297 20.19853516 -59.45703125 20.46484375 C-58.64621094 20.64144531 -57.83539063 20.81804687 -57 21 C-56.24203125 21.18175781 -55.4840625 21.36351562 -54.703125 21.55078125 C-40.59623031 23.89513514 -25.99368711 22.01217623 -14 14 C-12.32294092 12.679762 -10.65191491 11.35156675 -9 10 C-8.34 10 -7.68 10 -7 10 C-6.773125 9.46375 -6.54625 8.9275 -6.3125 8.375 C-4.56617944 5.21499137 -2.3597151 2.7323017 0 0 Z " fill="#FEF8E2" transform="translate(223,189)"/>
<path d="M0 0 C0.721875 0.495 1.44375 0.99 2.1875 1.5 C5.14848659 3.07919285 6.71253029 3.28178312 10 3 C10.33 3.99 10.66 4.98 11 6 C10.67 6.66 10.34 7.32 10 8 C10.66 8 11.32 8 12 8 C12.061875 8.928125 12.061875 8.928125 12.125 9.875 C12.41375 10.57625 12.7025 11.2775 13 12 C15.99615946 13.3045656 15.99615946 13.3045656 19 14 C19 14.66 19 15.32 19 16 C19.99 16 20.98 16 22 16 C22 14.68 22 13.36 22 12 C22.66 12.33 23.32 12.66 24 13 C23.67 13.99 23.34 14.98 23 16 C23.99 16.33 24.98 16.66 26 17 C25.01 17.66 24.02 18.32 23 19 C23.66 19.66 24.32 20.32 25 21 C25.375 23.375 25.375 23.375 25 26 C23.71034824 27.37562854 22.37310707 28.70766393 21 30 C20.731875 30.78375 20.46375 31.5675 20.1875 32.375 C17.71928708 37.83104961 12.10059618 41.16633545 7 44 C6.01 44.66 5.02 45.32 4 46 C5.42111983 42.7279406 7.13535987 40.68034504 9.73046875 38.25 C10.45041016 37.5590625 11.17035156 36.868125 11.91210938 36.15625 C13.43522189 34.71288844 14.96393485 33.27541498 16.49804688 31.84375 C17.21412109 31.1528125 17.93019531 30.461875 18.66796875 29.75 C19.33078857 29.12609375 19.9936084 28.5021875 20.67651367 27.859375 C22.24065198 26.08820482 22.24065198 26.08820482 21.81005859 23.86767578 C20.77667294 21.48509583 19.48368636 20.45407715 17.4375 18.875 C15.49609375 17.3671875 15.49609375 17.3671875 14 16 C14 15.34 14 14.68 14 14 C13.401875 13.731875 12.80375 13.46375 12.1875 13.1875 C10.00152146 12.00082594 8.58667406 10.90400887 7 9 C7 8.34 7 7.68 7 7 C6.34 7 5.68 7 5 7 C2.375 4.625 2.375 4.625 0 2 C0 1.34 0 0.68 0 0 Z " fill="#F6DB95" transform="translate(97,152)"/>
<path d="M0 0 C6.72413349 7.36452716 6.42214956 17.13293288 6.34057617 26.50610352 C6.33972838 27.84731528 6.340208 29.18852842 6.34190369 30.52973938 C6.34275915 34.14491786 6.32520695 37.75979348 6.30418181 41.37490201 C6.28533948 45.16251133 6.28365865 48.95012875 6.28010559 52.73777771 C6.2708072 59.89865302 6.24622356 67.05938979 6.21605712 74.22020429 C6.18244412 82.37743288 6.16600981 90.53466833 6.15097082 98.69194901 C6.11967183 115.46138024 6.06695463 132.2306724 6 149 C5.67 149 5.34 149 5 149 C4.99668985 148.31162048 4.99337971 147.62324097 4.98996925 146.91400146 C4.90866385 130.14561115 4.8165468 113.37731836 4.71247292 96.60905457 C4.66240239 88.49996822 4.61595893 80.39089171 4.578125 72.28173828 C4.54513045 65.21182341 4.50525824 58.14198608 4.45720994 51.07215691 C4.43201897 47.33053821 4.41021607 43.58897046 4.39665604 39.84729004 C4.38137014 35.66500759 4.35072617 31.48297016 4.31884766 27.30078125 C4.31668747 26.06719376 4.31452728 24.83360626 4.31230164 23.56263733 C4.25245641 17.4142893 4.10246674 11.81847876 2 6 C1.01 5.67 0.02 5.34 -1 5 C-0.67 3.35 -0.34 1.7 0 0 Z " fill="#F4D37F" transform="translate(310,96)"/>
<path d="M0 0 C0.99 0.33 1.98 0.66 3 1 C3 40.6 3 80.2 3 121 C1.35 121 -0.3 121 -2 121 C-4.3125 118.5 -4.3125 118.5 -6 116 C-5.505 115.01 -5.505 115.01 -5 114 C-2.69 115.65 -0.38 117.3 2 119 C2 80.72 2 42.44 2 3 C0.68 3.33 -0.64 3.66 -2 4 C-2 3.01 -2 2.02 -2 1 C-1.34 0.67 -0.68 0.34 0 0 Z " fill="#EEC86B" transform="translate(296,115)"/>
<path d="M0 0 C0.33 0 0.66 0 1 0 C1 21.78 1 43.56 1 66 C1.99 66 2.98 66 4 66 C5.46484375 68.046875 5.46484375 68.046875 6.9375 70.75 C8.93905017 74.4008275 10.93561923 77.16726788 14 80 C8.53731309 78.07199286 4.07931622 76.08942552 1.34159851 70.78953552 C-0.10642606 67.16161161 -0.36282526 63.97818785 -0.34057617 60.05493164 C-0.34101425 59.40042023 -0.34145233 58.74590881 -0.34190369 58.07156372 C-0.33983374 55.93411147 -0.31659013 53.79746939 -0.29296875 51.66015625 C-0.28736636 50.16800871 -0.2830993 48.67585561 -0.28010559 47.18370056 C-0.26870733 43.27587372 -0.23928423 39.36838683 -0.20599365 35.46069336 C-0.17518381 31.4653788 -0.16157704 27.47000876 -0.14648438 23.47460938 C-0.11440898 15.6495854 -0.06327442 7.82484052 0 0 Z " fill="#F2CD60" transform="translate(45,183)"/>
<path d="M0 0 C8.53004081 2.66563775 14.924605 9.64258684 21 15.875 C21.67933594 16.56335938 22.35867187 17.25171875 23.05859375 17.9609375 C24.71046886 19.63607846 26.35743925 21.3157336 28 23 C27.01 23.33 26.02 23.66 25 24 C24.67 23.01 24.34 22.02 24 21 C22.68 21 21.36 21 20 21 C19.731875 20.21625 19.46375 19.4325 19.1875 18.625 C18.15185568 15.71885077 18.15185568 15.71885077 15 14 C15 13.34 15 12.68 15 12 C13.68 11.67 12.36 11.34 11 11 C10.67 11.66 10.34 12.32 10 13 C9.67 11.02 9.34 9.04 9 7 C7.865625 6.690625 6.73125 6.38125 5.5625 6.0625 C2 5 2 5 1 4 C0.773125 4.639375 0.54625 5.27875 0.3125 5.9375 C-1 8 -1 8 -3.625 8.75 C-4.40875 8.8325 -5.1925 8.915 -6 9 C-5.75 6.625 -5.75 6.625 -5 4 C-3 2.8125 -3 2.8125 -1 2 C-0.67 1.34 -0.34 0.68 0 0 Z " fill="#F9C858" transform="translate(126,159)"/>
<path d="M0 0 C0.59167969 0.13277344 1.18335938 0.26554688 1.79296875 0.40234375 C2.58316406 0.57894531 3.37335938 0.75554687 4.1875 0.9375 C4.96480469 1.11152344 5.74210938 1.28554687 6.54296875 1.46484375 C7.35378906 1.64144531 8.16460937 1.81804687 9 2 C9.75796875 2.18175781 10.5159375 2.36351562 11.296875 2.55078125 C20.99319096 4.16216324 31.12494957 3.54430128 40.484375 0.65625 C43.09360571 -0.02441888 45.31594984 -0.11585828 48 0 C41.84954148 6.15045852 31.16749882 6.43827694 22.9375 6.5 C15.1784835 6.44167797 7.97948471 5.69899189 1 2 C0.67 1.34 0.34 0.68 0 0 Z " fill="#FEFBE9" transform="translate(157,208)"/>
<path d="M0 0 C0.66 0 1.32 0 2 0 C2 0.99 2 1.98 2 3 C1.34 3 0.68 3 0 3 C0.33 4.98 0.66 6.96 1 9 C-0.2065625 9.61875 -0.2065625 9.61875 -1.4375 10.25 C-4.14109718 11.73452331 -4.14109718 11.73452331 -4.8125 14.1875 C-4.874375 14.785625 -4.93625 15.38375 -5 16 C-6.65 16 -8.3 16 -10 16 C-10 15.34 -10 14.68 -10 14 C-10.99 14.99 -11.98 15.98 -13 17 C-13 15.68 -13 14.36 -13 13 C-11.02 12.34 -9.04 11.68 -7 11 C-7 9.68 -7 8.36 -7 7 C-6.34 7 -5.68 7 -5 7 C-4.731875 6.360625 -4.46375 5.72125 -4.1875 5.0625 C-3 3 -3 3 0 2 C0 1.34 0 0.68 0 0 Z " fill="#F7D170" transform="translate(75,222)"/>
<path d="M0 0 C3.77312005 -0.35098791 5.53511035 -0.30640454 8.75 1.8125 C11 4 11 4 13 7 C13 7.99 13 8.98 13 10 C13.99 10.33 14.98 10.66 16 11 C17.66666667 12.66666667 19.33333333 14.33333333 21 16 C22.63377642 17.05287814 24.29181597 18.0727001 26 19 C25.01 19.495 25.01 19.495 24 20 C21.6171875 18.85546875 21.6171875 18.85546875 18.875 17.1875 C17.96492188 16.64480469 17.05484375 16.10210937 16.1171875 15.54296875 C15.41851562 15.03378906 14.71984375 14.52460938 14 14 C14 13.34 14 12.68 14 12 C13.34 12 12.68 12 12 12 C11.5875 11.071875 11.175 10.14375 10.75 9.1875 C9.04014879 6.07312814 7.8388153 4.95780365 5 3 C5 2.34 5 1.68 5 1 C4.16855469 1.75796875 4.16855469 1.75796875 3.3203125 2.53125 C2.23363281 3.50578125 2.23363281 3.50578125 1.125 4.5 C0.40570313 5.1496875 -0.31359375 5.799375 -1.0546875 6.46875 C-3 8 -3 8 -5 8 C-5.33 8.99 -5.66 9.98 -6 11 C-6.33 10.01 -6.66 9.02 -7 8 C-5.71034824 6.62437146 -4.37310707 5.29233607 -3 4 C-2.34 4 -1.68 4 -1 4 C-0.67 2.68 -0.34 1.36 0 0 Z " fill="#EECC75" transform="translate(131,188)"/>
<path d="M0 0 C1.89709988 0.93493439 3.79262578 1.87306296 5.6875 2.8125 C6.74324219 3.33457031 7.79898438 3.85664063 8.88671875 4.39453125 C10.87042407 5.41749598 12.82533416 6.49991669 14.734375 7.65625 C20.69399842 11.1909232 28.30076326 10.0975617 35 10 C32.41523687 12.58476313 31.34825227 12.29806851 27.75 12.3125 C10.48245668 12.02018367 10.48245668 12.02018367 5.234375 7.46875 C4.82703125 6.9840625 4.4196875 6.499375 4 6 C1.90010348 4.82425289 1.90010348 4.82425289 0 4 C0 2.68 0 1.36 0 0 Z " fill="#F6E0A6" transform="translate(154,183)"/>
<path d="M0 0 C0.66 0.33 1.32 0.66 2 1 C-0.625 5.875 -0.625 5.875 -4 7 C-5.50923281 9.71661906 -6.78214839 12.37996079 -7.8125 15.3125 C-9 17 -9 17 -12.125 17.75 C-13.548125 17.87375 -13.548125 17.87375 -15 18 C-14.45912682 14.21388773 -12.88277668 12.44599233 -10 10 C-9.34 10 -8.68 10 -8 10 C-7.731875 9.360625 -7.46375 8.72125 -7.1875 8.0625 C-6 6 -6 6 -3 5 C-3 4.34 -3 3.68 -3 3 C-2.34 3 -1.68 3 -1 3 C-0.67 2.01 -0.34 1.02 0 0 Z " fill="#F5D78A" transform="translate(223,164)"/>
<path d="M0 0 C0.66 0 1.32 0 2 0 C2 0.66 2 1.32 2 2 C2.66 2 3.32 2 4 2 C8.76744186 6.30232558 8.76744186 6.30232558 10 10 C10.66 10 11.32 10 12 10 C12 10.66 12 11.32 12 12 C12.66 12 13.32 12 14 12 C15.68732277 13.98260426 17.35366057 15.9832342 19 18 C19.66 18.33 20.32 18.66 21 19 C20.67 19.99 20.34 20.98 20 22 C19.0925 21.05125 18.185 20.1025 17.25 19.125 C15.43439509 17.29230705 14.14515272 16.07050275 11.8125 14.9375 C9.22196908 13.59757021 8.4786538 11.464423 7 9 C6.29875 8.649375 5.5975 8.29875 4.875 7.9375 C3 7 3 7 2.25 4.875 C2.1675 4.25625 2.085 3.6375 2 3 C1.34 3 0.68 3 0 3 C0 2.01 0 1.02 0 0 Z " fill="#FAEBBF" transform="translate(273,210)"/>
<path d="M0 0 C1.65 0 3.3 0 5 0 C-0.27101414 6.41069287 -6.09128152 12.18590512 -12 18 C-12.66 17.67 -13.32 17.34 -14 17 C-12.99796679 13.99390037 -12.39971554 12.93823179 -10 11 C-9.01 11 -8.02 11 -7 11 C-6.67 9.35 -6.34 7.7 -6 6 C-5.01 6 -4.02 6 -3 6 C-3 5.34 -3 4.68 -3 4 C-2.01 4 -1.02 4 0 4 C0 2.68 0 1.36 0 0 Z " fill="#EFCC6B" transform="translate(88,230)"/>
<path d="M0 0 C0.721875 0.495 1.44375 0.99 2.1875 1.5 C5.14848659 3.07919285 6.71253029 3.28178312 10 3 C10.33 3.99 10.66 4.98 11 6 C10.67 6.66 10.34 7.32 10 8 C10.66 8 11.32 8 12 8 C12.061875 8.556875 12.12375 9.11375 12.1875 9.6875 C13.3364741 12.95765706 15.51198688 14.63046369 18 17 C19.02813611 18.31175986 20.04084432 19.6369893 21 21 C18.13302508 19.71480435 16.02392288 18.42870746 14 16 C14 15.34 14 14.68 14 14 C13.401875 13.731875 12.80375 13.46375 12.1875 13.1875 C10.00152146 12.00082594 8.58667406 10.90400887 7 9 C7 8.34 7 7.68 7 7 C6.34 7 5.68 7 5 7 C2.375 4.625 2.375 4.625 0 2 C0 1.34 0 0.68 0 0 Z " fill="#F7DFA0" transform="translate(97,152)"/>
<path d="M0 0 C1.34313399 0.64669414 2.67391178 1.31903578 4 2 C4.804375 2.37125 5.60875 2.7425 6.4375 3.125 C9.53516368 5.39158318 10.83977 7.79974515 12.7421875 11.078125 C14.4129425 13.63095562 16.5903852 15.16108345 19 17 C20.8125 19.75 20.8125 19.75 22 22 C17.86360664 20.40907948 14.76786752 17.39525082 12 14 C12 13.34 12 12.68 12 12 C11.34 12 10.68 12 10 12 C10 11.34 10 10.68 10 10 C9.01 9.67 8.02 9.34 7 9 C7 8.34 7 7.68 7 7 C6.34 7 5.68 7 5 7 C5 6.34 5 5.68 5 5 C4.360625 4.731875 3.72125 4.46375 3.0625 4.1875 C1 3 1 3 0 0 Z " fill="#FEF7E7" transform="translate(75,130)"/>
<path d="M0 0 C0.66 0.33 1.32 0.66 2 1 C1.34 2.32 0.68 3.64 0 5 C0.66 5 1.32 5 2 5 C2 8 2 8 0.375 9.75 C-2.82217237 11.4327223 -4.58037808 10.96641489 -8 10 C-8.66 9.34 -9.32 8.68 -10 8 C-5.25 5 -5.25 5 -3 5 C-3 4.34 -3 3.68 -3 3 C-2.34 3 -1.68 3 -1 3 C-0.67 2.01 -0.34 1.02 0 0 Z " fill="#F9D582" transform="translate(206,181)"/>
<path d="M0 0 C0.33 0.66 0.66 1.32 1 2 C1.99 2 2.98 2 4 2 C5.46484375 4.046875 5.46484375 4.046875 6.9375 6.75 C8.93905017 10.4008275 10.93561923 13.16726788 14 16 C9.45492246 14.39585499 4.56799612 12.56262053 1.953125 8.2890625 C0.66977594 5.41968773 0 3.15416855 0 0 Z " fill="#F5DFA1" transform="translate(45,247)"/>
<path d="M0 0 C0.99 0.33 1.98 0.66 3 1 C3 1.66 3 2.32 3 3 C3.66 3 4.32 3 5 3 C5 3.66 5 4.32 5 5 C5.66 5 6.32 5 7 5 C8.625 6.375 8.625 6.375 10 8 C10 8.66 10 9.32 10 10 C10.66 10 11.32 10 12 10 C13.625 11.5 13.625 11.5 15 13 C14.67 13.66 14.34 14.32 14 15 C11.625 14.25 11.625 14.25 9 13 C8.33333333 11.66666667 7.66666667 10.33333333 7 9 C6.175 8.731875 5.35 8.46375 4.5 8.1875 C2 7 2 7 0.6875 3.375 C0.460625 2.26125 0.23375 1.1475 0 0 Z " fill="#F8E8B5" transform="translate(258,195)"/>
<path d="M0 0 C0.99 0 1.98 0 3 0 C3 1.32 3 2.64 3 4 C1.33720673 5.0064275 -0.32983484 6.00585407 -2 7 C-2.72159424 8.64363134 -3.39351421 10.31050386 -4 12 C-4.99 12.66 -5.98 13.32 -7 14 C-7 13.34 -7 12.68 -7 12 C-7.66 11.67 -8.32 11.34 -9 11 C-8.195625 10.236875 -7.39125 9.47375 -6.5625 8.6875 C-3.83200976 6.20569102 -3.83200976 6.20569102 -3 3 C-2.34 3 -1.68 3 -1 3 C-0.67 2.01 -0.34 1.02 0 0 Z " fill="#F7CB52" transform="translate(267,122)"/>
<path d="M0 0 C0.33 0.66 0.66 1.32 1 2 C0.34 2 -0.32 2 -1 2 C-1.33 3.32 -1.66 4.64 -2 6 C-2.66 6 -3.32 6 -4 6 C-4.268125 6.598125 -4.53625 7.19625 -4.8125 7.8125 C-7.08447895 11.99772437 -9.53775641 13.43218469 -14 15 C-13.1875 13.0625 -13.1875 13.0625 -12 11 C-11.01 10.67 -10.02 10.34 -9 10 C-8.67 9.34 -8.34 8.68 -8 8 C-7 6 -7 6 -4 5 C-4 4.34 -4 3.68 -4 3 C-3.34 3 -2.68 3 -2 3 C-2 2.34 -2 1.68 -2 1 C-1.34 0.67 -0.68 0.34 0 0 Z " fill="#F3DD9D" transform="translate(265,123)"/>
<path d="M0 0 C-0.165 0.598125 -0.33 1.19625 -0.5 1.8125 C-1.1114124 4.11344336 -1.1114124 4.11344336 -1 7 C-2.125 8.6875 -2.125 8.6875 -4 10 C-7.1875 10.1875 -7.1875 10.1875 -10 10 C-10 8 -10 8 -8.625 6.375 C-7 5 -7 5 -5 5 C-5 4.34 -5 3.68 -5 3 C-2.46153846 0 -2.46153846 0 0 0 Z " fill="#F6D781" transform="translate(87,212)"/>
<path d="M0 0 C0 3 0 3 -1.37695312 4.7175293 C-2.00537109 5.33023682 -2.63378906 5.94294434 -3.28125 6.57421875 C-3.95800781 7.24130859 -4.63476562 7.90839844 -5.33203125 8.59570312 C-6.04746094 9.28599609 -6.76289063 9.97628906 -7.5 10.6875 C-8.57314453 11.7403418 -8.57314453 11.7403418 -9.66796875 12.81445312 C-11.43879577 14.54986361 -13.21623456 16.2779073 -15 18 C-15 15 -15 15 -12.625 12.5625 C-11.75875 11.716875 -10.8925 10.87125 -10 10 C-8.70480005 7.83379456 -8.70480005 7.83379456 -8 6 C-7.01 6 -6.02 6 -5 6 C-5 5.34 -5 4.68 -5 4 C-3.37373596 2.61767557 -1.7074998 1.28062485 0 0 Z " fill="#FEFBEF" transform="translate(293,122)"/>
<path d="M0 0 C0.66 0.33 1.32 0.66 2 1 C0.8553125 2.0209375 0.8553125 2.0209375 -0.3125 3.0625 C-3.32843331 6.35898525 -4.45879017 8.86306835 -6 13 C-6.99 12.67 -7.98 12.34 -9 12 C-9.99 12.66 -10.98 13.32 -12 14 C-10.41332422 10.09714233 -7.86649519 7.66479018 -4.875 4.75 C-3.96492188 3.85796875 -3.05484375 2.9659375 -2.1171875 2.046875 C-1.41851562 1.37140625 -0.71984375 0.6959375 0 0 Z " fill="#F7E3AA" transform="translate(99,198)"/>
<path d="M0 0 C4.00348746 1.60710067 6.7152015 4.41795967 9.6875 7.4375 C10.18572266 7.92798828 10.68394531 8.41847656 11.19726562 8.92382812 C13.52764849 11.26685893 14.94061236 12.82183707 16 16 C14 16 14 16 11.5 13.75 C9 11 9 11 7.9375 8.8125 C7.1413346 6.8295017 7.1413346 6.8295017 5.0625 6.0625 C2.28055457 4.6293766 1.43061498 2.71816847 0 0 Z " fill="#FEF8E7" transform="translate(235,200)"/>
<path d="M0 0 C0.99 0.33 1.98 0.66 3 1 C-0.71750779 5.20240011 -5.31660979 7.99782679 -10 11 C-10.33 10.01 -10.66 9.02 -11 8 C-9.35 7.67 -7.7 7.34 -6 7 C-6 6.01 -6 5.02 -6 4 C-4 2.66666667 -2 1.33333333 0 0 Z " fill="#F1CE75" transform="translate(214,196)"/>
<path d="M0 0 C4.91935902 4.11619836 9.52647956 8.40410362 14 13 C13.01 13.33 12.02 13.66 11 14 C10.67 13.01 10.34 12.02 10 11 C8.68 11 7.36 11 6 11 C5.62875 9.88625 5.62875 9.88625 5.25 8.75 C3.90634806 5.79396573 2.31013315 4.23312872 0 2 C0 1.34 0 0.68 0 0 Z " fill="#EFCD70" transform="translate(140,169)"/>
<path d="M0 0 C7.59 0 15.18 0 23 0 C22.67 1.65 22.34 3.3 22 5 C20.68 5.33 19.36 5.66 18 6 C18 5.34 18 4.68 18 4 C18.99 3.34 19.98 2.68 21 2 C14.07 1.67 7.14 1.34 0 1 C0 0.67 0 0.34 0 0 Z " fill="#FCF5E5" transform="translate(260,105)"/>
<path d="M0 0 C0.99 0 1.98 0 3 0 C3.33 0.99 3.66 1.98 4 3 C4.99 3 5.98 3 7 3 C6.67 4.65 6.34 6.3 6 8 C5.01 8 4.02 8 3 8 C2.67 7.01 2.34 6.02 2 5 C1.01 4.67 0.02 4.34 -1 4 C-0.67 2.68 -0.34 1.36 0 0 Z " fill="#F7CC4C" transform="translate(219,170)"/>
<path d="M0 0 C1.32 0.33 2.64 0.66 4 1 C3.67 2.65 3.34 4.3 3 6 C4.32 6.33 5.64 6.66 7 7 C7 7.66 7 8.32 7 9 C7.66 9 8.32 9 9 9 C9.66 10.32 10.32 11.64 11 13 C7.56247993 11.4722133 4.81046312 9.49818944 2 7 C2 6.34 2 5.68 2 5 C1.34 5 0.68 5 0 5 C0 3.35 0 1.7 0 0 Z " fill="#F9E2A4" transform="translate(237,172)"/>
<path d="M0 0 C3.53586843 0.57760323 5.20958289 1.8272067 7.6875 4.375 C8.28949219 4.98085937 8.89148438 5.58671875 9.51171875 6.2109375 C11 8 11 8 12 11 C11.34 11 10.68 11 10 11 C9.06689232 9.84155981 8.17709521 8.64793329 7.3125 7.4375 C5.80667119 5.46963464 5.80667119 5.46963464 4 4 C0.19998135 3.8856663 0.19998135 3.8856663 -3 5 C-2.01 3.35 -1.02 1.7 0 0 Z " fill="#FDF0CD" transform="translate(223,189)"/>
<path d="M0 0 C0 1.65 0 3.3 0 5 C-3.96 6.98 -3.96 6.98 -8 9 C-8.33 8.34 -8.66 7.68 -9 7 C-8.34 7 -7.68 7 -7 7 C-6.67 6.01 -6.34 5.02 -6 4 C-2.45714286 0 -2.45714286 0 0 0 Z " fill="#F6DD9C" transform="translate(246,143)"/>
<path d="M0 0 C1.65 0 3.3 0 5 0 C-1.15034169 7.48291572 -1.15034169 7.48291572 -5 10 C-4.49396008 7.83125748 -4.00016187 6.00032373 -3 4 C-2.01 4 -1.02 4 0 4 C0 2.68 0 1.36 0 0 Z " fill="#EECD6A" transform="translate(104,214)"/>
<path d="M0 0 C0.66 0.33 1.32 0.66 2 1 C0.05463044 4.69620217 -1.25715094 6.25333711 -5 8 C-5.33 8.99 -5.66 9.98 -6 11 C-8.0625 11.6875 -8.0625 11.6875 -10 12 C-10 11.34 -10 10.68 -10 10 C-9.34 10 -8.68 10 -8 10 C-7.731875 9.360625 -7.46375 8.72125 -7.1875 8.0625 C-6 6 -6 6 -3 5 C-3 4.34 -3 3.68 -3 3 C-2.34 3 -1.68 3 -1 3 C-0.67 2.01 -0.34 1.02 0 0 Z " fill="#F7E9C2" transform="translate(276,111)"/>
<path d="M0 0 C6.88490225 -0.57374185 11.02667877 0.5246131 17 4 C16.01 4.495 16.01 4.495 15 5 C14.34 4.67 13.68 4.34 13 4 C10.6670134 3.95977609 8.33293334 3.95679753 6 4 C5.67 3.34 5.34 2.68 5 2 C2.47266765 1.34444881 2.47266765 1.34444881 0 1 C0 0.67 0 0.34 0 0 Z " fill="#F1CD67" transform="translate(288,87)"/>
<path d="M0 0 C6.14777908 2.98074137 10.27807625 8.41711437 14 14 C11.13302508 12.71480435 9.02392288 11.42870746 7 9 C7 8.34 7 7.68 7 7 C6.401875 6.731875 5.80375 6.46375 5.1875 6.1875 C3.00152146 5.00082594 1.58667406 3.90400887 0 2 C0 1.34 0 0.68 0 0 Z " fill="#FEFAEE" transform="translate(104,159)"/>
<path d="M0 0 C2.74277578 3.19990508 4.6302836 6.00499382 6 10 C4.68103535 9.07161713 3.37001311 8.13194268 2.0625 7.1875 C1.33160156 6.66542969 0.60070312 6.14335937 -0.15234375 5.60546875 C-2 4 -2 4 -3 1 C-2.01 0.67 -1.02 0.34 0 0 Z " fill="#F1CD6B" transform="translate(74,123)"/>
<path d="M0 0 C3.79062273 4.82442893 5.28418033 7.74803275 5 14 C2.4345406 11.4345406 2.45953913 9.52313332 2 6 C1.01 5.67 0.02 5.34 -1 5 C-0.67 3.35 -0.34 1.7 0 0 Z " fill="#F1CF75" transform="translate(310,96)"/>
<path d="M0 0 C4.278551 0.47539456 6.09647107 3.02565329 9 6 C10.63377642 7.05287814 12.29181597 8.0727001 14 9 C13.01 9.495 13.01 9.495 12 10 C9.6171875 8.85546875 9.6171875 8.85546875 6.875 7.1875 C5.96492187 6.64480469 5.05484375 6.10210937 4.1171875 5.54296875 C3.41851562 5.03378906 2.71984375 4.52460938 2 4 C2 3.34 2 2.68 2 2 C1.34 2 0.68 2 0 2 C0 1.34 0 0.68 0 0 Z " fill="#FDF6E1" transform="translate(143,198)"/>
<path d="M0 0 C1 3 1 3 0.4375 5.375 C-1.48760067 8.89040122 -3.81886781 10.57957333 -7 13 C-6.62403791 10.21788056 -6.32681541 8.4120716 -4.5625 6.1875 C-3 5 -3 5 -1 5 C-0.67 3.35 -0.34 1.7 0 0 Z " fill="#F2D27D" transform="translate(314,245)"/>
<path d="M0 0 C1.34313399 0.64669414 2.67391178 1.31903578 4 2 C4.886875 2.45375 5.77375 2.9075 6.6875 3.375 C9 5 9 5 9.8125 7.1875 C9.874375 7.785625 9.93625 8.38375 10 9 C7.525 8.01 7.525 8.01 5 7 C5 6.34 5 5.68 5 5 C4.360625 4.731875 3.72125 4.46375 3.0625 4.1875 C1 3 1 3 0 0 Z " fill="#FBECC6" transform="translate(75,130)"/>
<path d="M0 0 C0 0.99 0 1.98 0 3 C-0.928125 3.309375 -0.928125 3.309375 -1.875 3.625 C-4.84653645 5.54775888 -5.13024659 7.66594527 -6 11 C-7.65 11.33 -9.3 11.66 -11 12 C-7.72469104 7.36279281 -4.69564393 3.31457218 0 0 Z " fill="#FCEBB8" transform="translate(283,130)"/>
<path d="M0 0 C4.43458973 1.3937282 6.87378374 3.60582235 10 7 C9.34 7.66 8.68 8.32 8 9 C6.66368764 7.6905332 5.33102075 6.37734515 4 5.0625 C3.2575 4.33160156 2.515 3.60070312 1.75 2.84765625 C0 1 0 1 0 0 Z " fill="#EECC70" transform="translate(238,201)"/>
<path d="M0 0 C4.96646236 3.24730231 8.01872456 5.87220625 11 11 C7.08149058 9.34216909 4.09708904 6.89061644 1 4 C0.32421875 1.8359375 0.32421875 1.8359375 0 0 Z " fill="#EECE77" transform="translate(124,153)"/>
<path d="M0 0 C4.13621084 3.3810038 7.81316569 6.66590534 11 11 C9.68 11 8.36 11 7 11 C6.67 10.01 6.34 9.02 6 8 C5.175 7.175 4.35 6.35 3.5 5.5 C1 3 1 3 0 0 Z " fill="#EECE74" transform="translate(92,121)"/>
<path d="M0 0 C1.98 0.66 3.96 1.32 6 2 C6.33 3.98 6.66 5.96 7 8 C5.68 7.67 4.36 7.34 3 7 C3.66 7 4.32 7 5 7 C5 6.34 5 5.68 5 5 C4.34 5 3.68 5 3 5 C3 4.34 3 3.68 3 3 C2.34 3 1.68 3 1 3 C0.67 2.01 0.34 1.02 0 0 Z " fill="#F7E4B3" transform="translate(277,241)"/>
<path d="M0 0 C0.66 0.33 1.32 0.66 2 1 C-0.48908945 5.84717418 -3.24222524 7.62111262 -8 10 C-7.1875 8.0625 -7.1875 8.0625 -6 6 C-5.01 5.67 -4.02 5.34 -3 5 C-3 4.34 -3 3.68 -3 3 C-2.34 3 -1.68 3 -1 3 C-0.67 2.01 -0.34 1.02 0 0 Z " fill="#F7E9BC" transform="translate(223,164)"/>
<path d="M0 0 C2.8125 0.625 2.8125 0.625 6 2 C7.875 5.125 7.875 5.125 9 8 C4.7257442 6.4169423 2.73468206 3.49431596 0 0 Z " fill="#EECB70" transform="translate(270,233)"/>
<path d="M0 0 C0.66 0 1.32 0 2 0 C1.6875 1.9375 1.6875 1.9375 1 4 C0.01 4.33 -0.98 4.66 -2 5 C-2.33 5.99 -2.66 6.98 -3 8 C-5.0625 8.6875 -5.0625 8.6875 -7 9 C-7 8.34 -7 7.68 -7 7 C-6.34 7 -5.68 7 -5 7 C-4.731875 6.360625 -4.46375 5.72125 -4.1875 5.0625 C-3 3 -3 3 0 2 C0 1.34 0 0.68 0 0 Z " fill="#F6E5B7" transform="translate(232,155)"/>
<path d="M0 0 C1.13199353 0.9080162 2.25532363 1.82683826 3.375 2.75 C4.00148438 3.26046875 4.62796875 3.7709375 5.2734375 4.296875 C7.08312318 6.08199481 8.00117455 7.67949644 9 10 C7.51444617 9.07265428 6.03672494 8.13275187 4.5625 7.1875 C3.73878906 6.66542969 2.91507812 6.14335938 2.06640625 5.60546875 C0 4 0 4 -1 1 C-0.67 0.67 -0.34 0.34 0 0 Z " fill="#EECB75" transform="translate(75,104)"/>
<path d="M0 0 C0.66 0.33 1.32 0.66 2 1 C-0.64 3.64 -3.28 6.28 -6 9 C-6 5.37546731 -5.07530387 3.92079805 -3 1 C-2.01 0.67 -1.02 0.34 0 0 Z " fill="#FEFCF1" transform="translate(124,201)"/>
<path d="M0 0 C0.99 0.33 1.98 0.66 3 1 C0.69 3.64 -1.62 6.28 -4 9 C-4.66 7.68 -5.32 6.36 -6 5 C-4.68 4.67 -3.36 4.34 -2 4 C-2 3.34 -2 2.68 -2 2 C-1.34 2 -0.68 2 0 2 C0 1.34 0 0.68 0 0 Z " fill="#EFCD66" transform="translate(267,143)"/>
<path d="M0 0 C0.33 0.66 0.66 1.32 1 2 C0.34 2 -0.32 2 -1 2 C-1.061875 2.598125 -1.12375 3.19625 -1.1875 3.8125 C-2.52950283 7.42558453 -5.71033675 8.35516837 -9 10 C-8.1875 8.0625 -8.1875 8.0625 -7 6 C-6.01 5.67 -5.02 5.34 -4 5 C-4 4.34 -4 3.68 -4 3 C-3.34 3 -2.68 3 -2 3 C-2 2.34 -2 1.68 -2 1 C-1.34 0.67 -0.68 0.34 0 0 Z " fill="#F9ECC6" transform="translate(265,123)"/>
<path d="M0 0 C3.3125 0.1875 3.3125 0.1875 7 1 C8.9375 3.5625 8.9375 3.5625 10 6 C6.40992874 4.66654496 3.20429093 3.1056769 0 1 C0 0.67 0 0.34 0 0 Z " fill="#F2D382" transform="translate(149,202)"/>
<path d="M0 0 C0.75 1.75 0.75 1.75 1 4 C-0.8125 6.0625 -0.8125 6.0625 -3 8 C-3.66 8.99 -4.32 9.98 -5 11 C-4.46884894 6.48521602 -2.63379708 3.65333143 0 0 Z " fill="#F0CE75" transform="translate(52,94)"/>
<path d="M0 0 C0.33 1.32 0.66 2.64 1 4 C-1.3125 6.0625 -1.3125 6.0625 -4 8 C-4.99 7.67 -5.98 7.34 -7 7 C-4.66666667 4.66666667 -2.33333333 2.33333333 0 0 Z " fill="#FDF1D0" transform="translate(311,254)"/>
<path d="M0 0 C2.3125 0.1875 2.3125 0.1875 5 1 C6.875 3.4375 6.875 3.4375 8 6 C7.67 6.66 7.34 7.32 7 8 C5.83035398 6.8572081 4.66435444 5.71068285 3.5 4.5625 C2.8503125 3.92441406 2.200625 3.28632813 1.53125 2.62890625 C0 1 0 1 0 0 Z " fill="#EECC72" transform="translate(254,217)"/>
<path d="M0 0 C1.65 1.32 3.3 2.64 5 4 C4.67 4.99 4.34 5.98 4 7 C3.34 6.67 2.68 6.34 2 6 C1.67 6.66 1.34 7.32 1 8 C0 2.25 0 2.25 0 0 Z " fill="#F3CB63" transform="translate(135,164)"/>
<path d="M0 0 C0.33 1.32 0.66 2.64 1 4 C-0.65 4.66 -2.3 5.32 -4 6 C-3.67 4.35 -3.34 2.7 -3 1 C-2.01 0.67 -1.02 0.34 0 0 Z " fill="#FDC562" transform="translate(124,162)"/>
<path d="M0 0 C1.65 1.32 3.3 2.64 5 4 C4.67 4.99 4.34 5.98 4 7 C3.34 6.67 2.68 6.34 2 6 C1.67 6.66 1.34 7.32 1 8 C0 2.25 0 2.25 0 0 Z " fill="#F3CB63" transform="translate(119,148)"/>
<path d="M0 0 C0.33 1.32 0.66 2.64 1 4 C-0.65 4.66 -2.3 5.32 -4 6 C-3.67 4.35 -3.34 2.7 -3 1 C-2.01 0.67 -1.02 0.34 0 0 Z " fill="#FDC562" transform="translate(108,146)"/>
<path d="M0 0 C0.33 0.66 0.66 1.32 1 2 C-0.125 4.5625 -0.125 4.5625 -2 7 C-4.6875 7.8125 -4.6875 7.8125 -7 8 C-6.02133662 6.85373678 -5.04205413 5.70800212 -4.0625 4.5625 C-3.51722656 3.92441406 -2.97195313 3.28632813 -2.41015625 2.62890625 C-1.63204305 1.73008851 -0.84063472 0.84063472 0 0 Z " fill="#FEF2CD" transform="translate(267,146)"/>
<path d="M0 0 C1.17219543 0.78345715 2.33763668 1.57702836 3.5 2.375 C4.47453125 3.03628906 4.47453125 3.03628906 5.46875 3.7109375 C5.9740625 4.13632813 6.479375 4.56171875 7 5 C7 5.66 7 6.32 7 7 C5.35 6.67 3.7 6.34 2 6 C1.34 4.02 0.68 2.04 0 0 Z " fill="#EFCD63" transform="translate(241,180)"/>
<path d="M0 0 C1.12894876 0.93274109 2.25300876 1.87140122 3.375 2.8125 C4.00148438 3.33457031 4.62796875 3.85664063 5.2734375 4.39453125 C7 6 7 6 9 9 C5.18063472 7.44396229 2.73955562 5.04395069 0 2 C0 1.34 0 0.68 0 0 Z " fill="#EECE77" transform="translate(110,139)"/>
<path d="M0 0 C0.99 0.33 1.98 0.66 3 1 C3 3.64 3 6.28 3 9 C2.67 9 2.34 9 2 9 C2 7.02 2 5.04 2 3 C0.68 3.33 -0.64 3.66 -2 4 C-2 3.01 -2 2.02 -2 1 C-1.34 0.67 -0.68 0.34 0 0 Z " fill="#F2CF72" transform="translate(296,115)"/>
<path d="M0 0 C-0.33 1.65 -0.66 3.3 -1 5 C-1.99 5 -2.98 5 -4 5 C-3.67 4.34 -3.34 3.68 -3 3 C-3.99 2.67 -4.98 2.34 -6 2 C-2.25 0 -2.25 0 0 0 Z " fill="#F8CE69" transform="translate(65,87)"/>
<path d="M0 0 C0.6875 1.8125 0.6875 1.8125 1 4 C-0.1875 5.8125 -0.1875 5.8125 -2 7 C-4.1875 6.6875 -4.1875 6.6875 -6 6 C-5.34 5.34 -4.68 4.68 -4 4 C-3.01 4 -2.02 4 -1 4 C-0.67 2.68 -0.34 1.36 0 0 Z " fill="#F3CB62" transform="translate(230,159)"/>
<path d="M0 0 C0.33 1.32 0.66 2.64 1 4 C-0.65 4.66 -2.3 5.32 -4 6 C-2.25 1.125 -2.25 1.125 0 0 Z " fill="#FDC563" transform="translate(92,130)"/>
<path d="M0 0 C3 1 3 1 4.0625 3 C4.371875 3.66 4.68125 4.32 5 5 C5.66 5.33 6.32 5.66 7 6 C6.67 6.66 6.34 7.32 6 8 C1.3125 4.38671875 1.3125 4.38671875 0 3 C0 2.01 0 1.02 0 0 Z " fill="#FEFAEB" transform="translate(79,105)"/>
<path d="M0 0 C2.125 0.9375 2.125 0.9375 4 2 C3 3 3 3 0.93359375 3.09765625 C0.10988281 3.08605469 -0.71382813 3.07445312 -1.5625 3.0625 C-2.38878906 3.05347656 -3.21507812 3.04445313 -4.06640625 3.03515625 C-4.70449219 3.02355469 -5.34257812 3.01195312 -6 3 C-4 2 -2 1 0 0 Z " fill="#FEF7DB" transform="translate(298,264)"/>
<path d="M0 0 C0.66 0 1.32 0 2 0 C2.33 0.99 2.66 1.98 3 3 C0.03 5.475 0.03 5.475 -3 8 C-3 7.01 -3 6.02 -3 5 C-2.34 4.67 -1.68 4.34 -1 4 C-0.34786708 1.97536745 -0.34786708 1.97536745 0 0 Z " fill="#EECC72" transform="translate(96,222)"/>
<path d="M0 0 C3 1 3 1 3 1 Z " fill="#FFFFFF" transform="translate(198,216)"/>
<path d="M0 0 C2 1 2 1 2 1 Z " fill="#FFFFFF" transform="translate(125,207)"/>
</svg>
