<svg version="1.1" id="Layer_1" xmlns="http://www.w3.org/2000/svg" xmlns:xlink="http://www.w3.org/1999/xlink" x="0px" y="0px"
	 width="100%" viewBox="0 0 259 194" enable-background="new 0 0 259 194" xml:space="preserve">
<path fill="#FFFFFF" opacity="1.000000" stroke="none" 
	d="
M140.000000,195.000000 
	C93.333336,195.000000 47.166672,195.000000 1.000006,195.000000 
	C1.000004,130.333344 1.000004,65.666679 1.000002,1.000015 
	C87.333321,1.000010 173.666641,1.000010 260.000000,1.000005 
	C260.000000,65.666649 260.000000,130.333298 260.000000,194.999969 
	C220.166672,195.000000 180.333328,195.000000 140.000000,195.000000 
M67.441086,142.600937 
	C69.338951,145.297043 71.886276,146.005646 75.180901,145.996017 
	C113.679337,145.883636 152.178207,145.926498 190.676971,145.921494 
	C197.074615,145.920670 199.063721,143.981918 199.065521,137.740311 
	C199.072632,112.907776 199.071671,88.075241 199.066193,63.242702 
	C199.064804,56.931129 197.117737,54.977364 190.810516,54.976460 
	C152.145096,54.970894 113.479568,55.011307 74.814415,54.910069 
	C71.284256,54.900826 68.693771,55.756691 66.967216,59.496338 
	C66.967216,59.496338 67.052193,59.985470 66.869072,60.909359 
	C66.930138,87.610703 66.991203,114.312050 66.977158,141.505646 
	C66.977158,141.505646 67.236679,141.930634 67.441086,142.600937 
z"/>
<path fill="#A31FA8" opacity="1.000000" stroke="none" 
	d="
M67.182655,59.049061 
	C68.693771,55.756691 71.284256,54.900826 74.814415,54.910069 
	C113.479568,55.011307 152.145096,54.970894 190.810516,54.976460 
	C197.117737,54.977364 199.064804,56.931129 199.066193,63.242702 
	C199.071671,88.075241 199.072632,112.907776 199.065521,137.740311 
	C199.063721,143.981918 197.074615,145.920670 190.676971,145.921494 
	C152.178207,145.926498 113.679337,145.883636 75.180901,145.996017 
	C71.886276,146.005646 69.338951,145.297043 67.466705,142.156830 
	C67.345634,141.479599 67.198952,141.246506 67.052269,141.013397 
	C66.991203,114.312050 66.930138,87.610703 67.118805,60.375500 
	C67.440460,59.752357 67.591881,59.619606 67.570854,59.581139 
	C67.466415,59.390129 67.316528,59.223972 67.182655,59.049061 
M74.827927,131.832108 
	C86.833473,119.255600 98.839020,106.679085 110.970680,93.970459 
	C106.708267,90.771881 101.591393,86.853127 96.390961,83.048592 
	C89.040100,77.670860 81.627502,72.377525 73.538429,67.522575 
	C73.359428,68.318398 73.025360,69.113991 73.024132,69.910088 
	C72.993942,89.407639 72.978508,108.905327 73.048355,128.402664 
	C73.052612,129.591217 73.783020,130.777191 74.827927,131.832108 
M174.445801,137.999786 
	C177.844498,137.999786 181.243195,137.999786 183.862823,137.999786 
	C171.536102,125.465607 159.149292,112.870331 146.728226,100.240219 
	C138.338318,105.818497 129.404236,105.821289 119.165810,100.530617 
	C106.513786,113.256866 94.061836,125.781860 81.915161,137.999786 
	C111.920509,137.999786 142.690887,137.999786 174.445801,137.999786 
M139.500015,62.827854 
	C120.856224,62.827854 102.212433,62.827854 82.200241,62.827854 
	C97.151802,74.047470 110.845741,84.305069 124.517975,94.591492 
	C130.441422,99.048050 135.233810,99.110344 141.205734,94.653183 
	C147.203400,90.176834 153.173828,85.664024 159.160110,81.172409 
	C166.938263,75.336311 174.720291,69.505348 183.626968,62.827747 
	C168.303375,62.827747 154.401703,62.827747 139.500015,62.827854 
M187.124603,128.422958 
	C187.918900,129.857132 188.713181,131.291321 189.507477,132.725510 
	C189.969391,132.264099 190.431320,131.802704 190.893250,131.341309 
	C190.893250,110.096977 190.893250,88.852654 190.893250,66.994148 
	C178.135849,76.545418 165.968124,85.655197 153.559204,94.945557 
	C164.923965,106.278145 175.772537,117.096016 187.124603,128.422958 
z"/>
<path fill="#9B00A0" opacity="1.000000" stroke="none" 
	d="
M67.074936,59.272697 
	C67.316528,59.223972 67.466415,59.390129 67.570854,59.581139 
	C67.591881,59.619606 67.440460,59.752357 67.210373,59.913555 
	C67.052193,59.985470 66.967216,59.496338 67.074936,59.272697 
z"/>
<path fill="#9B00A0" opacity="1.000000" stroke="none" 
	d="
M67.014709,141.259521 
	C67.198952,141.246506 67.345634,141.479599 67.364502,141.821671 
	C67.236679,141.930634 66.977158,141.505646 67.014709,141.259521 
z"/>
<path fill="#FEFDFE" opacity="1.000000" stroke="none" 
	d="
M173.953522,137.999786 
	C142.690887,137.999786 111.920509,137.999786 81.915161,137.999786 
	C94.061836,125.781860 106.513786,113.256866 119.165810,100.530617 
	C129.404236,105.821289 138.338318,105.818497 146.728226,100.240219 
	C159.149292,112.870331 171.536102,125.465607 183.862823,137.999786 
	C181.243195,137.999786 177.844498,137.999786 173.953522,137.999786 
z"/>
<path fill="#FEFDFE" opacity="1.000000" stroke="none" 
	d="
M140.000031,62.827801 
	C154.401703,62.827747 168.303375,62.827747 183.626968,62.827747 
	C174.720291,69.505348 166.938263,75.336311 159.160110,81.172409 
	C153.173828,85.664024 147.203400,90.176834 141.205734,94.653183 
	C135.233810,99.110344 130.441422,99.048050 124.517975,94.591492 
	C110.845741,84.305069 97.151802,74.047470 82.200241,62.827854 
	C102.212433,62.827854 120.856224,62.827854 140.000031,62.827801 
z"/>
<path fill="#FCF8FC" opacity="1.000000" stroke="none" 
	d="
M74.241295,67.048119 
	C81.627502,72.377525 89.040100,77.670860 96.390961,83.048592 
	C101.591393,86.853127 106.708267,90.771881 110.970680,93.970459 
	C98.839020,106.679085 86.833473,119.255600 74.525787,131.432587 
	C74.229530,109.704758 74.235413,88.376442 74.241295,67.048119 
z"/>
<path fill="#FEFDFE" opacity="1.000000" stroke="none" 
	d="
M186.872864,128.168427 
	C175.772537,117.096016 164.923965,106.278145 153.559204,94.945557 
	C165.968124,85.655197 178.135849,76.545418 190.893250,66.994148 
	C190.893250,88.852654 190.893250,110.096977 190.893250,131.341309 
	C190.431320,131.802704 189.969391,132.264099 189.507477,132.725510 
	C188.713181,131.291321 187.918900,129.857132 186.872864,128.168427 
z"/>
<path fill="#9E05A3" opacity="1.000000" stroke="none" 
	d="
M73.889862,67.285347 
	C74.235413,88.376442 74.229530,109.704758 74.199600,131.498718 
	C73.783020,130.777191 73.052612,129.591217 73.048355,128.402664 
	C72.978508,108.905327 72.993942,89.407639 73.024132,69.910088 
	C73.025360,69.113991 73.359428,68.318398 73.889862,67.285347 
z"/>
</svg>