<?xml version="1.0" encoding="UTF-8"?>
<svg version="1.1" xmlns="http://www.w3.org/2000/svg" width="256" height="280">
<path d="M0 0 C84.48 0 168.96 0 256 0 C256 92.4 256 184.8 256 280 C171.52 280 87.04 280 0 280 C0 187.6 0 95.2 0 0 Z " fill="#FEFEFA" transform="translate(0,0)"/>
<path d="M0 0 C1.91329102 -0.04930664 1.91329102 -0.04930664 3.86523438 -0.09960938 C13.0064779 -0.1523381 13.0064779 -0.1523381 15.98486328 1.51123047 C17.31640625 2.83984375 17.31640625 2.83984375 19.0625 5.4375 C19.7225 6.0975 20.3825 6.7575 21.0625 7.4375 C21.30859566 10.05743599 21.30859566 10.05743599 21.30300903 13.44851685 C21.30575836 14.73021759 21.30850769 16.01191833 21.31134033 17.3324585 C21.30426155 18.76086518 21.29699193 20.18927094 21.28955078 21.61767578 C21.28898689 23.11548861 21.28930279 24.61330199 21.29043579 26.1111145 C21.29101118 30.18529441 21.27922682 34.25935729 21.26528788 38.33350992 C21.25281149 42.58829059 21.25161246 46.84307374 21.24923706 51.09786987 C21.24301318 59.15850339 21.22659011 67.21908285 21.20653808 75.27969253 C21.18420729 84.45488928 21.17319276 93.63008857 21.16314721 102.80530572 C21.14222464 121.68274071 21.1055371 140.56010158 21.0625 159.4375 C7.2025 159.4375 -6.6575 159.4375 -20.9375 159.4375 C-21.00520967 139.70551214 -21.06047752 119.97361828 -21.09293652 100.24154377 C-21.10840809 91.07968806 -21.12950317 81.91790963 -21.16381836 72.75610352 C-21.19371181 64.77105237 -21.21307289 56.7860572 -21.21976548 48.80095166 C-21.22367784 44.57254082 -21.23287843 40.3442901 -21.25469017 36.11593056 C-21.27505449 32.13591334 -21.28133394 28.15612219 -21.27682304 24.17605782 C-21.27764827 22.71555605 -21.28361437 21.25504671 -21.29511642 19.79459 C-21.31005783 17.79954247 -21.30466236 15.80437361 -21.29826355 13.8092804 C-21.30102893 12.69298909 -21.30379431 11.57669779 -21.30664349 10.42657948 C-20.88908173 7.04544092 -19.93022363 5.17362356 -17.9375 2.4375 C-12.95723377 -1.14717847 -5.84513632 0.02650188 0 0 Z " fill="#FEFC08" transform="translate(213.9375,100.5625)"/>
<path d="M0 0 C1.16853516 -0.00193359 2.33707031 -0.00386719 3.54101562 -0.00585938 C5.3440918 0.02991211 5.3440918 0.02991211 7.18359375 0.06640625 C8.9924707 0.0499707 8.9924707 0.0499707 10.83789062 0.03320312 C21.97047908 0.1254112 21.97047908 0.1254112 26.62109375 4.62890625 C27.64571525 7.70277075 27.74440527 9.78187315 27.74134827 13.00090027 C27.74272293 14.1156926 27.7440976 15.23048492 27.74551392 16.37905884 C27.740121 18.21432632 27.740121 18.21432632 27.73461914 20.08666992 C27.73476517 21.37457932 27.73491119 22.66248871 27.73506165 23.98942566 C27.73534888 27.52220711 27.72946407 31.05495469 27.72248769 34.58772826 C27.71624187 38.2792937 27.71564938 41.9708599 27.71446228 45.66242981 C27.71135259 52.65344934 27.70314408 59.64445326 27.69311279 66.63546592 C27.68194042 74.59426945 27.67643836 82.55307372 27.67141736 90.51188314 C27.66096117 106.88423476 27.64262018 123.25656487 27.62109375 139.62890625 C14.09109375 139.62890625 0.56109375 139.62890625 -13.37890625 139.62890625 C-13.53692427 122.24379806 -13.66586837 104.85930265 -13.74159145 87.47367573 C-13.77768561 79.40121565 -13.82689311 71.32923343 -13.90698242 63.25708008 C-13.97675584 56.22130506 -14.02191425 49.18587609 -14.03752571 42.14976472 C-14.04665172 38.42401078 -14.06809376 34.69924678 -14.11901665 30.9738102 C-14.17540849 26.8145318 -14.17683543 22.65697382 -14.17358398 18.49731445 C-14.19875092 17.26229187 -14.22391785 16.02726929 -14.24984741 14.75482178 C-14.18095851 6.63382568 -14.18095851 6.63382568 -11.87883282 3.74941158 C-8.07357443 0.90141081 -4.79698862 -0.00329288 0 0 Z " fill="#FEFC01" transform="translate(149.37890625,120.37109375)"/>
<path d="M0 0 C0.84064499 0.00007553 1.68128998 0.00015106 2.54740906 0.00022888 C3.45062393 0.00539017 4.35383881 0.01055145 5.28442383 0.01586914 C6.67640739 0.01799156 6.67640739 0.01799156 8.09651184 0.02015686 C11.06152566 0.02575602 14.02646407 0.03830835 16.99145508 0.05102539 C19.00121961 0.0560405 21.01098533 0.06060339 23.02075195 0.06469727 C27.9485154 0.07572518 32.87622245 0.09298922 37.80395508 0.11352539 C40.58206212 5.63810756 41.22817112 9.90033516 41.13208008 16.03930664 C41.13020691 16.86810837 41.12833374 17.6969101 41.12640381 18.55082703 C41.1197198 20.28962268 41.10587872 22.02840424 41.08520508 23.76708984 C41.05384438 26.43544401 41.04420842 29.10320766 41.03833008 31.77172852 C41.02916717 33.46509514 41.01879369 35.15845574 41.00708008 36.85180664 C41.0028302 37.6507283 40.99858032 38.44964996 40.99420166 39.27278137 C40.92122237 44.87899081 40.92122237 44.87899081 39.80395508 47.11352539 C39.14395508 47.11352539 38.48395508 47.11352539 37.80395508 47.11352539 C37.47395508 48.43352539 37.14395508 49.75352539 36.80395508 51.11352539 C35.54583008 51.15477539 34.28770508 51.19602539 32.99145508 51.23852539 C31.92991211 51.27333008 31.92991211 51.27333008 30.84692383 51.30883789 C28.80395508 51.11352539 28.80395508 51.11352539 25.80395508 49.11352539 C23.21254591 45.50957887 23.57442846 41.61695462 23.67895508 37.36352539 C23.68797852 36.66614258 23.69700195 35.96875977 23.70629883 35.25024414 C23.7297562 33.53785581 23.76562403 31.82564535 23.80395508 30.11352539 C21.82395508 30.60852539 21.82395508 30.60852539 19.80395508 31.11352539 C19.64926758 32.07258789 19.64926758 32.07258789 19.49145508 33.05102539 C19.15114258 34.07196289 19.15114258 34.07196289 18.80395508 35.11352539 C17.81395508 35.44352539 16.82395508 35.77352539 15.80395508 36.11352539 C15.47395508 37.10352539 15.14395508 38.09352539 14.80395508 39.11352539 C13.81395508 39.11352539 12.82395508 39.11352539 11.80395508 39.11352539 C11.80395508 39.77352539 11.80395508 40.43352539 11.80395508 41.11352539 C10.33520508 42.52368164 10.33520508 42.52368164 8.30395508 44.17602539 C5.19446763 46.80923571 2.46329028 49.52679704 -0.19604492 52.61352539 C-3.36653367 56.2833037 -6.73196352 59.42168045 -10.43823242 62.53930664 C-12.64454782 64.51518465 -14.36735587 66.79249697 -16.19604492 69.11352539 C-16.85604492 69.11352539 -17.51604492 69.11352539 -18.19604492 69.11352539 C-18.19604492 69.77352539 -18.19604492 70.43352539 -18.19604492 71.11352539 C-20.5053958 73.74140742 -21.83587599 74.99346908 -25.19604492 76.11352539 C-27.86716756 76.20789067 -30.51696668 76.25052216 -33.18823242 76.25415039 C-34.79631952 76.27247652 -36.40439284 76.29204666 -38.01245117 76.31274414 C-40.54279904 76.34171572 -43.07225864 76.36352562 -45.6027832 76.36401367 C-48.04873086 76.36735318 -50.49263962 76.40192343 -52.93823242 76.44165039 C-54.06659012 76.43104584 -54.06659012 76.43104584 -55.21774292 76.42022705 C-59.21026758 76.51244623 -60.97248733 76.92742604 -64.08105469 79.51513672 C-64.77900146 80.37260498 -65.47694824 81.23007324 -66.19604492 82.11352539 C-66.88827148 82.85473633 -67.58049805 83.59594727 -68.29370117 84.35961914 C-72.65228966 89.18375964 -72.65228966 89.18375964 -76.38354492 94.48852539 C-78.19604492 97.11352539 -78.19604492 97.11352539 -80.48120117 98.42993164 C-83.73644281 100.44864984 -85.90371716 102.8178096 -88.44604492 105.67602539 C-89.7531543 107.13202148 -89.7531543 107.13202148 -91.08666992 108.61743164 C-93.19300987 110.9110072 -93.19300987 110.9110072 -94.19604492 113.11352539 C-94.85604492 113.11352539 -95.51604492 113.11352539 -96.19604492 113.11352539 C-96.19604492 113.77352539 -96.19604492 114.43352539 -96.19604492 115.11352539 C-97.38354492 116.42602539 -97.38354492 116.42602539 -99.19604492 118.11352539 C-102.64694783 121.47116065 -105.8060223 124.94885413 -108.86401367 128.66040039 C-110.78228694 130.75306214 -111.8895687 131.09574056 -114.73216248 131.26069641 C-115.80233109 131.27054062 -116.87249969 131.28038483 -117.97509766 131.29052734 C-119.18652939 131.30336258 -120.39796112 131.31619781 -121.64610291 131.329422 C-123.61795311 131.3405024 -123.61795311 131.3405024 -125.62963867 131.35180664 C-126.29704638 131.35588217 -126.96445408 131.3599577 -127.65208626 131.36415672 C-131.1827679 131.38500989 -134.71341073 131.39931633 -138.24414062 131.40869141 C-141.89404715 131.41977083 -145.5433465 131.45418926 -149.19303799 131.49386311 C-151.99743297 131.51997825 -154.80168193 131.52837848 -157.60618782 131.53197289 C-159.60656016 131.539223 -161.60683287 131.56568056 -163.60704041 131.59236145 C-164.8216243 131.58943588 -166.03620819 131.58651031 -167.28759766 131.58349609 C-168.35856186 131.58936234 -169.42952606 131.59522858 -170.53294373 131.60127258 C-173.19604492 131.11352539 -173.19604492 131.11352539 -175.036026 129.20915222 C-176.26574086 126.98761651 -176.65663067 125.63603762 -176.69604492 123.11352539 C-176.72698242 122.45352539 -176.75791992 121.79352539 -176.78979492 121.11352539 C-175.78612499 117.73274246 -174.23369694 116.90647985 -171.19604492 115.11352539 C-167.16725529 114.55037446 -163.17490738 114.64893706 -159.11401367 114.72290039 C-157.94469803 114.72856018 -156.77538239 114.73421997 -155.57063293 114.74005127 C-151.84118467 114.76241603 -148.11270212 114.81261539 -144.38354492 114.86352539 C-141.85295985 114.88359014 -139.3223597 114.90184094 -136.79174805 114.91821289 C-130.59285164 114.9622813 -124.39451728 115.02919569 -118.19604492 115.11352539 C-117.91245117 114.50250977 -117.62885742 113.89149414 -117.33666992 113.26196289 C-115.47607425 109.75741624 -112.49563956 107.34781376 -109.64135742 104.63696289 C-107.33081607 102.39539292 -105.41243217 100.49712097 -103.82104492 97.67602539 C-101.7821955 94.46091669 -99.22458182 92.4586804 -96.33276367 90.01586914 C-92.2111645 86.34636495 -87.96165766 82.4103636 -86.19604492 77.11352539 C-81.8778631 72.34079812 -81.8778631 72.34079812 -78.19604492 71.11352539 C-77.1434781 69.25144835 -77.1434781 69.25144835 -76.19604492 67.11352539 C-74.00958316 63.80459518 -71.76323583 61.87515246 -68.19604492 60.11352539 C-61.79811621 58.94095197 -55.1617842 59.45595298 -48.69604492 59.67602539 C-46.90183483 59.71117739 -45.10755861 59.74310957 -43.31323242 59.77172852 C-38.93919102 59.84846563 -34.5683511 59.96903096 -30.19604492 60.11352539 C-29.86604492 59.12352539 -29.53604492 58.13352539 -29.19604492 57.11352539 C-28.53604492 56.78352539 -27.87604492 56.45352539 -27.19604492 56.11352539 C-26.86604492 55.12352539 -26.53604492 54.13352539 -26.19604492 53.11352539 C-25.53604492 53.11352539 -24.87604492 53.11352539 -24.19604492 53.11352539 C-24.19604492 52.45352539 -24.19604492 51.79352539 -24.19604492 51.11352539 C-22.58666992 49.67602539 -22.58666992 49.67602539 -20.44604492 48.11352539 C-19.74995117 47.59790039 -19.05385742 47.08227539 -18.33666992 46.55102539 C-16.19604492 45.11352539 -16.19604492 45.11352539 -14.05541992 44.23852539 C-11.48710042 42.68458418 -11.29515641 40.86938582 -10.19604492 38.11352539 C-7.88354492 35.76196289 -7.88354492 35.76196289 -5.19604492 33.48852539 C-2.36464554 31.07689743 -0.26699453 29.2199498 1.80395508 26.11352539 C2.46395508 26.11352539 3.12395508 26.11352539 3.80395508 26.11352539 C4.14426758 25.27821289 4.14426758 25.27821289 4.49145508 24.42602539 C6.16031565 21.48565199 8.39184173 19.46329009 10.80395508 17.11352539 C9.70696289 17.15993164 8.6099707 17.20633789 7.47973633 17.25415039 C6.02533658 17.29168329 4.57090724 17.32808182 3.11645508 17.36352539 C2.39522461 17.39704102 1.67399414 17.43055664 0.9309082 17.46508789 C-2.91377692 17.53531045 -4.7803172 17.36703132 -8.14916992 15.31274414 C-10.98561171 12.26519314 -11.26842201 10.23901919 -11.19604492 6.11352539 C-8.223262 1.22966774 -5.56710245 -0.01671803 0 0 Z " fill="#FDFC09" transform="translate(194.196044921875,2.886474609375)"/>
<path d="M0 0 C1.27617188 -0.02449219 2.55234375 -0.04898438 3.8671875 -0.07421875 C15.61822751 -0.11101741 15.61822751 -0.11101741 20.25 4.375 C22.3092938 7.4639407 22.4991689 8.08451803 22.49050903 11.57011414 C22.49325836 12.42406769 22.49600769 13.27802124 22.49884033 14.15785217 C22.49164978 15.09149094 22.48445923 16.0251297 22.47705078 16.98706055 C22.47734283 17.97260925 22.47763489 18.95815796 22.47793579 19.97357178 C22.47654066 23.2363765 22.46097073 26.49895384 22.4453125 29.76171875 C22.44158302 32.02187475 22.43873574 34.28203236 22.43673706 36.54219055 C22.42909547 42.49509127 22.40944241 48.44789462 22.3873291 54.40075684 C22.36688203 60.47353803 22.35773778 66.54633494 22.34765625 72.61914062 C22.32619705 84.53781011 22.29101057 96.45638173 22.25 108.375 C8.39 108.375 -5.47 108.375 -19.75 108.375 C-19.84037984 95.44025491 -19.91376174 82.50571964 -19.95724869 69.57073021 C-19.97812055 63.56444947 -20.00643146 57.55839602 -20.05175781 51.55224609 C-20.09522898 45.75562939 -20.11914013 39.95923128 -20.12950897 34.16246414 C-20.13689798 31.9512653 -20.15132696 29.74007838 -20.17292023 27.52897263 C-20.2019704 24.430999 -20.20595523 21.33392783 -20.20410156 18.23583984 C-20.21848267 17.32233765 -20.23286377 16.40883545 -20.24768066 15.46765137 C-20.15534581 1.19988657 -12.2460701 0.01222163 0 0 Z " fill="#FEFC02" transform="translate(97.75,151.625)"/>
<path d="M0 0 C2.00820326 -0.01185994 4.01606636 -0.06155352 6.02368164 -0.11157227 C7.93697266 -0.12220703 7.93697266 -0.12220703 9.88891602 -0.13305664 C11.05334229 -0.14651123 12.21776855 -0.15996582 13.41748047 -0.17382812 C17.50709048 0.56993012 20.1283611 2.22538149 22.71313477 5.42553711 C23.29330825 8.29007466 23.48071259 10.3032163 23.39428711 13.15332031 C23.39560135 14.29558327 23.39560135 14.29558327 23.39694214 15.46092224 C23.39277625 17.9671138 23.34617796 20.47059711 23.29907227 22.97631836 C23.28787641 24.71793658 23.27933806 26.45957375 23.27334595 28.20121765 C23.25047787 32.77691158 23.19157307 37.35145591 23.12512207 41.92669678 C23.05284147 47.42061862 23.02538377 52.9149257 22.99040222 58.40918732 C22.93229132 66.74876919 22.81730875 75.08583064 22.71313477 83.42553711 C8.85313477 83.42553711 -5.00686523 83.42553711 -19.28686523 83.42553711 C-19.28686523 58.01553711 -19.28686523 32.60553711 -19.28686523 6.42553711 C-18.62686523 6.42553711 -17.96686523 6.42553711 -17.28686523 6.42553711 C-17.01874023 5.80678711 -16.75061523 5.18803711 -16.47436523 4.55053711 C-13.0962117 -1.49457975 -6.02662024 0.01685665 0 0 Z " fill="#FEFC09" transform="translate(39.286865234375,176.574462890625)"/>
<path d="M0 0 C1.16853516 -0.00193359 2.33707031 -0.00386719 3.54101562 -0.00585938 C5.3440918 0.02991211 5.3440918 0.02991211 7.18359375 0.06640625 C8.9924707 0.0499707 8.9924707 0.0499707 10.83789062 0.03320312 C21.97047908 0.1254112 21.97047908 0.1254112 26.62109375 4.62890625 C27.64571525 7.70277075 27.74440527 9.78187315 27.74134827 13.00090027 C27.74272293 14.1156926 27.7440976 15.23048492 27.74551392 16.37905884 C27.740121 18.21432632 27.740121 18.21432632 27.73461914 20.08666992 C27.73476517 21.37457932 27.73491119 22.66248871 27.73506165 23.98942566 C27.73534888 27.52220711 27.72946407 31.05495469 27.72248769 34.58772826 C27.71624187 38.2792937 27.71564938 41.9708599 27.71446228 45.66242981 C27.71135259 52.65344934 27.70314408 59.64445326 27.69311279 66.63546592 C27.68194042 74.59426945 27.67643836 82.55307372 27.67141736 90.51188314 C27.66096117 106.88423476 27.64262018 123.25656487 27.62109375 139.62890625 C14.09109375 139.62890625 0.56109375 139.62890625 -13.37890625 139.62890625 C-13.53692427 122.24379806 -13.66586837 104.85930265 -13.74159145 87.47367573 C-13.77768561 79.40121565 -13.82689311 71.32923343 -13.90698242 63.25708008 C-13.97675584 56.22130506 -14.02191425 49.18587609 -14.03752571 42.14976472 C-14.04665172 38.42401078 -14.06809376 34.69924678 -14.11901665 30.9738102 C-14.17540849 26.8145318 -14.17683543 22.65697382 -14.17358398 18.49731445 C-14.19875092 17.26229187 -14.22391785 16.02726929 -14.24984741 14.75482178 C-14.18095851 6.63382568 -14.18095851 6.63382568 -11.87883282 3.74941158 C-8.07357443 0.90141081 -4.79698862 -0.00329288 0 0 Z M-10.37890625 4.62890625 C-10.37890625 5.28890625 -10.37890625 5.94890625 -10.37890625 6.62890625 C-11.03890625 6.62890625 -11.69890625 6.62890625 -12.37890625 6.62890625 C-12.37890625 50.18890625 -12.37890625 93.74890625 -12.37890625 138.62890625 C0.16109375 138.62890625 12.70109375 138.62890625 25.62109375 138.62890625 C25.62109375 95.06890625 25.62109375 51.50890625 25.62109375 6.62890625 C24.96109375 6.62890625 24.30109375 6.62890625 23.62109375 6.62890625 C22.96109375 5.30890625 22.30109375 3.98890625 21.62109375 2.62890625 C17.54601803 2.57943759 13.47105878 2.54315436 9.39575195 2.51904297 C8.00965327 2.50899055 6.62357576 2.49534655 5.23754883 2.47802734 C3.24439625 2.45374673 1.25108842 2.44348594 -0.7421875 2.43359375 C-1.94141846 2.42312012 -3.14064941 2.41264648 -4.3762207 2.40185547 C-7.56053452 2.39582553 -7.56053452 2.39582553 -10.37890625 4.62890625 Z " fill="#F8F633" transform="translate(149.37890625,120.37109375)"/>
<path d="M0 0 C3 3 3 3 3.36914349 4.94649792 C3.36499542 6.05956295 3.36499542 6.05956295 3.36076355 7.19511414 C3.36488754 8.04906769 3.36901154 8.90302124 3.3732605 9.78285217 C3.36247467 10.71649094 3.35168884 11.6501297 3.34057617 12.61206055 C3.34123329 14.09038361 3.34123329 14.09038361 3.34190369 15.59857178 C3.33981093 18.86148782 3.31645653 22.12389229 3.29296875 25.38671875 C3.28737454 27.64687316 3.28310362 29.90703121 3.28010559 32.16719055 C3.2686431 38.12014789 3.23916366 44.07288615 3.20599365 50.02575684 C3.17532312 56.09852128 3.1616067 62.17132108 3.14648438 68.24414062 C3.11429541 80.16287223 3.06151585 92.08138364 3 104 C-10.86 104 -24.72 104 -39 104 C-39 71 -39 38 -39 4 C-38.67 4 -38.34 4 -38 4 C-38 36.67 -38 69.34 -38 103 C-25.13 103 -12.26 103 1 103 C0.67 69.01 0.34 35.02 0 0 Z " fill="#FDF942" transform="translate(117,156)"/>
<path d="M0 0 C0.495 0.99 0.495 0.99 1 2 C0.67 2.66 0.34 3.32 0 4 C-2.83021182 4.94340394 -4.82883906 5.18975944 -7.77734375 5.31640625 C-8.75324463 5.35838135 -9.72914551 5.40035645 -10.73461914 5.44360352 C-11.79156982 5.48283936 -12.84852051 5.5220752 -13.9375 5.5625 C-15.57029907 5.62618774 -15.57029907 5.62618774 -17.23608398 5.69116211 C-30.1550339 6.14637077 -43.07515337 6.09436314 -56 6 C-56 6.66 -56 7.32 -56 8 C-56.66 8 -57.32 8 -58 8 C-58 9.98 -58 11.96 -58 14 C-57.34 14 -56.68 14 -56 14 C-56.33 15.32 -56.66 16.64 -57 18 C-59.1272776 14.8090836 -59.33381412 12.79840226 -59.55859375 9.03515625 C-58.61797697 5.60815387 -57.05761194 4.80141792 -54 3 C-49.97115795 2.43709377 -45.97888702 2.53541122 -41.91796875 2.609375 C-40.16399529 2.61786469 -40.16399529 2.61786469 -38.37458801 2.62652588 C-34.64513975 2.64889064 -30.9166572 2.69909 -27.1875 2.75 C-24.65691493 2.77006475 -22.12631478 2.78831555 -19.59570312 2.8046875 C-13.39680672 2.84875591 -7.19847236 2.91567029 -1 3 C-0.67 2.01 -0.34 1.02 0 0 Z " fill="#FCFA31" transform="translate(77,115)"/>
<path d="M0 0 C3 1 3 1 5 4 C5.23271368 6.97521195 5.35209823 9.85433561 5.37109375 12.83203125 C5.38463646 14.13608162 5.38463646 14.13608162 5.39845276 15.46647644 C5.41296008 17.30647334 5.4218432 19.14652188 5.42553711 20.98657227 C5.43741352 23.79207166 5.48657489 26.59535682 5.53710938 29.40039062 C5.54657626 31.19009346 5.55381003 32.97980977 5.55859375 34.76953125 C5.57812607 35.60410355 5.59765839 36.43867584 5.61778259 37.29853821 C5.58568122 41.47482899 5.27950738 44.20068579 2.64599609 47.5402832 C0 50 0 50 -2.89453125 50.5859375 C-3.85746094 50.51632813 -4.82039062 50.44671875 -5.8125 50.375 C-6.78832031 50.32085937 -7.76414063 50.26671875 -8.76953125 50.2109375 C-9.50558594 50.14132813 -10.24164063 50.07171875 -11 50 C-11 49.34 -11 48.68 -11 48 C-11.66 48 -12.32 48 -13 48 C-13.33 46.35 -13.66 44.7 -14 43 C-13.34 43.33 -12.68 43.66 -12 44 C-12 44.99 -12 45.98 -12 47 C-9.24921116 47.91692961 -7.64051087 48.10886083 -4.8125 48.0625 C-3.554375 48.041875 -2.29625 48.02125 -1 48 C-0.67 47.01 -0.34 46.02 0 45 C0.66 45 1.32 45 2 45 C2.04951793 39.39495119 2.08577555 33.79003035 2.10986328 28.18481445 C2.11990737 26.2788674 2.13354516 24.37293571 2.15087891 22.46704102 C2.17519718 19.72408248 2.18649912 16.98132809 2.1953125 14.23828125 C2.20563507 13.38913651 2.21595764 12.53999176 2.22659302 11.66511536 C2.22741351 7.31744045 2.03452583 3.9599335 0 0 Z " fill="#FFFED0" transform="translate(232,5)"/>
<path d="M0 0 C0.7425 0.185625 1.485 0.37125 2.25 0.5625 C5.00356798 1.00056763 6.38672389 0.78398283 9 0 C11.62113708 0 13.50935112 0.31292445 16 1 C16 2.32 16 3.64 16 5 C17.32 5 18.64 5 20 5 C19.67 3.35 19.34 1.7 19 0 C19.66 0 20.32 0 21 0 C21.625 2.875 21.625 2.875 22 6 C21.34 6.66 20.68 7.32 20 8 C20 7.34 20 6.68 20 6 C18.9171875 6.5259375 18.9171875 6.5259375 17.8125 7.0625 C14.62493482 8.12502173 13.20587119 7.73981643 10 7 C9.29875 7.20625 8.5975 7.4125 7.875 7.625 C7.25625 7.74875 6.6375 7.8725 6 8 C4.25 6.5625 4.25 6.5625 3 5 C2.67 5.33 2.34 5.66 2 6 C2.66 6.66 3.32 7.32 4 8 C2.35 8 0.7 8 -1 8 C-0.690625 7.401875 -0.38125 6.80375 -0.0625 6.1875 C1.10209704 3.91043228 1.10209704 3.91043228 2 1 C1.34 0.67 0.68 0.34 0 0 Z " fill="#979797" transform="translate(147,267)"/>
<path d="M0 0 C0.66 0.33 1.32 0.66 2 1 C0.28542031 4.61766528 -1.63507035 6.81033641 -5 9 C-11.61939813 10.56159536 -18.68367234 10.0736845 -25.4375 10 C-27.33270123 10.00809707 -29.22789074 10.01977907 -31.12304688 10.03515625 C-35.74959356 10.06491411 -40.37360803 10.0456771 -45 10 C-44.34 9.01 -43.68 8.02 -43 7 C-40.02705026 6.66236412 -37.25257498 6.51086962 -34.2734375 6.48828125 C-33.41062164 6.47033005 -32.54780579 6.45237885 -31.65884399 6.43388367 C-28.89761269 6.3796148 -26.13655582 6.34583243 -23.375 6.3125 C-21.50518397 6.2793415 -19.635391 6.24485322 -17.765625 6.20898438 C-13.17720891 6.12387904 -8.58884604 6.05714746 -4 6 C-3.34 4.68 -2.68 3.36 -2 2 C-1.34 2 -0.68 2 0 2 C0 1.34 0 0.68 0 0 Z " fill="#FEFEB2" transform="translate(176,72)"/>
<path d="M0 0 C0 0.99 0 1.98 0 3 C-1.19077148 3.02505615 -2.38154297 3.0501123 -3.60839844 3.07592773 C-8.02907958 3.17014647 -12.4496089 3.27033189 -16.87011719 3.37231445 C-18.78284146 3.41560857 -20.695603 3.45728756 -22.60839844 3.49731445 C-25.35883818 3.5551508 -28.10909128 3.61880676 -30.859375 3.68359375 C-31.71368103 3.70030624 -32.56798706 3.71701874 -33.44818115 3.73423767 C-34.24870911 3.75418289 -35.04923706 3.77412811 -35.87402344 3.79467773 C-36.57573669 3.81022202 -37.27744995 3.8257663 -38.00042725 3.84178162 C-40.09185797 4.00726836 -41.98256308 4.43584497 -44 5 C-44 4.01 -44 3.02 -44 2 C-40.63667449 0.31833725 -36.82829753 0.75569838 -33.125 0.68359375 C-32.24473145 0.66281265 -31.36446289 0.64203156 -30.45751953 0.62062073 C-27.63842719 0.5551378 -24.81923941 0.49627414 -22 0.4375 C-20.09894854 0.39430899 -18.19790666 0.35069451 -16.296875 0.30664062 C-2.88463548 0 -2.88463548 0 0 0 Z " fill="#FEFED6" transform="translate(230,0)"/>
<path d="M0 0 C0 1.65 0 3.3 0 5 C0.66 5 1.32 5 2 5 C1.67 6.32 1.34 7.64 1 9 C0.46503906 8.18273437 -0.06992188 7.36546875 -0.62109375 6.5234375 C-3.60276399 3.54701853 -6.37060621 3.58759888 -10.47265625 3.4765625 C-13.00297525 3.50044595 -15.53315434 3.55087062 -18.0625 3.625 C-19.34189453 3.63917969 -20.62128906 3.65335937 -21.93945312 3.66796875 C-29.05458771 3.6755804 -29.05458771 3.6755804 -36 5 C-36 4.34 -36 3.68 -36 3 C-35.01 3 -34.02 3 -33 3 C-33 2.34 -33 1.68 -33 1 C-28.62175807 0.85717344 -24.24350273 0.71476747 -19.86523438 0.57275391 C-18.37532174 0.52436747 -16.88541286 0.47586542 -15.39550781 0.42724609 C-13.2558691 0.3574443 -11.11621732 0.28805616 -8.9765625 0.21875 C-7.04417725 0.1559082 -7.04417725 0.1559082 -5.07275391 0.09179688 C-3.38231328 0.04129587 -1.69119481 0 0 0 Z " fill="#FEFEB8" transform="translate(232,98)"/>
<path d="M0 0 C1.80887695 -0.01643555 1.80887695 -0.01643555 3.65429688 -0.03320312 C14.7824475 0.05896819 14.7824475 0.05896819 19.4375 4.5625 C19.4375 5.2225 19.4375 5.8825 19.4375 6.5625 C18.4475 6.5625 17.4575 6.5625 16.4375 6.5625 C15.7775 5.5725 15.1175 4.5825 14.4375 3.5625 C11.47919938 3.1277755 11.47919938 3.1277755 8.00390625 3.234375 C6.0712793 3.24210937 6.0712793 3.24210937 4.09960938 3.25 C3.09063599 3.26546875 3.09063599 3.26546875 2.0612793 3.28125 C0.01136999 3.31232763 -2.03776937 3.32221332 -4.08789062 3.328125 C-10.93315379 3.22223064 -10.93315379 3.22223064 -17.5625 4.5625 C-17.5625 5.2225 -17.5625 5.8825 -17.5625 6.5625 C-18.2225 6.5625 -18.8825 6.5625 -19.5625 6.5625 C-19.5625 8.2125 -19.5625 9.8625 -19.5625 11.5625 C-19.8925 11.5625 -20.2225 11.5625 -20.5625 11.5625 C-21 8.875 -21 8.875 -20.5625 5.5625 C-14.43301117 -0.5491186 -8.31405561 -0.16494373 0 0 Z " fill="#F9F849" transform="translate(156.5625,120.4375)"/>
<path d="M0 0 C0.33 0.99 0.66 1.98 1 3 C2.98 3 4.96 3 7 3 C7 4.65 7 6.3 7 8 C7.66 8 8.32 8 9 8 C9 6.35 9 4.7 9 3 C9.99 3 10.98 3 12 3 C12.33 2.34 12.66 1.68 13 1 C13 1.66 13 2.32 13 3 C13.99 3 14.98 3 16 3 C16.33 2.34 16.66 1.68 17 1 C17 1.66 17 2.32 17 3 C17.66 3.33 18.32 3.66 19 4 C18.34 4 17.68 4 17 4 C17 5.32 17 6.64 17 8 C17.66 8.33 18.32 8.66 19 9 C18.01 9 17.02 9 16 9 C16 7.35 16 5.7 16 4 C15.01 4 14.02 4 13 4 C13 5.32 13 6.64 13 8 C13.66 8.33 14.32 8.66 15 9 C11.04 9 7.08 9 3 9 C3 7.35 3 5.7 3 4 C2.34 4 1.68 4 1 4 C1 5.65 1 7.3 1 9 C0.67 9 0.34 9 0 9 C0 6.03 0 3.06 0 0 Z " fill="#737373" transform="translate(58,266)"/>
<path d="M0 0 C2.71801758 -0.38818359 2.71801758 -0.38818359 6.14453125 -0.3984375 C7.37880859 -0.40230469 8.61308594 -0.40617188 9.88476562 -0.41015625 C11.82899414 -0.39275391 11.82899414 -0.39275391 13.8125 -0.375 C15.09705078 -0.38660156 16.38160156 -0.39820313 17.70507812 -0.41015625 C19.56229492 -0.40435547 19.56229492 -0.40435547 21.45703125 -0.3984375 C22.59116455 -0.39505371 23.72529785 -0.39166992 24.89379883 -0.38818359 C28.3018011 0.03771624 30.21739805 1.03707169 33 3 C32.34 3.33 31.68 3.66 31 4 C30.01 3.67 29.02 3.34 28 3 C25.7161483 2.91621372 23.429899 2.89270085 21.14453125 2.90234375 C20.48289474 2.9037587 19.82125824 2.90517365 19.13957214 2.90663147 C17.03050172 2.91222004 14.92153823 2.92477035 12.8125 2.9375 C11.38086091 2.94251648 9.94922015 2.94707913 8.51757812 2.95117188 C5.01168412 2.9621857 1.5058525 2.97944245 -2 3 C-1.34 2.01 -0.68 1.02 0 0 Z " fill="#FCFA42" transform="translate(84,152)"/>
<path d="M0 0 C0.66 0 1.32 0 2 0 C1.19626666 5.37792162 -2.91803329 7.83202204 -7 11 C-8.66324401 12.00568242 -10.32936253 13.00664799 -12 14 C-13.7041054 15.62836738 -15.38025441 17.28769752 -17 19 C-17.66 18.67 -18.32 18.34 -19 18 C-16.88094537 15.82722286 -14.75527122 13.66173092 -12.625 11.5 C-12.02171875 10.87996094 -11.4184375 10.25992188 -10.796875 9.62109375 C-10.21679688 9.03457031 -9.63671875 8.44804688 -9.0390625 7.84375 C-8.50490723 7.29912109 -7.97075195 6.75449219 -7.42041016 6.19335938 C-6 5 -6 5 -4 5 C-4 4.34 -4 3.68 -4 3 C-3.01 2.67 -2.02 2.34 -1 2 C-0.67 1.34 -0.34 0.68 0 0 Z " fill="#FDFDAB" transform="translate(210,39)"/>
<path d="M0 0 C0 0.99 0 1.98 0 3 C-0.66 3.66 -1.32 4.32 -2 5 C-2.309375 5.804375 -2.61875 6.60875 -2.9375 7.4375 C-3.99543481 9.98898982 -4.85348838 11.3006783 -7 13 C-7.66 13 -8.32 13 -9 13 C-9 13.66 -9 14.32 -9 15 C-11 16.625 -11 16.625 -13 18 C-13.66 17.67 -14.32 17.34 -15 17 C-13.75282088 13.25846263 -11.90112219 11.62482484 -9 9 C-8.01 8.67 -7.02 8.34 -6 8 C-5.31513275 6.67592331 -4.65129797 5.34090759 -4 4 C-2.70529025 2.62913085 -1.37849103 1.28659163 0 0 Z " fill="#FCFA5A" transform="translate(122,66)"/>
<path d="M0 0 C2.01822917 0.06510417 4.03645833 0.13020833 6.0546875 0.1953125 C6.3846875 1.8453125 6.7146875 3.4953125 7.0546875 5.1953125 C3.64905898 5.97374188 0.54702994 6.29509371 -2.9453125 6.1953125 C-3.5703125 4.3203125 -3.5703125 4.3203125 -3.9453125 2.1953125 C-1.9453125 0.1953125 -1.9453125 0.1953125 0 0 Z " fill="#9C9C9C" transform="translate(119.9453125,268.8046875)"/>
<path d="M0 0 C2.97 0 5.94 0 9 0 C7.125 5.75 7.125 5.75 6 8 C5.34 8 4.68 8 4 8 C4 7.34 4 6.68 4 6 C3.34 6 2.68 6 2 6 C1.67 6.66 1.34 7.32 1 8 C1 7.34 1 6.68 1 6 C0.01 5.67 -0.98 5.34 -2 5 C-1.01 5 -0.02 5 1 5 C0.67 3.35 0.34 1.7 0 0 Z " fill="#939393" transform="translate(196,267)"/>
<path d="M0 0 C0.81726563 0.15339844 1.63453125 0.30679687 2.4765625 0.46484375 C6.44624772 1.0677782 10.36946033 1.34157964 14.375 1.5625 C15.11105469 1.60568359 15.84710938 1.64886719 16.60546875 1.69335938 C18.40348068 1.79843799 20.20171958 1.89962093 22 2 C21.67 3.65 21.34 5.3 21 7 C20.34 6.67 19.68 6.34 19 6 C19.33 5.34 19.66 4.68 20 4 C18.89140625 4.04640625 17.7828125 4.0928125 16.640625 4.140625 C15.17711032 4.17815102 13.71356644 4.21455029 12.25 4.25 C11.15558594 4.30027344 11.15558594 4.30027344 10.0390625 4.3515625 C6.32855625 4.41902625 4.42843039 4.34327652 1.484375 1.984375 C0.99453125 1.32953125 0.5046875 0.6746875 0 0 Z " fill="#FCFB37" transform="translate(185,16)"/>
<path d="M0 0 C0 3.69834896 -0.81364222 4.27081428 -3.25 6.9375 C-3.889375 7.63746094 -4.52875 8.33742188 -5.1875 9.05859375 C-5.785625 9.69925781 -6.38375 10.33992188 -7 11 C-7.7425 11.825 -8.485 12.65 -9.25 13.5 C-11 15 -11 15 -14 15 C-13.67 14.01 -13.34 13.02 -13 12 C-12.34 11.67 -11.68 11.34 -11 11 C-10.67 10.01 -10.34 9.02 -10 8 C-9.34 8 -8.68 8 -8 8 C-8 7.34 -8 6.68 -8 6 C-6.25 4.4921875 -6.25 4.4921875 -4 2.875 C-3.2575 2.33617187 -2.515 1.79734375 -1.75 1.2421875 C-1.1725 0.83226562 -0.595 0.42234375 0 0 Z " fill="#FCF937" transform="translate(178,48)"/>
<path d="M0 0 C0.7425 0.185625 1.485 0.37125 2.25 0.5625 C4.94990963 0.99203108 6.44631077 0.85122974 9 0 C9.75 1.75 9.75 1.75 10 4 C8.0625 6.25 8.0625 6.25 6 8 C5.67 7.01 5.34 6.02 5 5 C4.01 5.33 3.02 5.66 2 6 C2.66 6.66 3.32 7.32 4 8 C2.35 8 0.7 8 -1 8 C-0.690625 7.401875 -0.38125 6.80375 -0.0625 6.1875 C1.10209704 3.91043228 1.10209704 3.91043228 2 1 C1.34 0.67 0.68 0.34 0 0 Z " fill="#767777" transform="translate(171,267)"/>
<path d="M0 0 C2.64 0.33 5.28 0.66 8 1 C8.33 2.65 8.66 4.3 9 6 C7.125 6.625 7.125 6.625 5 7 C4.34 6.34 3.68 5.68 3 5 C2.67 5.33 2.34 5.66 2 6 C2.66 6.66 3.32 7.32 4 8 C2.35 8 0.7 8 -1 8 C-0.690625 7.401875 -0.38125 6.80375 -0.0625 6.1875 C1.10209704 3.91043228 1.10209704 3.91043228 2 1 C1.34 0.67 0.68 0.34 0 0 Z " fill="#959595" transform="translate(147,267)"/>
<path d="M0 0 C-0.57295447 3.53063839 -1.77770103 5.08900518 -4.375 7.5 C-6.85265729 9.86573027 -9.06452941 12.15371972 -11 15 C-11.99 14.67 -12.98 14.34 -14 14 C-13.401875 13.443125 -12.80375 12.88625 -12.1875 12.3125 C-9.9453964 10.11435679 -9.9453964 10.11435679 -8.5625 7.5625 C-3.95121951 0 -3.95121951 0 0 0 Z " fill="#FAFA31" transform="translate(99,93)"/>
<path d="M0 0 C0.33 0.66 0.66 1.32 1 2 C-0.45072247 4.00593724 -1.90991029 6.00460174 -3.375 8 C-3.7875 8.57234375 -4.2 9.1446875 -4.625 9.734375 C-5.70171719 11.19315312 -6.84666578 12.60100976 -8 14 C-8.66 14 -9.32 14 -10 14 C-10 14.66 -10 15.32 -10 16 C-11.32 16.33 -12.64 16.66 -14 17 C-12.02693614 13.44848506 -9.91065146 10.81675948 -7 8 C-6.34 7.01 -5.68 6.02 -5 5 C-4.34 5 -3.68 5 -3 5 C-3 4.34 -3 3.68 -3 3 C-2.34 3 -1.68 3 -1 3 C-0.67 2.01 -0.34 1.02 0 0 Z " fill="#FEFDB2" transform="translate(101,113)"/>
<path d="M0 0 C3.125 0.375 3.125 0.375 6 1 C6 2.32 6 3.64 6 5 C6.66 5.33 7.32 5.66 8 6 C7.443125 5.814375 6.88625 5.62875 6.3125 5.4375 C3.600867 4.92448835 1.65628961 5.3359276 -1 6 C-1.625 4.125 -1.625 4.125 -2 2 C-1.34 1.34 -0.68 0.68 0 0 Z " fill="#8A8A8A" transform="translate(98,269)"/>
<path d="M0 0 C0.33 0.99 0.66 1.98 1 3 C0.67 3.66 0.34 4.32 0 5 C-0.66 5 -1.32 5 -2 5 C-2 5.66 -2 6.32 -2 7 C-2.66 7 -3.32 7 -4 7 C-4 7.66 -4 8.32 -4 9 C-4.66 9 -5.32 9 -6 9 C-6 9.66 -6 10.32 -6 11 C-7.65 11.66 -9.3 12.32 -11 13 C-7.61227103 8.30840284 -4.21814817 3.9700218 0 0 Z " fill="#FDFDA6" transform="translate(113,100)"/>
<path d="M0 0 C0.99 0.495 0.99 0.495 2 1 C2 1.99 2 2.98 2 4 C4.75078884 4.91692961 6.35948913 5.10886083 9.1875 5.0625 C10.445625 5.041875 11.70375 5.02125 13 5 C13.33 4.01 13.66 3.02 14 2 C14.66 2 15.32 2 16 2 C16.33 1.34 16.66 0.68 17 0 C16.25 4.75 16.25 4.75 14 7 C11.3984375 7.1953125 11.3984375 7.1953125 8.375 7.125 C6.87066406 7.09792969 6.87066406 7.09792969 5.3359375 7.0703125 C4.56507813 7.04710937 3.79421875 7.02390625 3 7 C3 6.34 3 5.68 3 5 C2.34 5 1.68 5 1 5 C0.67 3.35 0.34 1.7 0 0 Z " fill="#FEFEC3" transform="translate(218,48)"/>
<path d="M0 0 C0.66 0 1.32 0 2 0 C2 0.99 2 1.98 2 3 C5.63 3 9.26 3 13 3 C12.67 3.99 12.34 4.98 12 6 C10.741875 6.04125 9.48375 6.0825 8.1875 6.125 C7.47980469 6.14820313 6.77210938 6.17140625 6.04296875 6.1953125 C4 6 4 6 1 4 C0.3125 1.875 0.3125 1.875 0 0 Z " fill="#FAF943" transform="translate(219,48)"/>
<path d="M0 0 C1.32 0.33 2.64 0.66 4 1 C4 2.32 4 3.64 4 5 C5.32 5 6.64 5 8 5 C7.67 3.35 7.34 1.7 7 0 C7.66 0 8.32 0 9 0 C9.625 2.875 9.625 2.875 10 6 C9.34 6.66 8.68 7.32 8 8 C8 7.34 8 6.68 8 6 C6.8553125 6.5259375 6.8553125 6.5259375 5.6875 7.0625 C3 8 3 8 0 7 C0.66 6.67 1.32 6.34 2 6 C2 4.68 2 3.36 2 2 C1.34 1.34 0.68 0.68 0 0 Z " fill="#464646" transform="translate(159,267)"/>
<path d="M0 0 C0.66 0.33 1.32 0.66 2 1 C2 1.66 2 2.32 2 3 C2.31478446 4.33783393 2.64587656 5.67203709 3 7 C1.68 7.33 0.36 7.66 -1 8 C-1.625 5.6875 -1.625 5.6875 -2 3 C-1.34 2.01 -0.68 1.02 0 0 Z " fill="#7E7E7E" transform="translate(184,267)"/>
<path d="M0 0 C0.99 0.33 1.98 0.66 3 1 C1.02 1.99 1.02 1.99 -1 3 C-1 3.66 -1 4.32 -1 5 C-3 6.625 -3 6.625 -5 8 C-5.66 7.67 -6.32 7.34 -7 7 C-5.65117186 2.95351557 -3.65173931 2.04497401 0 0 Z " fill="#FAFA33" transform="translate(114,76)"/>
<path d="M0 0 C0.33 0.66 0.66 1.32 1 2 C1.99 2 2.98 2 4 2 C4.33 1.34 4.66 0.68 5 0 C5 0.66 5 1.32 5 2 C5.66 2.33 6.32 2.66 7 3 C6.34 3 5.68 3 5 3 C5 4.32 5 5.64 5 7 C5.66 7.33 6.32 7.66 7 8 C6.01 8 5.02 8 4 8 C4 6.35 4 4.7 4 3 C3.01 3 2.02 3 1 3 C1 4.32 1 5.64 1 7 C1.66 7.33 2.32 7.66 3 8 C2.01 8 1.02 8 0 8 C0 5.36 0 2.72 0 0 Z " fill="#4C4C4C" transform="translate(70,267)"/>
<path d="M0 0 C0 3.58912412 -0.66436554 4.10857029 -3 6.6875 C-3.556875 7.31011719 -4.11375 7.93273438 -4.6875 8.57421875 C-5.120625 9.04472656 -5.55375 9.51523437 -6 10 C-6.99 9.67 -7.98 9.34 -9 9 C-8.01 8.67 -7.02 8.34 -6 8 C-5.690625 7.21625 -5.38125 6.4325 -5.0625 5.625 C-3.85791386 2.64896365 -2.66841391 1.68999547 0 0 Z " fill="#F9FA2F" transform="translate(188,38)"/>
<path d="M0 0 C1.32 0 2.64 0 4 0 C3.43628586 3.26954202 2.50037734 4.82575883 0 7 C-1.125 2.25 -1.125 2.25 0 0 Z " fill="#E5E7E7" transform="translate(169,268)"/>
<path d="M0 0 C1.32 0 2.64 0 4 0 C4 0.99 4 1.98 4 3 C3.01 3 2.02 3 1 3 C1 3.66 1 4.32 1 5 C1.99 5.33 2.98 5.66 4 6 C2.68 6 1.36 6 0 6 C-1.125 2.25 -1.125 2.25 0 0 Z " fill="#676767" transform="translate(78,269)"/>
<path d="M0 0 C0.66 0.33 1.32 0.66 2 1 C0.625 3.5 0.625 3.5 -1 6 C-1.66 6 -2.32 6 -3 6 C-3 6.66 -3 7.32 -3 8 C-3.99 8 -4.98 8 -6 8 C-6 7.34 -6 6.68 -6 6 C-5.34 6 -4.68 6 -4 6 C-3.71125 5.38125 -3.4225 4.7625 -3.125 4.125 C-2 2 -2 2 0 0 Z " fill="#FCFB53" transform="translate(202,23)"/>
<path d="M0 0 C0.99 0 1.98 0 3 0 C3 1.98 3 3.96 3 6 C1.68 6 0.36 6 -1 6 C-0.67 4.02 -0.34 2.04 0 0 Z " fill="#8D8D8D" transform="translate(53,269)"/>
<path d="M0 0 C0.33 0.99 0.66 1.98 1 3 C0.67 3.33 0.34 3.66 0 4 C-0.36760731 6.32817964 -0.70241581 8.6618385 -1 11 C-3 8 -3 8 -2.75 4.9375 C-2 2 -2 2 0 0 Z " fill="#F8F843" transform="translate(186,5)"/>
<path d="M0 0 C1.32 0 2.64 0 4 0 C4 1.65 4 3.3 4 5 C2.68 4.67 1.36 4.34 0 4 C0 2.68 0 1.36 0 0 Z " fill="#DADBDB" transform="translate(104,270)"/>
</svg>
