<?xml version="1.0" encoding="UTF-8"?>
<svg version="1.1" xmlns="http://www.w3.org/2000/svg" width="225" height="280">
<path d="M0 0 C74.25 0 148.5 0 225 0 C225 92.4 225 184.8 225 280 C150.75 280 76.5 280 0 280 C0 187.6 0 95.2 0 0 Z " fill="#FEFEFE" transform="translate(0,0)"/>
<path d="M0 0 C4.21117415 6.38468338 1.3616847 14.82536774 -0.0625 21.9375 C-0.37574219 23.11699219 -0.68898437 24.29648438 -1.01171875 25.51171875 C-2.74343825 32.29428677 -3.50660904 39.2836379 -4.47460938 46.20703125 C-7.09122594 64.07508223 -7.09122594 64.07508223 -10.88842773 67.66259766 C-13.22655522 69.03370397 -14.78786612 69.43688073 -17.46875 69.703125 C-18.29503906 69.78820312 -19.12132812 69.87328125 -19.97265625 69.9609375 C-21.25462891 70.07308594 -21.25462891 70.07308594 -22.5625 70.1875 C-23.41714844 70.27773437 -24.27179688 70.36796875 -25.15234375 70.4609375 C-32.59011648 71.18034765 -32.59011648 71.18034765 -36.0625 69.9375 C-36.3925 69.2775 -36.7225 68.6175 -37.0625 67.9375 C-38.0525 67.6075 -39.0425 67.2775 -40.0625 66.9375 C-40.30097656 67.47632812 -40.53945312 68.01515625 -40.78515625 68.5703125 C-42.4074302 71.57672845 -44.39963583 74.1173127 -46.5 76.8125 C-47.15935547 77.66134766 -47.15935547 77.66134766 -47.83203125 78.52734375 C-49.2378064 80.33420164 -50.64914167 82.13656891 -52.0625 83.9375 C-52.51898926 84.51918945 -52.97547852 85.10087891 -53.44580078 85.70019531 C-55.27990004 88.03545387 -57.11526951 90.36970422 -58.95263672 92.70239258 C-62.03375417 96.6169626 -65.09015943 100.54945419 -68.125 104.5 C-68.53073242 105.02803223 -68.93646484 105.55606445 -69.35449219 106.10009766 C-71.91394447 109.43430857 -74.46446101 112.77525958 -77.01318359 116.11767578 C-78.27726126 117.76653469 -79.55326868 119.40548575 -80.83203125 121.04296875 C-82.14221267 122.7432217 -83.42462825 124.46676437 -84.63671875 126.23828125 C-87.36918263 130.01988599 -89.52641444 131.39432181 -94.125 132.375 C-96.09877778 132.61260936 -98.07946018 132.79675193 -100.0625 132.9375 C-101.19300781 133.0303125 -102.32351562 133.123125 -103.48828125 133.21875 C-112.03742499 133.60602718 -112.03742499 133.60602718 -115.9375 131.0625 C-116.63875 130.03125 -117.34 129 -118.0625 127.9375 C-118.5884375 127.22078125 -119.114375 126.5040625 -119.65625 125.765625 C-123.36021251 120.66455382 -126.73644978 115.3612056 -130.0859375 110.0234375 C-131.60510311 107.65161767 -133.1493891 105.3094416 -134.7265625 102.9765625 C-135.41431763 101.95792114 -135.41431763 101.95792114 -136.1159668 100.91870117 C-137.0276418 99.572497 -137.94308275 98.22883435 -138.86254883 96.88793945 C-142.0625 92.15722599 -142.0625 92.15722599 -142.0625 89.9375 C-143.0525 89.9375 -144.0425 89.9375 -145.0625 89.9375 C-145.33489502 90.51927002 -145.60729004 91.10104004 -145.88793945 91.70043945 C-147.04854858 93.91092822 -148.33122841 95.75675685 -149.85546875 97.73046875 C-150.40017822 98.43937256 -150.9448877 99.14827637 -151.50610352 99.87866211 C-152.08158936 100.61995361 -152.6570752 101.36124512 -153.25 102.125 C-154.12966431 103.26304077 -154.12966431 103.26304077 -155.02709961 104.42407227 C-156.1853161 105.92219488 -157.3445477 107.41953334 -158.50488281 108.91601562 C-159.79749149 110.59357046 -161.06944648 112.2870159 -162.3359375 113.984375 C-163.22152344 115.16773438 -163.22152344 115.16773438 -164.125 116.375 C-164.61097656 117.03371094 -165.09695312 117.69242187 -165.59765625 118.37109375 C-169.56012598 122.60829472 -174.99672421 122.65698861 -180.4375 123.25 C-181.27539062 123.36150391 -182.11328125 123.47300781 -182.9765625 123.58789062 C-188.22024368 124.16914774 -191.5234035 124.01760119 -196.0625 120.9375 C-198.9564456 116.88597616 -199.56365982 113.23292801 -199.49951172 108.38037109 C-198.67037999 103.74557106 -195.6604256 100.57481717 -192.6875 97.0625 C-191.49204054 95.58605648 -190.29672219 94.10949869 -189.1015625 92.6328125 C-188.56740723 91.99359863 -188.03325195 91.35438477 -187.48291016 90.69580078 C-185.89384664 88.78350155 -185.89384664 88.78350155 -184.0625 85.9375 C-183.4025 85.9375 -182.7425 85.9375 -182.0625 85.9375 C-181.81371094 85.21433594 -181.56492188 84.49117188 -181.30859375 83.74609375 C-179.93906093 80.65927839 -178.31294799 78.56777259 -176.125 76 C-171.96371119 71.03872191 -167.93614264 65.99352839 -163.95727539 60.88500977 C-163.08919214 59.77354772 -162.21615894 58.66593155 -161.33789062 57.5625 C-160.4807594 56.47041244 -159.6461507 55.36030352 -158.83398438 54.234375 C-156.80184343 51.53133585 -155.40389807 50.05903029 -152.1875 48.9140625 C-134.77404092 46.95504835 -134.77404092 46.95504835 -129.0625 47.9375 C-127.04365249 49.99013575 -126.0625 51.02719835 -126.0625 53.9375 C-125.4025 53.9375 -124.7425 53.9375 -124.0625 53.9375 C-122.61510494 55.95100096 -121.29744074 57.95457429 -120 60.0625 C-119.19162326 61.34909471 -118.38302306 62.63554904 -117.57421875 63.921875 C-117.15962402 64.58638672 -116.7450293 65.25089844 -116.31787109 65.93554688 C-114.34582281 69.08039244 -112.32785542 72.19530333 -110.3125 75.3125 C-107.85717562 79.11178032 -105.45352193 82.93390629 -103.125 86.8125 C-102.444375 87.84375 -101.76375 88.875 -101.0625 89.9375 C-100.4025 89.9375 -99.7425 89.9375 -99.0625 89.9375 C-97.64334349 88.2183104 -96.30311434 86.4337319 -95 84.625 C-91.96208146 80.46265706 -88.85701782 76.40365941 -85.5625 72.4375 C-81.71182559 67.78071555 -78.076127 62.9969477 -74.4765625 58.14453125 C-71.27345615 53.8552831 -67.93880261 49.66839988 -64.60400391 45.48120117 C-61.02397621 40.96582184 -59.56111879 38.78459356 -60.0625 32.9375 C-61.50953094 29.95778553 -61.50953094 29.95778553 -63.5 27.1875 C-64.13808594 26.24390625 -64.77617187 25.3003125 -65.43359375 24.328125 C-65.97113281 23.53921875 -66.50867188 22.7503125 -67.0625 21.9375 C-68.46707737 19.12834526 -68.31145157 17.04939466 -68.0625 13.9375 C-66.08861482 10.19750703 -63.95453301 9.30188587 -60.0625 7.9375 C-57.88420672 7.41808175 -55.6953001 6.94205702 -53.5 6.5 C-49.1513143 5.60243845 -44.85205378 4.64554121 -40.5625 3.5 C-34.71003216 2.01516335 -28.8072595 0.86279039 -22.875 -0.25 C-21.94816406 -0.42909912 -21.02132812 -0.60819824 -20.06640625 -0.79272461 C-5.21219002 -3.51025042 -5.21219002 -3.51025042 0 0 Z " fill="#D553FD" transform="translate(208.0625,58.0625)"/>
<path d="M0 0 C1.98 0.33 3.96 0.66 6 1 C5.01 1.99 4.02 2.98 3 4 C3.99 3.67 4.98 3.34 6 3 C4.65961958 5.86272909 3.13760321 8.2931052 1.20703125 10.79296875 C0.38996704 11.85632446 0.38996704 11.85632446 -0.44360352 12.94116211 C-1.01908936 13.68245361 -1.5945752 14.42374512 -2.1875 15.1875 C-3.06716431 16.32554077 -3.06716431 16.32554077 -3.96459961 17.48657227 C-5.1228161 18.98469488 -6.2820477 20.48203334 -7.44238281 21.97851562 C-8.73499149 23.65607046 -10.00694648 25.3495159 -11.2734375 27.046875 C-11.86382812 27.83578125 -12.45421875 28.6246875 -13.0625 29.4375 C-13.54847656 30.09621094 -14.03445312 30.75492188 -14.53515625 31.43359375 C-18.53683449 35.71272168 -24.0103608 35.68696008 -29.5 36.25 C-30.78197266 36.4046875 -30.78197266 36.4046875 -32.08984375 36.5625 C-32.91613281 36.65015625 -33.74242187 36.7378125 -34.59375 36.828125 C-35.34333984 36.9096582 -36.09292969 36.99119141 -36.86523438 37.07519531 C-39.36659998 36.98708683 -40.85976902 36.25432563 -43 35 C-43 34.34 -43 33.68 -43 33 C-41.0509375 32.8453125 -41.0509375 32.8453125 -39.0625 32.6875 C-34.09839647 32.151692 -29.65751666 30.75069775 -25 29 C-25 28.01 -25 27.02 -25 26 C-21.5980513 23.90649311 -18.94727588 23.82057837 -15 24 C-15 22.68 -15 21.36 -15 20 C-12.03 19.34 -9.06 18.68 -6 18 C-6 17.01 -6 16.02 -6 15 C-5.34 15 -4.68 15 -4 15 C-4 13.68 -4 12.36 -4 11 C-3.34 11 -2.68 11 -2 11 C-2.04125 9.741875 -2.0825 8.48375 -2.125 7.1875 C-2.2390374 3.70935927 -2.05925681 3.08888522 0 0 Z " fill="#8B38B5" transform="translate(57,145)"/>
<path d="M0 0 C0 4.36058869 -2.5794124 6.73235751 -5.1875 10 C-5.91163086 10.94359375 -5.91163086 10.94359375 -6.65039062 11.90625 C-10.37306298 16.62330061 -13.47981358 19.51364823 -19.5625 20.6875 C-25.02407962 21.21164392 -30.52012599 21.08219811 -36 21 C-36 20.67 -36 20.34 -36 20 C-32.7 20 -29.4 20 -26 20 C-26 19.34 -26 18.68 -26 18 C-22.11901738 15.49353206 -19.32965279 13.83097616 -14.6875 13.5 C-13.470625 13.335 -12.25375 13.17 -11 13 C-9.53195637 11.14853436 -9.53195637 11.14853436 -9 9 C-7 7 -7 7 -5 6 C-4.34444881 3.47266765 -4.34444881 3.47266765 -4 1 C-2.68 0.67 -1.36 0.34 0 0 Z " fill="#8133A4" transform="translate(132,170)"/>
<path d="M0 0 C1.25417583 3.7625275 0.62343375 5.6807207 -0.1875 9.5625 C-1.94054613 18.2227948 -3.23531189 26.9371733 -4.46557617 35.68579102 C-7.04453374 53.24218145 -7.04453374 53.24218145 -10.95410156 56.7565918 C-13.42503931 58.25832043 -14.88592628 58.31385619 -17.75 58.1875 C-18.54921875 58.16042969 -19.3484375 58.13335937 -20.171875 58.10546875 C-20.77515625 58.07066406 -21.3784375 58.03585938 -22 58 C-19.09907498 56.06604999 -18.10325263 55.69868059 -14.8125 55.375 C-13.554375 55.25125 -12.29625 55.1275 -11 55 C-10.03929566 52.11788698 -9.89418117 50.30149956 -9.9375 47.3125 C-9.94652344 46.50425781 -9.95554688 45.69601563 -9.96484375 44.86328125 C-9.97644531 44.24839844 -9.98804688 43.63351563 -10 43 C-9.01 43 -8.02 43 -7 43 C-7.01160156 42.07316406 -7.02320313 41.14632812 -7.03515625 40.19140625 C-7.04417969 38.99386719 -7.05320313 37.79632813 -7.0625 36.5625 C-7.07410156 35.36753906 -7.08570313 34.17257813 -7.09765625 32.94140625 C-7 30 -7 30 -6 29 C-5.70490939 27.59049312 -5.46294037 26.16973895 -5.24609375 24.74609375 C-5.11396484 23.89208984 -4.98183594 23.03808594 -4.84570312 22.15820312 C-4.71099609 21.26037109 -4.57628906 20.36253906 -4.4375 19.4375 C-4.29892578 18.53580078 -4.16035156 17.63410156 -4.01757812 16.70507812 C-3.67471949 14.47058567 -3.33569977 12.2355773 -3 10 C-2.34 10 -1.68 10 -1 10 C-1.01160156 9.36191406 -1.02320313 8.72382812 -1.03515625 8.06640625 C-1.04417969 7.24011719 -1.05320313 6.41382812 -1.0625 5.5625 C-1.07410156 4.73878906 -1.08570313 3.91507812 -1.09765625 3.06640625 C-1 1 -1 1 0 0 Z " fill="#D479F0" transform="translate(208,69)"/>
<path d="M0 0 C-3.08809695 1.76462683 -4.23312136 2 -8 2 C-8.2165625 2.86625 -8.2165625 2.86625 -8.4375 3.75 C-9 6 -9 6 -9.8125 7.8125 C-10.13406341 11.56407309 -8.03536907 13.91786969 -6 17 C-5.34 17.33 -4.68 17.66 -4 18 C-0.89067146 22.78358237 0.1311619 27.41617351 -1 33 C-3.18159145 35.75569447 -4.87177494 37.43588747 -8 39 C-8.65213292 41.02463255 -8.65213292 41.02463255 -9 43 C-10.32 42.67 -11.64 42.34 -13 42 C-12.43410156 41.30132812 -11.86820313 40.60265625 -11.28515625 39.8828125 C-10.18494141 38.51769531 -10.18494141 38.51769531 -9.0625 37.125 C-8.33160156 36.22007813 -7.60070312 35.31515625 -6.84765625 34.3828125 C-4.0000573 30.7104333 -3.600916 28.65410636 -4 24 C-5.44703094 21.02028553 -5.44703094 21.02028553 -7.4375 18.25 C-8.07558594 17.30640625 -8.71367187 16.3628125 -9.37109375 15.390625 C-9.90863281 14.60171875 -10.44617188 13.8128125 -11 13 C-12.40457737 10.19084526 -12.24895157 8.11189466 -12 5 C-10.52284679 2.20118338 -9.35055987 1.188763 -6.5625 -0.3125 C-3.8650399 -1.03620881 -2.58258228 -0.95651196 0 0 Z " fill="#D374EE" transform="translate(152,67)"/>
<path d="M0 0 C0.99 0.66 1.98 1.32 3 2 C2.44570313 2.68707031 1.89140625 3.37414062 1.3203125 4.08203125 C0.59585937 4.98308594 -0.12859375 5.88414062 -0.875 6.8125 C-1.59429687 7.70582031 -2.31359375 8.59914062 -3.0546875 9.51953125 C-7.06421582 14.63208243 -7.69299253 17.65478711 -7 24 C-5.80247145 27.46653001 -5.12815329 29.36225663 -1.90625 31.18359375 C1.91308083 32.25649717 5.4159667 31.97321567 9.3125 31.625 C10.05306641 31.56828125 10.79363281 31.5115625 11.55664062 31.453125 C13.37193743 31.31258589 15.18611597 31.15772905 17 31 C16.67 31.99 16.34 32.98 16 34 C2.06474965 35.71868088 2.06474965 35.71868088 -4 33 C-7.46088852 29.66297486 -9.78400491 26.25107387 -10.25 21.39453125 C-9.88575485 16.37857198 -8.62621644 12.3389663 -6 8 C-5.01 8 -4.02 8 -3 8 C-2.87625 7.4225 -2.7525 6.845 -2.625 6.25 C-1.99351176 3.97664233 -1.11141809 2.0746471 0 0 Z " fill="#F9D3FD" transform="translate(17,149)"/>
<path d="M0 0 C0 3.70103827 -1.3608576 5.72171521 -3 9 C-3 9.99 -3 10.98 -3 12 C-3.66 12 -4.32 12 -5 12 C-5.268125 12.598125 -5.53625 13.19625 -5.8125 13.8125 C-6.99849039 15.99721913 -8.22056482 17.29470795 -10 19 C-10.66 19.99 -11.32 20.98 -12 22 C-12.99 22 -13.98 22 -15 22 C-15 22.66 -15 23.32 -15 24 C-15.99 24 -16.98 24 -18 24 C-16.43903552 20.45685841 -14.29328459 17.77150812 -11.8125 14.8125 C-7.77297327 9.94938045 -3.85016743 5.01388363 0 0 Z " fill="#D362F1" transform="translate(131,120)"/>
<path d="M0 0 C0 0.66 0 1.32 0 2 C-12.375 2.99 -12.375 2.99 -25 4 C-25 4.66 -25 5.32 -25 6 C-25.99 6.495 -25.99 6.495 -27 7 C-27.33 7.99 -27.66 8.98 -28 10 C-30.0625 11.6875 -30.0625 11.6875 -32 13 C-32.66 12.67 -33.32 12.34 -34 12 C-32.92646259 10.5344405 -31.8407446 9.07779848 -30.75 7.625 C-30.14671875 6.81289062 -29.5434375 6.00078125 -28.921875 5.1640625 C-25.15891863 0.92691244 -21.35540772 0.61296075 -15.94921875 0.15234375 C-10.63366278 -0.12223464 -5.32058896 -0.07505533 0 0 Z " fill="#D472F3" transform="translate(79,106)"/>
<path d="M0 0 C0 3 0 3 -1.4375 5.0625 C-7.37053187 9.54845093 -14.85224867 9.22691274 -22 9 C-22 8.67 -22 8.34 -22 8 C-18.535 7.505 -18.535 7.505 -15 7 C-15 6.34 -15 5.68 -15 5 C-14.33613281 4.80664062 -13.67226563 4.61328125 -12.98828125 4.4140625 C-6.40210691 2.47248648 -6.40210691 2.47248648 0 0 Z " fill="#310F45" transform="translate(43,172)"/>
<path d="M0 0 C2.97 0.495 2.97 0.495 6 1 C4.515 2.485 4.515 2.485 3 4 C3.99 3.67 4.98 3.34 6 3 C4.59808647 5.99254618 2.96632511 8.5954611 1 11.25 C0.484375 11.95640625 -0.03125 12.6628125 -0.5625 13.390625 C-1.2740625 14.18726563 -1.2740625 14.18726563 -2 15 C-2.66 15 -3.32 15 -4 15 C-4 13.68 -4 12.36 -4 11 C-3.34 11 -2.68 11 -2 11 C-2.061875 9.1128125 -2.061875 9.1128125 -2.125 7.1875 C-2.2390374 3.70935927 -2.05925681 3.08888522 0 0 Z " fill="#B651E2" transform="translate(57,145)"/>
<path d="M0 0 C0.33 1.32 0.66 2.64 1 4 C0.34 4 -0.32 4 -1 4 C-1.2475 4.53625 -1.495 5.0725 -1.75 5.625 C-3.9021772 9.71413669 -5.95993004 13.18280218 -9.625 16.0625 C-12.18539916 17.8294019 -12.18539916 17.8294019 -13.0625 20.6875 C-13.371875 21.450625 -13.68125 22.21375 -14 23 C-16.125 23.8125 -16.125 23.8125 -18 24 C-16.24363556 19.8710029 -13.46503188 16.59968132 -10.6875 13.125 C-10.21376953 12.52558594 -9.74003906 11.92617187 -9.25195312 11.30859375 C-6.22469444 7.49035502 -3.13282608 3.73200047 0 0 Z " fill="#F5DEFA" transform="translate(59,154)"/>
<path d="M0 0 C0.76570313 0.81855469 1.53140625 1.63710937 2.3203125 2.48046875 C6.72921839 6.15455699 11.39593065 5.55378693 16.875 5.3125 C17.84953125 5.28994141 18.8240625 5.26738281 19.828125 5.24414062 C22.22035515 5.18550753 24.6093615 5.10351153 27 5 C23.00085555 8.35874767 19.69341941 8.45337762 14.625 8.375 C13.8825 8.38660156 13.14 8.39820313 12.375 8.41015625 C7.51611382 8.38440244 4.26175472 7.55705283 0 5 C0 3.35 0 1.7 0 0 Z " fill="#EDDBF6" transform="translate(89,185)"/>
<path d="M0 0 C0.99 0.33 1.98 0.66 3 1 C1.29055213 4.91828502 -1.26881345 8.14918873 -3.875 11.5 C-4.30941406 12.06847656 -4.74382812 12.63695312 -5.19140625 13.22265625 C-7.6170273 16.36212373 -10.12164739 19.26891194 -13 22 C-12.67 20.02 -12.34 18.04 -12 16 C-11.34 16 -10.68 16 -10 16 C-9.34 14.35 -8.68 12.7 -8 11 C-7.34 11 -6.68 11 -6 11 C-5.34 9.68 -4.68 8.36 -4 7 C-3.34 7 -2.68 7 -2 7 C-2 6.01 -2 5.02 -2 4 C-1.34 4 -0.68 4 0 4 C0 2.68 0 1.36 0 0 Z " fill="#C16BE4" transform="translate(165,124)"/>
<path d="M0 0 C0.66 0 1.32 0 2 0 C2.33 1.98 2.66 3.96 3 6 C-0.37097383 7.49821059 -2.20442119 8 -6 8 C-6 9.32 -6 10.64 -6 12 C-8.64 12.33 -11.28 12.66 -14 13 C-13 12 -12 11 -11 10 C-10.484375 9.443125 -9.96875 8.88625 -9.4375 8.3125 C-8 7 -8 7 -6 7 C-6 6.34 -6 5.68 -6 5 C-5.01 5.33 -4.02 5.66 -3 6 C-2.01 4.02 -1.02 2.04 0 0 Z " fill="#B740EE" transform="translate(48,157)"/>
<path d="M0 0 C1.26620783 3.7986235 0.47929313 6.63343109 -0.3125 10.4375 C-0.60167452 11.87732088 -0.88942145 13.31742917 -1.17578125 14.7578125 C-1.31838379 15.47227539 -1.46098633 16.18673828 -1.60791016 16.92285156 C-2.3410743 20.80688678 -2.85624934 24.72688302 -3.375 28.64453125 C-4.07175486 31.27042612 -4.92304314 32.30118474 -7 34 C-6.86722656 33.37738281 -6.73445312 32.75476563 -6.59765625 32.11328125 C-5.77357699 27.8205285 -5.11057766 23.50614664 -4.4375 19.1875 C-4.29892578 18.30384766 -4.16035156 17.42019531 -4.01757812 16.50976562 C-3.67745086 14.33998826 -3.33828699 12.17006491 -3 10 C-2.34 10 -1.68 10 -1 10 C-1.01160156 9.36191406 -1.02320313 8.72382812 -1.03515625 8.06640625 C-1.04417969 7.24011719 -1.05320313 6.41382812 -1.0625 5.5625 C-1.07410156 4.73878906 -1.08570313 3.91507812 -1.09765625 3.06640625 C-1 1 -1 1 0 0 Z " fill="#D16AF0" transform="translate(208,69)"/>
<path d="M0 0 C-5.74297077 3.17374701 -12.35613349 6 -19 6 C-19 5.01 -19 4.02 -19 3 C-16.586238 2.30048937 -14.16989766 1.61516081 -11.75 0.9375 C-11.06808594 0.73833984 -10.38617188 0.53917969 -9.68359375 0.33398438 C-3.41657839 -1.40009269 -3.41657839 -1.40009269 0 0 Z " fill="#D66EF4" transform="translate(174,62)"/>
<path d="M0 0 C0 0.66 0 1.32 0 2 C-1.32 2.33 -2.64 2.66 -4 3 C-4 3.66 -4 4.32 -4 5 C-5.99541868 5.68025637 -7.99617991 6.34490497 -10 7 C-10.70125 7.2475 -11.4025 7.495 -12.125 7.75 C-14.61665562 8.08222075 -15.89183571 7.27995689 -18 6 C-18 5.34 -18 4.68 -18 4 C-17.14728516 3.94392578 -17.14728516 3.94392578 -16.27734375 3.88671875 C-10.75149527 3.41623749 -5.13169102 0 0 0 Z " fill="#B14AD3" transform="translate(32,174)"/>
<path d="M0 0 C0 0.99 0 1.98 0 3 C-14.97043203 6.76922684 -14.97043203 6.76922684 -23 5 C-23.33 4.34 -23.66 3.68 -24 3 C-22.74896484 2.90912109 -22.74896484 2.90912109 -21.47265625 2.81640625 C-10.43493755 2.65626747 -10.43493755 2.65626747 0 0 Z " fill="#F8D3FD" transform="translate(197,125)"/>
<path d="M0 0 C0.94875 0.04125 1.8975 0.0825 2.875 0.125 C2.875 3.125 2.875 3.125 1.875 6.125 C5.835 6.125 9.795 6.125 13.875 6.125 C13.875 6.455 13.875 6.785 13.875 7.125 C12.29273035 7.32127391 10.70910729 7.50665538 9.125 7.6875 C8.24328125 7.79191406 7.3615625 7.89632812 6.453125 8.00390625 C3.96036537 8.12099041 2.20374167 8.00090058 -0.125 7.125 C-0.455 6.465 -0.785 5.805 -1.125 5.125 C-2.775 5.125 -4.425 5.125 -6.125 5.125 C-4.7964923 1.13947691 -4.27916485 0.17116659 0 0 Z " fill="#D469F2" transform="translate(172.125,120.875)"/>
<path d="M0 0 C0 0.66 0 1.32 0 2 C-0.69867188 2.19335938 -1.39734375 2.38671875 -2.1171875 2.5859375 C-3.48230469 2.97652344 -3.48230469 2.97652344 -4.875 3.375 C-5.77992187 3.63023437 -6.68484375 3.88546875 -7.6171875 4.1484375 C-10.14569726 4.8604315 -10.14569726 4.8604315 -12 7 C-12.99 7 -13.98 7 -15 7 C-15 7.66 -15 8.32 -15 9 C-16.32 8.67 -17.64 8.34 -19 8 C-13.49267643 4.11984021 -13.49267643 4.11984021 -10.6875 3.4375 C-10.130625 3.293125 -9.57375 3.14875 -9 3 C-8.67 2.01 -8.34 1.02 -8 0 C-5.04215769 -1.22393475 -3.00272755 -0.96516243 0 0 Z " fill="#B13EE8" transform="translate(121,181)"/>
<path d="M0 0 C0.33 0.66 0.66 1.32 1 2 C0.109375 4.05859375 0.109375 4.05859375 -1.25 6.4375 C-1.68828125 7.21996094 -2.1265625 8.00242187 -2.578125 8.80859375 C-3.89765653 10.84226735 -5.26469657 12.3280644 -7 14 C-7.33 14.66 -7.66 15.32 -8 16 C-8.66 16 -9.32 16 -10 16 C-10.33 16.99 -10.66 17.98 -11 19 C-11.99 18.67 -12.98 18.34 -14 18 C-12.41727985 15.93702698 -10.83384324 13.87461051 -9.25 11.8125 C-8.8065625 11.23435547 -8.363125 10.65621094 -7.90625 10.06054688 C-5.30669974 6.67730867 -2.67770532 3.32210637 0 0 Z " fill="#D675F3" transform="translate(44,119)"/>
<path d="M0 0 C3.0625 2.0625 3.0625 2.0625 5 5 C5.3125 8.8125 5.3125 8.8125 5 12 C4.67 12 4.34 12 4 12 C3.79375 10.88625 3.5875 9.7725 3.375 8.625 C2.39748383 4.85234294 2.39748383 4.85234294 -0.5625 3.625 C-4.69721537 2.87323357 -8.81342011 2.35353341 -13 2 C-8.68818748 -0.43456081 -4.86642916 -0.83127616 0 0 Z " fill="#D579F4" transform="translate(205,56)"/>
<path d="M0 0 C0 3 0 3 -1.19140625 4.61328125 C-7.5316266 9.47457331 -18.45273353 8.2370869 -26 8 C-26 7.67 -26 7.34 -26 7 C-22.7 7 -19.4 7 -16 7 C-16 6.34 -16 5.68 -16 5 C-14.77023438 4.96132812 -14.77023438 4.96132812 -13.515625 4.921875 C-11.89914063 4.83679688 -11.89914063 4.83679688 -10.25 4.75 C-8.64898437 4.68039063 -8.64898437 4.68039063 -7.015625 4.609375 C-3.47594492 3.89410286 -2.26118038 2.74415095 0 0 Z " fill="#3D1553" transform="translate(122,183)"/>
<path d="M0 0 C0.33 0 0.66 0 1 0 C0.91256271 2.87638518 0.8056265 5.74984562 0.6875 8.625 C0.66494141 9.43324219 0.64238281 10.24148437 0.61914062 11.07421875 C0.39493145 16.08835125 -0.34461865 19.60046736 -3 24 C-4.04318738 20.76319429 -3.92287835 18.54451583 -3.22265625 15.234375 C-2.94711914 13.90019531 -2.94711914 13.90019531 -2.66601562 12.5390625 C-2.46685547 11.61867188 -2.26769531 10.69828125 -2.0625 9.75 C-1.86720703 8.81414062 -1.67191406 7.87828125 -1.47070312 6.9140625 C-0.98823295 4.60761973 -0.49775423 2.303184 0 0 Z " fill="#F8CEFD" transform="translate(209,68)"/>
<path d="M0 0 C0.66 0.33 1.32 0.66 2 1 C2.47217414 6.23261836 1.35423034 8.61898601 -1.8125 12.75 C-2.87404297 14.16539063 -2.87404297 14.16539063 -3.95703125 15.609375 C-6 18 -6 18 -9 20 C-8.49935858 15.66110771 -5.78273829 13.18996829 -3 10 C-0.70366176 6.55549263 -0.45983515 4.06187717 0 0 Z " fill="#FDD9FE" transform="translate(147,90)"/>
<path d="M0 0 C-0.33 0.99 -0.66 1.98 -1 3 C-13.66970387 4.33257403 -13.66970387 4.33257403 -19 3 C-19 2.67 -19 2.34 -19 2 C-16.58374679 1.66340751 -14.16707192 1.33061612 -11.75 1 C-10.72712891 0.85691406 -10.72712891 0.85691406 -9.68359375 0.7109375 C-6.40628012 0.2654774 -3.31615847 0 0 0 Z " fill="#EADCF0" transform="translate(34,180)"/>
<path d="M0 0 C0.33 0 0.66 0 1 0 C1.78512397 8.00826446 1.78512397 8.00826446 -1.375 12 C-4 14 -4 14 -6 15 C-6.65213292 17.02463255 -6.65213292 17.02463255 -7 19 C-8.32 18.67 -9.64 18.34 -11 18 C-5.50416351 11.31339894 -5.50416351 11.31339894 -2.6875 9.5625 C0.14029722 6.94416924 -0.24515192 3.73856682 0 0 Z " fill="#D362F9" transform="translate(150,91)"/>
<path d="M0 0 C0.66 0 1.32 0 2 0 C1.44889998 3.85770014 -0.26310969 5.34360647 -3 8 C-3.53625 8.9075 -4.0725 9.815 -4.625 10.75 C-5.07875 11.4925 -5.5325 12.235 -6 13 C-6.66 13 -7.32 13 -8 13 C-8.33 13.99 -8.66 14.98 -9 16 C-9.66 15.67 -10.32 15.34 -11 15 C-9.21885509 12.49234716 -7.42340948 9.99529316 -5.625 7.5 C-5.11710937 6.78457031 -4.60921875 6.06914062 -4.0859375 5.33203125 C-3.59609375 4.65527344 -3.10625 3.97851562 -2.6015625 3.28125 C-2.15119629 2.65283203 -1.70083008 2.02441406 -1.23681641 1.37695312 C-0.82866699 0.92255859 -0.42051758 0.46816406 0 0 Z " fill="#D277F2" transform="translate(24,144)"/>
<path d="M0 0 C0.33 0 0.66 0 1 0 C1 2.64 1 5.28 1 8 C0.34 8 -0.32 8 -1 8 C-1 9.32 -1 10.64 -1 12 C-1.99 12 -2.98 12 -4 12 C-3.74438677 9.6568787 -3.40729228 7.32156597 -3 5 C-2.34 4.67 -1.68 4.34 -1 4 C-0.34786708 1.97536745 -0.34786708 1.97536745 0 0 Z " fill="#C053F5" transform="translate(54,148)"/>
<path d="M0 0 C1.31223496 3.93670488 0.24296256 6.12488144 -1 10 C-1.99 10 -2.98 10 -4 10 C-2.99806563 6.20696275 -2.18975773 3.28463659 0 0 Z M-6 10 C-5.34 10.33 -4.68 10.66 -4 11 C-4.99 11.66 -5.98 12.32 -7 13 C-6.67 12.01 -6.34 11.02 -6 10 Z " fill="#D35FF4" transform="translate(29,138)"/>
<path d="M0 0 C1.70840281 1.63412443 2.93453047 2.86906094 4 5 C6.24362573 5.2284549 6.24362573 5.2284549 8.125 3 C9.053125 2.01 9.053125 2.01 10 1 C9.125 5.75 9.125 5.75 8 8 C6.02 7.34 4.04 6.68 2 6 C2 5.34 2 4.68 2 4 C1.34 4 0.68 4 0 4 C0 2.68 0 1.36 0 0 Z " fill="#CA60EC" transform="translate(103,143)"/>
<path d="M0 0 C0.99 0.66 1.98 1.32 3 2 C3 2.66 3 3.32 3 4 C3.66 4 4.32 4 5 4 C6.6875 6.375 6.6875 6.375 8 9 C7.67 9.66 7.34 10.32 7 11 C6.67 10.01 6.34 9.02 6 8 C5.34 8 4.68 8 4 8 C4 7.34 4 6.68 4 6 C3.01 6.33 2.02 6.66 1 7 C1 6.01 1 5.02 1 4 C0.01 3.67 -0.98 3.34 -2 3 C-1.34 2.01 -0.68 1.02 0 0 Z " fill="#C955F3" transform="translate(79,108)"/>
<path d="M0 0 C0 3.60573896 -0.81707462 4.41336566 -3 7.1875 C-3.556875 7.90292969 -4.11375 8.61835938 -4.6875 9.35546875 C-5.120625 9.89816406 -5.55375 10.44085938 -6 11 C-6.99 10.34 -7.98 9.68 -9 9 C-7 7 -7 7 -5 6 C-4.34444881 3.47266765 -4.34444881 3.47266765 -4 1 C-2.68 0.67 -1.36 0.34 0 0 Z " fill="#A254C4" transform="translate(132,170)"/>
<path d="M0 0 C0.66 0 1.32 0 2 0 C2.33 1.98 2.66 3.96 3 6 C0.69 6.66 -1.62 7.32 -4 8 C-2.68 5.36 -1.36 2.72 0 0 Z " fill="#B34AE5" transform="translate(48,157)"/>
<path d="M0 0 C3.67758005 3.28355362 5.81389118 6.62778237 8 11 C7.67 11.66 7.34 12.32 7 13 C6.34 12.01 5.68 11.02 5 10 C4.01 9.67 3.02 9.34 2 9 C2 7.35 2 5.7 2 4 C1.34 4 0.68 4 0 4 C0 2.68 0 1.36 0 0 Z " fill="#CC62EB" transform="translate(90,123)"/>
<path d="M0 0 C0.66 0.33 1.32 0.66 2 1 C-0.87164566 3.70272533 -2.30991841 4.94791837 -6.3125 5.25 C-7.199375 5.1675 -8.08625 5.085 -9 5 C-8.67 4.34 -8.34 3.68 -8 3 C-7.34 3 -6.68 3 -6 3 C-6 2.34 -6 1.68 -6 1 C-4.7934375 1.0309375 -4.7934375 1.0309375 -3.5625 1.0625 C-1.06645115 1.29633621 -1.06645115 1.29633621 0 0 Z " fill="#C83FFB" transform="translate(106,184)"/>
<path d="M0 0 C-3.22515763 1.73662334 -6.51329166 2.8905928 -10 4 C-10 3.01 -10 2.02 -10 1 C-6.42181037 -1.33958553 -4.07775191 -0.9267618 0 0 Z " fill="#A032D1" transform="translate(42,170)"/>
<path d="M0 0 C0.33 1.32 0.66 2.64 1 4 C0.34 4 -0.32 4 -1 4 C-1.28875 4.5775 -1.5775 5.155 -1.875 5.75 C-2.91666667 7.83333333 -3.95833333 9.91666667 -5 12 C-5.66 11.67 -6.32 11.34 -7 11 C-6.40361667 9.72549553 -5.79752584 8.45553123 -5.1875 7.1875 C-4.85105469 6.47980469 -4.51460937 5.77210938 -4.16796875 5.04296875 C-2.99354529 2.98870965 -1.74371984 1.58383722 0 0 Z " fill="#F9E7FC" transform="translate(59,154)"/>
<path d="M0 0 C0.75 1.6875 0.75 1.6875 1 4 C-1.9393797 8.68123434 -1.9393797 8.68123434 -5.14453125 9.64453125 C-5.75683594 9.76183594 -6.36914062 9.87914062 -7 10 C-6.02223933 8.51990357 -5.0427506 7.04094856 -4.0625 5.5625 C-3.51722656 4.73878906 -2.97195312 3.91507813 -2.41015625 3.06640625 C-1 1 -1 1 0 0 Z " fill="#F8DAFE" transform="translate(163,132)"/>
<path d="M0 0 C1.32 0.33 2.64 0.66 4 1 C4 1.66 4 2.32 4 3 C1.36107824 4.78305524 -0.97178863 5.99059621 -4 7 C-2.79618552 4.50638429 -1.54571278 2.31856917 0 0 Z " fill="#F9D9FD" transform="translate(168,125)"/>
<path d="M0 0 C-2.26969744 2.26969744 -3.97395487 2.99131829 -7 4 C-8.32 4 -9.64 4 -11 4 C-11 3.34 -11 2.68 -11 2 C-7.17010894 0.19769832 -4.21878192 -0.19622241 0 0 Z " fill="#662388" transform="translate(39,175)"/>
<path d="M0 0 C4.95 0 9.9 0 15 0 C15 0.99 15 1.98 15 3 C14.01 2.67 13.02 2.34 12 2 C9.93854893 1.931009 7.87498599 1.91532273 5.8125 1.9375 C4.72582031 1.94652344 3.63914063 1.95554688 2.51953125 1.96484375 C1.68808594 1.97644531 0.85664063 1.98804688 0 2 C0 1.34 0 0.68 0 0 Z " fill="#FDE6FE" transform="translate(193,55)"/>
<path d="M0 0 C0.99 0 1.98 0 3 0 C1.44499019 3.81684226 -1.03595495 6.19195732 -4 9 C-4 7.68 -4 6.36 -4 5 C-3.01 5 -2.02 5 -1 5 C-0.67 3.35 -0.34 1.7 0 0 Z " fill="#B257D3" transform="translate(137,161)"/>
<path d="M0 0 C0 4.38968456 -2.12805101 5.76905739 -5 9 C-5.33 7.68 -5.66 6.36 -6 5 C-5.01 4.67 -4.02 4.34 -3 4 C-2.67 3.01 -2.34 2.02 -2 1 C-1.34 0.67 -0.68 0.34 0 0 Z " fill="#9A50B4" transform="translate(62,148)"/>
<path d="M0 0 C0.66 0.33 1.32 0.66 2 1 C1.34 2.32 0.68 3.64 0 5 C-0.66 5 -1.32 5 -2 5 C-2.33 5.99 -2.66 6.98 -3 8 C-3.99 7.67 -4.98 7.34 -6 7 C-4.02 4.69 -2.04 2.38 0 0 Z " fill="#CB68F0" transform="translate(36,130)"/>
<path d="M0 0 C0.99 0.33 1.98 0.66 3 1 C-0.625 4 -0.625 4 -4 4 C-4 4.66 -4 5.32 -4 6 C-5.32 5.67 -6.64 5.34 -8 5 C-2.25 1.125 -2.25 1.125 0 0 Z " fill="#A739D8" transform="translate(110,184)"/>
<path d="M0 0 C0 0.66 0 1.32 0 2 C-1.32 2.33 -2.64 2.66 -4 3 C-4 3.66 -4 4.32 -4 5 C-5.65 5.33 -7.3 5.66 -9 6 C-9 5.01 -9 4.02 -9 3 C-2.25 0 -2.25 0 0 0 Z " fill="#9E35CD" transform="translate(32,174)"/>
<path d="M0 0 C0.99 0.33 1.98 0.66 3 1 C1.69593116 3.01920337 0.36176581 5.01924973 -1 7 C-1.33 7 -1.66 7 -2 7 C-2 5.02 -2 3.04 -2 1 C-1.34 0.67 -0.68 0.34 0 0 Z " fill="#BA5BDB" transform="translate(142,154)"/>
<path d="M0 0 C0.6875 1.8125 0.6875 1.8125 1 4 C-0.4375 5.75 -0.4375 5.75 -2 7 C-2.66 6.67 -3.32 6.34 -4 6 C-3.6875 4.125 -3.6875 4.125 -3 2 C-2.01 1.34 -1.02 0.68 0 0 Z " fill="#CF5BFA" transform="translate(167,116)"/>
<path d="M0 0 C0.33 1.32 0.66 2.64 1 4 C-0.75 5.5625 -0.75 5.5625 -3 7 C-5.25 6.6875 -5.25 6.6875 -7 6 C-6.01 6 -5.02 6 -4 6 C-3.67 5.01 -3.34 4.02 -3 3 C-2.34 3 -1.68 3 -1 3 C-0.67 2.01 -0.34 1.02 0 0 Z " fill="#D345FD" transform="translate(103,157)"/>
<path d="M0 0 C0.99 0.33 1.98 0.66 3 1 C0.03 4.96 0.03 4.96 -3 9 C-3.33 7.68 -3.66 6.36 -4 5 C-2.0625 2.25 -2.0625 2.25 0 0 Z " fill="#FEE2FF" transform="translate(116,135)"/>
<path d="M0 0 C0.66 0.33 1.32 0.66 2 1 C-0.475 4.465 -0.475 4.465 -3 8 C-4 4 -4 4 -3 2 C-2.01 2 -1.02 2 0 2 C0 1.34 0 0.68 0 0 Z " fill="#FAD3FE" transform="translate(127,122)"/>
<path d="M0 0 C0.99 0.33 1.98 0.66 3 1 C0.69 3.64 -1.62 6.28 -4 9 C-4.33 8.01 -4.66 7.02 -5 6 C-4.01 5.67 -3.02 5.34 -2 5 C-0.78130071 2.49552484 -0.78130071 2.49552484 0 0 Z " fill="#FDDAFF" transform="translate(44,116)"/>
<path d="M0 0 C3 1 3 1 4.6875 3.875 C6 7 6 7 6 10 C3.25722422 6.80009492 1.3697164 3.99500618 0 0 Z " fill="#CC72ED" transform="translate(85,177)"/>
<path d="M0 0 C0.66 0.33 1.32 0.66 2 1 C0.75 3.9375 0.75 3.9375 -1 7 C-3.1875 7.875 -3.1875 7.875 -5 8 C-3.62845496 5.04590299 -2.01136276 2.55991624 0 0 Z " fill="#EED9F3" transform="translate(46,170)"/>
<path d="M0 0 C2.31 1.98 4.62 3.96 7 6 C6.01 6.495 6.01 6.495 5 7 C2.375 6.0625 2.375 6.0625 0 5 C0 3.35 0 1.7 0 0 Z " fill="#F8D7FD" transform="translate(89,185)"/>
<path d="M0 0 C1.98 0 3.96 0 6 0 C5.34 1.32 4.68 2.64 4 4 C3.01 4 2.02 4 1 4 C0.67 2.68 0.34 1.36 0 0 Z " fill="#893CAF" transform="translate(43,166)"/>
<path d="M0 0 C0.66 0 1.32 0 2 0 C1.34 1.65 0.68 3.3 0 5 C-0.66 5 -1.32 5 -2 5 C-2.33 5.99 -2.66 6.98 -3 8 C-3.66 7.67 -4.32 7.34 -5 7 C-4.21654285 5.82780457 -3.42297164 4.66236332 -2.625 3.5 C-2.18414062 2.8503125 -1.74328125 2.200625 -1.2890625 1.53125 C-0.65097656 0.77328125 -0.65097656 0.77328125 0 0 Z " fill="#D06AEF" transform="translate(18,152)"/>
<path d="M0 0 C0.99 0 1.98 0 3 0 C3.33 0.99 3.66 1.98 4 3 C2.68 4.32 1.36 5.64 0 7 C0 4.69 0 2.38 0 0 Z " fill="#BE5BE2" transform="translate(145,148)"/>
<path d="M0 0 C0.99 0 1.98 0 3 0 C5.125 4.625 5.125 4.625 4 8 C0 2.25 0 2.25 0 0 Z " fill="#FCDAFE" transform="translate(86,115)"/>
<path d="M0 0 C0 3.20395416 -0.74335022 5.09399739 -2 8 C-3.32 7.67 -4.64 7.34 -6 7 C-4.02 4.69 -2.04 2.38 0 0 Z " fill="#D272EF" transform="translate(145,102)"/>
<path d="M0 0 C1.65 0 3.3 0 5 0 C4.67 0.99 4.34 1.98 4 3 C1.4375 4.1875 1.4375 4.1875 -1 5 C-0.67 3.35 -0.34 1.7 0 0 Z " fill="#D965FC" transform="translate(147,80)"/>
</svg>
